<?xml version="1.0" encoding="UTF-8" standalone="no"?>
<!-- Created with Inkscape (http://www.inkscape.org/) -->

<svg
   xmlns:dc="http://purl.org/dc/elements/1.1/"
   xmlns:cc="http://creativecommons.org/ns#"
   xmlns:rdf="http://www.w3.org/1999/02/22-rdf-syntax-ns#"
   xmlns:svg="http://www.w3.org/2000/svg"
   xmlns="http://www.w3.org/2000/svg"
   xmlns:sodipodi="http://sodipodi.sourceforge.net/DTD/sodipodi-0.dtd"
   xmlns:inkscape="http://www.inkscape.org/namespaces/inkscape"
   version="1.1"
   id="svg869"
   width="314.80002mm"
   height="314.80002mm"
   viewBox="0 0 1189.7952 1189.7953"
   sodipodi:docname="Blason_Saint_Gerard_1.svg"
   inkscape:version="0.92.3 (2405546, 2018-03-11)">
  <metadata
     id="metadata875">
    <rdf:RDF>
      <cc:Work
         rdf:about="">
        <dc:format>image/svg+xml</dc:format>
        <dc:type
           rdf:resource="http://purl.org/dc/dcmitype/StillImage" />
        <dc:title></dc:title>
      </cc:Work>
    </rdf:RDF>
  </metadata>
  <defs
     id="defs873" />
  <sodipodi:namedview
     pagecolor="#ffffff"
     bordercolor="#666666"
     borderopacity="1"
     objecttolerance="10"
     gridtolerance="10"
     guidetolerance="10"
     inkscape:pageopacity="0"
     inkscape:pageshadow="2"
     inkscape:window-width="1613"
     inkscape:window-height="995"
     id="namedview871"
     showgrid="false"
     fit-margin-top="5"
     fit-margin-left="5"
     units="mm"
     fit-margin-bottom="5"
     fit-margin-right="5"
     inkscape:zoom="0.27392578"
     inkscape:cx="-52.407174"
     inkscape:cy="271.9871"
     inkscape:window-x="131"
     inkscape:window-y="27"
     inkscape:window-maximized="1"
     inkscape:current-layer="svg869" />
  <path
     style="opacity:1;fill:#00ff00;fill-opacity:1;fill-rule:nonzero;stroke:none;stroke-width:2.01222706;stroke-linejoin:miter;stroke-miterlimit:4;stroke-dasharray:none;stroke-opacity:1"
     d="M 1169.8915,594.89764 A 574.9939,574.9939 0 0 1 594.89764,1169.8915 574.9939,574.9939 0 0 1 19.903748,594.89764 574.9939,574.9939 0 0 1 594.89764,19.903748 574.9939,574.9939 0 0 1 1169.8915,594.89764 Z"
     id="path881" />
  <path
     style="fill:#000000;stroke-width:1.2078501"
     d="m 922.83499,993.65561 c -3.13449,-2.69618 -3.41722,-3.67102 -3.76591,-12.9844 -0.20728,-5.53814 0.43428,-15.75366 1.4258,-22.70112 0.99149,-6.94746 1.58093,-12.99063 1.30984,-13.42924 -0.27106,-0.43863 -3.7674,-1.16797 -7.76964,-1.62077 -11.57922,-1.31003 -24.92482,-5.23606 -39.77493,-11.70106 l -13.78181,-5.9999 -16.41446,10.7998 c -36.55849,24.05348 -64.15264,36.28652 -104.81601,46.46707 -32.92019,8.24197 -52.97514,10.46107 -94.54031,10.46107 -60.60948,0 -94.19617,-5.0568 -142.57375,-21.46592 -24.47268,-8.30084 -37.57363,-13.61685 -59.17174,-24.01022 l -18.70881,-9.00295 -10.48255,4.98156 c -14.18632,6.74169 -26.95605,8.92746 -46.9161,8.03048 -17.35315,-0.77981 -24.82835,-2.55276 -35.10852,-8.32688 l -7.32243,-4.11285 -12.80713,6.41995 c -18.46654,9.25687 -25.75634,8.81584 -26.05091,-1.57609 -0.10328,-3.64629 0.6038,-5.05243 3.94284,-7.83997 l 4.06877,-3.39675 -3.5201,-1.33836 c -6.0475,-2.29924 -7.75363,-4.66366 -7.73422,-10.71824 0.0303,-9.44998 1.76813,-11.38492 11.48826,-12.79154 7.36995,-1.06652 8.3877,-1.52075 8.13748,-3.63193 -0.81759,-6.89794 -0.44665,-12.50636 0.97806,-14.78767 4.57347,-7.32335 18.50489,-6.70042 21.68188,0.96949 2.37174,5.7259 4.80704,7.02664 13.88874,7.41826 l 8.42775,0.36341 v 9.93534 c 0,8.99294 0.28643,10.21973 3.01962,12.93358 5.70705,5.66658 27.29876,8.68865 38.95317,5.45205 8.18425,-2.27289 7.0027,-3.65405 -20.83541,-24.35503 -21.66883,-16.11336 -38.98488,-30.81 -61.73346,-52.39498 -17.92419,-17.00736 -26.7154,-24.35132 -31.18382,-26.05022 -2.21461,-0.84199 -4.75174,-0.46489 -9.94894,1.47873 -5.43356,2.03201 -8.9207,2.51057 -15.76912,2.16407 -9.41521,-0.47637 -14.63864,-2.83704 -24.25725,-10.96276 -4.01224,-3.38952 -5.779,-3.98266 -13.95615,-4.68537 -14.98083,-1.28742 -23.75131,-6.76759 -30.31706,-18.94341 -3.15624,-5.85308 -4.07416,-6.47669 -20.76783,-14.10924 -6.40677,-2.92927 -7.13533,-3.71468 -11.84732,-12.77173 -5.35149,-10.28624 -7.73814,-12.51506 -14.70682,-13.73435 -8.55819,-1.49738 -20.36859,-15.33944 -20.36859,-23.87243 0,-3.82467 -4.3736,-10.41703 -12.81608,-19.31778 -7.233258,-7.62589 -8.210278,-9.5964 -9.424128,-19.00754 -1.06184,-8.2324 -3.17474,-12.30576 -10.35997,-19.97255 -7.23583,-7.7207 -8.9819,-12.96675 -8.11796,-24.39004 1.19654,-15.82102 9.77234,-27.02678 20.66527,-27.00271 6.22279,0.0141 22.982398,3.80395 58.718078,13.27911 15.39497,4.08193 28.16927,7.2433 28.3873,7.02525 0.2181,-0.21811 -1.18536,-6.88088 -3.11865,-14.80633 -4.95317,-20.30513 -8.49613,-43.439 -7.77343,-93.25665 0.51101,-35.22628 3.08142,-42.43488 5.20284,-52.0565 8.16106,-37.01409 25.28079,-76.16845 48.72017,-111.42738 14.6729,-22.07187 26.59887,-36.28911 47.11449,-56.16631 31.73941,-30.75176 59.71814,-48.23504 121.81544,-76.11966 59.37431,-26.6619 70.77886,-33.37455 85.11907,-50.10067 7.56385,-8.82231 20.84188,-29.20191 33.05216,-50.7297 5.46348,-9.63261 11.76948,-19.68796 14.01332,-22.34523 l 4.07969,-4.8314 3.15027,2.94628 c 3.97012,3.71304 10.51724,15.08964 25.41358,44.15987 12.0466,23.50895 16.58259,30.8097 19.12855,30.78762 0.79658,-0.007 6.80234,-9.27058 13.34616,-20.58595 12.95565,-22.40258 24.68213,-40.74324 27.55719,-43.1005 3.10646,-2.54698 6.09154,2.26747 18.90033,30.48313 6.63463,14.61499 15.03029,32.82333 18.65702,40.46298 l 6.59403,13.89028 6.2572,-13.25598 c 6.95337,-14.73077 12.679,-24.25326 15.1539,-25.20297 5.2361,-2.00927 29.78256,25.92969 50.7383,57.75064 21.89134,33.24166 40.48136,80.66391 50.1821,128.01213 1.355,6.6135 4.08487,24.03162 6.06642,38.70687 4.18058,30.96159 6.2892,43.27687 7.43016,43.39592 0.44748,0.0468 10.17742,-13.5034 21.62208,-30.11135 35.84598,-52.01789 39.51097,-56.16501 49.63527,-56.16501 8.9071,0 14.88973,2.17948 21.17912,7.71562 8.39655,7.39094 11.20277,14.5232 11.21717,28.50941 0.0118,11.24896 0.0962,11.58661 4.50611,17.98966 4.49207,6.52231 4.49473,6.53365 5.34886,22.95962 0.63354,12.18402 1.53341,18.30824 3.47957,23.68117 3.67586,10.14811 3.10095,27.99695 -1.12186,34.8296 -2.35601,3.81213 -2.6995,5.54028 -2.03594,10.24297 2.35114,16.66256 2.35872,16.54201 -1.73608,27.61427 -3.40703,9.21249 -4.01852,12.61686 -4.51729,25.14901 -0.64984,16.3283 -1.21293,17.9129 -9.88789,27.82627 -6.04709,6.91036 -7.93182,10.83042 -11.59246,24.11129 -2.61927,9.50286 -11.84555,19.29882 -19.27901,20.46943 -8.12597,1.27971 -10.61047,3.2521 -15.29309,12.14099 -4.10497,7.79235 -9.29174,13.70962 -14.97914,17.08877 -3.30158,1.96162 -1.2064,5.03693 6.22576,9.13806 10.15524,5.60378 25.19431,8.51124 47.24768,9.13426 l 19.56932,0.55284 0.5742,-2.85806 c 0.31579,-1.57194 1.18832,-7.68979 1.93893,-13.59518 1.54294,-12.13892 4.68128,-21.46122 8.64545,-25.68088 5.64833,-6.01235 19.02933,-6.46423 26.57473,-0.89743 3.57444,2.63715 5.08778,2.89168 17.19369,2.89168 10.75814,0 14.2101,0.45303 18.21143,2.39003 5.66674,2.74324 9.11189,7.76273 9.11189,13.27582 0,6.0302 1.91489,8.49115 6.60703,8.49115 5.50285,0 10.18305,1.89263 14.37715,5.81413 4.7304,4.42287 6.7964,9.7753 6.7964,17.60749 0,5.42309 -0.5879,7.29017 -3.3216,10.54933 -4.0991,4.88707 -11.193,11.47926 -19.29228,17.92798 -9.37279,7.46275 -12.31446,13.80134 -19.07664,41.10553 -5.84923,23.61788 -15.10746,49.09758 -25.57002,70.37154 -5.58454,11.3553 -9.99268,21.74034 -9.79585,23.07788 0.23982,1.62968 1.75238,2.80132 4.58536,3.55189 4.02729,1.06696 47.8806,0.46272 49.01874,-0.67542 0.29904,-0.29904 1.56256,-6.73992 2.80779,-14.31304 2.58737,-15.73549 5.3292,-23.51163 8.9788,-25.46485 3.0686,-1.64225 12.9061,-1.43838 14.6445,0.30346 0.7984,0.7999 1.2486,13.09863 1.2486,34.10214 v 32.85104 l 5.2152,15.09812 c 2.8683,8.30399 5.5214,17.90514 5.8956,21.33593 0.6079,5.57304 0.3476,6.57064 -2.4426,9.36084 -2.3096,2.3096 -4.3716,3.12305 -7.9167,3.12305 -9.463,0 -14.7091,-7.79138 -22.45884,-33.35522 -2.36687,-7.80755 -4.55477,-14.44694 -4.86202,-14.75416 -0.30723,-0.30725 -17.20764,-1.33509 -37.55644,-2.28409 l -36.99781,-1.72545 -6.20713,7.02798 c -3.41393,3.8654 -11.72709,13.04028 -18.4737,20.38861 l -12.26656,13.36061 9.85086,3.8722 c 12.35173,4.85522 23.55528,7.42863 32.44139,7.45166 6.58836,0.0165 6.97022,-0.15316 8.76481,-3.90765 2.92226,-6.11366 17.08741,-24.69584 20.5601,-26.97125 6.46674,-4.23719 18.65185,-1.72991 21.17298,4.35664 2.45484,5.92649 0.23627,10.75075 -12.84986,27.94196 -10.01033,13.15055 -14.67255,25.56696 -18.522,49.32785 -3.16384,19.52885 -4.37734,23.66998 -7.59697,25.92508 -3.95599,2.77088 -9.89711,2.31541 -13.82072,-1.05953 z M 668.33977,973.58138 c 116.61547,-9.3435 213.26504,-72.15623 261.79769,-170.14275 12.20508,-24.64189 27.35584,-66.22583 27.35584,-75.08303 0,-4.2091 -5.7861,-9.47817 -22.7431,-20.7108 -20.84956,-13.81117 -27.85022,-16.68256 -43.94854,-18.02598 -39.4386,-3.2912 -52.68458,-6.10067 -66.01756,-14.00238 -17.53067,-10.38946 -31.5603,-26.69868 -42.36778,-49.25188 l -6.94558,-14.49421 -1.37539,-98.43978 c -1.43281,-102.54886 -1.72705,-107.98308 -7.48833,-138.29884 -9.41721,-49.55302 -24.59485,-91.72626 -45.96138,-127.71007 -7.61052,-12.81704 -30.9017,-45.66727 -32.29138,-45.54423 -0.44849,0.0397 -4.89194,8.52247 -9.87433,18.8506 -10.32927,21.41186 -15.73359,28.8979 -19.43272,26.91817 -3.77432,-2.01996 -8.03099,-9.7164 -21.67897,-39.19779 -16.83034,-36.35558 -20.32285,-43.12373 -21.78614,-42.21937 -1.92856,1.19193 -6.72421,9.25505 -19.00185,31.94871 -6.2908,11.62772 -13.59617,24.32393 -16.23419,28.21379 -4.02718,5.9383 -5.05674,6.80993 -6.42014,5.43533 -3.5836,-3.61315 -14.79084,-23.77007 -29.70349,-53.42368 l -15.71703,-31.25307 -6.86615,12.53139 c -3.77637,6.89227 -8.72624,15.24906 -10.99972,18.57064 -11.98646,17.51249 -29.19252,35.53185 -41.34205,43.29622 -9.42037,6.02026 -33.05034,17.70906 -62.58383,30.95771 -67.61052,30.32991 -89.72012,44.81914 -127.44546,83.51959 -28.41167,29.14608 -46.08721,53.45352 -60.93382,83.79651 -34.92566,71.37978 -38.43974,146.42727 -10.77416,230.09545 12.69169,38.38306 36.53535,85.45463 59.65291,117.7654 24.82972,34.70374 80.2063,90.90174 116.32024,118.04556 36.73592,27.61135 98.32362,57.96815 145.17316,71.55639 49.30775,14.30121 96.21232,19.77538 139.63325,16.2964 z m -62.46452,-44.19796 c -4.45129,-1.29211 -6.33642,-13.27739 -2.86734,-18.23019 2.65609,-3.79208 10.35649,-4.54507 24.15519,-2.36196 13.83822,2.18934 16.28917,3.85003 16.28917,11.03722 0,9.08583 -1.16547,9.67748 -19.5276,9.91304 -8.85718,0.11364 -16.97941,-0.0475 -18.04942,-0.35811 z M 730.6579,923.9552 c -5.55125,-1.3143 -7.48752,-4.06003 -7.48752,-10.61766 0,-6.44594 7.7323,-9.68564 23.25113,-9.74185 9.68009,-0.035 12.98437,2.2376 12.98437,8.93056 0,5.76601 -0.99391,7.77716 -4.82183,9.75665 -4.4276,2.2896 -17.46889,3.20112 -23.92615,1.6723 z m -211.01026,-3.96086 c -7.22707,-2.28562 -12.83142,-5.39624 -17.21185,-9.55325 -8.05087,-7.64017 -3.69278,-18.95343 7.30123,-18.95343 6.55925,0 17.97721,5.46605 23.65532,11.32439 5.08631,5.24773 6.76938,14.57401 3.1126,17.24791 -2.73667,2.00112 -10.41687,1.97122 -16.8573,-0.0656 z m 183.03011,-31.17171 c -3.366,-1.80017 -5.54242,-7.78656 -4.43503,-12.19877 1.08753,-4.33305 6.87302,-6.20314 18.96131,-6.12898 5.71359,0.0351 11.02398,0.45658 11.80089,0.93674 0.82019,0.50689 1.41257,3.86446 1.41257,8.00632 0,8.77318 -0.81479,9.34401 -14.68807,10.29056 -7.17383,0.48943 -10.93018,0.2287 -13.05167,-0.90587 z M 569.77343,887.3475 c -12.34102,-3.42496 -16.66345,-7.94575 -15.00855,-15.69723 1.31773,-6.17215 2.41437,-6.73687 13.0427,-6.71645 13.24093,0.0254 23.51646,2.53591 27.01165,6.59932 3.45724,4.01928 3.55573,10.13007 0.23128,14.35631 -2.30698,2.93285 -3.1834,3.17404 -11.17261,3.07451 -4.76807,-0.0595 -11.11515,-0.78682 -14.10456,-1.61646 z m 79.45292,-7.63069 c -7.23161,-0.55439 -10.60546,-4.30259 -10.60546,-11.78224 0,-7.27412 3.54751,-11.47456 9.691,-11.47456 7.20303,0 16.45108,2.33324 19.85229,5.00865 2.59734,2.04304 3.06866,3.39794 3.06866,8.82139 0,3.6856 -0.6414,6.91363 -1.50981,7.59874 -1.83965,1.45134 -12.73484,2.42302 -20.49668,1.82802 z m -158.5671,-21.29142 c -10.58105,-3.45143 -15.79839,-6.14754 -16.76355,-8.66267 -0.41265,-1.07539 -0.75028,-4.54421 -0.75028,-7.7085 0,-10.14686 5.0973,-11.84903 21.76558,-7.26841 10.58471,2.90881 17.28702,6.94829 19.89438,11.99039 1.64298,3.17719 1.65938,4.11289 0.13599,7.75897 -3.1365,7.5067 -9.882,8.5874 -24.28208,3.89022 z m 270.47161,-6.87834 c 0.45601,-4.03075 1.1439,-8.14889 1.52858,-9.15142 1.17209,-3.05434 5.97955,-4.05338 19.50546,-4.05338 16.71325,0 18.84878,1.19288 17.99745,10.053 -0.93392,9.71957 -2.59854,10.48047 -22.92854,10.48047 h -16.9321 z M 545.39562,832.86878 c -3.11086,-1.61989 -6.50794,-4.16143 -7.54905,-5.64783 -5.12795,-7.32118 0.67368,-17.8929 9.79067,-17.84058 6.04312,0.0346 14.16858,3.79025 16.76113,7.74694 2.55619,3.90128 1.83291,12.95694 -1.31249,16.43256 -2.98642,3.29995 -10.59683,3.00265 -17.69026,-0.69109 z m 130.1036,0.68506 c -1.70245,-1.88119 -2.03954,-3.8617 -1.62728,-9.56115 0.69421,-9.59763 2.06335,-11.02798 10.49317,-10.96241 9.18228,0.0713 18.41753,3.33656 20.34837,7.19422 2.28306,4.56134 1.89315,10.52449 -0.8687,13.28636 -2.08855,2.08852 -4.02616,2.4157 -14.30699,2.4157 -10.28549,0 -12.18127,-0.32042 -14.03857,-2.37272 z m -49.32102,-3.78192 c -7.35996,-1.73205 -17.67742,-7.10049 -19.7627,-10.28304 -2.42133,-3.69539 -1.60335,-12.84986 1.44956,-16.2233 3.62647,-4.0072 11.72612,-3.16154 23.29282,2.43199 11.96011,5.78377 15.91795,9.40185 15.91795,14.55145 0,5.27204 -1.75233,7.96288 -6.19398,9.51123 -4.40586,1.5359 -8.21395,1.53891 -14.70365,0.0118 z m 225.62822,-44.77348 c -6.52062,-3.59753 -12.68241,-11.64272 -12.68241,-16.55883 0,-1.31067 -1.34321,-3.9793 -2.98487,-5.93033 -4.61724,-5.48727 -13.84728,-7.5522 -52.57625,-11.76226 -19.97478,-2.17134 -36.65038,-4.83739 -42.06634,-6.72541 -4.55663,-1.58846 -6.97955,-7.47218 -5.10617,-12.39956 1.4093,-3.70673 7.06692,-7.48388 12.82893,-8.56482 2.21247,-0.41508 18.862,0.87449 36.99891,2.86563 18.13694,1.99119 36.43759,3.77703 40.66814,3.96857 l 7.69189,0.34824 1.59253,-5.30616 c 1.79184,-5.97021 8.17205,-13.2285 16.17408,-18.40005 6.91787,-4.47089 14.15138,-4.7425 17.97269,-0.67492 3.22382,3.43159 3.27483,5.18489 0.29321,10.07474 -1.2782,2.09627 -2.00089,4.13452 -1.60597,4.52943 0.39494,0.39497 2.93751,0.72549 5.65013,0.73457 9.34124,0.0313 10.36739,0.76084 10.36739,7.37148 0,7.43562 -2.58468,10.2502 -10.48164,11.414 -9.90709,1.46005 -11.44922,2.53683 -5.04328,3.5214 3.08687,0.47444 7.29923,1.88843 9.36084,3.14216 3.17349,1.92992 3.74838,3.00999 3.74838,7.0424 0,5.63458 -2.45512,8.55898 -7.18548,8.55898 -4.78866,0 -5.93268,1.99521 -6.85904,11.96249 -0.46033,4.953 -1.5604,9.50913 -2.53012,10.47884 -2.0254,2.0254 -10.77054,2.21562 -14.22555,0.30941 z m -426.04346,-9.87589 c -27.34215,-3.17944 -45.58847,-8.58253 -67.96723,-19.51087 -18.54466,-9.05602 -30.13625,-16.61229 -46.19156,-30.11112 -30.68326,-25.79765 -55.29817,-62.60748 -68.54104,-102.49816 -6.80954,-20.51199 -10.01601,-29.99214 -9.99053,-63.32477 0.0212,-29.07973 3.32455,-43.5202 6.34478,-55.30594 5.90645,-23.0486 26.38282,-47.44479 50.02741,-59.60428 11.08085,-5.69843 17.89206,-7.91382 48.42141,-15.74932 39.80064,-10.215 68.89916,-20.95945 126.107,-46.56424 61.06141,-27.32953 72.3218,-32.04982 102.01346,-31.94757 42.97793,0.14799 60.18528,9.59567 88.02833,35.43961 28.84419,26.77321 51.50588,64.63751 60.63172,101.30661 13.96299,54.32946 6.76865,88.49698 2.98727,106.80376 -4.23126,20.48494 -17.29827,49.03352 -31.61453,69.07093 -14.64265,20.49424 -43.27887,47.34818 -67.93203,63.70401 -33.64193,22.31933 -72.45647,34.53235 -108.62033,42.31867 -38.45977,8.28068 -46.20746,6.81936 -83.70413,5.97268 z m 58.85702,-17.05856 c 41.8052,-5.96618 86.12643,-23.23123 122.60728,-47.76091 51.7584,-34.80226 85.0975,-81.25782 96.21204,-134.06432 3.45498,-16.41495 2.90857,-43.68686 -1.24629,-62.20427 -16.20827,-72.23694 -56.96233,-124.70242 -111.28221,-143.26117 -7.07186,-2.41615 -10.82595,-2.88868 -22.94916,-2.88868 -12.57842,0 -15.93103,0.45432 -25.36485,3.43735 -15.05674,4.76102 -34.51682,12.66331 -71.38381,28.98729 -55.95754,24.77691 -86.17979,35.80031 -122.48347,44.6752 -41.01949,10.02774 -51.8711,15.14671 -69.47059,32.77093 -17.73078,17.75572 -24.86708,31.8363 -28.40777,56.05128 -2.05175,14.03193 -0.84674,44.6317 2.3223,58.97276 9.01171,40.78108 30.15105,77.80503 61.93347,108.4718 23.01161,22.20386 49.14346,38.57988 76.93406,48.21218 11.53548,3.99824 29.8537,8.34561 40.03753,9.50196 10.59066,1.20251 41.51688,0.67196 52.54147,-0.9014 z m 8.30129,-43.88989 c -17.44612,-6.1912 -25.81511,-12.52927 -25.81511,-19.55042 0,-6.15124 1.68434,-7.2627 11.00598,-7.2627 13.29654,0 25.88654,-2.99997 38.29552,-9.12518 9.73048,-4.80303 13.28682,-7.51538 26.26689,-20.03312 13.59821,-13.11385 15.38029,-14.44224 18.91449,-14.09915 7.57559,0.73541 8.56722,9.65409 3.21918,28.95312 -5.16191,18.62735 -15.97686,33.12231 -29.78514,39.92012 -7.14058,3.51528 -9.27793,3.97243 -20.1369,4.30683 -10.86487,0.33461 -13.18564,0.007 -21.96491,-3.1095 z M 358.07039,652.9643 c -15.43974,-3.2021 -33.62861,-14.1602 -43.50029,-26.20727 -14.97629,-18.2766 -22.61147,-42.62999 -20.95047,-66.82424 1.0093,-14.70137 3.55008,-24.6326 9.39719,-36.73091 3.93094,-8.1336 6.99037,-12.25327 15.34998,-20.66946 8.76796,-8.82734 12.27875,-11.4097 21.9151,-16.1197 15.65675,-7.6526 26.41192,-9.72694 45.8983,-8.85236 23.30243,1.04589 38.938,6.42385 53.47665,18.39368 3.83594,3.15815 7.1375,5.5288 7.33682,5.26809 0.19929,-0.26069 1.32641,-5.09401 2.50462,-10.74071 6.24925,-29.95066 24.99902,-53.05938 52.34377,-64.51267 10.8571,-4.54745 29.05133,-6.28708 46.86582,-4.48101 29.35489,2.97607 46.31687,12.9316 62.0129,36.39743 11.31307,16.9132 12.49608,21.02572 13.13848,45.67281 0.64923,24.90985 -0.46776,32.10207 -7.08249,45.60397 -14.20681,28.99879 -41.9618,47.30134 -75.29782,49.65389 -20.11138,1.4193 -46.60741,-6.66757 -62.18202,-18.9786 -3.34425,-2.64348 -6.51958,-4.80631 -7.0563,-4.80631 -0.53674,0 -1.98008,3.9406 -3.20749,8.75691 -8.52284,33.44382 -28.75243,56.85758 -58.36341,67.54991 -9.10961,3.28941 -39.97861,4.24401 -52.59934,1.62655 z m 40.18832,-15.22818 c 13.56476,-3.12411 29.87071,-14.24154 39.31472,-26.80484 23.59009,-31.38179 22.1652,-67.43175 -3.75075,-94.89419 -15.13579,-16.03898 -31.29839,-23.47451 -51.26603,-23.58471 -19.95455,-0.11011 -36.53382,7.04219 -51.79824,22.34589 -9.31371,9.33765 -14.75023,17.89049 -19.21931,30.23617 -2.7615,7.62848 -3.19884,10.70473 -3.1483,22.14546 0.0503,11.36827 0.51423,14.45403 3.21403,21.37471 9.35717,23.98622 29.30814,41.90964 54.04193,48.5499 7.78141,2.08907 24.84849,2.41961 32.61195,0.63161 z m -26.14719,-20.52276 c -17.23878,-2.18709 -29.63239,-12.22831 -34.37828,-27.8531 -3.87594,-12.76077 -2.96997,-28.06339 2.29461,-38.75728 10.19118,-20.70122 34.98975,-31.02821 57.84152,-24.08719 21.26789,6.45992 30.5856,19.97988 30.5856,44.37967 0,18.67406 -5.70578,31.77294 -17.2038,39.49511 -8.92823,5.99627 -24.39835,8.693 -39.13965,6.82279 z m 30.38045,-49.92944 c 4.28577,-4.28577 5.03577,-8.70363 2.13727,-12.58962 -5.85605,-7.85124 -16.03333,-2.69089 -16.03333,8.12965 0,6.96981 8.61971,9.73632 13.89606,4.45997 z m 153.2501,12.49859 c 44.29631,-13.89488 65.98759,-61.84399 46.37331,-102.5094 -5.72018,-11.85939 -21.27992,-26.91125 -34.75765,-33.62313 -24.49089,-12.19638 -42.0273,-11.37829 -66.97543,3.1245 -28.20936,16.39856 -43.19888,53.60078 -33.94982,84.25937 5.07361,16.81792 29.74209,42.25167 46.90022,48.35518 12.56077,4.46812 28.93524,4.62006 42.40937,0.39348 z m -33.02009,-19.28079 c -8.07572,-1.69794 -17.52933,-6.76461 -21.8914,-11.73274 -2.13627,-2.43309 -5.57052,-7.98252 -7.63166,-12.33204 -3.51578,-7.41917 -3.74753,-8.76725 -3.74753,-21.79851 0,-12.95998 0.23667,-14.35768 3.53387,-20.86872 9.304,-18.37281 31.37725,-28.92393 52.81798,-25.24727 16.73082,2.86902 31.61239,14.2622 35.43281,27.12696 2.37013,7.98107 2.3705,26.3722 7e-4,34.35221 -3.90547,13.15109 -14.02595,23.38148 -28.01229,28.31644 -7.97257,2.81304 -22.54656,3.85639 -30.50248,2.18367 z m 28.93021,-50.23132 c 2.65917,-2.40241 4.83489,-5.33555 4.83489,-6.51806 0,-2.38363 -7.62723,-9.64738 -10.13013,-9.64738 -0.87512,0 -3.43799,1.24032 -5.69529,2.75622 -5.73925,3.85434 -6.21369,9.21031 -1.25507,14.16893 1.98456,1.98456 4.46386,3.60832 5.50951,3.60832 1.04567,0 4.07689,-1.96562 6.73609,-4.36803 z M 372.89385,396.48284 c 0,-2.64475 7.13552,-14.00789 23.82477,-37.94032 6.82591,-9.78836 12.41074,-18.02788 12.41074,-18.31001 0,-0.7336 -14.73742,-3.14211 -25.23668,-4.12432 -13.16227,-1.23139 -13.64476,-2.91205 -3.73437,-13.00777 17.24262,-17.56511 72.83162,-67.11509 85.98196,-76.64114 9.43257,-6.83293 11.96803,-3.74037 6.252,7.62562 -3.00666,5.97853 -20.17227,31.79125 -31.44438,47.28431 -2.86652,3.9399 -4.94246,7.43283 -4.61321,7.76206 0.32925,0.32925 6.8238,1.01638 14.43233,1.52696 13.60292,0.91283 18.75485,2.25793 18.75485,4.8966 0,1.97127 -21.06586,23.15801 -41.06689,41.30258 -38.93761,35.32342 -55.56112,47.17907 -55.56112,39.62543 z M 255.81182,804.47995 c 4.89972,-2.62225 1.98176,-9.28581 -16.90664,-38.60872 -19.42236,-30.15182 -24.61836,-40.20635 -41.19698,-79.7181 l -9.37578,-22.34521 -36.79116,-9.85775 c -20.23516,-5.42177 -41.00179,-10.56526 -46.1481,-11.43 -8.815318,-1.48123 -9.454568,-1.43866 -11.044378,0.73553 -2.08332,2.84911 -1.15167,6.24602 2.9001,10.57396 2.825088,3.01767 3.776298,3.28278 10.834908,3.01962 7.14999,-0.26655 7.9598,-0.0308 10.6576,3.10046 4.44431,5.15866 3.98326,11.41544 -1.30782,17.74845 -5.74067,6.87114 -5.74813,11.70097 -0.0259,16.72519 3.95683,3.47413 7.13258,4.54454 15.72787,5.30108 l 3.62356,0.31896 -0.42682,13.2881 c -0.5555,17.29401 -0.23128,17.65158 17.09684,18.8528 6.77512,0.46966 12.39848,0.90368 12.4964,0.96446 0.0979,0.0607 0.36967,4.69109 0.60392,10.28958 0.66937,15.99733 5.95087,20.69715 17.16062,15.27058 13.09559,-6.33946 18.89687,-1.46113 18.89687,15.89042 0,7.63794 0.30786,8.67547 3.53065,11.89826 4.65987,4.65986 6.7518,4.45755 12.00897,-1.16137 5.11829,-5.47049 8.44377,-7.38651 12.82034,-7.38651 5.56555,0 8.55983,4.48152 10.13105,15.16313 0.92488,6.28764 2.10874,10.11853 3.43256,11.10762 2.4537,1.83329 8.11753,1.96333 11.30123,0.25946 z M 975.1769,688.73989 c 10.57356,-6.99187 17.86209,-13.45741 15.17035,-13.45741 -0.76282,0 -5.49176,1.63061 -10.50872,3.62356 -10.78046,4.28246 -18.0328,4.75189 -19.88704,1.28726 -2.38871,-4.46336 -1.43374,-11.39577 2.40329,-17.44614 2.00949,-3.16864 3.77597,-6.88398 3.92551,-8.25632 0.56314,-5.16802 -2.59066,-3.15613 -8.53757,5.44636 -7.51898,10.87665 -8.84819,12.03481 -12.70176,11.06763 -5.39337,-1.35366 -8.04452,-5.51229 -9.09923,-14.27321 -1.69488,-14.07835 -5.64044,-12.88187 -7.04282,2.1357 -1.24536,13.33651 4.0567,20.43001 24.36692,32.59994 3.98591,2.38837 8.1388,4.34387 9.22866,4.34556 1.08986,10e-4 6.79695,-3.18111 12.68241,-7.07293 z M 822.74665,629.2848 c 4.56477,-4.00791 6.69699,-9.58214 6.70781,-17.53618 0.0165,-12.71634 5.91423,-17.17862 16.61715,-12.57438 4.62206,1.98837 6.58831,2.27471 9.08971,1.32369 7.79868,-2.96506 10.62492,-10.78191 5.53727,-15.31503 -5.41923,-4.82859 -7.88576,-17.62902 -4.12214,-21.39261 1.02744,-1.02747 5.58915,-2.11013 11.04492,-2.62137 7.58521,-0.7108 9.84267,-1.41908 12.27487,-3.85128 4.55222,-4.55223 3.06034,-9.27038 -5.29548,-16.74719 -5.15423,-4.61204 -6.79032,-6.88274 -6.79032,-9.42425 0,-4.2542 4.10946,-8.67131 11.62712,-12.49751 6.76936,-3.44536 11.62399,-7.88301 11.62399,-10.62554 0,-1.04151 -2.07935,-4.19152 -4.62079,-7.00002 -6.66461,-7.36499 -8.66556,-10.66031 -8.66556,-14.27114 0,-3.95831 4.24255,-9.55692 7.2421,-9.55692 2.99357,0 9.59052,-5.67875 11.04692,-9.50937 1.59583,-4.19731 -0.42522,-7.62745 -6.50865,-11.04653 -7.2781,-4.09051 -9.36467,-6.65988 -9.36467,-11.53154 0,-5.03366 1.27333,-7.72154 6.9653,-14.70316 6.6968,-8.21407 4.21399,-12.44636 -9.66699,-16.47865 -5.53644,-1.6083 -7.31802,-2.76481 -8.86381,-5.75403 -2.88781,-5.58445 -1.34053,-11.12148 5.00293,-17.90314 6.18151,-6.60855 6.58208,-9.26548 2.18471,-14.49143 -3.06477,-3.64229 -3.24871,-3.6961 -5.5412,-1.62143 -3.74247,3.38689 -22.58268,29.32082 -49.54061,68.19368 l -24.8364,35.81365 -1.50607,37.21535 c -2.45438,60.64845 -0.64424,84.36602 7.82529,102.53112 7.13792,15.30917 12.60346,18.33712 20.5326,11.37521 z"
     id="path879"
     inkscape:connector-curvature="0"
     sodipodi:nodetypes="cccccscssssccscccscscccscccccscscscssccscccssccsccccsssssssscssccssccccsccccsscccccccssccsscsccsscscsscsccssccssccsccsssscsccsccccssssccssssssccssscscccsccscccssssssssscscscccsssccccsccccccscscccscccccccsscsccccssscccccsssccccccccsscccsscccssccccscccsccccscccccssscssccccscscssssssccssscsssssscssscssscscsscccscccsssccccccccsscsscscsssssccccsssccsssscscssssscscscccssscccccsscsscscsccscccsssscsscscccccscccsscccsscssccccsccsccsccscccccccccssscscsscsscccsccscscc" />
  <rect
     style="opacity:1;fill:#ff0000;fill-opacity:1;fill-rule:nonzero;stroke:none;stroke-width:1.51181102;stroke-linejoin:miter;stroke-miterlimit:4;stroke-dasharray:none;stroke-opacity:1"
     id="rect903"
     width="26.364149"
     height="56.897785"
     x="41.451408"
     y="1386.2255"
     transform="rotate(-45)" />
  <rect
     style="opacity:1;fill:#ff0000;fill-opacity:1;fill-rule:nonzero;stroke:none;stroke-width:1.51181102;stroke-linejoin:miter;stroke-miterlimit:4;stroke-dasharray:none;stroke-opacity:1"
     id="rect903-3"
     width="26.364149"
     height="56.897785"
     x="592.15173"
     y="0.37040132" />
  <rect
     style="opacity:1;fill:#ff0000;fill-opacity:1;fill-rule:nonzero;stroke:none;stroke-width:1.51181102;stroke-linejoin:miter;stroke-miterlimit:4;stroke-dasharray:none;stroke-opacity:1"
     id="rect903-6"
     width="26.364149"
     height="56.897785"
     x="-823.46411"
     y="-608.74146"
     transform="rotate(-135)" />
</svg>
