<?xml version='1.0' encoding='UTF-8' standalone='no'?>
<svg xmlns:cc="http://creativecommons.org/ns#" xmlns:rdf="http://www.w3.org/1999/02/22-rdf-syntax-ns#" width="420mm" height="297mm" version="1.2" baseProfile="tiny" xmlns:freecad="http://www.freecadweb.org/wiki/index.php?title=Svg_Namespace" xmlns="http://www.w3.org/2000/svg" xmlns:xlink="http://www.w3.org/1999/xlink" xmlns:svg="http://www.w3.org/2000/svg" viewBox="0 0 4200 2970" xmlns:dc="http://purl.org/dc/elements/1.1/">
 <title>FreeCAD SVG Export</title>
 <desc>Drawing page: Page001 exported from FreeCAD document: CrocSaintGerard_V5</desc>
 <defs/>
 <g id="Page001">
  <g fill-rule="evenodd" stroke-linejoin="bevel" stroke="black" stroke-linecap="square" stroke-width="1" fill="none" id="DrawingContent">
   <g font-weight="400" stroke="none" font-style="normal" fill-opacity="1" fill="#ffffff" font-family="Ubuntu" transform="matrix(1,0,0,1,2100,1485)" font-size="38.8056">
    <path fill-rule="evenodd" vector-effect="non-scaling-stroke" d="M-991.573,301.079 L1041.04,845.716 L1041.04,845.716 C1219.37,180.179 915.872,-520.522 308.427,-845.716 L-991.573,-845.716 L-1091.57,-845.716 L-1091.57,274.284 L-991.573,301.079"/>
   </g>
   <g font-weight="400" stroke-opacity="1" stroke-linejoin="bevel" stroke="#000000" stroke-linecap="square" font-style="normal" stroke-width="1" fill="none" font-family="Ubuntu" transform="matrix(1,0,0,1,2100,1485)" font-size="38.8056">
    <rect width="0" y="0" height="0" x="0"/>
   </g>
   <g font-weight="400" stroke="none" font-style="normal" fill-opacity="1" fill="#ffffff" font-family="Ubuntu" transform="matrix(1,0,0,1,2100,1485)" font-size="38.8056">
    <path fill-rule="evenodd" vector-effect="non-scaling-stroke" d="M1041.04,845.716 C1219.37,180.179 915.872,-520.522 308.427,-845.716 L-991.573,-845.716 L-991.573,301.079 L1041.04,845.716"/>
   </g>
   <g font-weight="400" stroke-opacity="1" stroke-linejoin="bevel" stroke="#000000" stroke-linecap="square" font-style="normal" stroke-width="1" fill="none" font-family="Ubuntu" transform="matrix(1,0,0,1,2100,1485)" font-size="38.8056">
    <rect width="0" y="0" height="0" x="0"/>
   </g>
   <g font-weight="400" stroke="none" font-style="normal" fill-opacity="1" fill="#ffffff" font-family="Ubuntu" transform="matrix(1,0,0,1,2100,1485)" font-size="38.8056">
    <path fill-rule="evenodd" vector-effect="non-scaling-stroke" d="M83.4265,-245.716 C83.4265,16.6197 -129.238,229.284 -391.573,229.284 C-653.909,229.284 -866.573,16.6197 -866.573,-245.716 C-866.573,-508.051 -653.909,-720.716 -391.573,-720.716 C-129.238,-720.716 83.4265,-508.051 83.4265,-245.716 "/>
   </g>
   <g font-weight="400" stroke-opacity="1" stroke-linejoin="bevel" stroke="#000000" stroke-linecap="square" font-style="normal" stroke-width="1" fill="none" font-family="Ubuntu" transform="matrix(1,0,0,1,2100,1485)" font-size="38.8056">
    <rect width="0" y="0" height="0" x="0"/>
   </g>
   <g font-weight="400" stroke="none" font-style="normal" fill-opacity="1" fill="#ffffff" font-family="Ubuntu" transform="matrix(1,0,0,1,2100,1485)" font-size="38.8056">
    <path fill-rule="evenodd" vector-effect="non-scaling-stroke" d="M-991.573,-845.716 L-991.573,301.079 L-1091.57,274.284 L-1091.57,-845.716 L-991.573,-845.716"/>
   </g>
   <g font-weight="400" stroke-opacity="1" stroke-linejoin="bevel" stroke="#000000" stroke-linecap="square" font-style="normal" stroke-width="1" fill="none" font-family="Ubuntu" transform="matrix(1,0,0,1,2100,1485)" font-size="38.8056">
    <rect width="0" y="0" height="0" x="0"/>
   </g>
   <g font-weight="400" stroke="none" font-style="normal" fill-opacity="1" fill="#ffffff" font-family="Ubuntu" transform="matrix(1,0,0,1,2100,1485)" font-size="38.8056">
    <path fill-rule="evenodd" vector-effect="non-scaling-stroke" d="M-1026.07,-695.716 C-1026.07,-687.155 -1033.01,-680.216 -1041.57,-680.216 C-1050.13,-680.216 -1057.07,-687.155 -1057.07,-695.716 C-1057.07,-704.276 -1050.13,-711.216 -1041.57,-711.216 C-1033.01,-711.216 -1026.07,-704.276 -1026.07,-695.716 "/>
   </g>
   <g font-weight="400" stroke-opacity="1" stroke-linejoin="bevel" stroke="#000000" stroke-linecap="square" font-style="normal" stroke-width="1" fill="none" font-family="Ubuntu" transform="matrix(1,0,0,1,2100,1485)" font-size="38.8056">
    <rect width="0" y="0" height="0" x="0"/>
   </g>
   <g font-weight="400" stroke="none" font-style="normal" fill-opacity="1" fill="#ffffff" font-family="Ubuntu" transform="matrix(1,0,0,1,2100,1485)" font-size="38.8056">
    <path fill-rule="evenodd" vector-effect="non-scaling-stroke" d="M-1026.07,-281.61 C-1026.07,-273.049 -1033.01,-266.11 -1041.57,-266.11 C-1050.13,-266.11 -1057.07,-273.049 -1057.07,-281.61 C-1057.07,-290.17 -1050.13,-297.11 -1041.57,-297.11 C-1033.01,-297.11 -1026.07,-290.17 -1026.07,-281.61 "/>
   </g>
   <g font-weight="400" stroke-opacity="1" stroke-linejoin="bevel" stroke="#000000" stroke-linecap="square" font-style="normal" stroke-width="1" fill="none" font-family="Ubuntu" transform="matrix(1,0,0,1,2100,1485)" font-size="38.8056">
    <rect width="0" y="0" height="0" x="0"/>
   </g>
   <g font-weight="400" stroke="none" font-style="normal" fill-opacity="1" fill="#ffffff" font-family="Ubuntu" transform="matrix(1,0,0,1,2100,1485)" font-size="38.8056">
    <path fill-rule="evenodd" vector-effect="non-scaling-stroke" d="M-1026.07,132.39 C-1026.07,140.951 -1033.01,147.89 -1041.57,147.89 C-1050.13,147.89 -1057.07,140.951 -1057.07,132.39 C-1057.07,123.83 -1050.13,116.89 -1041.57,116.89 C-1033.01,116.89 -1026.07,123.83 -1026.07,132.39 "/>
   </g>
   <g font-weight="400" stroke-opacity="1" stroke-linejoin="bevel" stroke="#000000" stroke-linecap="square" font-style="normal" stroke-width="1" fill="none" font-family="Ubuntu" transform="matrix(1,0,0,1,2100,1485)" font-size="38.8056">
    <rect width="0" y="0" height="0" x="0"/>
   </g>
   <g font-weight="400" stroke-opacity="1" stroke-linejoin="bevel" stroke="#000000" stroke-linecap="round" font-style="normal" stroke-width="7" fill="none" font-family="Ubuntu" transform="matrix(1,0,0,1,2100,1485)" font-size="38.8056">
    <path fill-rule="evenodd" vector-effect="none" d="M-1091.57,274.284 L-1091.57,-845.716"/>
   </g>
   <g font-weight="400" stroke-opacity="1" stroke-linejoin="bevel" stroke="#000000" stroke-linecap="round" font-style="normal" stroke-width="7" fill="none" font-family="Ubuntu" transform="matrix(1,0,0,1,2100,1485)" font-size="38.8056">
    <path fill-rule="evenodd" vector-effect="none" d="M-991.573,301.079 L1041.04,845.716"/>
   </g>
   <g font-weight="400" stroke-opacity="1" stroke-linejoin="bevel" stroke="#000000" stroke-linecap="round" font-style="normal" stroke-width="7" fill="none" font-family="Ubuntu" transform="matrix(1,0,0,1,2100,1485)" font-size="38.8056">
    <path fill-rule="evenodd" vector-effect="none" d="M-991.573,301.079 L-1091.57,274.284"/>
   </g>
   <g font-weight="400" stroke-opacity="1" stroke-linejoin="bevel" stroke="#000000" stroke-linecap="round" font-style="normal" stroke-width="7" fill="none" font-family="Ubuntu" transform="matrix(1,0,0,1,2100,1485)" font-size="38.8056">
    <path fill-rule="evenodd" vector-effect="none" d="M-1091.57,-845.716 L-991.573,-845.716"/>
   </g>
   <g font-weight="400" stroke-opacity="1" stroke-linejoin="bevel" stroke="#000000" stroke-linecap="round" font-style="normal" stroke-width="7" fill="none" font-family="Ubuntu" transform="matrix(1,0,0,1,2100,1485)" font-size="38.8056">
    <path fill-rule="evenodd" vector-effect="none" d="M-1026.07,-695.716 C-1026.07,-687.155 -1033.01,-680.216 -1041.57,-680.216 C-1050.13,-680.216 -1057.07,-687.155 -1057.07,-695.716 C-1057.07,-704.276 -1050.13,-711.216 -1041.57,-711.216 C-1033.01,-711.216 -1026.07,-704.276 -1026.07,-695.716 "/>
   </g>
   <g font-weight="400" stroke-opacity="1" stroke-linejoin="bevel" stroke="#000000" stroke-linecap="round" font-style="normal" stroke-width="7" fill="none" font-family="Ubuntu" transform="matrix(1,0,0,1,2100,1485)" font-size="38.8056">
    <path fill-rule="evenodd" vector-effect="none" d="M-1026.07,-281.61 C-1026.07,-273.049 -1033.01,-266.11 -1041.57,-266.11 C-1050.13,-266.11 -1057.07,-273.049 -1057.07,-281.61 C-1057.07,-290.17 -1050.13,-297.11 -1041.57,-297.11 C-1033.01,-297.11 -1026.07,-290.17 -1026.07,-281.61 "/>
   </g>
   <g font-weight="400" stroke-opacity="1" stroke-linejoin="bevel" stroke="#000000" stroke-linecap="round" font-style="normal" stroke-width="7" fill="none" font-family="Ubuntu" transform="matrix(1,0,0,1,2100,1485)" font-size="38.8056">
    <path fill-rule="evenodd" vector-effect="none" d="M-1026.07,132.39 C-1026.07,140.951 -1033.01,147.89 -1041.57,147.89 C-1050.13,147.89 -1057.07,140.951 -1057.07,132.39 C-1057.07,123.83 -1050.13,116.89 -1041.57,116.89 C-1033.01,116.89 -1026.07,123.83 -1026.07,132.39 "/>
   </g>
   <g font-weight="400" stroke-opacity="1" stroke-linejoin="bevel" stroke="#000000" stroke-linecap="round" font-style="normal" stroke-width="7" fill="none" font-family="Ubuntu" transform="matrix(1,0,0,1,2100,1485)" font-size="38.8056">
    <path fill-rule="evenodd" vector-effect="none" d="M308.427,-845.716 L-991.573,-845.716"/>
   </g>
   <g font-weight="400" stroke-opacity="1" stroke-linejoin="bevel" stroke="#000000" stroke-linecap="round" font-style="normal" stroke-width="7" fill="none" font-family="Ubuntu" transform="matrix(1,0,0,1,2100,1485)" font-size="38.8056">
    <path fill-rule="evenodd" vector-effect="none" d="M1041.04,845.716 C1219.37,180.179 915.872,-520.522 308.427,-845.716 "/>
   </g>
   <g font-weight="400" stroke-opacity="1" stroke-linejoin="bevel" stroke="#000000" stroke-linecap="round" font-style="normal" stroke-width="7" fill="none" font-family="Ubuntu" transform="matrix(1,0,0,1,2100,1485)" font-size="38.8056">
    <path fill-rule="evenodd" vector-effect="none" d="M83.4265,-245.716 C83.4265,16.6197 -129.238,229.284 -391.573,229.284 C-653.909,229.284 -866.573,16.6197 -866.573,-245.716 C-866.573,-508.051 -653.909,-720.716 -391.573,-720.716 C-129.238,-720.716 83.4265,-508.051 83.4265,-245.716 "/>
   </g>
   <g font-weight="400" stroke-opacity="1" stroke-linejoin="bevel" stroke="#000000" stroke-linecap="round" font-style="normal" stroke-width="7" fill="none" font-family="Ubuntu" transform="matrix(1,0,0,1,2100,1485)" font-size="38.8056">
    <path fill-rule="evenodd" vector-effect="none" d="M-991.573,-845.716 L-991.573,301.079"/>
   </g>
  </g>
 </g>
</svg>
