<?xml version="1.0" encoding="UTF-8" standalone="no"?>
<svg
   xmlns:dc="http://purl.org/dc/elements/1.1/"
   xmlns:cc="http://creativecommons.org/ns#"
   xmlns:rdf="http://www.w3.org/1999/02/22-rdf-syntax-ns#"
   xmlns:svg="http://www.w3.org/2000/svg"
   xmlns="http://www.w3.org/2000/svg"
   xmlns:sodipodi="http://sodipodi.sourceforge.net/DTD/sodipodi-0.dtd"
   xmlns:inkscape="http://www.inkscape.org/namespaces/inkscape"
   height="841mm"
   version="1.2"
   width="1189mm"
   viewBox="0 0 11890 8410"
   id="svg4997"
   sodipodi:docname="porte_svg.svg"
   inkscape:version="0.92.3 (2405546, 2018-03-11)">
  <metadata
     id="metadata5001">
    <rdf:RDF>
      <cc:Work
         rdf:about="">
        <dc:format>image/svg+xml</dc:format>
        <dc:type
           rdf:resource="http://purl.org/dc/dcmitype/StillImage" />
      </cc:Work>
    </rdf:RDF>
  </metadata>
  <sodipodi:namedview
     pagecolor="#ffffff"
     bordercolor="#666666"
     borderopacity="1"
     objecttolerance="10"
     gridtolerance="10"
     guidetolerance="10"
     inkscape:pageopacity="0"
     inkscape:pageshadow="2"
     inkscape:window-width="1613"
     inkscape:window-height="995"
     id="namedview4999"
     showgrid="false"
     inkscape:zoom="0.21000203"
     inkscape:cx="1589.5522"
     inkscape:cy="2308.6439"
     inkscape:window-x="131"
     inkscape:window-y="27"
     inkscape:window-maximized="1"
     inkscape:current-layer="svg4997" />
  <title
     id="title4925">FreeCAD SVG Export</title>
  <desc
     id="desc4927">Drawing page: Page001 exported from FreeCAD document: Unnamed</desc>
  <defs
     id="defs4929" />
  <g
     id="Page001">
    <g
       fill-rule="evenodd"
       stroke-linejoin="bevel"
       id="DrawingContent"
       stroke="black"
       stroke-width="1"
       stroke-linecap="square"
       fill="none">
      <g
         transform="matrix(1,0,0,1,5945,4205)"
         fill-opacity="1"
         font-weight="400"
         stroke="none"
         font-size="38.8056"
         font-family="Ubuntu"
         font-style="normal"
         fill="#ffffff"
         id="g4933">
        <path
           fill-rule="evenodd"
           d="M-2780,2290 L-2780,-3040 L2780,-3040 L2780,2665 C2780,2872.11 2612.11,3040 2405,3040 C2197.89,3040 2030,2872.11 2030,2665 L2030,2290 L-2780,2290"
           vector-effect="non-scaling-stroke"
           id="path4931" />
      </g>
      <g
         transform="matrix(1,0,0,1,5945,4205)"
         stroke-linejoin="bevel"
         font-weight="400"
         stroke="#000000"
         font-size="38.8056"
         font-family="Ubuntu"
         stroke-width="1"
         font-style="normal"
         stroke-opacity="1"
         stroke-linecap="square"
         fill="none"
         id="g4937">
        <rect
           height="0"
           width="0"
           x="0"
           y="0"
           id="rect4935" />
      </g>
      <g
         transform="matrix(1,0,0,1,5945,4205)"
         fill-opacity="1"
         font-weight="400"
         stroke="none"
         font-size="38.8056"
         font-family="Ubuntu"
         font-style="normal"
         fill="#ffffff"
         id="g4941">
        <path
           fill-rule="evenodd"
           d="M2160,-2210 L2160,-490 C2160,702.935 1192.94,1670 -3.47354e-13,1670 C-1192.94,1670 -2160,702.935 -2160,-490 L-2160,-2210 C-2160,-2298.37 -2088.37,-2370 -2000,-2370 L2000,-2370 C2088.37,-2370 2160,-2298.37 2160,-2210 "
           vector-effect="non-scaling-stroke"
           id="path4939" />
      </g>
      <g
         transform="matrix(1,0,0,1,5945,4205)"
         stroke-linejoin="bevel"
         font-weight="400"
         stroke="#000000"
         font-size="38.8056"
         font-family="Ubuntu"
         stroke-width="1"
         font-style="normal"
         stroke-opacity="1"
         stroke-linecap="square"
         fill="none"
         id="g4945">
        <rect
           height="0"
           width="0"
           x="0"
           y="0"
           id="rect4943" />
      </g>
      <g
         transform="matrix(1,0,0,1,5945,4205)"
         stroke-linejoin="bevel"
         font-weight="400"
         stroke="#000000"
         font-size="38.8056"
         font-family="Ubuntu"
         stroke-width="7"
         font-style="normal"
         stroke-opacity="1"
         stroke-linecap="round"
         fill="none"
         id="g4949">
        <path
           fill-rule="evenodd"
           d="M2160,-2210 L2160,-490"
           vector-effect="none"
           id="path4947" />
      </g>
      <g
         transform="matrix(1,0,0,1,5945,4205)"
         stroke-linejoin="bevel"
         font-weight="400"
         stroke="#000000"
         font-size="38.8056"
         font-family="Ubuntu"
         stroke-width="7"
         font-style="normal"
         stroke-opacity="1"
         stroke-linecap="round"
         fill="none"
         id="g4953">
        <path
           fill-rule="evenodd"
           d="M2160,-2210 C2160,-2298.37 2088.37,-2370 2000,-2370 "
           vector-effect="none"
           id="path4951" />
      </g>
      <g
         transform="matrix(1,0,0,1,5945,4205)"
         stroke-linejoin="bevel"
         font-weight="400"
         stroke="#000000"
         font-size="38.8056"
         font-family="Ubuntu"
         stroke-width="7"
         font-style="normal"
         stroke-opacity="1"
         stroke-linecap="round"
         fill="none"
         id="g4957">
        <path
           fill-rule="evenodd"
           d="M-2160,-490 C-2160,702.935 -1192.94,1670 -3.96786e-13,1670 C1192.94,1670 2160,702.935 2160,-490 "
           vector-effect="none"
           id="path4955" />
      </g>
      <g
         transform="matrix(1,0,0,1,5945,4205)"
         stroke-linejoin="bevel"
         font-weight="400"
         stroke="#000000"
         font-size="38.8056"
         font-family="Ubuntu"
         stroke-width="7"
         font-style="normal"
         stroke-opacity="1"
         stroke-linecap="round"
         fill="none"
         id="g4961">
        <path
           fill-rule="evenodd"
           d="M-2000,-2370 L2000,-2370"
           vector-effect="none"
           id="path4959" />
      </g>
      <g
         transform="matrix(1,0,0,1,5945,4205)"
         stroke-linejoin="bevel"
         font-weight="400"
         stroke="#000000"
         font-size="38.8056"
         font-family="Ubuntu"
         stroke-width="7"
         font-style="normal"
         stroke-opacity="1"
         stroke-linecap="round"
         fill="none"
         id="g4965">
        <path
           fill-rule="evenodd"
           d="M-2160,-490 L-2160,-2210"
           vector-effect="none"
           id="path4963" />
      </g>
      <g
         transform="matrix(1,0,0,1,5945,4205)"
         stroke-linejoin="bevel"
         font-weight="400"
         stroke="#000000"
         font-size="38.8056"
         font-family="Ubuntu"
         stroke-width="7"
         font-style="normal"
         stroke-opacity="1"
         stroke-linecap="round"
         fill="none"
         id="g4969">
        <path
           fill-rule="evenodd"
           d="M-2000,-2370 C-2088.37,-2370 -2160,-2298.37 -2160,-2210 "
           vector-effect="none"
           id="path4967" />
      </g>
      <g
         transform="matrix(1,0,0,1,5945,4205)"
         stroke-linejoin="bevel"
         font-weight="400"
         stroke="#000000"
         font-size="38.8056"
         font-family="Ubuntu"
         stroke-width="7"
         font-style="normal"
         stroke-opacity="1"
         stroke-linecap="round"
         fill="none"
         id="g4973">
        <path
           fill-rule="evenodd"
           d="M-2780,2290 L-2780,-3040"
           vector-effect="none"
           id="path4971" />
      </g>
      <g
         transform="matrix(1,0,0,1,5945,4205)"
         stroke-linejoin="bevel"
         font-weight="400"
         stroke="#000000"
         font-size="38.8056"
         font-family="Ubuntu"
         stroke-width="7"
         font-style="normal"
         stroke-opacity="1"
         stroke-linecap="round"
         fill="none"
         id="g4977">
        <path
           fill-rule="evenodd"
           d="M-2780,-3040 L2780,-3040"
           vector-effect="none"
           id="path4975" />
      </g>
      <g
         transform="matrix(1,0,0,1,5945,4205)"
         stroke-linejoin="bevel"
         font-weight="400"
         stroke="#000000"
         font-size="38.8056"
         font-family="Ubuntu"
         stroke-width="7"
         font-style="normal"
         stroke-opacity="1"
         stroke-linecap="round"
         fill="none"
         id="g4981">
        <path
           fill-rule="evenodd"
           d="M2780,-3040 L2780,2665"
           vector-effect="none"
           id="path4979" />
      </g>
      <g
         transform="matrix(1,0,0,1,5945,4205)"
         stroke-linejoin="bevel"
         font-weight="400"
         stroke="#000000"
         font-size="38.8056"
         font-family="Ubuntu"
         stroke-width="7"
         font-style="normal"
         stroke-opacity="1"
         stroke-linecap="round"
         fill="none"
         id="g4985">
        <path
           fill-rule="evenodd"
           d="M2030,2665 C2030,2872.11 2197.89,3040 2405,3040 C2612.11,3040 2780,2872.11 2780,2665 "
           vector-effect="none"
           id="path4983" />
      </g>
      <g
         transform="matrix(1,0,0,1,5945,4205)"
         stroke-linejoin="bevel"
         font-weight="400"
         stroke="#000000"
         font-size="38.8056"
         font-family="Ubuntu"
         stroke-width="7"
         font-style="normal"
         stroke-opacity="1"
         stroke-linecap="round"
         fill="none"
         id="g4989">
        <path
           fill-rule="evenodd"
           d="M2030,2290 L2030,2665"
           vector-effect="none"
           id="path4987" />
      </g>
      <g
         transform="matrix(1,0,0,1,5945,4205)"
         stroke-linejoin="bevel"
         font-weight="400"
         stroke="#000000"
         font-size="38.8056"
         font-family="Ubuntu"
         stroke-width="7"
         font-style="normal"
         stroke-opacity="1"
         stroke-linecap="round"
         fill="none"
         id="g4993">
        <path
           fill-rule="evenodd"
           d="M-2780,2290 L2030,2290"
           vector-effect="none"
           id="path4991" />
      </g>
    </g>
  </g>
  <flowRoot
     xml:space="preserve"
     id="flowRoot5546"
     style="font-style:normal;font-variant:normal;font-weight:normal;font-stretch:normal;font-size:10.66666698px;line-height:100%;font-family:sans-serif;-inkscape-font-specification:'sans-serif, Normal';font-variant-ligatures:normal;font-variant-caps:normal;font-variant-numeric:normal;font-feature-settings:normal;text-align:start;letter-spacing:0px;word-spacing:0px;writing-mode:lr-tb;text-anchor:start;fill:#000000;fill-opacity:1;stroke:none;stroke-width:1px;stroke-linecap:butt;stroke-linejoin:miter;stroke-opacity:1"
     transform="matrix(2.6458333,0,0,2.6458333,730.7469,251.98169)"><flowRegion
       id="flowRegion5548"><rect
         id="rect5550"
         width="1521.9485"
         height="245.80142"
         x="1528.6827"
         y="457.9314" /></flowRegion><flowPara
       id="flowPara5552"
       style="font-style:italic;font-variant:normal;font-weight:500;font-stretch:normal;font-size:213.33332825px;font-family:'URW Chancery L';-inkscape-font-specification:'URW Chancery L, Medium Italic';font-variant-ligatures:normal;font-variant-caps:normal;font-variant-numeric:normal;font-feature-settings:normal;text-align:start;writing-mode:lr-tb;text-anchor:start">Geai rare lit</flowPara></flowRoot>  <path
     style="fill:#000000;stroke-width:7.22034836"
     d="m 6883.3795,6510.6075 c 81.1381,-22.2214 309.8691,-74.8676 422.1596,-97.1669 l 43.0913,-8.5575 -37.0631,-33.4579 c -38.1224,-34.4141 -52.7298,-55.8287 -52.7298,-77.3024 0,-10.7622 5.6492,-11.7331 45.1271,-7.7554 24.8201,2.5007 54.425,2.0236 65.789,-1.0604 18.4254,-5 19.4023,-6.6522 9.0255,-15.2642 -15.6338,-12.9749 -14.6881,-38.629 2.191,-59.4367 l 13.8272,-17.0458 17.5081,16.4183 c 20.2338,18.9742 55.371,30.5141 92.9117,30.5141 22.3969,0 30.2051,-4.8218 53.147,-32.8193 14.7912,-18.0508 44.2594,-45.6488 65.4852,-61.329 59.4368,-43.9087 165.2102,-147.6474 159.675,-156.6037 -2.6936,-4.3582 -17.645,-10.0778 -33.2255,-12.7101 -22.385,-3.7819 -29.7875,-8.9724 -35.2843,-24.7403 -3.8258,-10.9749 -5.371,-28.2465 -3.4335,-38.3812 3.3104,-17.3174 0,-19.6697 -54.9136,-39.0661 l -58.436,-20.639 -0.021,-29.4343 c -0.021,-33.8983 -34.1773,-160.5239 -62.1412,-230.3763 -10.4973,-26.222 -17.8724,-48.7849 -16.3888,-50.1398 3.5716,-3.2617 186.8699,7.9527 190.5769,11.6597 1.5817,1.5817 -5.2164,28.3582 -15.1069,59.5035 -9.8903,31.1451 -16.811,57.799 -15.3793,59.2309 1.4318,1.4318 13.2449,-25.8146 26.2513,-60.5476 13.0063,-34.7329 41.1895,-99.7038 62.6294,-144.3797 38.6658,-80.5709 39.186,-81.2289 64.2269,-81.2289 28.9385,0 30.3806,3.855 10.8046,28.8814 -7.7657,9.928 -14.1917,21.1279 -14.2801,24.8885 -0.087,3.7608 9.8681,-6.7991 22.1252,-23.4661 17.2134,-23.4067 27.0141,-30.3038 43.0611,-30.3038 11.4264,0 87.9013,27.6178 169.9442,61.373 82.0429,33.7551 151.5002,61.3729 154.3496,61.3729 2.8492,0 9.2309,-18.6826 14.1814,-41.517 4.9504,-22.8343 16.8952,-59.0894 26.5439,-80.5668 21.3557,-47.5363 18.2881,-64.3496 -10.9581,-60.0572 -16.3549,2.4004 -21.901,-0.2123 -25.672,-12.0935 -3.5466,-11.1746 -10.8463,-15.1846 -27.7898,-15.2661 -34.126,-0.1639 -39.9385,-7.0993 -42.401,-50.5895 -2.2217,-39.2398 -2.5212,-39.7062 -37.673,-58.6628 -19.4882,-10.5097 -56.3623,-41.3767 -81.9423,-68.5934 -25.58,-27.2165 -41.2393,-40.5496 -34.7985,-29.6289 6.4407,10.9209 8.7921,19.856 5.2254,19.856 -3.5668,0 -11.6905,-10.5597 -18.0529,-23.4661 -6.3623,-12.9063 -11.6419,-18.14 -11.7324,-11.6303 -0.09,6.5095 -6.4656,19.5062 -14.167,28.8813 l -14.0027,17.0456 7.3282,-29.3767 c 4.8608,-19.4859 4.9326,-37.7184 0.2129,-54.1526 l -7.1118,-24.7758 -1.1588,25.2711 c -0.6375,13.8992 -4.1712,31.7696 -7.8531,39.712 -5.3572,11.556 -5.9796,10.1136 -3.1155,-7.2203 1.9683,-11.9136 0.3855,-26.5349 -3.518,-32.4917 -5.5035,-8.3986 -7.1949,-5.9669 -7.5332,10.8305 -0.2397,11.9136 -4.6114,31.4086 -9.7145,43.3222 -8.8431,20.6457 -9.5132,18.8622 -14.2953,-38.0444 -3.2288,-38.4212 -2.2238,-65.4478 2.8191,-75.8137 6.433,-13.2232 4.5256,-12.4799 -10.6501,4.1504 -10.1676,11.1422 -18.4865,16.6337 -18.4865,12.2034 0,-4.4303 15.7987,-24.9188 35.1082,-45.5298 19.3095,-20.611 39.1946,-45.5975 44.189,-55.5255 7.2564,-14.424 2.741,-12.1674 -22.4726,11.231 -59.4717,55.1901 -60.3887,50.0966 -2.6692,-14.8247 54.8012,-61.6389 56.4494,-67.4961 7.2174,-25.6487 l -21.661,18.4119 21.661,-24.2243 c 11.9136,-13.3233 41.1561,-37.3063 64.9832,-53.2955 23.8272,-15.9892 61.1925,-46.1883 83.034,-67.1092 21.8416,-20.9209 55.9577,-46.5824 75.8137,-57.0256 19.856,-10.4432 27.9788,-17.0555 18.0508,-14.6937 -13.9634,3.3216 -15.5984,2.5769 -7.2203,-3.2888 5.9568,-4.1705 22.2026,-7.6822 36.1018,-7.8039 18.9969,-0.1662 22.5822,-1.9589 14.4407,-7.2204 -22.3946,-14.4724 17.5527,-7.47 41.832,7.3328 19.2495,11.7364 26.7008,12.9366 39.1033,6.2991 32.7715,-17.5388 143.4441,8.5915 161.7347,38.1864 2.9582,4.7864 -6.7397,1.2131 -21.5509,-7.9408 -14.8112,-9.1538 -28.685,-14.8877 -30.8307,-12.7418 -2.1458,2.1456 5.3357,8.7598 16.6256,14.6978 34.472,18.1311 87.3619,78.235 107.2903,121.9247 16.3297,35.7999 19.7944,56.5846 25.606,153.6098 4.1628,69.4998 10.8876,122.1805 17.6683,138.409 6.0212,14.4105 41.8219,57.6261 79.5573,96.0343 l 68.6097,69.8331 -1.9449,439.8992 c -1.9137,432.8668 -2.204,440.7346 -18.1615,492.1552 -8.9192,28.7409 -16.2166,53.922 -16.2166,55.9578 0,2.0358 8.1228,3.7015 18.0508,3.7015 h 18.0509 v 72.2035 72.2035 l -142.6019,0.073 c -463.7924,0.2332 -1177.956,46.0638 -1631.7545,104.7156 -76.4212,9.8773 -143.0289,17.6882 -148.0171,17.3578 -4.9882,-0.3309 31.5449,-11.7244 81.1848,-25.3192 z m 1096.185,-197.2968 c 72.7477,-7.5037 133.7486,-15.1231 135.5575,-16.932 1.8089,-1.8089 -14.2679,-18.2879 -35.7259,-36.6203 -21.4582,-18.3322 -49.5623,-49.7679 -62.4534,-69.8571 l -23.4385,-36.5257 -44.2228,41.5446 c -25.0576,23.54 -48.2393,52.7568 -53.4909,67.4164 -5.2898,14.7662 -18.462,31.3026 -30.6865,38.5238 -11.78,6.9587 -21.4184,15.7176 -21.4184,19.4644 0,3.7466 0.8123,6.7709 1.8052,6.7206 0.9927,-0.05 61.3259,-6.2309 134.0737,-13.7347 z m -302.7539,-518.6745 c 13.1744,-26.8057 50.077,-95.8503 82.0059,-153.4325 70.0583,-126.3471 67.3092,-121.0159 57.7136,-111.9153 -7.634,7.24 -91.0124,156.4314 -142.2418,254.5171 -15.0374,28.7913 -29.3751,52.2978 -31.8617,52.2371 -14.7109,-0.3596 -20.8785,-16.6657 -24.5375,-64.8726 -2.2607,-29.784 -7.7086,-62.2755 -12.1064,-72.2035 l -7.9962,-18.0508 3.8215,18.0508 c 2.102,9.928 5.9293,46.481 8.5054,81.2289 4.6154,62.2586 4.9604,63.1781 23.7137,63.1781 16.3147,0 22.4481,-6.9545 42.9835,-48.7373 z m 159.6547,-290.6191 c 4.2506,-7.9424 6.1039,-14.4407 4.1183,-14.4407 -1.9856,0 -7.088,6.4983 -11.3386,14.4407 -4.2507,7.9423 -6.1039,14.4406 -4.1183,14.4406 1.9856,0 7.088,-6.4983 11.3386,-14.4406 z"
     id="path5686"
     inkscape:connector-curvature="0" />
  <path
     style="fill:#000000;stroke-width:6.96926737"
     d="m 5161.6951,6607.4639 c -124.899,-20.7518 -554.3864,-62.5411 -815.4042,-79.3391 -353.5833,-22.7551 -568.1522,-28.6329 -895.5509,-24.5323 -24.9152,0.3123 -99.3992,-1.4935 -165.5202,-4.0126 L 3165,6495 v -68.9899 c 0,-41.3471 2.7925,-68.99 6.9693,-68.99 4.0917,0 6.9252,-23.7406 6.8625,-57.4965 -0.073,-39.696 -2.1982,-54.26 -6.8625,-47.0425 -4.4015,6.8108 -6.793,-142.0941 -6.8626,-427.279 -0.065,-267.6284 2.4082,-436.1785 6.3647,-433.7333 3.8036,2.3508 6.4716,-22.4578 6.4716,-60.1756 0,-39.1301 -2.36,-60.3567 -6.0471,-54.3909 -4.1296,6.6818 -5.8416,2.5566 -5.3989,-13.0086 0.4108,-14.4497 2.6876,-19.4929 6.2201,-13.7772 3.8556,6.2386 9.0181,0.7684 16.7589,-17.7581 6.1527,-14.7257 9.6437,-28.3172 7.7577,-30.2032 -6.7744,-6.7744 -18.307,6.0607 -18.8942,21.028 -0.5127,13.0677 -1.4291,12.5117 -6.356,-3.8565 -6.2105,-20.6329 10.4135,-64.5548 30.854,-81.5188 5.9366,-4.927 9.1496,-11.6188 7.1398,-14.8705 -2.0097,-3.252 8.2231,-11.9716 22.7393,-19.3773 24.5827,-12.5412 26.9878,-16.5986 35.0583,-59.1424 5.9872,-31.5618 6.5218,-51.3144 1.7299,-63.918 -3.8142,-10.0323 -6.935,-25.8767 -6.935,-35.21 0,-19.2943 -17.0116,-23.2367 -23.8109,-5.5181 -2.4168,6.2983 -5.8669,9.9787 -7.6668,8.1789 -5.8308,-5.8307 25.6756,-63.916 56.2514,-103.7049 37.8383,-49.24 105.7211,-112.2365 147.0256,-136.4424 17.5881,-10.3073 39.3008,-26.063 48.2502,-35.0125 8.9496,-8.9496 20.1501,-16.2719 24.89,-16.2719 4.74,0 2.5304,4.4872 -4.91,9.9716 -12.2551,9.0332 -10.5768,9.6 17.8334,6.023 17.2489,-2.1719 37.634,-7.043 45.3001,-10.8248 11.4366,-5.6417 12.3749,-5.2217 5.2275,2.3397 -7.1239,7.5366 -2.1497,10.8949 27.3005,18.4318 89.7792,22.9762 168.4591,94.5286 206.1695,187.493 12.4576,30.7106 22.6501,59.7027 22.6501,64.4269 0,4.7242 11.7607,19.9861 26.1348,33.9153 14.3741,13.9293 19.2168,19.6811 10.7618,12.7818 l -15.3729,-12.5441 12.995,35.5527 c 12.4945,34.1834 12.5061,35.2912 0.2995,28.7585 -6.9826,-3.737 -14.5001,-10.7506 -16.7055,-15.5859 -2.2056,-4.8353 -2.2015,1.5295 0.012,14.144 4.257,24.2931 -3.3848,38.625 -27.4667,51.5133 -13.2406,7.0862 -13.1791,6.4666 1.1692,-11.7743 8.3298,-10.5897 15.0455,-24.3194 14.9235,-30.5103 -0.1847,-9.3767 -1.9303,-8.9973 -10.454,2.2718 -9.7582,12.9017 -10.2599,12.5787 -10.8312,-6.9692 -0.5896,-20.1744 -0.6833,-20.2229 -5.9483,-3.0744 -2.9422,9.5828 -16.7853,40.0822 -30.7626,67.7764 -13.9775,27.6943 -25.4135,56.8046 -25.4135,64.6895 0,30.4137 -23.5069,68.1927 -74.3135,119.4322 -45.6495,46.0385 -50.9656,53.8637 -39.1423,57.6163 28.6653,9.098 43.7981,34.0937 81.5171,134.6464 4.6462,12.3859 10.2699,24.3423 12.4972,26.5696 2.2273,2.2273 31.8182,-9.8953 65.7575,-26.939 112.2765,-56.3835 219.693,-102.3886 227.876,-97.5964 17.0668,9.9949 137.0084,115.2654 153.0482,134.3277 l 16.8779,20.0581 37.3462,-30.6349 c 20.5403,-16.8493 46.7076,-35.1688 58.1495,-40.7103 19.1325,-9.2662 21.5769,-8.9707 30.4372,3.6791 8.5645,12.2275 7.283,17.3686 -11.5425,46.3089 -11.647,17.9051 -20.1817,33.5494 -18.9657,34.7651 1.2158,1.2159 16.6121,-1.0167 34.2141,-4.9616 30.0561,-6.7356 33.1452,-6.0305 50.7627,11.5872 l 18.7593,18.7592 -38.0437,35.4108 c -20.9239,19.476 -39.8986,40.2452 -42.166,46.1537 -2.2673,5.9087 -27.1758,20.5423 -55.3522,32.5192 -42.3206,17.9892 -62.4985,32.8268 -116.0254,85.3182 -36.2419,35.5408 -77.1533,68.7904 -92.8387,75.452 l -28.0433,11.91 46.7023,65.983 c 64.0765,90.5297 122.4613,160.9317 152.3979,183.7655 26.132,19.932 95.4205,53.1355 110.882,53.1355 13.2294,0 10.1841,68.0672 -4.3352,96.8981 -6.5702,13.0465 -11.946,24.5962 -11.946,25.666 0,1.0698 35.4663,19.3878 78.814,40.7067 89.5481,44.0411 164.8369,71.3189 215.333,78.0175 19.264,2.5554 36.2194,8.8209 38.2597,14.1376 2.0152,5.2517 -4.4981,20.2497 -14.4741,33.3288 l -18.1381,23.7803 19.1076,3.7122 c 10.509,2.0417 84.2955,16.5456 163.97,32.2309 240.2731,47.302 530.8711,124.8481 363.894,97.1052 z M 4142.6175,6349.1321 c -80.1191,-83.3723 -220.4225,-221.5806 -225.2335,-221.8702 -2.0797,-0.1255 -7.5552,13.8822 -12.1677,31.1276 -5.688,21.2667 -19.441,42.8244 -42.744,67.0008 -18.8966,19.6049 -38.079,44.6296 -42.6272,55.6102 -4.5483,10.9806 -23.5981,35.5369 -42.3329,54.5694 -18.7346,19.0326 -34.063,36.3492 -34.063,38.4814 0,2.1321 15.524,3.8766 34.4976,3.8766 37.9385,0 256.1764,18.1788 327.9044,27.3139 24.915,3.1731 57.1408,6.166 71.6127,6.6508 l 26.3125,0.8816 z m -360.1886,-772.6699 c 128.9599,-61.3297 238.0213,-111.3997 242.3588,-111.267 4.3374,0.1325 62.4498,42.7491 129.1387,94.703 l 121.2525,94.4617 32.0713,-32.9772 32.0713,-32.9774 -32.5276,22.673 c -17.8902,12.4701 -35.759,20.6759 -39.7084,18.2349 -3.9495,-2.4408 -59.6116,-43.6924 -123.6936,-91.6703 -64.0819,-47.9778 -119.913,-85.9018 -124.0693,-84.2753 -4.1561,1.6264 -106.3459,49.3124 -227.0885,105.9689 -188.3515,88.3808 -266.1221,128.6339 -248.5256,128.6339 2.3363,0 109.7604,-50.1787 238.7204,-111.5082 z m -558.9477,-422.1796 c 2.0926,-5.4533 1.3943,-9.915 -1.5519,-9.915 -6.9327,0 -22.083,15.1501 -22.083,22.0829 0,8.6764 19.4858,-1.3554 23.6349,-12.1679 z m 39.0886,-246.8702 c 0,-3.833 -1.3831,-6.9692 -3.0733,-6.9692 -1.6904,0 -5.0116,3.1362 -7.3806,6.9692 -2.3691,3.8331 -0.986,6.9693 3.0733,6.9693 4.0594,0 7.3806,-3.1362 7.3806,-6.9693 z m -82.1001,233.0109 c 10.4248,-10.84 20.5789,-18.0845 22.5644,-16.099 1.9855,1.9857 -6.5439,10.8547 -18.9543,19.7091 l -22.5644,16.099 z m 62.1185,-157.08 c -9.0734,-11.4771 -14.9192,-22.4454 -12.9908,-24.3738 4.062,-4.0619 32.9724,30.9957 32.9724,39.9833 0,8.8034 -1.7834,7.4102 -19.9816,-15.6095 z"
     id="path5684"
     inkscape:connector-curvature="0" />
</svg>
