<?xml version="1.0" encoding="UTF-8" standalone="no"?>
<svg
   xmlns:dc="http://purl.org/dc/elements/1.1/"
   xmlns:cc="http://creativecommons.org/ns#"
   xmlns:rdf="http://www.w3.org/1999/02/22-rdf-syntax-ns#"
   xmlns:svg="http://www.w3.org/2000/svg"
   xmlns="http://www.w3.org/2000/svg"
   xmlns:sodipodi="http://sodipodi.sourceforge.net/DTD/sodipodi-0.dtd"
   xmlns:inkscape="http://www.inkscape.org/namespaces/inkscape"
   height="8.5in"
   version="1.2"
   width="11in"
   viewBox="0 0 2794 2159"
   id="svg4997"
   sodipodi:docname="porte_2.svg"
   inkscape:version="0.92.3 (2405546, 2018-03-11)">
  <metadata
     id="metadata5001">
    <rdf:RDF>
      <cc:Work
         rdf:about="">
        <dc:format>image/svg+xml</dc:format>
        <dc:type
           rdf:resource="http://purl.org/dc/dcmitype/StillImage" />
        <dc:title>FreeCAD SVG Export</dc:title>
      </cc:Work>
    </rdf:RDF>
  </metadata>
  <sodipodi:namedview
     pagecolor="#ffffff"
     bordercolor="#666666"
     borderopacity="1"
     objecttolerance="10"
     gridtolerance="10"
     guidetolerance="10"
     inkscape:pageopacity="0"
     inkscape:pageshadow="2"
     inkscape:window-width="1613"
     inkscape:window-height="995"
     id="namedview4999"
     showgrid="false"
     inkscape:zoom="0.21000203"
     inkscape:cx="1106.6821"
     inkscape:cy="524.30754"
     inkscape:window-x="131"
     inkscape:window-y="27"
     inkscape:window-maximized="1"
     inkscape:current-layer="svg4997"
     units="in" />
  <title
     id="title4925">FreeCAD SVG Export</title>
  <desc
     id="desc4927">Drawing page: Page001 exported from FreeCAD document: Unnamed</desc>
  <defs
     id="defs4929" />
  <g
     id="Page001"
     transform="translate(-4579.1738,-4504.8557)">
    <g
       id="DrawingContent"
       style="fill:none;fill-rule:evenodd;stroke:#000000;stroke-width:1;stroke-linecap:square;stroke-linejoin:bevel">
      <g
         transform="translate(5945,4205)"
         font-weight="400"
         font-size="38.8056"
         font-style="normal"
         id="g4933"
         style="font-style:normal;font-weight:400;font-size:38.80559921px;font-family:Ubuntu;fill:#ffffff;fill-opacity:1;stroke:none">
        <path
           d="m -2780,2290 v -5330 h 5560 v 5705 c 0,207.11 -167.89,375 -375,375 -207.11,0 -375,-167.89 -375,-375 v -375 h -4810"
           id="path4931"
           inkscape:connector-curvature="0"
           style="vector-effect:non-scaling-stroke;fill-rule:evenodd" />
      </g>
      <g
         transform="translate(5945,4205)"
         font-weight="400"
         font-size="38.8056"
         font-style="normal"
         id="g4937"
         style="font-style:normal;font-weight:400;font-size:38.80559921px;font-family:Ubuntu;fill:none;stroke:#000000;stroke-width:1;stroke-linecap:square;stroke-linejoin:bevel;stroke-opacity:1">
        <rect
           height="0"
           width="0"
           x="0"
           y="0"
           id="rect4935" />
      </g>
      <g
         transform="translate(5945,4205)"
         font-weight="400"
         font-size="38.8056"
         font-style="normal"
         id="g4941"
         style="font-style:normal;font-weight:400;font-size:38.80559921px;font-family:Ubuntu;fill:#ffffff;fill-opacity:1;stroke:none">
        <path
           d="M 2160,-2210 V -490 C 2160,702.935 1192.94,1670 0,1670 -1192.94,1670 -2160,702.935 -2160,-490 v -1720 c 0,-88.37 71.63,-160 160,-160 h 4000 c 88.37,0 160,71.63 160,160"
           id="path4939"
           inkscape:connector-curvature="0"
           style="vector-effect:non-scaling-stroke;fill-rule:evenodd" />
      </g>
      <g
         transform="translate(5945,4205)"
         font-weight="400"
         font-size="38.8056"
         font-style="normal"
         id="g4945"
         style="font-style:normal;font-weight:400;font-size:38.80559921px;font-family:Ubuntu;fill:none;stroke:#000000;stroke-width:1;stroke-linecap:square;stroke-linejoin:bevel;stroke-opacity:1">
        <rect
           height="0"
           width="0"
           x="0"
           y="0"
           id="rect4943" />
      </g>
      <g
         transform="translate(5945,4205)"
         font-weight="400"
         font-size="38.8056"
         font-style="normal"
         id="g4949"
         style="font-style:normal;font-weight:400;font-size:38.80559921px;font-family:Ubuntu;fill:none;stroke:#000000;stroke-width:7;stroke-linecap:round;stroke-linejoin:bevel;stroke-opacity:1">
        <path
           d="M 2160,-2210 V -490"
           id="path4947"
           inkscape:connector-curvature="0"
           style="vector-effect:none;fill-rule:evenodd" />
      </g>
      <g
         transform="translate(5945,4205)"
         font-weight="400"
         font-size="38.8056"
         font-style="normal"
         id="g4953"
         style="font-style:normal;font-weight:400;font-size:38.80559921px;font-family:Ubuntu;fill:none;stroke:#000000;stroke-width:7;stroke-linecap:round;stroke-linejoin:bevel;stroke-opacity:1">
        <path
           d="m 2160,-2210 c 0,-88.37 -71.63,-160 -160,-160"
           id="path4951"
           inkscape:connector-curvature="0"
           style="vector-effect:none;fill-rule:evenodd" />
      </g>
      <g
         transform="translate(5945,4205)"
         font-weight="400"
         font-size="38.8056"
         font-style="normal"
         id="g4957"
         style="font-style:normal;font-weight:400;font-size:38.80559921px;font-family:Ubuntu;fill:none;stroke:#000000;stroke-width:7;stroke-linecap:round;stroke-linejoin:bevel;stroke-opacity:1">
        <path
           d="m -2160,-490 c 0,1192.935 967.06,2160 2160,2160 1192.94,0 2160,-967.065 2160,-2160"
           id="path4955"
           inkscape:connector-curvature="0"
           style="vector-effect:none;fill-rule:evenodd" />
      </g>
      <g
         transform="translate(5945,4205)"
         font-weight="400"
         font-size="38.8056"
         font-style="normal"
         id="g4961"
         style="font-style:normal;font-weight:400;font-size:38.80559921px;font-family:Ubuntu;fill:none;stroke:#000000;stroke-width:7;stroke-linecap:round;stroke-linejoin:bevel;stroke-opacity:1">
        <path
           d="M -2000,-2370 H 2000"
           id="path4959"
           inkscape:connector-curvature="0"
           style="vector-effect:none;fill-rule:evenodd" />
      </g>
      <g
         transform="translate(5945,4205)"
         font-weight="400"
         font-size="38.8056"
         font-style="normal"
         id="g4965"
         style="font-style:normal;font-weight:400;font-size:38.80559921px;font-family:Ubuntu;fill:none;stroke:#000000;stroke-width:7;stroke-linecap:round;stroke-linejoin:bevel;stroke-opacity:1">
        <path
           d="M -2160,-490 V -2210"
           id="path4963"
           inkscape:connector-curvature="0"
           style="vector-effect:none;fill-rule:evenodd" />
      </g>
      <g
         transform="translate(5945,4205)"
         font-weight="400"
         font-size="38.8056"
         font-style="normal"
         id="g4969"
         style="font-style:normal;font-weight:400;font-size:38.80559921px;font-family:Ubuntu;fill:none;stroke:#000000;stroke-width:7;stroke-linecap:round;stroke-linejoin:bevel;stroke-opacity:1">
        <path
           d="m -2000,-2370 c -88.37,0 -160,71.63 -160,160"
           id="path4967"
           inkscape:connector-curvature="0"
           style="vector-effect:none;fill-rule:evenodd" />
      </g>
      <g
         transform="translate(5945,4205)"
         font-weight="400"
         font-size="38.8056"
         font-style="normal"
         id="g4973"
         style="font-style:normal;font-weight:400;font-size:38.80559921px;font-family:Ubuntu;fill:none;stroke:#000000;stroke-width:7;stroke-linecap:round;stroke-linejoin:bevel;stroke-opacity:1">
        <path
           d="M -2780,2290 V -3040"
           id="path4971"
           inkscape:connector-curvature="0"
           style="vector-effect:none;fill-rule:evenodd" />
      </g>
      <g
         transform="translate(5945,4205)"
         font-weight="400"
         font-size="38.8056"
         font-style="normal"
         id="g4977"
         style="font-style:normal;font-weight:400;font-size:38.80559921px;font-family:Ubuntu;fill:none;stroke:#000000;stroke-width:7;stroke-linecap:round;stroke-linejoin:bevel;stroke-opacity:1">
        <path
           d="M -2780,-3040 H 2780"
           id="path4975"
           inkscape:connector-curvature="0"
           style="vector-effect:none;fill-rule:evenodd" />
      </g>
      <g
         transform="translate(5945,4205)"
         font-weight="400"
         font-size="38.8056"
         font-style="normal"
         id="g4981"
         style="font-style:normal;font-weight:400;font-size:38.80559921px;font-family:Ubuntu;fill:none;stroke:#000000;stroke-width:7;stroke-linecap:round;stroke-linejoin:bevel;stroke-opacity:1">
        <path
           d="M 2780,-3040 V 2665"
           id="path4979"
           inkscape:connector-curvature="0"
           style="vector-effect:none;fill-rule:evenodd" />
      </g>
      <g
         transform="translate(5945,4205)"
         font-weight="400"
         font-size="38.8056"
         font-style="normal"
         id="g4985"
         style="font-style:normal;font-weight:400;font-size:38.80559921px;font-family:Ubuntu;fill:none;stroke:#000000;stroke-width:7;stroke-linecap:round;stroke-linejoin:bevel;stroke-opacity:1">
        <path
           d="m 2030,2665 c 0,207.11 167.89,375 375,375 207.11,0 375,-167.89 375,-375"
           id="path4983"
           inkscape:connector-curvature="0"
           style="vector-effect:none;fill-rule:evenodd" />
      </g>
      <g
         transform="translate(5945,4205)"
         font-weight="400"
         font-size="38.8056"
         font-style="normal"
         id="g4989"
         style="font-style:normal;font-weight:400;font-size:38.80559921px;font-family:Ubuntu;fill:none;stroke:#000000;stroke-width:7;stroke-linecap:round;stroke-linejoin:bevel;stroke-opacity:1">
        <path
           d="m 2030,2290 v 375"
           id="path4987"
           inkscape:connector-curvature="0"
           style="vector-effect:none;fill-rule:evenodd" />
      </g>
      <g
         transform="translate(5945,4205)"
         font-weight="400"
         font-size="38.8056"
         font-style="normal"
         id="g4993"
         style="font-style:normal;font-weight:400;font-size:38.80559921px;font-family:Ubuntu;fill:none;stroke:#000000;stroke-width:7;stroke-linecap:round;stroke-linejoin:bevel;stroke-opacity:1">
        <path
           d="M -2780,2290 H 2030"
           id="path4991"
           inkscape:connector-curvature="0"
           style="vector-effect:none;fill-rule:evenodd" />
      </g>
    </g>
  </g>
  <g
     aria-label="Geai rare lit"
     transform="matrix(2.9358126,0,0,2.9358126,-4441.1397,247.72848)"
     style="font-style:normal;font-variant:normal;font-weight:normal;font-stretch:normal;font-size:10.66666698px;line-height:100%;font-family:sans-serif;-inkscape-font-specification:'sans-serif, Normal';font-variant-ligatures:normal;font-variant-caps:normal;font-variant-numeric:normal;font-feature-settings:normal;text-align:start;letter-spacing:0px;word-spacing:0px;writing-mode:lr-tb;text-anchor:start;fill:#000044;fill-opacity:1;stroke:none;stroke-width:1px;stroke-linecap:butt;stroke-linejoin:miter;stroke-opacity:1"
     id="flowRoot5546">
    <path
       d="m 1652.8436,470.54888 h 4.48 l 9.8133,-5.97333 c -8.5333,-0.64 -28.16,-1.06667 -48,-1.06667 l -13.0133,6.61333 v 1.70667 c 10.6667,-0.64 21.12,-1.06667 31.1467,-1.28 l -7.68,30.72 c -8.96,8.53333 -21.76,14.29333 -31.5734,14.29333 -15.7866,0 -25.6,-12.37333 -25.6,-31.78667 0,-41.59999 28.16,-80.42666 58.0267,-80.42666 8.7467,0 16.2133,3.62667 20.2667,10.02667 2.7733,4.26666 3.84,7.89333 5.12,16.85333 l 15.7866,-17.70667 c -4.0533,-12.16 -11.9466,-16.85333 -28.16,-16.85333 -23.2533,0 -44.3733,9.6 -61.44,27.94667 -17.28,18.56 -28.16,44.8 -28.16,67.19999 0,20.69334 11.3067,33.49334 29.6534,33.49334 13.2266,0 24.5333,-3.41334 43.52,-13.01334 -3.2,12.8 -7.04,26.66667 -8.96,31.36 -4.2667,11.52 -10.4534,16.21334 -21.76,16.21334 -6.1867,0 -16.64,-0.85334 -23.04,-1.92 l -8.96,14.08 c 7.68,0.85333 11.0933,1.06666 15.36,1.06666 17.0666,0 31.5733,-7.68 45.6533,-24.10666 9.1733,-10.45334 13.0133,-19.41334 19.2,-44.16 z"
       style="font-style:italic;font-variant:normal;font-weight:500;font-stretch:normal;font-size:213.33332825px;font-family:'URW Chancery L';-inkscape-font-specification:'URW Chancery L, Medium Italic';font-variant-ligatures:normal;font-variant-caps:normal;font-variant-numeric:normal;font-feature-settings:normal;text-align:start;writing-mode:lr-tb;text-anchor:start;fill:#000044;fill-opacity:1"
       id="path6740" />
    <path
       d="m 1741.8336,492.52221 c -16,13.86667 -26.24,19.84 -34.3467,19.84 -5.3333,0 -9.8133,-3.62667 -11.3066,-9.17333 -0.8534,-3.41334 -1.0667,-5.76 -1.0667,-11.94667 9.6,-5.97333 16,-10.45333 28.5867,-19.84 11.52,-8.74666 16,-15.78666 16,-25.38666 0,-7.46667 -4.6934,-11.94667 -12.16,-11.94667 -4.6934,0 -8.1067,1.06667 -13.0134,3.84 -8.1066,4.69333 -15.36,10.45333 -19.84,15.57333 -8.1066,9.81334 -15.36,33.28 -15.36,50.56 0,12.58667 6.6134,20.48 17.4934,20.48 12.5866,0 28.16,-8.96 45.0133,-25.81333 z m -46.08,-8.96 c 3.6267,-22.82666 13.44,-40.53333 22.6133,-40.53333 3.6267,0 5.9734,3.62667 5.9734,8.74667 0,10.66666 -5.76,17.06666 -28.5867,31.78666 z"
       style="font-style:italic;font-variant:normal;font-weight:500;font-stretch:normal;font-size:213.33332825px;font-family:'URW Chancery L';-inkscape-font-specification:'URW Chancery L, Medium Italic';font-variant-ligatures:normal;font-variant-caps:normal;font-variant-numeric:normal;font-feature-settings:normal;text-align:start;writing-mode:lr-tb;text-anchor:start;fill:#000044;fill-opacity:1"
       id="path6742" />
    <path
       d="m 1838.2269,494.01554 c -16,10.66667 -19.2,12.58667 -21.3333,12.58667 -1.4933,0 -2.56,-1.70667 -2.56,-4.26667 0,-5.54666 5.12,-29.01333 12.8,-57.38666 2.3467,-3.2 2.7733,-3.84 6.1867,-7.68 -10.24,-2.34667 -17.7067,-3.2 -26.88,-3.2 -8.7467,0 -12.8,0.85333 -18.3467,4.26667 -7.68,4.48 -16.64,11.09333 -19.4133,14.08 -7.8934,8.96 -16.8534,37.75999 -16.8534,55.03999 0,10.24 3.4134,17.06667 8.7467,17.06667 4.6933,0 11.7333,-4.26667 38.4,-23.46667 -2.1333,9.81334 -3.2,16.42667 -3.2,18.98667 0,2.77333 1.28,4.48 3.4133,4.48 2.56,0 2.56,0 19.6267,-10.88 6.1867,-4.05333 11.0933,-7.46667 19.2,-13.44 z m -41.6,1.28 c -12.5866,9.17334 -18.9866,12.8 -22.8266,12.8 -3.4134,0 -5.5467,-3.84 -5.5467,-10.66666 0,-10.66667 3.4133,-25.17333 8.7467,-37.33333 5.12,-11.73334 9.8133,-16.21334 17.0666,-16.21334 3.84,0 10.4534,1.06667 18.1334,2.77334 -4.2667,16.21333 -5.76,21.12 -5.9734,22.18666 -1.28,5.33334 -2.3466,10.66667 -3.6266,16.21333 -0.2134,1.06667 -0.8534,3.62667 -1.92,7.46667 z"
       style="font-style:italic;font-variant:normal;font-weight:500;font-stretch:normal;font-size:213.33332825px;font-family:'URW Chancery L';-inkscape-font-specification:'URW Chancery L, Medium Italic';font-variant-ligatures:normal;font-variant-caps:normal;font-variant-numeric:normal;font-feature-settings:normal;text-align:start;writing-mode:lr-tb;text-anchor:start;fill:#000044;fill-opacity:1"
       id="path6744" />
    <path
       d="m 1874.4769,416.36221 c 6.1867,-5.54666 6.6133,-5.97333 13.8667,-11.52 -1.28,-2.56 -2.3467,-4.26666 -2.7734,-4.90666 -1.28,-2.56 -1.4933,-2.77334 -3.2,-6.82667 -0.4266,-0.85333 -0.8533,-1.70667 -1.28,-2.77333 -1.0666,0.85333 -2.3466,1.70666 -2.9866,2.34666 -0.8534,0.85334 -2.56,2.13334 -4.6934,3.84 -1.0666,0.85334 -2.56,1.92 -4.48,3.2 -0.8533,0.64 -1.7066,1.28 -2.56,1.70667 1.4934,4.69333 3.4134,8.10667 8.1067,14.93333 z m 14.72,80.64 c -20.2667,10.88 -20.6933,11.09333 -23.4667,11.09333 -2.3466,0 -3.84,-2.34666 -3.84,-5.97333 0,-2.13333 0.64,-6.18667 1.92,-10.88 10.88,-44.8 13.0134,-53.33333 13.0134,-55.04 0,-1.28 -1.0667,-2.13333 -2.56,-2.13333 -3.6267,0 -16.2134,7.04 -33.7067,18.77333 l -0.4267,5.97334 c 12.5867,-6.82667 13.6534,-7.25334 15.5734,-7.25334 1.7066,0 2.56,1.28 2.56,3.84 0,2.77334 -0.64,5.76 -3.84,17.92 -10.0267,37.33333 -10.0267,37.33333 -10.0267,42.66667 0,5.12 2.1333,8.53333 5.12,8.53333 3.6267,0 9.3867,-2.77333 20.6933,-10.02667 4.0534,-2.56 8.1067,-5.12 12.16,-7.89333 1.92,-1.06667 3.84,-2.34667 5.9734,-3.62667 z"
       style="font-style:italic;font-variant:normal;font-weight:500;font-stretch:normal;font-size:213.33332825px;font-family:'URW Chancery L';-inkscape-font-specification:'URW Chancery L, Medium Italic';font-variant-ligatures:normal;font-variant-caps:normal;font-variant-numeric:normal;font-feature-settings:normal;text-align:start;writing-mode:lr-tb;text-anchor:start;fill:#000044;fill-opacity:1"
       id="path6746" />
    <path
       d="m 1940.3836,523.88221 16.4267,-6.18667 16,-60.79999 c 7.2533,-5.33334 12.16,-7.46667 17.92,-7.46667 4.6933,0 7.4666,1.70667 11.3066,6.61333 l 6.4,-20.26666 c -4.0533,-1.28 -5.76,-1.70667 -7.8933,-1.70667 -3.84,0 -8.32,1.92 -14.08,5.97333 l -12.5867,9.17334 c 0.2134,-1.70667 0.64,-2.77334 0.64,-3.41334 1.7067,-7.04 1.92,-8.32 1.92,-9.38666 0,-1.28 -1.28,-2.34667 -2.7733,-2.34667 -2.7733,0 -21.5467,9.17333 -34.56,17.06667 l -0.64,5.76 c 11.52,-5.97334 12.8,-6.4 15.36,-6.4 2.7733,0 4.0533,1.49333 4.0533,4.48 0,2.98666 -2.1333,13.01333 -4.6933,22.18666 z"
       style="font-style:italic;font-variant:normal;font-weight:500;font-stretch:normal;font-size:213.33332825px;font-family:'URW Chancery L';-inkscape-font-specification:'URW Chancery L, Medium Italic';font-variant-ligatures:normal;font-variant-caps:normal;font-variant-numeric:normal;font-feature-settings:normal;text-align:start;writing-mode:lr-tb;text-anchor:start;fill:#000044;fill-opacity:1"
       id="path6748" />
    <path
       d="m 2090.3102,494.01554 c -16,10.66667 -19.2,12.58667 -21.3333,12.58667 -1.4933,0 -2.56,-1.70667 -2.56,-4.26667 0,-5.54666 5.12,-29.01333 12.8,-57.38666 2.3467,-3.2 2.7733,-3.84 6.1867,-7.68 -10.24,-2.34667 -17.7067,-3.2 -26.88,-3.2 -8.7467,0 -12.8,0.85333 -18.3467,4.26667 -7.68,4.48 -16.64,11.09333 -19.4133,14.08 -7.8934,8.96 -16.8534,37.75999 -16.8534,55.03999 0,10.24 3.4134,17.06667 8.7467,17.06667 4.6933,0 11.7333,-4.26667 38.4,-23.46667 -2.1333,9.81334 -3.2,16.42667 -3.2,18.98667 0,2.77333 1.28,4.48 3.4133,4.48 2.56,0 2.56,0 19.6267,-10.88 6.1867,-4.05333 11.0933,-7.46667 19.2,-13.44 z m -41.6,1.28 c -12.5866,9.17334 -18.9866,12.8 -22.8266,12.8 -3.4134,0 -5.5467,-3.84 -5.5467,-10.66666 0,-10.66667 3.4133,-25.17333 8.7467,-37.33333 5.12,-11.73334 9.8133,-16.21334 17.0666,-16.21334 3.84,0 10.4534,1.06667 18.1334,2.77334 -4.2667,16.21333 -5.76,21.12 -5.9734,22.18666 -1.28,5.33334 -2.3466,10.66667 -3.6266,16.21333 -0.2134,1.06667 -0.8534,3.62667 -1.92,7.46667 z"
       style="font-style:italic;font-variant:normal;font-weight:500;font-stretch:normal;font-size:213.33332825px;font-family:'URW Chancery L';-inkscape-font-specification:'URW Chancery L, Medium Italic';font-variant-ligatures:normal;font-variant-caps:normal;font-variant-numeric:normal;font-feature-settings:normal;text-align:start;writing-mode:lr-tb;text-anchor:start;fill:#000044;fill-opacity:1"
       id="path6750" />
    <path
       d="m 2094.1336,523.88221 16.4267,-6.18667 16,-60.79999 c 7.2533,-5.33334 12.16,-7.46667 17.92,-7.46667 4.6933,0 7.4666,1.70667 11.3066,6.61333 l 6.4,-20.26666 c -4.0533,-1.28 -5.76,-1.70667 -7.8933,-1.70667 -3.84,0 -8.32,1.92 -14.08,5.97333 l -12.5867,9.17334 c 0.2134,-1.70667 0.64,-2.77334 0.64,-3.41334 1.7067,-7.04 1.92,-8.32 1.92,-9.38666 0,-1.28 -1.28,-2.34667 -2.7733,-2.34667 -2.7733,0 -21.5467,9.17333 -34.56,17.06667 l -0.64,5.76 c 11.52,-5.97334 12.8,-6.4 15.36,-6.4 2.7733,0 4.0533,1.49333 4.0533,4.48 0,2.98666 -2.1333,13.01333 -4.6933,22.18666 z"
       style="font-style:italic;font-variant:normal;font-weight:500;font-stretch:normal;font-size:213.33332825px;font-family:'URW Chancery L';-inkscape-font-specification:'URW Chancery L, Medium Italic';font-variant-ligatures:normal;font-variant-caps:normal;font-variant-numeric:normal;font-feature-settings:normal;text-align:start;writing-mode:lr-tb;text-anchor:start;fill:#000044;fill-opacity:1"
       id="path6752" />
    <path
       d="m 2220.1669,492.52221 c -16,13.86667 -26.24,19.84 -34.3467,19.84 -5.3333,0 -9.8133,-3.62667 -11.3066,-9.17333 -0.8534,-3.41334 -1.0667,-5.76 -1.0667,-11.94667 9.6,-5.97333 16,-10.45333 28.5867,-19.84 11.52,-8.74666 16,-15.78666 16,-25.38666 0,-7.46667 -4.6934,-11.94667 -12.16,-11.94667 -4.6934,0 -8.1067,1.06667 -13.0134,3.84 -8.1066,4.69333 -15.36,10.45333 -19.84,15.57333 -8.1066,9.81334 -15.36,33.28 -15.36,50.56 0,12.58667 6.6134,20.48 17.4934,20.48 12.5866,0 28.16,-8.96 45.0133,-25.81333 z m -46.08,-8.96 c 3.6267,-22.82666 13.44,-40.53333 22.6133,-40.53333 3.6267,0 5.9734,3.62667 5.9734,8.74667 0,10.66666 -5.76,17.06666 -28.5867,31.78666 z"
       style="font-style:italic;font-variant:normal;font-weight:500;font-stretch:normal;font-size:213.33332825px;font-family:'URW Chancery L';-inkscape-font-specification:'URW Chancery L, Medium Italic';font-variant-ligatures:normal;font-variant-caps:normal;font-variant-numeric:normal;font-feature-settings:normal;text-align:start;writing-mode:lr-tb;text-anchor:start;fill:#000044;fill-opacity:1"
       id="path6754" />
    <path
       d="m 2324.1769,494.22888 c -2.9866,1.70666 -4.9066,2.98666 -5.76,3.41333 -15.36,9.6 -17.0666,10.45333 -20.0533,10.45333 -1.92,0 -3.84,-2.56 -3.84,-5.54666 v -1.92 -1.92 c 0,-3.84 9.6,-45.22667 17.4933,-75.30667 8.32,-31.36 10.24,-35.2 19.6267,-35.2 2.7733,0 4.9067,0.21334 10.4533,1.49334 l 9.1734,-11.30667 c -4.48,-1.06667 -6.8267,-1.28 -9.6,-1.28 -8.5334,0 -15.36,3.41333 -25.6,12.58667 -9.3867,8.53333 -11.7334,11.73333 -14.5067,19.41333 -1.7067,5.12 -6.4,22.4 -8.5333,31.78667 l -15.36,66.77333 c -0.2134,1.28 -0.4267,2.56 -0.4267,3.84 0,6.4 3.6267,13.01333 7.04,13.01333 h 1.28 0.64 c 2.1333,0 11.0933,-6.18667 37.9733,-25.6 z"
       style="font-style:italic;font-variant:normal;font-weight:500;font-stretch:normal;font-size:213.33332825px;font-family:'URW Chancery L';-inkscape-font-specification:'URW Chancery L, Medium Italic';font-variant-ligatures:normal;font-variant-caps:normal;font-variant-numeric:normal;font-feature-settings:normal;text-align:start;writing-mode:lr-tb;text-anchor:start;fill:#000044;fill-opacity:1"
       id="path6756" />
    <path
       d="m 2361.5603,416.36221 c 6.1866,-5.54666 6.6133,-5.97333 13.8666,-11.52 -1.28,-2.56 -2.3466,-4.26666 -2.7733,-4.90666 -1.28,-2.56 -1.4933,-2.77334 -3.2,-6.82667 -0.4267,-0.85333 -0.8533,-1.70667 -1.28,-2.77333 -1.0667,0.85333 -2.3467,1.70666 -2.9867,2.34666 -0.8533,0.85334 -2.56,2.13334 -4.6933,3.84 -1.0667,0.85334 -2.56,1.92 -4.48,3.2 -0.8533,0.64 -1.7067,1.28 -2.56,1.70667 1.4933,4.69333 3.4133,8.10667 8.1067,14.93333 z m 14.72,80.64 c -20.2667,10.88 -20.6934,11.09333 -23.4667,11.09333 -2.3467,0 -3.84,-2.34666 -3.84,-5.97333 0,-2.13333 0.64,-6.18667 1.92,-10.88 10.88,-44.8 13.0133,-53.33333 13.0133,-55.04 0,-1.28 -1.0666,-2.13333 -2.56,-2.13333 -3.6266,0 -16.2133,7.04 -33.7066,18.77333 l -0.4267,5.97334 c 12.5867,-6.82667 13.6533,-7.25334 15.5733,-7.25334 1.7067,0 2.56,1.28 2.56,3.84 0,2.77334 -0.64,5.76 -3.84,17.92 -10.0266,37.33333 -10.0266,37.33333 -10.0266,42.66667 0,5.12 2.1333,8.53333 5.12,8.53333 3.6266,0 9.3866,-2.77333 20.6933,-10.02667 4.0533,-2.56 8.1067,-5.12 12.16,-7.89333 1.92,-1.06667 3.84,-2.34667 5.9733,-3.62667 z"
       style="font-style:italic;font-variant:normal;font-weight:500;font-stretch:normal;font-size:213.33332825px;font-family:'URW Chancery L';-inkscape-font-specification:'URW Chancery L, Medium Italic';font-variant-ligatures:normal;font-variant-caps:normal;font-variant-numeric:normal;font-feature-settings:normal;text-align:start;writing-mode:lr-tb;text-anchor:start;fill:#000044;fill-opacity:1"
       id="path6758" />
    <path
       d="m 2438.6236,494.86888 c -16.2133,9.6 -23.04,13.22666 -26.0267,13.22666 -2.7733,0 -6.1866,-5.54666 -6.1866,-10.02666 0,-2.98667 3.6266,-19.41333 9.1733,-41.81333 2.9867,-0.21334 5.12,-0.21334 6.1867,-0.21334 l 8.5333,-0.21333 c 0.8533,0 2.9867,-0.21333 6.4,-0.64 l 8.1067,-6.18667 h -27.3067 l 8.5333,-34.56 c -4.0533,2.13334 -5.76,2.77334 -8.96,4.26667 -1.4933,0.85333 -3.2,1.49333 -4.9066,2.34667 -0.8534,0.42666 -1.92,0.85333 -2.9867,1.28 l -5.9733,26.66666 c -1.92,0.21334 -3.2,0.21334 -3.84,0.21334 h -5.12 c -0.4267,0 -1.4934,0 -3.2,0.21333 -2.3467,1.49333 -2.56,1.49333 -6.1867,4.48 -0.64,0.42667 -1.7067,1.28 -3.2,2.34667 h 5.12 9.8133 4.6934 c -11.3067,47.35999 -11.3067,47.35999 -11.3067,53.97333 0,6.82666 4.48,14.29333 8.5333,14.29333 4.6934,0 19.2,-8.96 39.68,-24.32 z"
       style="font-style:italic;font-variant:normal;font-weight:500;font-stretch:normal;font-size:213.33332825px;font-family:'URW Chancery L';-inkscape-font-specification:'URW Chancery L, Medium Italic';font-variant-ligatures:normal;font-variant-caps:normal;font-variant-numeric:normal;font-feature-settings:normal;text-align:start;writing-mode:lr-tb;text-anchor:start;fill:#000044;fill-opacity:1"
       id="path6760" />
  </g>
  <path
     style="fill:#000000;stroke-width:7.22034836"
     d="m 6807.785,-6443.1053 c 81.1381,-22.2214 309.8691,-74.8676 422.1596,-97.1669 l 43.0913,-8.5575 -37.0631,-33.4579 c -38.1224,-34.4141 -52.7298,-55.8287 -52.7298,-77.3024 0,-10.7622 5.6492,-11.7331 45.1271,-7.7554 24.8201,2.5007 54.425,2.0236 65.789,-1.0604 18.4254,-5 19.4023,-6.6522 9.0255,-15.2642 -15.6338,-12.9749 -14.6881,-38.629 2.191,-59.4367 l 13.8272,-17.0458 17.5081,16.4183 c 20.2338,18.9742 55.371,30.5141 92.9117,30.5141 22.3969,0 30.2051,-4.8218 53.147,-32.8193 14.7912,-18.0508 44.2594,-45.6488 65.4852,-61.329 59.4368,-43.9087 165.2102,-147.6474 159.675,-156.6037 -2.6936,-4.3582 -17.645,-10.0778 -33.2255,-12.7101 -22.385,-3.7819 -29.7875,-8.9724 -35.2843,-24.7403 -3.8258,-10.9749 -5.371,-28.2465 -3.4335,-38.3812 3.3104,-17.3174 0,-19.6697 -54.9136,-39.0661 l -58.436,-20.639 -0.021,-29.4343 c -0.021,-33.8983 -34.1773,-160.5238 -62.1412,-230.3762 -10.4973,-26.222 -17.8724,-48.7849 -16.3888,-50.1398 3.5716,-3.2617 186.8699,7.9527 190.5769,11.6597 1.5817,1.5817 -5.2164,28.3582 -15.1069,59.5035 -9.8903,31.1451 -16.811,57.799 -15.3793,59.2309 1.4318,1.4318 13.2449,-25.8146 26.2513,-60.5476 13.0063,-34.7329 41.1895,-99.7038 62.6294,-144.3797 38.6658,-80.5709 39.186,-81.2289 64.2269,-81.2289 28.9385,0 30.3806,3.855 10.8046,28.8814 -7.7657,9.928 -14.1917,21.1279 -14.2801,24.8885 -0.087,3.7608 9.8681,-6.7991 22.1252,-23.4661 17.2134,-23.4067 27.0141,-30.3038 43.0611,-30.3038 11.4264,0 87.9013,27.6178 169.9442,61.373 82.0429,33.7551 151.5002,61.3729 154.3496,61.3729 2.8492,0 9.2309,-18.6826 14.1814,-41.517 4.9504,-22.8343 16.8952,-59.0894 26.5439,-80.5668 21.3557,-47.5363 18.2881,-64.3496 -10.9581,-60.0572 -16.3549,2.4004 -21.901,-0.2123 -25.672,-12.0935 -3.5466,-11.1746 -10.8463,-15.1846 -27.7898,-15.2661 -34.126,-0.1639 -39.9385,-7.0993 -42.401,-50.5895 -2.2217,-39.2398 -2.5212,-39.7062 -37.673,-58.6628 -19.4882,-10.5097 -56.3623,-41.3767 -81.9423,-68.5934 -25.58,-27.2165 -41.2393,-40.5496 -34.7985,-29.6289 6.4407,10.9209 8.7921,19.856 5.2254,19.856 -3.5668,0 -11.6905,-10.5597 -18.0529,-23.4661 -6.3623,-12.9063 -11.6419,-18.14 -11.7324,-11.6303 -0.09,6.5095 -6.4656,19.5062 -14.167,28.8813 l -14.0027,17.0456 7.3282,-29.3767 c 4.8608,-19.4859 4.9326,-37.7184 0.2129,-54.1526 l -7.1118,-24.7758 -1.1588,25.2711 c -0.6375,13.8992 -4.1712,31.7696 -7.8531,39.712 -5.3572,11.556 -5.9796,10.1136 -3.1155,-7.2203 1.9683,-11.9136 0.3855,-26.5349 -3.518,-32.4917 -5.5035,-8.3986 -7.1949,-5.9669 -7.5332,10.8305 -0.2397,11.9136 -4.6114,31.4086 -9.7145,43.3222 -8.8431,20.6457 -9.5132,18.8622 -14.2953,-38.0444 -3.2288,-38.4212 -2.2238,-65.4478 2.8191,-75.8137 6.433,-13.2232 4.5256,-12.4799 -10.6501,4.1504 -10.1676,11.1422 -18.4865,16.6337 -18.4865,12.2034 0,-4.4303 15.7987,-24.9188 35.1082,-45.5298 19.3095,-20.611 39.1946,-45.5975 44.189,-55.5255 7.2564,-14.424 2.741,-12.1674 -22.4726,11.231 -59.4717,55.1901 -60.3887,50.0966 -2.6692,-14.8247 54.8012,-61.6389 56.4494,-67.4961 7.2174,-25.6487 l -21.661,18.4119 21.661,-24.2243 c 11.9136,-13.3233 41.1561,-37.3063 64.9832,-53.2955 23.8272,-15.9892 61.1925,-46.1883 83.034,-67.1092 21.8416,-20.9209 55.9577,-46.5824 75.8137,-57.0256 19.856,-10.4432 27.9788,-17.0555 18.0508,-14.6937 -13.9634,3.3216 -15.5984,2.5769 -7.2203,-3.2888 5.9568,-4.1705 22.2026,-7.6822 36.1018,-7.8039 18.9969,-0.1662 22.5822,-1.9589 14.4407,-7.2204 -22.3946,-14.4724 17.5527,-7.47 41.832,7.3328 19.2495,11.7364 26.7008,12.9366 39.1033,6.2991 32.7715,-17.5388 143.4441,8.5915 161.7347,38.1864 2.9582,4.7864 -6.7397,1.2131 -21.5509,-7.9408 -14.8112,-9.1538 -28.685,-14.8877 -30.8307,-12.7418 -2.1458,2.1456 5.3357,8.7598 16.6256,14.6978 34.472,18.1311 87.3619,78.235 107.2903,121.9247 16.3297,35.7999 19.7944,56.5846 25.606,153.6098 4.1628,69.4998 10.8876,122.1805 17.6683,138.409 6.0212,14.4105 41.8219,57.6261 79.5573,96.0343 l 68.6097,69.8331 -1.9449,439.8991 c -1.9137,432.8668 -2.204,440.7346 -18.1615,492.1552 -8.9192,28.7409 -16.2166,53.922 -16.2166,55.9578 0,2.0358 8.1228,3.7015 18.0508,3.7015 h 18.0509 v 72.2035 72.2035 l -142.6019,0.073 c -463.7924,0.2332 -1177.956,46.0638 -1631.7545,104.7156 -76.4212,9.8773 -143.0289,17.6882 -148.0171,17.3578 -4.9882,-0.3309 31.5449,-11.7244 81.1848,-25.3192 z m 1096.185,-197.2968 c 72.7477,-7.5037 133.7486,-15.1231 135.5575,-16.932 1.8089,-1.8089 -14.2679,-18.2879 -35.7259,-36.6203 -21.4582,-18.3322 -49.5623,-49.7679 -62.4534,-69.8571 l -23.4385,-36.5257 -44.2228,41.5446 c -25.0576,23.54 -48.2393,52.7568 -53.4909,67.4164 -5.2898,14.7662 -18.462,31.3026 -30.6865,38.5238 -11.78,6.9587 -21.4184,15.7176 -21.4184,19.4644 0,3.7466 0.8123,6.7709 1.8052,6.7206 0.9927,-0.05 61.3259,-6.2309 134.0737,-13.7347 z m -302.7539,-518.6745 c 13.1744,-26.8057 50.077,-95.8502 82.0059,-153.4324 70.0583,-126.3471 67.3092,-121.0159 57.7136,-111.9153 -7.634,7.24 -91.0124,156.4314 -142.2418,254.517 -15.0374,28.7913 -29.3751,52.2978 -31.8617,52.2371 -14.7109,-0.3596 -20.8785,-16.6657 -24.5375,-64.8726 -2.2607,-29.784 -7.7086,-62.2755 -12.1064,-72.2034 l -7.9962,-18.0508 3.8215,18.0508 c 2.102,9.9279 5.9293,46.4809 8.5054,81.2288 4.6154,62.2586 4.9604,63.1781 23.7137,63.1781 16.3147,0 22.4481,-6.9545 42.9835,-48.7373 z m 159.6547,-290.619 c 4.2506,-7.9424 6.1039,-14.4407 4.1183,-14.4407 -1.9856,0 -7.088,6.4983 -11.3386,14.4407 -4.2507,7.9423 -6.1039,14.4406 -4.1183,14.4406 1.9856,0 7.088,-6.4983 11.3386,-14.4406 z"
     id="path5686"
     inkscape:connector-curvature="0" />
  <path
     style="fill:#000000;stroke-width:6.96926737"
     d="m 953.60089,-6560.4333 c -124.899,-20.7518 -554.3864,-62.5411 -815.4042,-79.3391 -353.5833,-22.7551 -568.1522,-28.6329 -895.5509,-24.5323 -24.9152,0.3123 -99.3992,-1.4935 -165.5202,-4.0126 l -120.21979,-4.5799 v -68.9899 c 0,-41.3471 2.7925,-68.99 6.9693,-68.99 4.0917,0 6.9252,-23.7406 6.8625,-57.4965 -0.073,-39.696 -2.1982,-54.26 -6.8625,-47.0425 -4.4015,6.8108 -6.793,-142.0941 -6.8626,-427.279 -0.065,-267.6284 2.4082,-436.1785 6.3647,-433.7333 3.8036,2.3508 6.4716,-22.4578 6.4716,-60.1756 0,-39.1301 -2.36,-60.3567 -6.0471,-54.3909 -4.1296,6.6818 -5.8416,2.5566 -5.3989,-13.0086 0.4108,-14.4497 2.6876,-19.4929 6.2201,-13.7772 3.8556,6.2386 9.0181,0.7684 16.7589,-17.7581 6.1527,-14.7257 9.6437,-28.3172 7.7577,-30.2032 -6.7744,-6.7744 -18.307,6.0607 -18.8942,21.028 -0.5127,13.0677 -1.4291,12.5117 -6.356,-3.8565 -6.2105,-20.6329 10.4135,-64.5548 30.854,-81.5188 5.93659,-4.927 9.14959,-11.6188 7.13979,-14.8705 -2.00969,-3.252 8.2231,-11.9716 22.7393,-19.3773 24.5827,-12.5412 26.9878,-16.5986 35.0583,-59.1424 5.9872,-31.5618 6.5218,-51.3144 1.7299,-63.918 -3.8142,-10.0323 -6.935,-25.8767 -6.935,-35.21 0,-19.2943 -17.0116,-23.2367 -23.8109,-5.5181 -2.4168,6.2983 -5.8669,9.9787 -7.6668,8.1789 -5.8308,-5.8307 25.6756,-63.916 56.2514,-103.7049 37.8383,-49.24 105.7211,-112.2365 147.0256,-136.4424 17.5881,-10.3073 39.3008,-26.063 48.2502,-35.0125 8.9496,-8.9496 20.1501,-16.2719 24.89,-16.2719 4.74,0 2.5304,4.4872 -4.91,9.9716 -12.2551,9.0332 -10.5768,9.6 17.8334,6.023 17.2489,-2.1719 37.634,-7.043 45.3001,-10.8248 11.4366,-5.6417 12.3749,-5.2217 5.2275,2.3397 -7.1239,7.5366 -2.1497,10.8949 27.3005,18.4318 89.7792,22.9762 168.4591,94.5286 206.1695,187.493 12.4576,30.7106 22.6501,59.7027 22.6501,64.4269 0,4.7242 11.7607,19.9861 26.1348,33.9153 14.3741,13.9293 19.2168,19.6811 10.7618,12.7818 l -15.3729,-12.5441 12.995,35.5527 c 12.4945,34.1834 12.5061,35.2912 0.2995,28.7585 -6.9826,-3.737 -14.5001,-10.7506 -16.7055,-15.5859 -2.2056,-4.8353 -2.2015,1.5295 0.012,14.144 4.257,24.2931 -3.3848,38.625 -27.4667,51.5133 -13.2406,7.0862 -13.1791,6.4666 1.1692,-11.7743 8.3298,-10.5897 15.0455,-24.3194 14.9235,-30.5103 -0.1847,-9.3767 -1.9303,-8.9973 -10.454,2.2718 -9.7582,12.9017 -10.2599,12.5787 -10.8312,-6.9692 -0.5896,-20.1744 -0.6833,-20.2229 -5.9483,-3.0744 -2.9422,9.5828 -16.7853,40.0822 -30.7626,67.7764 -13.9775,27.6943 -25.4135,56.8046 -25.4135,64.6895 0,30.4137 -23.5069,68.1927 -74.3135,119.4322 -45.6495,46.0385 -50.9656,53.8637 -39.1423,57.6163 28.6653,9.098 43.7981,34.0937 81.5171,134.6464 4.6462,12.3859 10.2699,24.3423 12.4972,26.5696 2.2273,2.2273 31.8182,-9.8953 65.7575,-26.939 112.2765,-56.3835 219.693,-102.3886 227.876,-97.5964 17.0668,9.9949 137.008399,115.2654 153.048199,134.3277 l 16.8779,20.0581 37.3462,-30.6349 c 20.5403,-16.8493 46.7076,-35.1688 58.1495,-40.7103 19.132501,-9.2662 21.576901,-8.9707 30.437201,3.6791 8.5645,12.2275 7.283,17.3686 -11.5425,46.3089 -11.647001,17.9051 -20.181701,33.5494 -18.965701,34.7651 1.2158,1.2159 16.6121,-1.0167 34.214101,-4.9616 30.0561,-6.7356 33.1452,-6.0305 50.7627,11.5872 l 18.7593,18.7592 -38.0437,35.4108 c -20.9239,19.476 -39.8986,40.2452 -42.166,46.1537 -2.2673,5.9087 -27.175801,20.5423 -55.352201,32.5192 -42.3206,17.9892 -62.4985,32.8268 -116.0254,85.3182 -36.241899,35.5408 -77.153299,68.7904 -92.838699,75.452 l -28.0433,11.91 46.7023,65.983 c 64.076499,90.5297 122.461299,160.9317 152.397899,183.7655 26.132,19.932 95.420501,53.1355 110.882001,53.1355 13.2294,0 10.1841,68.0672 -4.3352,96.8981 -6.5702,13.0465 -11.946,24.5962 -11.946,25.666 0,1.0698 35.4663,19.3878 78.814,40.7067 89.5481,44.0411 164.8369,71.3189 215.333,78.0175 19.264,2.5554 36.2194,8.8209 38.2597,14.1376 2.0152,5.2517 -4.4981,20.2497 -14.4741,33.3288 l -18.1381,23.7803 19.1076,3.7122 c 10.509,2.0417 84.2955,16.5456 163.97,32.2309 240.2731,47.302 530.87111,124.8481 363.894,97.1052 z M -65.476711,-6818.7651 c -80.119099,-83.3723 -220.422499,-221.5806 -225.233499,-221.8702 -2.0797,-0.1255 -7.5552,13.8822 -12.1677,31.1276 -5.688,21.2667 -19.441,42.8244 -42.744,67.0008 -18.8966,19.6049 -38.079,44.6296 -42.6272,55.6102 -4.5483,10.9806 -23.5981,35.5369 -42.3329,54.5694 -18.7346,19.0326 -34.063,36.3492 -34.063,38.4814 0,2.1321 15.524,3.8766 34.4976,3.8766 37.9385,0 256.1764,18.1788 327.9044,27.3139 24.914999,3.1731 57.140799,6.166 71.612699,6.6508 l 26.3125,0.8816 z M -425.66531,-7591.435 c 128.9599,-61.3297 238.0213,-111.3997 242.3588,-111.267 4.3374,0.1325 62.4498,42.7491 129.138699,94.703 l 121.2525,94.4617 32.0713,-32.9772 32.071301,-32.9774 -32.527601,22.673 c -17.8902,12.4701 -35.759,20.6759 -39.7084,18.2349 -3.9495,-2.4408 -59.61160002,-43.6924 -123.6936,-91.6703 -64.081899,-47.9778 -119.912999,-85.9018 -124.069299,-84.2753 -4.1561,1.6264 -106.3459,49.3124 -227.0885,105.9689 -188.3515,88.3808 -266.1221,128.6339 -248.5256,128.6339 2.3363,0 109.7604,-50.1787 238.7204,-111.5082 z m -558.9477,-422.1796 c 2.0926,-5.4533 1.3943,-9.915 -1.5519,-9.915 -6.9327,0 -22.08299,15.1501 -22.08299,22.0829 0,8.6764 19.48579,-1.3554 23.63489,-12.1679 z m 39.0886,-246.8702 c 0,-3.833 -1.3831,-6.9692 -3.0733,-6.9692 -1.6904,0 -5.0116,3.1362 -7.3806,6.9692 -2.3691,3.8331 -0.986,6.9693 3.0733,6.9693 4.0594,0 7.3806,-3.1362 7.3806,-6.9693 z m -82.10009,233.0109 c 10.4248,-10.84 20.5789,-18.0845 22.5644,-16.099 1.9855,1.9857 -6.5439,10.8547 -18.9543,19.7091 l -22.5644,16.099 z m 62.11849,-157.08 c -9.0734,-11.4771 -14.9192,-22.4454 -12.9908,-24.3738 4.062,-4.0619 32.9724,30.9957 32.9724,39.9833 0,8.8034 -1.7834,7.4102 -19.9816,-15.6095 z"
     id="path5684"
     inkscape:connector-curvature="0" />
  <path
     style="fill:#000044;stroke-width:0.46732664;fill-opacity:1"
     d="m 3658.6571,1843.7905 4.0523,-3.636 3.8923,-0.3271 c 2.1407,-0.1799 12.6195,-1.0423 23.2862,-1.9164 10.6668,-0.8742 33.9046,-3.18 51.6397,-5.124 17.735,-1.9441 34.3485,-3.7654 36.9188,-4.0473 2.5702,-0.2819 10.6508,-1.8789 17.9569,-3.5486 l 13.2836,-3.0359 11.4046,-6.2879 c 9.942,-5.4814 14.6211,-7.6557 36.4866,-16.9539 13.7951,-5.8663 34.9661,-15.0089 47.0465,-20.3169 21.6712,-9.5221 22.2169,-9.731 40.8911,-15.6535 18.0696,-5.7308 19.6992,-6.3452 35.9841,-13.5667 9.3816,-4.1604 24.4689,-10.9672 33.5274,-15.1266 14.0684,-6.4596 16.4705,-7.7066 16.4733,-8.5518 0,-0.5442 -2.2919,-10.1127 -5.0971,-21.2634 -2.8052,-11.1506 -5.7559,-23.0629 -6.5572,-26.4717 l -1.457,-6.1978 3.5037,-10.8596 c 1.9269,-5.9728 5.5306,-18.8509 8.0081,-28.618 2.4776,-9.7672 5.0944,-19.5459 5.8152,-21.7307 5.0024,-15.1611 12.9072,-58.6858 14.7682,-81.3148 0.5711,-6.946 0.7694,-14.2062 0.7211,-26.404 -0.071,-17.8703 -0.101,-18.5578 -1.4705,-33.4139 -0.4857,-5.2691 -1.0102,-13.5705 -1.1654,-18.4477 -0.3713,-11.6674 -3.4229,-30.9412 -6.5813,-41.5674 -1.1399,-3.8354 -2.0727,-7.2001 -2.0727,-7.4772 -10e-5,-0.277 -1.0475,-2.1385 -2.3278,-4.1365 -1.2802,-1.9982 -2.9642,-5.1526 -3.7423,-7.0099 -0.778,-1.8574 -2.1058,-4.589 -2.9508,-6.0702 l -1.5363,-2.6931 1.2871,-12.7287 c 2.1183,-20.9467 2.6686,-25.5562 5.0627,-42.4038 3.3702,-23.7176 4.2075,-32.274 4.2075,-43.0019 0,-13.832 0.8514,-20.3184 5.3625,-40.8515 2.1497,-9.7846 4.7743,-22.3115 5.8324,-27.8377 1.0581,-5.5262 3.8345,-19.7805 6.1696,-31.6764 l 4.2457,-21.629 4.9672,-3.3566 c 6.944,-4.6926 15.8525,-13.4197 21.8972,-21.4512 l 4.8006,-6.3785 v -5.5239 -5.5238 l -19.9511,-45.8125 c -12.1699,-27.9449 -22.5205,-52.4651 -26.539,-62.8699 l -6.5878,-17.05733 -16.4424,-22.5817 -16.4424,-22.5817 7.2763,-15.7391 c 6.98,-15.0984 7.5583,-16.5857 14.2051,-36.5351 l 6.9288,-20.7961 2.6525,-19.3941 c 1.4588,-10.6667 2.7503,-20.8661 2.87,-22.6653 0.1197,-1.7992 1.1318,-29.1291 2.2492,-60.7331 l 2.0316,-57.4619 -3.6592,-9.1322 c -2.0126,-5.0227 -6.3234,-15.5462 -9.5795,-23.3856 -8.0473,-19.3746 -14.519,-38.7027 -20.8677,-62.3226 -4.4184,-16.4386 -5.6908,-20.4919 -9.0278,-28.7609 -2.1364,-5.2939 -4.6701,-11.8284 -5.6303,-14.5209 -0.9602,-2.6925 -3.8155,-9.7717 -6.3452,-15.7315 -3.056,-7.1999 -7.9033,-20.4528 -14.4457,-39.4962 -5.4155,-15.7631 -9.9955,-28.7939 -10.1778,-28.9573 -0.1823,-0.1635 -5.7658,-3.913 -12.4076,-8.3323 -11.7101,-7.7915 -12.4752,-8.2161 -25.2357,-14.007 -9.7069,-4.4051 -16.0558,-6.9334 -24.1994,-9.6371 l -11.0399,-3.6651 -9.7561,4.4319 -9.7561,4.432 -6.3089,-0.3213 c -16.9941,-0.8652 -28.4711,-0.1545 -45.0971,2.7926 l -9.8138,1.7395 -3.6001,-0.83 -3.6002,-0.8301 -6.4474,2.7473 c -5.5885,2.3812 -16.5988,5.8108 -30.982,9.6504 -2.4821,0.6626 -5.046,2.1524 -14.0198,8.1468 -6.0402,4.0348 -15.4913,10.1444 -21.0026,13.5768 -5.5111,3.4326 -10.9789,6.9761 -12.1504,7.8747 -1.1716,0.8985 -7.3876,5.1958 -13.8133,9.5496 -12.8192,8.6856 -12.0999,8.3512 -25.4409,11.8295 l -8.1499,2.125 -14.2818,8.0048 c -17.4127,9.7596 -25.7317,15.6464 -40.6175,28.7426 -8.2589,7.266 -12.5648,11.5249 -20.5624,20.3377 l -10.1159,11.1472 -6.2108,12.061 -6.2108,12.0609 -4.4179,17.0426 -4.418,17.0425 0.6527,13.7256 c 0.6353,13.361 0.7105,13.9984 2.8332,23.9976 1.1993,5.6497 2.3672,10.497 2.5953,10.7718 1.267,1.5266 9.0231,4.8776 14.1272,6.1036 l 5.4934,1.3195 2.1717,5.553 c 1.1944,3.0541 2.4189,5.6479 2.7211,5.7638 0.3022,0.116 1.7949,-0.066 3.3171,-0.4042 2.5436,-0.5653 3.0703,-0.5295 6.5062,0.4421 3.4757,0.9828 3.9303,1.2631 6.4628,3.9841 2.1601,2.321 3.6582,4.765 7.2367,11.8061 5.3036,10.4355 8.1145,18.1942 8.9253,24.6359 0.737,5.8554 -0.039,22.8936 -1.5712,34.4809 l -1.0812,8.1782 -3.151,6.7763 -3.151,6.7762 0.268,4.9069 c 0.4443,8.1337 0.8991,9.5606 4.2155,13.2261 l 2.8758,3.1786 6.0653,1.8371 c 5.7442,1.7399 6.2237,1.8118 9.06,1.3586 2.2383,-0.3575 10.5498,-0.1978 10.8503,0.2084 0.021,0.029 0.1914,4.2586 0.3779,9.3992 0.3257,8.9782 0.3868,9.4201 1.5484,11.2158 3.0523,4.7181 7.1389,7.3198 12.4695,7.9385 2.7117,0.3147 2.9173,0.4184 2.6601,1.3418 -0.1532,0.5505 -0.6017,2.8298 -0.9965,5.0651 -0.7045,3.9896 -0.6991,4.0927 0.2965,5.608 0.6239,0.9495 2.5577,2.4317 5.0244,3.8511 2.2847,1.3146 5.5378,3.7669 7.5605,5.6994 3.4887,3.3331 3.5646,3.4552 4.3774,7.0391 0.4549,2.0059 1.5763,5.9419 2.492,8.7466 1.6024,4.9085 1.7758,5.2035 4.6313,7.8746 4.0688,3.8061 10.7236,8.4903 14.5337,10.23 2.441,1.1145 4.2129,1.5397 7.7207,1.8525 5.088,0.4537 7.6768,0.01 17.7445,-3.0417 4.3646,-1.323 6.6352,-1.7073 12.6995,-2.1497 4.0616,-0.2963 7.446,-0.471 7.521,-0.3881 0.075,0.083 0.6903,5.9337 1.3673,13.0021 0.6772,7.0683 1.3188,13.5351 1.4259,14.3708 0.1859,1.4491 -0.2515,1.9371 -9.4728,10.5673 -5.3173,4.9763 -10.9171,10.1349 -12.4439,11.4633 -1.5268,1.3283 -4.4955,4.6695 -6.5968,7.4247 -3.6456,4.7798 -4.2508,5.3258 -13.1981,11.906 -13.407,9.86003 -22.026,16.71113 -24.5369,19.50383 -1.1981,1.3325 -3.0445,4.1392 -4.1032,6.237 -1.9057,3.7762 -1.9221,3.8522 -1.6442,7.6311 0.1543,2.0995 0.8088,6.2599 1.4543,9.2455 0.9954,4.6037 1.7314,6.5441 4.8455,12.7731 l 3.6718,7.3447 -0.6885,6.0752 -0.6884,6.0753 -10.0572,17.0574 c -8.6123,14.6065 -11.3079,18.7353 -18.7609,28.7345 -9.7105,13.0279 -25.6893,32.4442 -44.6177,54.216 -6.9272,7.9679 -12.8443,14.7606 -13.1489,15.0948 -0.4543,0.4983 -2.3119,0.4764 -10.3276,-0.1222 -5.3754,-0.4014 -10.4045,-0.8347 -11.1756,-0.9628 -0.7711,-0.1282 -12.758,-0.5466 -26.6376,-0.9299 -13.8796,-0.3833 -27.1283,-0.8218 -29.4416,-0.9744 -10.8654,-0.7167 -50.6808,-9.1257 -73.6039,-15.5451 -12.3882,-3.4691 -23.4066,-6.1386 -34.1148,-8.2652 -10.94,-2.1726 -17.5844,-4.3076 -21.2121,-6.8162 -10.3518,-7.1578 -13.6756,-10.738 -16.4721,-17.7432 -0.9646,-2.4163 -2.712,-5.8653 -3.8831,-7.6646 -1.1712,-1.7992 -4.002,-7.2668 -6.2907,-12.1505 -2.2888,-4.8835 -5.4113,-11.2493 -6.9388,-14.1461 -3.7401,-7.0927 -4.3415,-7.4932 -14.9382,-9.9508 -12.766,-2.9607 -15.2883,-3.7164 -19.6354,-5.8832 -3.8682,-1.928 -4.1549,-2.1767 -5.4411,-4.7206 -1.7268,-3.4151 -6.7288,-8.4214 -8.8029,-8.8105 -1.9526,-0.3662 -5.5524,0.8635 -7.2287,2.4695 l -1.2971,1.2428 -1.2218,-2.7659 c -3.9904,-9.0338 -17.5694,-39.1692 -33.1486,-73.5658 -15.4928,-34.20563 -32.0641,-70.62973 -94.4001,-207.49303 -6.6143,-14.5222 -12.1095,-26.4954 -12.2118,-26.6072 -0.3331,-0.3646 -45.7098,12.4264 -57.0064,16.0691 -3.5489,1.1445 -6.4982,2.0351 -6.5539,1.9794 -0.056,-0.056 -2.9759,-6.3768 -6.4893,-14.0467 -3.5133,-7.67 -10.6512,-23.1235 -15.8621,-34.3413 l -9.4741,-20.3959 -4.6755,-0.8962 c -4.648,-0.891 -4.6823,-0.8908 -5.8589,0.035 -0.651,0.512 -21.5358,18.8957 -46.4108,40.8527 -24.875,21.9569 -58.2782,51.4373 -74.2294,65.512 -15.9512,14.0747 -29.1824,25.8579 -29.4026,26.1849 -0.2644,0.3923 13.7337,30.0692 41.1632,87.2689 22.8602,47.671 86.0886,179.52063 140.5078,292.99923 l 98.944,206.3247 5.4649,2.0447 c 9.9429,3.7201 44.1708,16.8776 44.3365,17.0434 0.09,0.089 -2.1517,5.0358 -4.9806,10.9918 l -5.1433,10.8292 -3.9924,14.8286 c -5.4297,20.167 -18.3861,76.9846 -18.936,83.0399 l -0.4227,4.6548 -5.1062,5.159 c -4.2693,4.3135 -6.3473,6.9974 -12.6785,16.3749 -4.1648,6.1687 -8.2126,12.6879 -8.9952,14.4871 -0.7826,1.7993 -6.1499,11.3795 -11.9275,21.2895 l -10.5047,18.0182 -11.2724,6.7383 c -13.1185,7.8419 -11.0026,6.8041 -29.594,14.515 -13.9682,5.7934 -15.328,6.2538 -32.2456,10.9183 l -17.6625,4.8698 -14.9544,1.8758 -14.9545,1.8757 -18.9267,5.1297 c -17.4605,4.7324 -20.2628,5.6405 -36.173,11.7233 -9.4854,3.6263 -17.5057,6.7434 -17.8228,6.9269 -0.3171,0.1833 -4.5433,3.8971 -9.3914,8.2528 l -8.8148,7.9195 -0.3057,2.8291 c -0.1682,1.5559 -0.4452,5.8783 -0.6156,9.6052 -0.2942,6.4356 -0.215,7.3753 1.5747,18.6931 1.6808,10.6293 2.2058,12.9014 4.8589,21.0296 2.7453,8.4109 7.8069,21.4188 8.8619,22.7748 0.2469,0.3171 2.5223,1.6748 5.0567,3.0168 4.5129,2.3898 4.6139,2.4798 4.896,4.3609 0.1658,1.1051 1.3165,3.5904 2.71,5.8526 l 2.422,3.9318 5.4824,1.899 c 5.1987,1.8007 5.7974,2.1476 11.5693,6.704 5.6941,4.4951 6.4252,4.923 11.3326,6.6345 5.0255,1.7527 5.4913,1.8293 11.0875,1.8239 3.2129,-0.01 8.4703,-0.2318 11.6831,-0.5082 3.2129,-0.2764 11.8351,-0.48 19.1604,-0.4525 12.3091,0.046 14.0806,-0.054 23.3664,-1.3235 11.8834,-1.6248 10.4282,-1.1937 64.0237,-18.9682 25.0437,-8.3054 38.8296,-12.628 46.0317,-14.4332 5.6547,-1.4174 14.2768,-3.6373 19.1604,-4.9332 7.2548,-1.9249 11.2304,-2.6598 21.7307,-4.0164 11.6832,-1.5093 14.1616,-1.9992 27.2641,-5.3881 7.927,-2.0504 15.1822,-4.1225 16.1228,-4.6049 0.9406,-0.4824 5.0808,-2.8428 9.2005,-5.2454 7.3678,-4.2966 7.6015,-4.4829 14.2778,-11.3781 6.1399,-6.3412 6.8908,-7.2996 7.8711,-10.0475 0.596,-1.6707 2.0962,-5.7715 3.3337,-9.1129 l 2.2499,-6.0752 0.5752,-9.5802 0.5751,-9.5802 -3.1473,-9.1129 c -1.8492,-5.3541 -4.7097,-12.3307 -6.9352,-16.9144 l -3.7878,-7.8016 1.5643,-3.4143 c 0.8603,-1.8778 4.5628,-9.5129 8.2277,-16.9667 l 6.6634,-13.5524 5.085,-5.3218 5.0849,-5.3218 7.2141,4.0956 c 3.9677,2.2525 12.3967,7.1084 18.7309,10.7908 9.5511,5.5524 13.5393,7.5497 23.3663,11.7016 l 11.8496,5.0065 22.899,2.2156 c 14.8428,1.4362 34.8189,3.8129 56.7802,6.7557 l 33.8812,4.5399 32.0119,7.6293 32.0118,7.6293 2.3367,2.563 c 1.7741,1.946 2.8335,3.78 4.4008,7.6188 5.2688,12.9056 11.7592,27.748 13.2458,30.2915 1.8858,3.2261 22.1108,40.8078 40.0509,74.4216 l 12.2838,23.0159 13.3776,-0.032 13.3777,-0.032 4.0523,-3.636 z m -95.882,-474.882 -21.2634,-2.8652 -8.0809,-3.8985 c -7.4226,-3.5808 -8.5078,-4.2692 -13.3188,-8.4484 -2.8809,-2.5025 -5.6585,-4.9153 -6.1725,-5.3619 -0.8888,-0.772 -1.1605,-0.7658 -5.5336,0.1266 l -4.599,0.9385 -2.1773,-0.9401 c -1.1975,-0.517 -10.1685,-4.7603 -19.9357,-9.4296 -9.7671,-4.6692 -24.6787,-11.3236 -33.1368,-14.7874 l -15.3785,-6.298 -12.6611,0.9661 c -9.4281,0.7194 -14.8092,0.8975 -21.0731,0.6979 l -8.4118,-0.2682 -27.806,-6.0943 c -15.2932,-3.3518 -27.8409,-6.1221 -27.8836,-6.1561 -0.042,-0.034 -0.1336,-1.272 -0.202,-2.751 l -0.1246,-2.6892 24.5032,-25.7631 c 13.4767,-14.1697 24.4532,-25.9979 24.3922,-26.285 -0.061,-0.2872 -4.2347,-9.9854 -9.275,-21.5517 -5.0402,-11.5664 -9.3375,-21.4731 -9.5493,-22.0149 -0.3626,-0.927 -0.01,-0.8695 6.0036,0.9733 3.5139,1.0771 8.1143,2.8322 10.2229,3.9003 8.3913,4.2503 30.629,13.8032 56.2176,24.1501 5.5261,2.2345 15.7662,6.5696 22.7558,9.6336 13.6029,5.9629 30.8222,12.608 54.1194,20.8851 12.4046,4.4073 16.6176,5.6578 29.308,8.6995 11.9125,2.8553 17.2313,3.8784 27.1049,5.2139 6.7563,0.9137 17.3312,2.4876 23.4999,3.4974 10.8084,1.7693 11.6195,1.8361 22.3267,1.8389 l 11.1108,0.01 9.4515,-7.0928 c 5.1984,-3.9011 12.6536,-10.013 16.5671,-13.5822 l 7.1155,-6.4893 1.9974,0.4155 c 1.0986,0.2286 1.9666,0.61 1.9289,0.8476 -0.1628,1.0266 -11.0346,37.867 -11.3099,38.3248 -0.1676,0.2788 -2.3605,2.2273 -4.873,4.3299 -4.2614,3.566 -5.3287,4.1739 -15.8891,9.0499 -9.3309,4.3082 -13.1693,6.4012 -21.8357,11.9059 l -10.5149,6.6787 -5.1719,6.0783 -5.1718,6.0784 -1.9658,6.9648 -1.9657,6.965 0.3195,8.5114 0.3195,8.5114 -1.3601,-0.2769 c -0.7481,-0.1523 -10.9287,-1.5661 -22.6235,-3.1419 z"
     id="path5774"
     inkscape:connector-curvature="0" />
  <path
     style="fill:#000044;stroke-width:0.46818367;fill-opacity:1"
     d="m -766.10351,1889.3782 -1.3139,-4.0343 -2.4111,2.3317 -2.411,2.3317 -6.3206,1.2348 c -5.3578,1.0467 -7.5691,1.2348 -14.5184,1.2344 l -8.198,-3e-4 -1.8175,-5.0817 -1.8175,-5.0816 -9.4142,-0.4637 -9.4141,-0.4637 -11.0023,-4.1261 -11.0024,-4.1257 -7.725,-5.7547 c -6.873,-5.1202 -9.4324,-7.4742 -23.207,-21.346 -8.5153,-8.5752 -17.1055,-17.3698 -19.0898,-19.5437 l -3.6077,-3.9524 -4.5732,1.578 -4.5732,1.5782 -5.8742,-3.3818 -5.8743,-3.382 -3.938,-6.532 c -4.5246,-7.5052 -3.3947,-6.9318 -11.9644,-6.0723 -2.538,0.2545 -11.8829,1.1047 -20.7667,1.8891 -8.8838,0.7845 -20.0501,1.8291 -24.8138,2.3214 -4.7637,0.4922 -10.8736,1.0374 -13.5773,1.2116 l -4.91589,0.3164 -12.4068,-5.4935 c -6.8238,-3.0215 -16.5503,-7.6479 -21.6146,-10.281 -8.8826,-4.6184 -9.6346,-4.9132 -21.3025,-8.3493 l -12.0946,-3.5618 -10.5341,-0.4979 c -5.7938,-0.2738 -13.6944,-0.9055 -17.5569,-1.4034 l -7.0228,-0.9054 -11.2364,-5.2215 c -10.5837,-4.9183 -12.028,-5.4493 -24.8657,-9.1417 -10.9961,-3.1629 -15.3915,-4.6844 -22.7495,-7.8753 -23.7696,-10.3082 -36.712,-18.0517 -58.1689,-34.8022 l -12.6156,-9.8486 -9.3868,-2.0475 -9.3868,-2.0474 -5.3863,-3.4388 c -4.4167,-2.8197 -6.5067,-4.5897 -11.6095,-9.8318 l -6.223,-6.3931 -5.9996,-11.9388 -5.9994,-11.9387 -2.912,-12.1179 c -1.6017,-6.6648 -3.9365,-17.366 -5.1886,-23.7806 l -2.2765,-11.6626 -2.3065,-2.6718 -2.3066,-2.6718 -0.3382,-7.8259 -0.3382,-7.8259 1.9294,-4.9946 c 1.061,-2.7469 1.8695,-5.0536 1.7965,-5.1259 -0.073,-0.072 -2.5554,-1.3938 -5.5167,-2.9367 l -5.3841,-2.8055 -9.3636,-1.5462 c -5.1501,-0.8504 -9.6215,-1.7339 -9.9363,-1.9635 -0.315,-0.2295 -2.5157,-3.1877 -4.8906,-6.574 -2.375,-3.386 -4.6961,-6.6832 -5.1584,-7.3269 -0.7949,-1.1075 -0.8036,-1.6122 -0.1621,-9.3638 0.4747,-5.7369 1.0863,-9.7582 2.0398,-13.4136 1.3003,-4.9846 1.5579,-5.5023 5.7058,-11.4704 4.7231,-6.7956 11.1396,-13.725 15.8283,-17.0932 1.6601,-1.1927 2.8601,-2.3811 2.7345,-2.7082 -0.1229,-0.3207 -1.8956,-2.8806 -3.9391,-5.6886 -3.4947,-4.8024 -3.803,-5.4254 -5.1924,-10.4899 -0.8122,-2.9611 -1.8179,-6.9641 -2.2347,-8.8954 -0.417,-1.9312 -1.7961,-6.0066 -3.065,-9.0562 l -2.3069,-5.5449 0.1789,-7.5644 c 0.9395,-39.7195 1.3033,-47.8467 2.4966,-55.7871 1.9534,-12.9971 4.1314,-22.15 10.6954,-44.9455 1.6312,-5.6651 3.4166,-11.9856 3.9677,-14.0456 1.9446,-7.2699 7.1351,-21.5623 8.9266,-24.5797 0.9937,-1.6737 2.7,-5.2553 3.7919,-7.959 1.846,-4.5717 1.9768,-5.186 1.8674,-8.7713 -0.1284,-4.2045 0.3764,-6.0322 3.5508,-12.8541 l 1.6754,-3.6002 -1.4361,-2.5443 c -1.2864,-2.2795 -2.8988,-8.4819 -2.8988,-11.1508 0,-0.5259 0.8557,-1.4975 2.0772,-2.3585 1.1424,-0.8052 2.7464,-2.396 3.5645,-3.535 0.818,-1.1391 2.49,-3.217 3.7156,-4.6177 1.2896,-1.4737 2.4645,-3.3901 2.7892,-4.5496 0.5367,-1.917 0.4665,-2.224 -1.6318,-7.1349 -2.1584,-5.0515 -3.5212,-8.6045 -6.4212,-16.742 l -1.4681,-4.1194 0.8287,-3.1375 c 1.39,-5.2631 3.1303,-8.5229 6.7923,-12.7231 6.7628,-7.7568 6.8466,-7.9115 7.9863,-14.7599 0.905,-5.4387 1.2095,-6.3887 2.8605,-8.928 1.7818,-2.7401 1.8478,-2.9832 1.8478,-6.7994 0,-4.5073 0.9491,-16.7781 2.3858,-30.8448 0.7627,-7.4677 1.5904,-12.3231 3.7136,-21.7826 3.1475,-14.0245 13.4525,-49.7914 17.8732,-62.0342 l 2.9582,-8.1933 -0.3823,-3.7455 c -0.2102,-2.06 -0.2581,-6.2404 -0.1065,-9.2898 0.4108,-8.2624 1.9007,-12.5041 6.9331,-19.7375 5.278,-7.5868 4.1712,-5.2981 14.8294,-30.6661 2.0013,-4.76373 5.8966,-13.17123 8.6559,-18.68313 4.6528,-9.2942 5.5137,-10.671 11.8566,-18.9615 15.5065,-20.2671 31.115,-37.4429 41.7743,-45.9684 2.1888,-1.7506 6.0864,-4.8626 8.6615,-6.9155 2.5749,-2.0533 6.2619,-5.1344 8.1931,-6.8471 6.7892,-6.0216 9.4947,-7.7962 18.9615,-12.438 5.6824,-2.786 11.5931,-6.1078 15.0345,-8.449 3.1189,-2.1219 7.4378,-4.5938 9.5977,-5.493 2.1598,-0.8993 7.0274,-3.1141 10.8168,-4.9217 6.2481,-2.9806 7.7747,-3.4922 16.3865,-5.493 7.7986,-1.8117 10.2918,-2.6017 13.9443,-4.4179 3.6285,-1.8043 6.9917,-2.8755 18.2591,-5.8152 12.8112,-3.3426 14.1008,-3.5932 17.8051,-3.461 l 3.9936,0.1424 5.7665,-3.6983 5.7664,-3.6982 3.3656,0.7933 3.3655,0.7934 4.50809,-1.6318 4.5082,-1.6319 5.5738,0.5243 5.5735,0.5243 2.5427,-1.8804 c 1.7656,-1.3059 3.7438,-2.2143 6.473,-2.9727 l 3.9302,-1.092 3.9096,-4.9487 c 2.1505,-2.7217 3.9055,-5.0538 3.9003,-5.1826 -0.013,-0.3102 -11.9228,-8.985 -14.0767,-10.2529 -1.4211,-0.8364 -2.2441,-2.1187 -5.279,-8.2242 l -3.5953,-7.2333 0.049,-12.3097 c 0.069,-17.4363 -1.072,-34.1528 -2.88,-42.1605 -1.1956,-5.295 -1.4995,-8.0774 -2.0836,-19.0744 -0.6437,-12.1178 -0.6274,-13.8662 0.2758,-29.7296 l 0.9597,-16.8547 4.2054,-21.3023 c 2.3128,-11.7163 5.3408,-26.148 6.7288,-32.0706 2.0235,-8.6344 2.8762,-13.6358 4.3037,-25.2395 l 1.7802,-14.4714 8.4959,-15.4001 8.4961,-15.4003 11.3797,-13.9037 c 10.0674,-12.3002 12.0762,-14.4974 17.4198,-19.0536 6.3712,-5.4321 11.447,-10.5442 15.7204,-15.8326 1.6119,-1.9948 4.5538,-4.6749 7.8439,-7.146 l 5.2645,-3.9542 9.7199,1.8927 c 5.3461,1.0411 9.8416,1.7138 9.9903,1.4949 0.1487,-0.2187 3.9503,-5.3867 8.448,-11.4843 5.6859,-7.7083 8.4489,-11.0865 9.0671,-11.0865 0.4891,0 6.3475,0.7374 13.0185,1.6386 6.6712,0.9013 12.8654,1.6387 13.7651,1.6387 1.3343,0 3.3806,-1.1953 11.1083,-6.4879 15.1474,-10.3744 17.7032,-11.998 18.0495,-11.4652 0.1753,0.2694 2.3889,3.7769 4.9192,7.7945 l 4.6007,7.3046 4.2948,-2.9979 c 2.3622,-1.6488 6.9812,-4.8375 10.2644,-7.0859 l 5.9693,-4.0881 10.4171,2.1832 c 5.7293,1.2007 16.9482,3.2646 24.9307,4.5863 l 14.5136,2.4031 15.4513,8.1254 15.451,8.1253 7.724,7.0908 c 8.5596,7.8581 30.342,26.1976 44.5868,37.5396 5.0819,4.0463 14.2467,11.5277 20.3659,16.6254 6.1193,5.0976 13.3853,11.1166 16.1464,13.3756 2.7614,2.2591 8.4961,7.7355 12.7437,12.17 8.172,8.5311 9.9197,10.8584 30.2924,40.3404 7.1253,10.3115 8.4281,12.5379 15.8268,27.0503 l 8.0621,15.8137 3.024,11.7698 c 1.6632,6.4732 3.1113,11.9108 3.2179,12.0831 0.1066,0.1726 1.3635,8.3791 2.7931,18.2366 l 2.5995,17.923 -0.4904,20.1939 c -0.6512,26.8168 -0.6773,26.9464 -9.5488,47.3483 -4.9098,11.291 -6.868,15.1786 -11.6295,23.0863 -5.1782,8.6001 -6.2552,10.0655 -11.2681,15.333 -4.9014,5.1505 -5.7207,5.824 -7.083,5.824 -3.2633,0 -4.2388,-0.4669 -5.5663,-2.6648 l -1.2776,-2.1152 -4.3396,5.7844 c -2.3867,3.1813 -5.6574,8.1019 -7.2682,10.9343 -6.9452,12.2119 -18.6798,27.1363 -26.3959,33.5708 -2.7681,2.3084 -5.033,4.2657 -5.033,4.3495 0,0.084 0.4201,2.9629 0.9334,6.398 0.5133,3.4351 0.9347,7.2826 0.9364,8.55 0,1.2675 0.3359,4.0809 0.7427,6.2522 0.6122,3.2668 0.6492,4.6461 0.215,7.9957 -0.887,6.8399 -3.2452,10.4839 -8.9032,13.7571 -2.3962,1.3862 -2.9218,1.4963 -8.0064,1.6776 -4.8212,0.1719 -5.917,0.055 -9.6083,-1.0201 -4.4554,-1.2982 -6.8286,-1.596 -8.4624,-1.0612 -1.3574,0.4441 -7.1522,10.4354 -7.888,13.6004 -1.319,5.6742 -3.3547,8.1499 -8.4586,10.2863 -3.5644,1.492 -4.2627,1.6411 -5.7526,1.2272 -2.5692,-0.7135 -2.6131,-0.681 -3.1918,2.3633 -0.4482,2.3581 -0.903,3.2279 -2.6838,5.1318 -1.1794,1.2608 -2.3864,2.8237 -2.6823,3.4733 -0.3641,0.7991 -1.0506,1.277 -2.1236,1.4783 -1.816,0.3406 -4.133,2.9675 -3.7769,4.2818 0.1223,0.4512 7.2863,20.0978 15.92,43.65913 8.6338,23.5614 17.128,46.9471 18.8761,51.9684 l 3.1784,9.1296 -0.9119,9.4875 -0.9119,9.4874 3.7071,16.2627 3.7071,16.2626 4.2802,6.3205 4.2804,6.3204 1.2866,9.8319 c 1.2844,9.8146 1.2917,9.8439 4.161,16.6962 l 2.8742,6.8643 7.4282,6.9076 7.4283,6.9074 8.9684,14.144 8.9685,14.144 7.7498,3.1496 c 5.9415,2.4145 10.0059,4.5035 17.4193,8.9535 l 9.6699,5.8042 h 4.2284 4.2284 l 6.0707,4.2137 6.0708,4.2137 h 7.5362 7.5361 l 7.3747,4.1662 7.3744,4.1663 7.0229,0.3399 c 5.3629,0.2596 8.3506,0.6693 12.6409,1.7332 3.6329,0.9011 10.2104,1.918 18.6136,2.8777 l 12.9955,1.4843 4.4627,-2.702 c 2.4546,-1.4861 4.7192,-2.7021 5.0326,-2.7021 0.3134,0 6.973,2.2121 14.7991,4.916 7.826,2.7037 14.4614,4.9046 14.7449,4.8909 0.2835,-0.013 51.6033,-71.1192 114.0439,-158.012 62.4406,-86.8928 113.7418,-157.98683 114.0028,-157.98683 0.2608,0 2.1597,0.5235 4.2198,1.1633 2.06,0.6399 4.0615,1.1601 4.4477,1.1561 0.3863,-0.01 1.4117,-0.9492 2.2785,-2.0998 0.867,-1.1508 1.7502,-2.0924 1.963,-2.0924 0.2125,0 27.6021,16.7492 60.8654,37.2206 33.263497,20.4713 60.611697,37.21113 60.773797,37.19973 0.1621,-0.012 7.1774,-9.4403 15.5894,-20.95303 l 15.2948,-20.9319 5.1349,-1.3352 c 5.0249,-1.3067 5.1932,-1.3943 7.8655998,-4.0951 1.5021,-1.5176 2.8589,-2.7596 3.0154,-2.7596 0.3766,0 136.5865032,137.76193 184.0939032,186.19103 5.8572,5.9709 10.6495,11.0655 10.6495,11.3212 0,0.7024 -14.8983,17.6107 -135.775803,154.0937 -178.141697,201.1401 -252.550297,285.0073 -254.213497,286.5283 -0.9854,0.9013 -2.9713,2.2638 -4.413,3.0278 l -2.6213,1.3893 -2.9242,-2.8417 c -2.8462,-2.7659 -3.1178,-2.9074 -10.181,-5.3029 -8.1384,-2.7601 -49.2078,-17.3773 -82.8313,-29.4808 -12.2109,-4.3954 -22.3671,-7.9918 -22.5693,-7.9918 -0.2022,0 -1.1935,1.4221 -2.2029,3.1603 -1.6354,2.8162 -1.9219,3.7972 -2.6328,9.0125 -0.4386,3.2187 -0.8861,6.1762 -0.9945,6.572 -0.1256,0.4594 -2.7378,1.5541 -7.2197,3.0258 l -7.0228,2.306 v 3.7746 3.7747 l -3.3944,3.3175 -3.3943,3.3177 -7.782,2.2497 -7.782,2.2495 -2.2652,4.6041 -2.2654,4.604 h -31.2132 -31.2132 l -24.0798,9.7148 c -13.2437,5.3431 -24.0993,9.9254 -24.1232,10.183 -0.023,0.2576 5.7315,6.4764 12.7899,13.8196 10.3507,10.7683 13.5316,14.3918 16.4405,18.7275 l 3.6068,5.3757 0.4406,10.8922 c 0.2423,5.9907 0.3547,10.9779 0.2498,11.0829 -0.1048,0.1047 -23.47,14.0329 -51.9225,30.9512 l -51.7319,30.7606 -46.116,22.561 -46.1162,22.5609 -30.7023,6.9589 -30.7023,6.9588 -0.9335,14.0802 -0.9334,14.0802 -4.709,7.9592 c -4.5394,7.6725 -4.7207,8.0856 -5.0341,11.4705 -0.1788,1.9312 -0.9849,6.319 -1.7913,9.7507 l -1.4663,6.2394 -3.2717,2.305 -3.2718,2.305 h -5.1765 -5.1762 l -2.4253,4.3502 -2.4251,4.3501 -4.1698,0.7994 c -2.5443,0.4878 -6.4434,0.7993 -10.0023,0.7993 h -5.8325 l -1.3137,-4.0344 z m 245.0579,-343.1331 c 5.0138,-1.6789 13.3297,-4.2349 18.4798,-5.6801 7.8013,-2.189 10.965,-3.3661 18.9615,-7.0544 10.0244,-4.6237 27.9303,-14.5503 27.2906,-15.1292 -0.7182,-0.65 -32.0113,-10.8371 -32.5733,-10.6038 -0.3132,0.1301 -5.2628,4.3292 -10.9992,9.3311 -8.9376,7.7935 -11.7838,10.6327 -19.8977,19.8478 -10.231,11.6194 -10.8488,12.3412 -10.5657,12.3412 0.1035,0 4.2902,-1.3737 9.304,-3.0526 z m -243.3683,-215.1188 c 8.4601,-1.0737 24.0867,-3.9222 26.8199,-4.8888 1.0299,-0.3642 4.9534,-1.7893 8.7187,-3.1668 3.7654,-1.3778 13.394,-4.6062 21.3968,-7.1746 l 14.551,-4.6698 -9.496,-9.5978 c -6.3459,-6.414 -12.6471,-13.4414 -18.9956,-21.1852 -5.2249,-6.3732 -9.548,-11.5877 -9.607,-11.5877 -0.058,0 -2.9005,4.2008 -6.3146,9.335 l -6.2076,9.3349 -7.3229,5.093 c -4.0275,2.8011 -7.9986,5.4876 -8.8247,5.9703 -1.6856,0.9847 -1.8431,1.3157 -3.8954,8.1898 l -1.4677,4.9159 -7.4528,7.4961 c -8.0408,8.0876 -8.1748,8.3183 -6.9172,11.9254 l 0.5353,1.536 3.5859,-0.299 c 1.9723,-0.1645 6.8745,-0.7165 10.8939,-1.2267 z"
     id="path5841"
     inkscape:connector-curvature="0" />
  <path
     id="path5908"
     style="fill:#000044;fill-opacity:1;stroke-width:0.43183044"
     d="m 2477.9688,-3309.2727 c 0,0.026 0,0.026 -0.01,0.042 0.01,0 0.013,-0.026 0.016,-0.037 z m -7.55,11.4154 v 0.026 c -0.7659,-0.069 -1.6215,0.4321 -3.483,1.4213 l -3.3744,1.7931 -1.9586,-0.6667 c -1.078,-0.3683 -2.8517,-0.9777 -3.9377,-1.3486 l -1.9741,-0.6718 -5.302,5.6481 c -4.9971,5.321 -6.04,6.1661 -17.9162,14.583 -22.8023,16.1602 -54.4881,35.2034 -68.3111,41.052 l -7.369,3.116 -6.165,5.2194 c -5.6698,4.7972 -6.6402,5.4367 -12.0561,7.9581 l -5.886,2.744 -4.8575,6.2167 c -2.6718,3.4205 -6.0142,8.0846 -7.4259,10.3664 -2.5267,4.0835 -5.284,10.0242 -5.24,11.2963 0.019,0.5369 -0.4782,0.6303 -2.8939,0.5221 -1.6071,-0.071 -6.1301,-0.1297 -10.0511,-0.1191 -9.7784,0.026 -81.7168,-0.4667 -129.4443,-0.8681 -65.7594,-0.5527 -64.6521,-0.5236 -64.9521,-0.048 -0.1526,0.2514 -36.8661,63.5027 -81.5867,140.5549 l -81.3129,140.0895 -5.302,0.1799 -5.3072,0.1561 -3.793,2.744 c -4.5597,3.3028 -15.2228,8.8019 -22.4999,11.5962 -4.695,1.8026 -5.9554,2.5207 -11.188,6.4182 l -5.8963,4.3977 -16.7431,1.1885 c -15.9155,1.1359 -17.6755,1.1845 -35.6154,0.9303 l -18.8723,-0.2688 -14.3402,-2.3358 c -7.8868,-1.2869 -21.4714,-3.3605 -30.1893,-4.6043 -8.7173,-1.244 -18.7215,-2.7072 -22.2312,-3.2453 l -6.3821,-0.9819 -19.4458,-20.0091 -19.4459,-20.0091 -1.3746,-4.8835 c -0.756,-2.6877 -1.2815,-4.9895 -1.1678,-5.1107 0.3564,-0.3823 20.8518,-8.2479 21.58,-8.2839 0.3815,-0.026 2.8514,0.3871 5.4829,0.8941 2.6321,0.5074 7.3825,1.3081 10.5575,1.7777 l 5.7723,0.8578 4.0255,3.5295 c 4.4943,3.9442 4.4345,3.9106 19.203,10.9864 l 10.6195,5.085 5.4415,-0.164 c 4.8757,-0.1694 5.7238,-0.3069 8.0926,-1.3901 5.0184,-2.2948 9.1943,-8.2078 12.8622,-18.1902 1.4545,-3.9582 1.5043,-4.0267 5.2142,-7.1004 l 3.7414,-3.0953 4.8317,-0.3876 4.8318,-0.3824 -0.1809,-5.1728 c -0.099,-2.8483 -0.3472,-5.832 -0.5529,-6.6249 -0.3489,-1.3452 -0.3094,-1.4309 0.6046,-1.2248 0.5384,0.1217 2.3492,0.4104 4.0204,0.6305 l 3.0386,0.3926 3.1264,-2.0566 3.1264,-2.0722 1.0025,-4.7336 c 0.549,-2.6025 1.384,-6.2312 1.8604,-8.0667 l 0.8682,-3.3435 6.2218,-0.5167 c 6.0118,-0.5115 6.327,-0.5938 9.5033,-2.2686 l 3.2814,-1.7311 0.7907,-4.0826 c 1.6989,-8.8069 1.0051,-18.8444 -2.3099,-33.5327 -1.3328,-5.9071 -1.3776,-6.3963 -1.0387,-10.9813 0.1947,-2.6397 0.6341,-6.5849 0.9766,-8.7643 l 0.6253,-3.9584 5.3382,-6.6146 5.333,-6.6249 6.4337,-3.7724 c 3.5382,-2.0717 7.8449,-4.354 9.5653,-5.0798 l 3.1265,-1.3229 5.9479,-8.7334 5.9428,-8.728 2.7337,-9.2864 2.7337,-9.281 0.4186,-13.1983 0.4134,-13.1929 -4.3925,-7.6274 c -4.1475,-7.194 -4.5283,-8.0547 -6.7283,-15.317 l -2.3306,-7.7049 -9.7152,-12.1801 c -5.344,-6.7053 -10.2049,-12.8077 -10.8004,-13.5599 -1.2022,-1.5192 -14.127,-12.7997 -24.4171,-21.3011 -7.7151,-6.3738 -12.6882,-10.8145 -12.7072,-11.3532 -0.01,-0.2064 -1.1027,-2.6602 -2.434,-5.4571 l -2.4236,-5.0953 -12.268,-8.2682 -12.268,-8.2786 -8.8263,-2.1807 c -8.6655,-2.1484 -8.9985,-2.2691 -18.7482,-7.0797 l -9.927,-4.9041 -17.9886,0.9457 -17.9834,0.9509 -3.0076,-2.3255 c -1.6559,-1.2789 -3.1253,-2.3151 -3.2608,-2.3151 -0.1357,0 -2.2785,2.7914 -4.7645,6.1961 -2.486,3.4044 -4.6356,6.1478 -4.7801,6.1028 -0.1444,-0.045 -2.6349,-2.6233 -5.5294,-5.7308 -7.5016,-8.051 -6.3228,-7.3819 -13.0999,-7.5086 -3.1786,-0.061 -10.9468,-0.5842 -17.2651,-1.1782 -6.3182,-0.5943 -12.0965,-1.0597 -12.8416,-1.0335 -0.7447,0.026 -3.0469,0.5977 -5.116,1.2763 -8.4154,2.7604 -12.8266,5.6357 -14.6141,9.5137 -1.2195,2.6458 -4.7801,8.0605 -9.7875,14.8725 l -4.4028,5.9737 -0.801,6.4752 -0.7959,6.4595 -4.439,8.201 c -3.6717,6.784 -4.9042,9.5761 -7.1623,16.273 -2.2805,6.7646 -3.6405,9.8552 -8.3303,18.8722 l -5.612,10.7796 -2.8267,10.4749 c -1.557,5.7581 -3.5551,13.8464 -4.439,17.9782 l -1.6072,7.5086 1.7932,9.6686 c 1.6593,8.9355 1.7654,9.9163 1.3798,12.8313 -0.2297,1.7343 -0.4876,3.9875 -0.5736,4.9971 -0.3588,4.2085 -4.7984,16.2693 -9.5395,25.9157 l -4.6612,9.4827 -11.8081,3.3642 c -6.4948,1.8499 -14.1143,4.1026 -16.9343,5.0125 -2.8201,0.9104 -10.9187,2.9334 -17.9938,4.4908 -12.0687,2.6556 -21.7714,5.3676 -30.8663,8.6299 -3.543,1.2708 -4.1422,1.6502 -6.5526,4.2013 -1.4588,1.5438 -4.45,4.1492 -6.6507,5.7878 l -3.9998,2.9868 -12.4644,1.9379 -12.4643,1.9534 -7.705,5.0694 c -4.2377,2.794 -12.4265,7.6539 -18.2004,10.7953 l -10.5007,5.7102 -16.9137,4.3304 c -9.3041,2.3815 -17.2379,4.336 -17.6268,4.3461 -0.5866,0.026 -11.6221,-7.4758 -17.7353,-12.0407 -2.0272,-1.5131 -1.5601,-1.5766 -17.5493,2.3926 l -11.7926,2.9197 -11.219,6.2736 c -6.1716,3.4512 -13.3523,7.2284 -15.9576,8.382 -6.607,2.9268 -8.4826,4.3127 -10.418,7.6842 -1.1025,1.9201 -5.3572,5.0247 -11.3275,8.2786 l -5.4725,2.9869 -4.2892,-3.1007 c -2.3589,-1.7028 -6.4822,-4.6418 -9.1622,-6.5267 l -4.8731,-3.4158 -13.4979,-3.0644 c -7.426,-1.6846 -13.7864,-3.0657 -14.1335,-3.0438 -0.3473,0.026 -3.3817,1.0531 -6.7386,2.2945 l -6.1029,2.2479 -11.0847,-10.6143 c -6.0978,-5.8428 -14.0403,-13.7332 -17.6475,-17.5286 l -6.5577,-6.9041 -13.0225,-4.0359 -13.0172,-4.041 -13.9734,2.0929 c -11.3189,1.6904 -16.8177,2.7495 -28.9698,5.643 -14.4182,3.4327 -15.336,3.6052 -23.828,4.2685 -23.9935,1.8741 -29.8663,2.4479 -51.0304,4.9713 -15.48,1.846 -26.5983,3.4144 -34.6129,4.8731 -11.5483,2.1015 -12.1172,2.2439 -25.90021,6.909 -13.8166,4.6765 -14.3387,4.902 -26.7219,11.2139 l -12.6349,6.4389 -11.0226,10.914 -11.0277,10.9038 -11.6376,5.1469 -11.6375,5.1366 -12.299,0.398 c -11.5381,0.3693 -12.747,0.4879 -19.4562,1.8499 l -7.152,1.4574 -14.4177,-0.4393 c -7.9293,-0.2407 -19.8651,-0.5892 -26.5255,-0.7649 l -12.1078,-0.3151 -4.9971,-3.4623 c -2.7459,-1.9026 -5.4921,-3.6314 -6.103,-3.8397 -0.6104,-0.209 -3.6708,-0.2852 -6.8006,-0.164 l -5.6896,0.164 -11.4412,-12.1491 -11.4463,-12.1698 -25.6728,-17.5183 c -14.1202,-9.6353 -27.8846,-19.177 -30.5873,-21.2132 l -4.9144,-3.705 -10.3612,-27.9778 c -5.6998,-15.3882 -13.0587,-34.4829 -16.3556,-42.4315 -5.77,-13.9121 -6.2443,-14.8664 -12.6504,-25.6006 -5.8203,-9.7522 -7.6462,-12.3872 -14.5624,-21.0579 l -7.9065,-9.9219 -8.785,-4.0309 -8.7798,-4.0256 -10.4335,-1.7622 c -9.2974,-1.5525 -10.9671,-1.9507 -15.3634,-3.7724 l -4.9299,-2.041 -0.1241,-3.4573 c -0.1177,-3.3705 -0.069,-3.5507 2.1756,-8.1079 1.9852,-4.0309 2.3797,-5.2731 2.9145,-9.2141 1.6772,-12.3605 -0.7459,-21.1817 -8.2527,-30.0188 l -3.6018,-4.2426 -5.9325,-2.6924 c -5.6964,-2.5924 -6.2535,-2.7501 -14.1852,-4.0357 -9.7277,-1.5769 -8.5008,-1.6881 -24.7685,2.16 -9.7647,2.3101 -12.9553,3.2594 -18.6035,5.5449 -6.4834,2.6234 -7.1193,2.7898 -13.0535,3.488 -9.8063,1.1547 -44.7738,7.5152 -55.1749,10.0304 -5.1845,1.2536 -10.7719,2.8091 -12.4127,3.4623 -1.6407,0.653 -5.6672,2.2209 -8.9503,3.483 -4.0862,1.5708 -8.5845,3.7999 -14.2627,7.054 -8.1338,4.6609 -8.4101,4.8586 -14.1594,10.5212 l -5.8652,5.7827 -0.1292,4.3667 c -0.071,2.4048 -0.2672,6.7863 -0.4392,9.7356 -0.3042,5.2184 -0.3546,5.4179 -1.85,7.4517 l -1.54,2.0932 -3.5915,0.4132 c -1.9757,0.2302 -5.2337,0.7493 -7.2399,1.1526 -2.0054,0.4032 -6.9905,0.9863 -11.0794,1.2917 l -7.4362,0.5529 -15.4875,2.6977 -15.4926,2.6922 -8.4025,12.1388 -8.4026,12.1388 8.5266,10.5783 16.4021,8.1958 12.4643,3.4829 12.4644,7.4158 5.8033,2.2063 c 3.1911,1.2131 7.8673,2.8996 10.3921,3.7468 4.8351,1.6229 19.2101,4.8054 23.8952,5.2917 3.5344,0.3669 5.5983,1.3208 14.7639,6.8262 4.1232,2.4768 8.2856,4.758 9.2501,5.0591 0.9644,0.3011 5.8261,1.2769 10.8056,2.1757 l 9.0537,1.6383 2.1807,1.8965 c 1.1982,1.0448 2.6582,2.095 3.2401,2.3358 1.1028,0.4569 17.0467,16.0387 17.0688,16.6809 0.01,0.2011 -2.5534,3.7092 -5.6948,7.8084 -8.6149,11.2421 -16.1401,21.8225 -17.2806,24.2932 -0.5601,1.2139 -2.5883,5.1459 -4.5062,8.7331 -1.918,3.587 -3.4778,6.641 -3.4778,6.7903 0.01,0.1508 0.3623,1.0948 0.7906,2.1084 0.718,1.6992 1.5295,2.3387 10.325,7.9791 9.2025,5.901 9.6764,6.2645 13.1517,10.3507 l 3.6018,4.2373 10.1338,5.6071 c 5.5735,3.08 13.0045,7.0117 16.5106,8.7331 3.506,1.7211 12.0276,6.378 18.9394,10.351 6.9118,3.973 13.3583,7.5893 14.3247,8.0407 0.9663,0.4511 6.3818,3.8738 12.0354,7.6018 5.6535,3.7277 10.4713,6.8318 10.7074,6.9037 0.5157,0.1561 1.7679,4.452 4.6509,15.9526 l 2.1549,8.5783 8.6454,13.6478 8.6507,13.6374 -0.677,10.9347 -0.677,10.9244 3.8603,7.3226 c 3.8025,7.2173 3.909,7.3744 6.5525,9.126 7.6655,5.0781 9.1354,6.5442 16.6916,16.7381 3.9456,5.3228 9.3691,12.2383 12.0509,15.3529 6.2995,7.3163 22.6257,23.8012 23.7815,24.0141 0.9816,0.1826 15.6113,1.6812 37.9202,3.8759 l 14.4745,1.4158 25.7245,-0.8837 c 18.5282,-0.6443 28.092,-0.799 34.1685,-0.553 26.9741,1.092 58.1527,2.141 66.4042,2.2376 5.2305,0.061 18.9515,0.504 30.4943,0.9819 l 20.9858,0.863 30.2152,-0.9818 c 27.4424,-0.8983 31.8788,-0.9448 48.3794,-0.4755 16.8536,0.4797 19.5564,0.6789 37.4654,2.6874 l 19.30631,2.1548 7.9066,3.633 7.9013,3.6277 11.1776,-1.5867 c 6.7427,-0.9584 12.0266,-1.9252 13.3118,-2.434 1.172,-0.4646 6.825,-2.8373 12.5626,-5.271 l 10.4335,-4.4233 15.3323,-0.1614 c 12.3242,-0.1111 16.6376,-0.3011 21.9625,-0.9818 l 6.625,-0.8475 1.2764,2.5683 1.2764,2.5683 9.2346,1.6021 9.2294,1.5967 10.4334,-1.6536 10.4335,-1.6537 5.6276,2.3823 5.6275,2.3874 11.4515,-0.053 c 18.1213,-0.063 27.0178,-0.6538 40.0906,-2.6665 20.4177,-3.1438 16.9495,-3.1009 28.6029,-0.3773 l 10.1389,2.372 27.9105,1.1835 c 56.5295,2.404 75.5547,2.7575 93.1777,1.7621 11.1308,-0.6287 52.6665,-3.2382 84.2895,-5.297 l 11.4256,-0.744 27.0733,1.8759 27.0681,1.8706 35.5327,-3.297 c 19.5433,-1.8137 35.9251,-3.3898 36.4009,-3.5036 0.5111,-0.1217 2.9404,-3.1665 5.9376,-7.4363 l 5.0747,-7.2295 11.5393,0.6511 c 12.7846,0.7194 11.648,0.788 36.158,-2.2219 l 10.8417,-1.3335 4.5786,3.6949 c 8.3698,6.7572 14.7701,11.6892 17.2289,13.2707 1.3369,0.8601 6.4263,4.6656 11.3119,8.4592 5.7797,4.4876 12.5101,9.1697 19.265,13.3998 8.3814,5.2491 11.8366,7.7272 17.9472,12.8726 4.1623,3.5054 8.4232,6.8672 9.4672,7.4673 5.0661,2.9128 7.584,4.5871 15.7923,10.5161 9.5787,6.9199 10.8312,7.642 13.1568,7.5602 0.8409,-0.029 10.9384,0.404 22.4379,0.9613 50.6659,2.4553 66.0877,2.8511 96.144,2.4854 21.3346,-0.2592 33.9117,-0.1799 52.3896,0.3361 24.0445,0.6717 24.6365,0.6715 53.1337,-0.3876 22.1109,-0.8255 32.0896,-1.0155 42.8708,-0.8269 7.7282,0.135 23.1866,0.082 34.3493,-0.1243 30.2961,-0.5554 69.8841,-2.2977 85.85,-3.7722 12.2277,-1.1295 14.481,-1.2195 26.7529,-1.08 l 13.3997,0.1614 6.1754,-2.5943 c 6.0163,-2.5296 6.5002,-2.6558 18.8412,-4.904 l 12.6659,-2.3151 8.1132,-5.2245 8.108,-5.2244 0.5684,-2.9766 c 0.3294,-1.7275 0.4991,-4.9789 0.4031,-7.7515 -0.1431,-4.1008 -0.3329,-5.1485 -1.3384,-7.3948 -0.6445,-1.4396 -1.1777,-2.8933 -1.1937,-3.2298 -0.011,-0.3366 0.6796,-2.4191 1.5348,-4.6252 1.1711,-3.0199 1.692,-5.2483 2.098,-9.0175 l 0.5375,-5.0126 -3.6484,-4.563 c -2.0073,-2.5119 -3.6614,-4.9294 -3.6793,-5.3744 -0.016,-0.4451 0.3589,-3.6471 0.8319,-7.1157 0.5581,-4.0929 0.8038,-7.9526 0.6977,-10.9969 l -0.1654,-4.6921 -3.576,-3.9688 c -1.9659,-2.1791 -4.7473,-4.9054 -6.1805,-6.0669 l -2.6045,-2.1135 -1.9999,-6.3098 c -1.7366,-5.4837 -2.1013,-7.313 -2.806,-13.9525 -0.4456,-4.201 -0.9286,-7.8002 -1.0697,-8.0047 -0.4711,-0.6834 -7.2414,-3.5568 -10.8831,-4.6199 -1.9809,-0.5773 -3.607,-1.1144 -3.607,-1.1885 -0.01,-0.1799 183.6385,-326.4467 224.8287,-399.433 8.1673,-14.4722 14.375,-25.6882 15.3065,-27.621 -0.2447,-0.6485 -0.3006,-1.4578 -0.082,-2.3772 -0.2074,-0.2329 -0.402,-0.4609 -0.677,-0.6977 -1.502,-1.2915 -2.1796,-1.931 -2.9455,-1.9998 z"
     inkscape:connector-curvature="0" />
  <circle
     style="opacity:1;fill:#000044;fill-opacity:1;fill-rule:evenodd;stroke:none;stroke-width:10;stroke-linejoin:miter;stroke-miterlimit:4;stroke-dasharray:none;stroke-opacity:1"
     id="path6763"
     cx="1371.9705"
     cy="-772.02747"
     r="2160" />
  <rect
     style="opacity:1;fill:#000044;fill-opacity:1;fill-rule:evenodd;stroke:none;stroke-width:10;stroke-linejoin:miter;stroke-miterlimit:4;stroke-dasharray:none;stroke-opacity:1"
     id="rect6765"
     width="7412.2031"
     height="3064.6606"
     x="-2111.4089"
     y="-3150.7034" />
</svg>
