<?xml version="1.0" encoding="UTF-8" standalone="no"?>
<!-- Created with Inkscape (http://www.inkscape.org/) -->

<svg
   xmlns:dc="http://purl.org/dc/elements/1.1/"
   xmlns:cc="http://creativecommons.org/ns#"
   xmlns:rdf="http://www.w3.org/1999/02/22-rdf-syntax-ns#"
   xmlns:svg="http://www.w3.org/2000/svg"
   xmlns="http://www.w3.org/2000/svg"
   xmlns:sodipodi="http://sodipodi.sourceforge.net/DTD/sodipodi-0.dtd"
   xmlns:inkscape="http://www.inkscape.org/namespaces/inkscape"
   width="118.06374mm"
   height="139.00153mm"
   viewBox="0 0 118.06374 139.00153"
   version="1.1"
   id="svg2083"
   inkscape:version="0.92.3 (2405546, 2018-03-11)"
   sodipodi:docname="silhouette_alice.svg">
  <defs
     id="defs2077" />
  <sodipodi:namedview
     id="base"
     pagecolor="#ffffff"
     bordercolor="#666666"
     borderopacity="1.0"
     inkscape:pageopacity="0.0"
     inkscape:pageshadow="2"
     inkscape:zoom="0.35"
     inkscape:cx="-5.4588497"
     inkscape:cy="768.39536"
     inkscape:document-units="mm"
     inkscape:current-layer="layer1"
     showgrid="false"
     fit-margin-top="0"
     fit-margin-left="0"
     fit-margin-right="0"
     fit-margin-bottom="0"
     inkscape:window-width="1613"
     inkscape:window-height="995"
     inkscape:window-x="131"
     inkscape:window-y="27"
     inkscape:window-maximized="1" />
  <metadata
     id="metadata2080">
    <rdf:RDF>
      <cc:Work
         rdf:about="">
        <dc:format>image/svg+xml</dc:format>
        <dc:type
           rdf:resource="http://purl.org/dc/dcmitype/StillImage" />
        <dc:title></dc:title>
      </cc:Work>
    </rdf:RDF>
  </metadata>
  <g
     inkscape:label="Calque 1"
     inkscape:groupmode="layer"
     id="layer1"
     transform="translate(72.639013,-213.13642)">
    <path
       style="fill:#00004d;fill-opacity:1;stroke-width:0.04673266"
       d="m 1.9713617,351.76721 0.405228,-0.3636 0.389231,-0.0327 c 0.21407,-0.018 1.261949,-0.10423 2.32862,-0.19164 1.06668,-0.0874 3.39046,-0.318 5.1639703,-0.5124 1.7735,-0.1944 3.43485,-0.37654 3.69188,-0.40472 0.257021,-0.0282 1.06508,-0.1879 1.79569,-0.35487 l 1.328359,-0.30358 1.14046,-0.62879 c 0.994201,-0.54814 1.462111,-0.76558 3.64866,-1.6954 1.379511,-0.58663 3.496611,-1.50089 4.704651,-2.03168 2.167116,-0.95222 2.221686,-0.97311 4.089106,-1.56536 1.80696,-0.57308 1.96992,-0.63451 3.59841,-1.35667 0.93816,-0.41603 2.44689,-1.09671 3.35274,-1.51266 1.40684,-0.64595 1.64705,-0.77066 1.64733,-0.85517 0,-0.0544 -0.22919,-1.01128 -0.50971,-2.12634 -0.28052,-1.11506 -0.57559,-2.30629 -0.65572,-2.64718 l -0.1457,-0.61977 0.35037,-1.08597 c 0.19269,-0.59727 0.55306,-1.88509 0.80081,-2.8618 0.24776,-0.97672 0.50944,-1.95459 0.58152,-2.17307 0.50024,-1.51611 1.29072,-5.86858 1.47682,-8.13148 0.0571,-0.6946 0.0769,-1.42061 0.0721,-2.64039 -0.007,-1.78703 -0.0101,-1.85578 -0.14705,-3.34139 -0.0486,-0.52691 -0.10102,-1.35705 -0.11654,-1.84477 -0.0371,-1.16674 -0.34229,-3.09412 -0.65813,-4.15674 -0.11399,-0.38354 -0.20727,-0.72001 -0.20727,-0.74772 -1e-5,-0.0277 -0.10475,-0.21385 -0.23278,-0.41365 -0.12802,-0.19982 -0.29642,-0.51526 -0.37423,-0.70099 -0.0778,-0.18574 -0.21058,-0.4589 -0.29508,-0.60702 l -0.15363,-0.26931 0.12871,-1.27287 c 0.21183,-2.09467 0.26686,-2.55562 0.50627,-4.24038 0.33702,-2.37176 0.42075,-3.2274 0.42075,-4.30019 0,-1.3832 0.0851,-2.03184 0.53625,-4.08515 0.21497,-0.97846 0.47743,-2.23115 0.58324,-2.78377 0.10581,-0.55262 0.38345,-1.97805 0.61696,-3.16764 l 0.42457,-2.1629 0.49672,-0.33566 c 0.6944,-0.46926 1.58525,-1.34197 2.18972,-2.14512 l 0.48006,-0.63785 v -0.55239 -0.55238 l -1.99511,-4.58125 c -1.21699,-2.79449 -2.25205,-5.24651 -2.6539,-6.28699 l -0.65878,-1.70573 -1.64424,-2.25817 -1.64424,-2.25817 0.72763,-1.57391 c 0.698,-1.50984 0.75583,-1.65857 1.42051,-3.65351 l 0.69288,-2.07961 0.26525,-1.93941 c 0.14588,-1.06667 0.27503,-2.08661 0.287,-2.26653 0.012,-0.17992 0.11318,-2.91291 0.22492,-6.07331 l 0.20316,-5.74619 -0.36592,-0.91322 c -0.20126,-0.50227 -0.63234,-1.55462 -0.95795,-2.33856 -0.80473,-1.93746 -1.4519,-3.87027 -2.08677,-6.23226 -0.44184,-1.64386 -0.56908,-2.04919 -0.90278,-2.87609 -0.21364,-0.52939 -0.46701,-1.18284 -0.56303,-1.45209 -0.096,-0.26925 -0.38155,-0.97717 -0.63452,-1.57315 -0.3056,-0.71999 -0.79033,-2.04528 -1.44457,-3.94962 -0.54155,-1.57631 -0.99955,-2.87939 -1.01778,-2.89573 -0.0182,-0.0163 -0.57658,-0.3913 -1.24076,-0.83323 -1.17101,-0.77915 -1.24752,-0.82161 -2.52357,-1.4007 -0.97068,-0.44052 -1.605567,-0.69335 -2.419926,-0.96372 l -1.103989,-0.36651 -0.975612,0.44319 -0.975609,0.4432 -0.630891,-0.0321 c -1.69941,-0.0865 -2.847109,-0.0154 -4.509709,0.27926 l -0.981379,0.17395 -0.360011,-0.083 -0.360021,-0.083 -0.644739,0.27473 c -0.55885,0.23812 -1.65988,0.58108 -3.098199,0.96504 -0.248211,0.0663 -0.504601,0.21524 -1.40198,0.81468 -0.60402,0.40348 -1.5491303,1.01444 -2.1002603,1.35768 -0.551111,0.34326 -1.097891,0.69761 -1.215041,0.78747 -0.11716,0.0898 -0.738759,0.51958 -1.381331,0.95496 -1.281919,0.86856 -1.20999,0.83512 -2.544088,1.18295 l -0.81499,0.2125 -1.428182,0.80048 c -1.74126804,0.97596 -2.57316804,1.56464 -4.061748,2.87426 -0.825889,0.7266 -1.25648,1.15249 -2.056241,2.03377 l -1.01159,1.11472 -0.62108,1.2061 -0.62108,1.20609 -0.441788,1.70426 -0.441801,1.70425 0.06527,1.37256 c 0.06353,1.3361 0.07105,1.39984 0.283321,2.39976 0.11993,0.56497 0.23672,1.0497 0.25953,1.07718 0.126698,0.15266 0.902308,0.48776 1.412719,0.61036 l 0.549341,0.13195 0.21717,0.5553 c 0.119438,0.30541 0.24189,0.56479 0.272108,0.57638 0.03022,0.0116 0.17949,-0.007 0.331711,-0.0404 0.254359,-0.0565 0.30703,-0.0529 0.650621,0.0442 0.347569,0.0983 0.393027,0.12631 0.646279,0.39841 0.216011,0.2321 0.365821,0.47651 0.72367,1.18061 0.530359,1.04356 0.81145,1.81942 0.89252896,2.4636 0.0737,0.58553 -0.0039,2.28935 -0.15711996,3.44808 l -0.108119,0.81782 -0.315101,0.67763 -0.3151,0.67762 0.0268,0.49069 c 0.04443,0.81337 0.08991,0.95607 0.42155,1.32261 l 0.287581,0.31786 0.60653096,0.18371 c 0.574418,0.17399 0.622368,0.18118 0.905999,0.13587 0.22383,-0.0358 1.05497804,-0.0198 1.08503004,0.0208 0.0021,0.003 0.01913,0.42586 0.03779,0.93991 0.03257,0.89783 0.03868,0.94202 0.15484,1.12159 0.305228,0.47181 0.713891,0.73197 1.246949,0.79384 0.271172,0.0315 0.29173,0.0418 0.26601,0.13418 -0.01532,0.055 -0.06017,0.28298 -0.09965,0.50652 -0.07045,0.39896 -0.06991,0.40927 0.02965,0.5608 0.06239,0.0949 0.255771,0.24317 0.502439,0.3851 0.22847,0.13147 0.553781,0.37669 0.756049,0.56995 0.348872,0.33331 0.35646,0.34552 0.43774,0.7039 0.04549,0.2006 0.157631,0.59419 0.249201,0.87466 0.160239,0.49086 0.17758,0.52035 0.463129,0.78746 0.406882,0.38062 1.072362,0.84903 1.453372,1.02301 0.2441,0.11145 0.421288,0.15396 0.77207,0.18525 0.508799,0.0454 0.767678,10e-4 1.77445,-0.30417 0.436459,-0.1323 0.6635193,-0.17073 1.2699493,-0.21498 0.40616,-0.0296 0.744601,-0.0471 0.7521,-0.0388 0.0075,0.008 0.06903,0.59338 0.136731,1.30021 0.06772,0.70683 0.131879,1.35352 0.142589,1.43708 0.0186,0.14491 -0.02516,0.19371 -0.94728,1.05673 -0.53173,0.49763 -1.0917103,1.01349 -1.2443913,1.14633 -0.15268,0.13283 -0.449548,0.46695 -0.65968,0.74247 -0.364559,0.47798 -0.425079,0.53258 -1.319808,1.1906 -1.340702,0.986 -2.2026,1.67111 -2.45369,1.95038 -0.119811,0.13325 -0.304451,0.41392 -0.410321,0.6237 -0.190569,0.37762 -0.192209,0.38522 -0.16442,0.76311 0.01543,0.20995 0.08088,0.62599 0.145431,0.92455 0.09954,0.46037 0.17314,0.65441 0.48455,1.27731 l 0.367181,0.73447 -0.06885,0.60752 -0.06884,0.60753 -1.005719,1.70574 c -0.861232,1.46065 -1.130792,1.87353 -1.876091,2.87345 -0.97105,1.30279 -2.56893004,3.24442 -4.461769,5.4216 -0.692719,0.79679 -1.284431,1.47606 -1.31489,1.50948 -0.04543,0.0498 -0.23119,0.0476 -1.032761,-0.0122 -0.537538,-0.0401 -1.04045,-0.0835 -1.11756,-0.0963 -0.07711,-0.0128 -1.2758,-0.0547 -2.663759,-0.093 -1.387959,-0.0383 -2.7128287,-0.0822 -2.9441587,-0.0974 -1.086541,-0.0717 -5.068081,-0.91257 -7.360391,-1.55451 -1.238819,-0.34691 -2.34066,-0.61386 -3.411479,-0.82652 -1.093999,-0.21726 -1.75844,-0.43076 -2.12121,-0.68162 -1.035179,-0.71578 -1.36756,-1.0738 -1.647211,-1.77432 -0.09646,-0.24163 -0.271201,-0.58653 -0.38831,-0.76646 -0.117118,-0.17992 -0.400199,-0.72668 -0.629068,-1.21505 -0.228881,-0.48835 -0.541132,-1.12493 -0.693881,-1.41461 -0.37401,-0.70927 -0.434149,-0.74932 -1.493821,-0.99508 -1.276599,-0.29607 -1.528829,-0.37164 -1.96354,-0.58832 -0.38682,-0.1928 -0.415488,-0.21767 -0.54411,-0.47206 -0.17268,-0.34151 -0.67288,-0.84214 -0.88029,-0.88105 -0.19526,-0.0366 -0.555238,0.0864 -0.722868,0.24695 l -0.129712,0.12428 -0.122179,-0.27659 c -0.399039,-0.90338 -1.756939,-3.91692 -3.314859,-7.35658 -1.549281,-3.42056 -3.206411,-7.06297 -9.44001,-20.7493 -0.661431,-1.45221 -1.210951,-2.64954 -1.22118,-2.66071 -0.03331,-0.0365 -4.57098,1.24263 -5.70064,1.60691 -0.35489,0.11444 -0.64982,0.2035 -0.65539,0.19794 -0.0056,-0.006 -0.29759,-0.63769 -0.64893,-1.40468 -0.35133,-0.767 -1.06512,-2.31234 -1.58621,-3.43413 l -0.94741,-2.03959 -0.46755,-0.0896 c -0.4648,-0.0891 -0.46823,-0.0891 -0.58589,0.004 -0.0651,0.0512 -2.15358,1.88957 -4.64108,4.08527 -2.4875,2.19569 -5.82782,5.14373 -7.42294,6.5512 -1.59512,1.40747 -2.91824,2.58579 -2.94026,2.61849 -0.02644,0.0392 1.373369,3.00692 4.116319,8.72689 2.28602,4.7671 8.60886,17.95206 14.05078,29.29992 l 9.8944,20.63247 0.546489,0.20447 c 0.994291,0.372 4.417081,1.68776 4.433649,1.70434 0.009,0.009 -0.215169,0.50357 -0.498059,1.09917 l -0.514329,1.08292 -0.39924,1.48286 c -0.54297,2.0167 -1.838611,7.69846 -1.8936,8.30399 l -0.04227,0.46548 -0.510622,0.5159 c -0.426929,0.43135 -0.63473,0.69974 -1.267849,1.63749 -0.416481,0.61687 -0.821262,1.26879 -0.89952,1.44871 -0.07826,0.17993 -0.614991,1.13795 -1.19275,2.12895 l -1.05047,1.80182 -1.12724,0.67383 c -1.31185,0.78419 -1.10026,0.68041 -2.9594,1.4515 -1.39682,0.57934 -1.5328,0.62538 -3.22456,1.09183 l -1.76625,0.48698 -1.49544,0.18758 -1.49545,0.18757 -1.89267,0.51297 c -1.74605,0.47324 -2.02628,0.56405 -3.6173,1.17233 -0.94854,0.36263 -1.75057,0.67434 -1.78228,0.69269 -0.03171,0.0183 -0.45433,0.38971 -0.93914,0.82528 l -0.88148,0.79195 -0.03057,0.28291 c -0.01682,0.15559 -0.04452,0.58783 -0.06156,0.96052 -0.02942,0.64356 -0.0215,0.73753 0.15747,1.86931 0.16808,1.06293 0.22058,1.29014 0.48589,2.10296 0.27453,0.84109 0.78069,2.14188 0.88619,2.27748 0.02469,0.0317 0.25223,0.16748 0.50567,0.30168 0.45129,0.23898 0.46139,0.24798 0.4896,0.43609 0.01658,0.11051 0.13165,0.35904 0.271,0.58526 l 0.2422,0.39318 0.54824,0.1899 c 0.51987,0.18007 0.57974,0.21476 1.15693,0.6704 0.56941,0.44951 0.64252,0.4923 1.13326,0.66345 0.50255,0.17527 0.54913,0.18293 1.10875,0.18239 0.32129,-10e-4 0.84703,-0.0232 1.16831,-0.0508 0.32129,-0.0276 1.18351,-0.048 1.91604,-0.0452 1.23091,0.005 1.40806,-0.005 2.33664,-0.13235 1.18834,-0.16248 1.04282,-0.11937 6.40237,-1.89682 2.50437,-0.83054 3.88296,-1.2628 4.603169,-1.44332 0.56547,-0.14174 1.427681,-0.36373 1.916041,-0.49332 0.72548,-0.19249 1.12304,-0.26598 2.173068,-0.40164 1.168321,-0.15093 1.416161,-0.19992 2.726412,-0.53881 0.7927,-0.20504 1.518219,-0.41225 1.612279,-0.46049 0.09406,-0.0482 0.508079,-0.28428 0.920051,-0.52454 0.73678,-0.42966 0.760148,-0.44829 1.427779,-1.13781 0.61399,-0.63412 0.689081,-0.72996 0.787109,-1.00475 0.0596,-0.16707 0.209622,-0.57715 0.33337,-0.91129 l 0.224991,-0.60752 0.05752,-0.95802 0.05751,-0.95802 -0.31473,-0.91129 c -0.18492,-0.53541 -0.470971,-1.23307 -0.69352,-1.69144 l -0.37878,-0.78016 0.156429,-0.34143 c 0.08603,-0.18778 0.456282,-0.95129 0.82277,-1.69667 l 0.666342,-1.35524 0.508498,-0.53218 0.508492,-0.53218 0.72141,0.40956 c 0.396769,0.22525 1.239668,0.71084 1.873089,1.07908 0.955111,0.55524 1.353931,0.75497 2.33663,1.17016 l 1.184961,0.50065 2.2899,0.22156 c 1.484278,0.14362 3.481887,0.38129 5.678019,0.67557 l 3.388119,0.45399 3.201191,0.76293 3.2011777,0.76293 0.233672,0.2563 c 0.177408,0.1946 0.283348,0.378 0.440079,0.76188 0.526881,1.29056 1.175919,2.7748 1.324581,3.02915 0.188579,0.32261 2.211078,4.08078 4.005088,7.44216 l 1.228381,2.30159 1.33775896,-0.003 1.33777104,-0.003 0.40523,-0.3636 z m -9.588201,-47.48819 -2.126339,-0.28652 -0.8080907,-0.38985 c -0.742259,-0.35808 -0.850778,-0.42692 -1.331878,-0.84484 -0.288092,-0.25025 -0.565851,-0.49153 -0.617252,-0.53619 -0.08888,-0.0772 -0.116049,-0.0766 -0.55336,0.0127 l -0.459899,0.0939 -0.217731,-0.094 c -0.11975,-0.0517 -1.016849,-0.47603 -1.993569,-0.94296 -0.976709,-0.46692 -2.467869,-1.13236 -3.313679,-1.47874 l -1.53785,-0.6298 -1.266111,0.0966 c -0.942808,0.0719 -1.480921,0.0897 -2.107308,0.0698 l -0.841182,-0.0268 -2.780599,-0.60943 c -1.529321,-0.33518 -2.784089,-0.61221 -2.788359,-0.61561 -0.0042,-0.003 -0.01336,-0.1272 -0.02021,-0.2751 l -0.01246,-0.26892 2.450319,-2.57631 c 1.347669,-1.41697 2.445319,-2.59979 2.43922,-2.6285 -0.0061,-0.0287 -0.423471,-0.99854 -0.927499,-2.15517 -0.504021,-1.15664 -0.933752,-2.14731 -0.954932,-2.20149 -0.03626,-0.0927 -0.0011,-0.087 0.600361,0.0973 0.351391,0.10771 0.81143,0.28322 1.022289,0.39003 0.839132,0.42503 3.062902,1.38032 5.621761,2.41501 0.552609,0.22345 1.57662,0.65696 2.275581,0.96336 1.360289,0.59629 3.082218,1.2608 5.411938,2.08851 1.240459,0.44073 1.661761,0.56578 2.9307997,0.86995 1.19125,0.28553 1.723131,0.38784 2.71049,0.52139 0.675629,0.0914 1.733121,0.24876 2.349989,0.34974 1.080842,0.17693 1.16195,0.18361 2.232671,0.18389 l 1.111081,10e-4 0.94514896,-0.70928 c 0.519841,-0.39011 1.26536004,-1.0013 1.65671004,-1.35822 l 0.711549,-0.64893 0.19974,0.0416 c 0.10986,0.0229 0.196662,0.061 0.192891,0.0848 -0.01627,0.10266 -1.10346,3.7867 -1.13099,3.83248 -0.01678,0.0279 -0.236051,0.22273 -0.48729904,0.43299 -0.426141,0.3566 -0.532871,0.41739 -1.58891,0.90499 -0.93308996,0.43082 -1.31693196,0.64012 -2.18357196,1.19059 l -1.051489,0.66787 -0.517191,0.60783 -0.517179,0.60784 -0.19658,0.69648 -0.196569,0.6965 0.03195,0.85114 0.03195,0.85114 -0.136009,-0.0277 c -0.07481,-0.0152 -1.092872,-0.15661 -2.262352,-0.31419 z"
       id="path5774"
       inkscape:connector-curvature="0" />
  </g>
</svg>
