<?xml version="1.0" encoding="UTF-8" standalone="no"?>
<!-- Created with Inkscape (http://www.inkscape.org/) -->

<svg
   xmlns:dc="http://purl.org/dc/elements/1.1/"
   xmlns:cc="http://creativecommons.org/ns#"
   xmlns:rdf="http://www.w3.org/1999/02/22-rdf-syntax-ns#"
   xmlns:svg="http://www.w3.org/2000/svg"
   xmlns="http://www.w3.org/2000/svg"
   xmlns:sodipodi="http://sodipodi.sourceforge.net/DTD/sodipodi-0.dtd"
   xmlns:inkscape="http://www.inkscape.org/namespaces/inkscape"
   width="152.79266mm"
   height="142.68047mm"
   viewBox="0 0 152.79266 142.68047"
   version="1.1"
   id="svg1492"
   inkscape:version="0.92.3 (2405546, 2018-03-11)"
   sodipodi:docname="silhouette_loic.svg">
  <defs
     id="defs1486" />
  <sodipodi:namedview
     id="base"
     pagecolor="#ffffff"
     bordercolor="#666666"
     borderopacity="1.0"
     inkscape:pageopacity="0.0"
     inkscape:pageshadow="2"
     inkscape:zoom="0.35"
     inkscape:cx="1445.8843"
     inkscape:cy="743.91752"
     inkscape:document-units="mm"
     inkscape:current-layer="layer1"
     showgrid="false"
     fit-margin-top="0"
     fit-margin-left="0"
     fit-margin-right="0"
     fit-margin-bottom="0"
     inkscape:window-width="1613"
     inkscape:window-height="995"
     inkscape:window-x="131"
     inkscape:window-y="27"
     inkscape:window-maximized="1" />
  <metadata
     id="metadata1489">
    <rdf:RDF>
      <cc:Work
         rdf:about="">
        <dc:format>image/svg+xml</dc:format>
        <dc:type
           rdf:resource="http://purl.org/dc/dcmitype/StillImage" />
        <dc:title></dc:title>
      </cc:Work>
    </rdf:RDF>
  </metadata>
  <g
     inkscape:label="Calque 1"
     inkscape:groupmode="layer"
     id="layer1"
     transform="translate(456.64023,-202.98104)">
    <path
       style="fill:#00004d;fill-opacity:1;stroke-width:0.04681836"
       d="m -399.32892,345.25847 -0.13139,-0.40343 -0.24111,0.23317 -0.2411,0.23317 -0.63206,0.12348 c -0.53578,0.10467 -0.75691,0.12348 -1.45184,0.12344 l -0.8198,-3e-5 -0.18175,-0.50817 -0.18175,-0.50816 -0.94142,-0.0464 -0.94141,-0.0464 -1.10023,-0.41261 -1.10024,-0.41257 -0.7725,-0.57547 c -0.6873,-0.51202 -0.94324,-0.74742 -2.3207,-2.1346 -0.85153,-0.85752 -1.71055,-1.73698 -1.90898,-1.95437 l -0.36077,-0.39524 -0.45732,0.1578 -0.45732,0.15782 -0.58742,-0.33818 -0.58743,-0.3382 -0.3938,-0.6532 c -0.45246,-0.75052 -0.33947,-0.69318 -1.19644,-0.60723 -0.2538,0.0255 -1.18829,0.11047 -2.07667,0.18891 -0.88838,0.0785 -2.00501,0.18291 -2.48138,0.23214 -0.47637,0.0492 -1.08736,0.10374 -1.35773,0.12116 l -0.49159,0.0316 -1.24068,-0.54935 c -0.68238,-0.30215 -1.65503,-0.76479 -2.16146,-1.0281 -0.88826,-0.46184 -0.96346,-0.49132 -2.13025,-0.83493 l -1.20946,-0.35618 -1.05341,-0.0498 c -0.57938,-0.0274 -1.36944,-0.0906 -1.75569,-0.14034 l -0.70228,-0.0905 -1.12364,-0.52215 c -1.05837,-0.49183 -1.2028,-0.54493 -2.48657,-0.91417 -1.09961,-0.31629 -1.53915,-0.46844 -2.27495,-0.78753 -2.37696,-1.03082 -3.6712,-1.80517 -5.81689,-3.48022 l -1.26156,-0.98486 -0.93868,-0.20475 -0.93868,-0.20474 -0.53863,-0.34388 c -0.44167,-0.28197 -0.65067,-0.45897 -1.16095,-0.98318 l -0.6223,-0.63931 -0.59996,-1.19388 -0.59994,-1.19387 -0.2912,-1.21179 c -0.16017,-0.66648 -0.39365,-1.7366 -0.51886,-2.37805 l -0.22765,-1.16627 -0.23065,-0.26718 -0.23066,-0.26717 -0.0338,-0.78259 -0.0338,-0.7826 0.19294,-0.49946 c 0.1061,-0.27469 0.18695,-0.50536 0.17965,-0.51259 -0.007,-0.007 -0.25554,-0.13938 -0.55167,-0.29367 l -0.53841,-0.28055 -0.93636,-0.15462 c -0.51501,-0.085 -0.96215,-0.17339 -0.99363,-0.19635 -0.0315,-0.0229 -0.25157,-0.31877 -0.48906,-0.6574 -0.2375,-0.3386 -0.46961,-0.66832 -0.51584,-0.73269 -0.0795,-0.11075 -0.0804,-0.16122 -0.0162,-0.93637 0.0475,-0.5737 0.10863,-0.97583 0.20398,-1.34137 0.13003,-0.49845 0.15579,-0.55023 0.57058,-1.14704 0.47231,-0.67956 1.11396,-1.3725 1.58283,-1.70932 0.16601,-0.11927 0.28601,-0.2381 0.27345,-0.27081 -0.0123,-0.0321 -0.18956,-0.28806 -0.39391,-0.56887 -0.34947,-0.48024 -0.3803,-0.54254 -0.51924,-1.04898 -0.0812,-0.29612 -0.18179,-0.69641 -0.22347,-0.88954 -0.0417,-0.19312 -0.17961,-0.60066 -0.3065,-0.90563 l -0.23069,-0.55449 0.0179,-0.75644 c 0.094,-3.97195 0.13033,-4.78467 0.24966,-5.57871 0.19534,-1.29971 0.41314,-2.215 1.06954,-4.49455 0.16312,-0.56651 0.34166,-1.19856 0.39677,-1.40456 0.19446,-0.72699 0.71351,-2.15623 0.89266,-2.45797 0.0994,-0.16737 0.27,-0.52553 0.37919,-0.7959 0.1846,-0.45717 0.19768,-0.5186 0.18674,-0.87713 -0.0128,-0.42045 0.0376,-0.60322 0.35508,-1.28541 l 0.16754,-0.36002 -0.14361,-0.25443 c -0.12864,-0.22795 -0.28988,-0.84819 -0.28988,-1.11508 0,-0.0526 0.0856,-0.14975 0.20772,-0.23585 0.11424,-0.0805 0.27464,-0.2396 0.35645,-0.3535 0.0818,-0.11391 0.249,-0.3217 0.37156,-0.46177 0.12896,-0.14737 0.24645,-0.33901 0.27892,-0.45496 0.0537,-0.1917 0.0466,-0.2224 -0.16318,-0.71349 -0.21584,-0.50515 -0.35212,-0.86045 -0.64212,-1.6742 l -0.14681,-0.41194 0.0829,-0.31375 c 0.139,-0.52631 0.31303,-0.85229 0.67923,-1.27231 0.67628,-0.77568 0.68466,-0.79115 0.79863,-1.47599 0.0905,-0.54387 0.12095,-0.63887 0.28605,-0.8928 0.17818,-0.27401 0.18478,-0.29832 0.18478,-0.67994 0,-0.45073 0.0949,-1.67781 0.23858,-3.08448 0.0763,-0.74677 0.15904,-1.23231 0.37136,-2.17826 0.31475,-1.40245 1.34525,-4.97914 1.78732,-6.20342 l 0.29582,-0.81933 -0.0382,-0.37455 c -0.021,-0.206 -0.0258,-0.62403 -0.0106,-0.92898 0.0411,-0.82624 0.19007,-1.25041 0.69331,-1.97375 0.5278,-0.75868 0.41712,-0.52981 1.48294,-3.06661 0.20013,-0.47637 0.58966,-1.31711 0.86559,-1.86831 0.46528,-0.92942 0.55137,-1.06709 1.18566,-1.89615 1.55065,-2.02671 3.1115,-3.74429 4.17743,-4.59683 0.21888,-0.17507 0.60864,-0.48627 0.86615,-0.69156 0.25749,-0.20533 0.62619,-0.51344 0.81931,-0.68471 0.67892,-0.60216 0.94947,-0.77961 1.89615,-1.24379 0.56824,-0.27861 1.15931,-0.61078 1.50345,-0.84491 0.31189,-0.21218 0.74378,-0.45938 0.95977,-0.5493 0.21598,-0.0899 0.70274,-0.3114 1.08168,-0.49217 0.62481,-0.29806 0.77747,-0.34922 1.63865,-0.54929 0.77986,-0.18117 1.02918,-0.26017 1.39443,-0.44179 0.36285,-0.18043 0.69917,-0.28756 1.82591,-0.58152 1.28112,-0.33427 1.41008,-0.35932 1.78051,-0.34611 l 0.39936,0.0142 0.57665,-0.36982 0.57664,-0.36982 0.33656,0.0793 0.33655,0.0793 0.45081,-0.16318 0.45082,-0.16319 0.55738,0.0524 0.55735,0.0524 0.25427,-0.18804 c 0.17656,-0.13059 0.37438,-0.22143 0.6473,-0.29727 l 0.39302,-0.1092 0.39096,-0.49487 c 0.21505,-0.27217 0.39055,-0.50538 0.39003,-0.51826 -10e-4,-0.031 -1.19228,-0.8985 -1.40767,-1.02529 -0.14211,-0.0836 -0.22441,-0.21187 -0.5279,-0.82242 l -0.35953,-0.72333 0.005,-1.23097 c 0.007,-1.74363 -0.1072,-3.41528 -0.288,-4.21605 -0.11956,-0.5295 -0.14995,-0.80774 -0.20836,-1.90744 -0.0644,-1.21178 -0.0627,-1.38662 0.0276,-2.97296 l 0.096,-1.68547 0.42054,-2.13023 c 0.23128,-1.17163 0.53408,-2.6148 0.67288,-3.20706 0.20235,-0.86344 0.28762,-1.36358 0.43037,-2.52395 l 0.17802,-1.44714 0.84959,-1.54001 0.84961,-1.54003 1.13797,-1.39037 c 1.00674,-1.23002 1.20762,-1.44974 1.74198,-1.90536 0.63712,-0.54321 1.1447,-1.05442 1.57204,-1.58326 0.16119,-0.19948 0.45538,-0.46749 0.78439,-0.7146 l 0.52645,-0.39542 0.97199,0.18927 c 0.53461,0.10411 0.98416,0.17138 0.99903,0.14949 0.0149,-0.0219 0.39503,-0.53867 0.8448,-1.14843 0.56859,-0.77083 0.84489,-1.10865 0.90671,-1.10865 0.0489,0 0.63475,0.0737 1.30185,0.16386 0.66712,0.0901 1.28654,0.16387 1.37651,0.16387 0.13343,0 0.33806,-0.11953 1.11083,-0.64879 1.51474,-1.03744 1.77032,-1.1998 1.80495,-1.14652 0.0175,0.0269 0.23889,0.37769 0.49192,0.77945 l 0.46007,0.73046 0.42948,-0.29979 c 0.23622,-0.16488 0.69812,-0.48375 1.02644,-0.70859 l 0.59693,-0.40881 1.04171,0.21832 c 0.57293,0.12007 1.69482,0.32646 2.49307,0.45863 l 1.45136,0.24031 1.54513,0.81254 1.5451,0.81253 0.7724,0.70908 c 0.85596,0.78581 3.0342,2.61976 4.45868,3.75396 0.50819,0.40463 1.42467,1.15277 2.03659,1.66254 0.61193,0.50976 1.33853,1.11166 1.61464,1.33756 0.27614,0.22591 0.84961,0.77355 1.27437,1.217 0.8172,0.85311 0.99197,1.08584 3.02924,4.03404 0.71253,1.03115 0.84281,1.25379 1.58268,2.70503 l 0.80621,1.58137 0.3024,1.17698 c 0.16632,0.64732 0.31113,1.19108 0.32179,1.20831 0.0107,0.0173 0.13635,0.83791 0.27931,1.82366 l 0.25995,1.7923 -0.049,2.01939 c -0.0651,2.68168 -0.0677,2.69464 -0.95488,4.73483 -0.49098,1.1291 -0.6868,1.51786 -1.16295,2.30863 -0.51782,0.86001 -0.62552,1.00655 -1.12681,1.5333 -0.49014,0.51505 -0.57207,0.5824 -0.7083,0.5824 -0.32633,0 -0.42388,-0.0467 -0.55663,-0.26648 l -0.12776,-0.21152 -0.43396,0.57844 c -0.23867,0.31813 -0.56574,0.81019 -0.72682,1.09343 -0.69452,1.22119 -1.86798,2.71363 -2.63959,3.35708 -0.27681,0.23084 -0.5033,0.42657 -0.5033,0.43495 0,0.008 0.042,0.29629 0.0933,0.6398 0.0513,0.34351 0.0935,0.72826 0.0936,0.855 0,0.12675 0.0336,0.40809 0.0743,0.62522 0.0612,0.32668 0.0649,0.46461 0.0215,0.79957 -0.0887,0.68399 -0.32452,1.04839 -0.89032,1.37571 -0.23962,0.13862 -0.29218,0.14963 -0.80064,0.16776 -0.48212,0.0172 -0.5917,0.006 -0.96083,-0.10201 -0.44554,-0.12982 -0.68286,-0.1596 -0.84624,-0.10612 -0.13574,0.0444 -0.71522,1.04354 -0.7888,1.36004 -0.1319,0.56742 -0.33547,0.81499 -0.84586,1.02863 -0.35644,0.1492 -0.42627,0.16411 -0.57526,0.12272 -0.25692,-0.0713 -0.26131,-0.0681 -0.31918,0.23633 -0.0448,0.23581 -0.0903,0.32279 -0.26838,0.51318 -0.11794,0.12608 -0.23864,0.28237 -0.26823,0.34733 -0.0364,0.0799 -0.10506,0.1277 -0.21236,0.14783 -0.1816,0.0341 -0.4133,0.29675 -0.37769,0.42818 0.0122,0.0451 0.72863,2.00978 1.592,4.36591 0.86338,2.35614 1.7128,4.69471 1.88761,5.19684 l 0.31784,0.91296 -0.0912,0.94875 -0.0912,0.94874 0.37071,1.62627 0.37071,1.62626 0.42802,0.63205 0.42804,0.63204 0.12866,0.98319 c 0.12844,0.98146 0.12917,0.98439 0.4161,1.66962 l 0.28742,0.68643 0.74282,0.69076 0.74283,0.69074 0.89684,1.4144 0.89685,1.4144 0.77498,0.31496 c 0.59415,0.24145 1.00059,0.45035 1.74193,0.89535 l 0.96699,0.58042 h 0.42284 0.42284 l 0.60707,0.42137 0.60708,0.42136 h 0.75362 0.75361 l 0.73747,0.41663 0.73744,0.41663 0.70229,0.034 c 0.53629,0.026 0.83506,0.0669 1.26409,0.17332 0.36329,0.0901 1.02104,0.1918 1.86136,0.28777 l 1.29955,0.14843 0.44627,-0.2702 c 0.24546,-0.14861 0.47192,-0.27021 0.50326,-0.27021 0.0313,0 0.6973,0.22121 1.47991,0.4916 0.7826,0.27037 1.44614,0.49046 1.47449,0.48909 0.0283,-10e-4 5.16033,-7.11192 11.40439,-15.8012 6.24406,-8.68928 11.37418,-15.79868 11.40028,-15.79868 0.0261,0 0.21597,0.0524 0.42198,0.11633 0.206,0.064 0.40615,0.11601 0.44477,0.11561 0.0386,-0.001 0.14117,-0.0949 0.22785,-0.20998 0.0867,-0.11508 0.17502,-0.20924 0.1963,-0.20924 0.0212,0 2.76021,1.67492 6.08654,3.72206 3.32635,2.04713 6.06117,3.72111 6.07738,3.71997 0.0162,-10e-4 0.71773,-0.94403 1.55894,-2.0953 l 1.52947,-2.09319 0.51349,-0.13352 c 0.5025,-0.13067 0.51933,-0.13943 0.78657,-0.40951 0.15021,-0.15176 0.28589,-0.27596 0.30154,-0.27596 0.0377,0 13.65865,13.77619 18.40938,18.6191 0.58573,0.59709 1.06496,1.10655 1.06496,1.13212 0,0.0702 -1.48983,1.76107 -13.57759,15.40937 -17.81416,20.11401 -25.25502,28.50073 -25.42134,28.65283 -0.0985,0.0901 -0.29713,0.22638 -0.4413,0.30278 l -0.26213,0.13893 -0.29242,-0.28417 c -0.28462,-0.27659 -0.31178,-0.29074 -1.0181,-0.53029 -0.81384,-0.27601 -4.92078,-1.73773 -8.28313,-2.94808 -1.22109,-0.43954 -2.23671,-0.79918 -2.25693,-0.79918 -0.0202,0 -0.11935,0.14221 -0.22029,0.31603 -0.16354,0.28162 -0.19219,0.37972 -0.26328,0.90125 -0.0439,0.32187 -0.0886,0.61762 -0.0995,0.6572 -0.0126,0.0459 -0.27378,0.15541 -0.72198,0.30258 l -0.70227,0.2306 v 0.37746 0.37747 l -0.33945,0.33175 -0.33942,0.33177 -0.7782,0.22497 -0.77821,0.22495 -0.22652,0.46041 -0.22653,0.4604 h -3.12133 -3.12131 l -2.40798,0.97148 c -1.32437,0.53431 -2.40994,0.99254 -2.41232,1.0183 -0.002,0.0258 0.57315,0.64764 1.27899,1.38196 1.03506,1.07683 1.35315,1.43918 1.64405,1.87275 l 0.36068,0.53757 0.0441,1.08922 c 0.0242,0.59907 0.0355,1.09779 0.025,1.10829 -0.0105,0.0105 -2.347,1.40329 -5.19225,3.09512 l -5.1732,3.07606 -4.61159,2.2561 -4.61162,2.25609 -3.07024,0.69589 -3.07022,0.69588 -0.0934,1.40802 -0.0933,1.40802 -0.4709,0.79592 c -0.45394,0.76725 -0.47208,0.80856 -0.50341,1.14705 -0.0179,0.19312 -0.0985,0.6319 -0.17913,0.97507 l -0.14663,0.62394 -0.32717,0.2305 -0.32718,0.2305 h -0.51765 -0.51762 l -0.24253,0.43502 -0.24251,0.43501 -0.41698,0.0799 c -0.25443,0.0488 -0.64434,0.0799 -1.00023,0.0799 h -0.58325 l -0.13137,-0.40344 z m 24.50579,-34.3133 c 0.50138,-0.1679 1.33297,-0.4235 1.84798,-0.56801 0.78013,-0.21891 1.0965,-0.33662 1.89615,-0.70544 1.00244,-0.46237 2.79303,-1.45504 2.72906,-1.51293 -0.0718,-0.065 -3.20113,-1.08371 -3.25733,-1.06038 -0.0313,0.013 -0.52628,0.43292 -1.09992,0.93311 -0.89376,0.77935 -1.17838,1.06327 -1.98977,1.98478 -1.0231,1.16194 -1.08488,1.23412 -1.05657,1.23412 0.0104,0 0.42902,-0.13737 0.9304,-0.30525 z m -24.33683,-21.51189 c 0.84601,-0.10737 2.40867,-0.39222 2.68199,-0.48888 0.10299,-0.0364 0.49534,-0.17893 0.87187,-0.31668 0.37654,-0.13778 1.3394,-0.46062 2.13968,-0.71746 l 1.4551,-0.46698 -0.9496,-0.95978 c -0.63459,-0.6414 -1.26471,-1.34414 -1.89956,-2.11852 -0.52249,-0.63732 -0.9548,-1.15877 -0.9607,-1.15877 -0.006,0 -0.29005,0.42008 -0.63146,0.9335 l -0.62076,0.93349 -0.73229,0.5093 c -0.40275,0.28011 -0.79986,0.54876 -0.88247,0.59703 -0.16856,0.0985 -0.18431,0.13157 -0.38954,0.81898 l -0.14677,0.49159 -0.74528,0.74961 c -0.80408,0.80876 -0.81748,0.83183 -0.69172,1.19254 l 0.0535,0.1536 0.35859,-0.0299 c 0.19723,-0.0165 0.68745,-0.0716 1.08939,-0.12267 z"
       id="path5841"
       inkscape:connector-curvature="0" />
  </g>
</svg>
