<?xml version="1.0" encoding="UTF-8" standalone="no"?>
<!-- Created with Inkscape (http://www.inkscape.org/) -->

<svg
   xmlns:dc="http://purl.org/dc/elements/1.1/"
   xmlns:cc="http://creativecommons.org/ns#"
   xmlns:rdf="http://www.w3.org/1999/02/22-rdf-syntax-ns#"
   xmlns:svg="http://www.w3.org/2000/svg"
   xmlns="http://www.w3.org/2000/svg"
   xmlns:sodipodi="http://sodipodi.sourceforge.net/DTD/sodipodi-0.dtd"
   xmlns:inkscape="http://www.inkscape.org/namespaces/inkscape"
   width="214.80493mm"
   height="58.928558mm"
   viewBox="0 0 214.80493 58.928558"
   version="1.1"
   id="svg907"
   inkscape:version="0.92.3 (2405546, 2018-03-11)"
   sodipodi:docname="silhouette_mael.svg">
  <defs
     id="defs901" />
  <sodipodi:namedview
     id="base"
     pagecolor="#ffffff"
     bordercolor="#666666"
     borderopacity="1.0"
     inkscape:pageopacity="0.0"
     inkscape:pageshadow="2"
     inkscape:zoom="0.35"
     inkscape:cx="11.644863"
     inkscape:cy="-91.495651"
     inkscape:document-units="mm"
     inkscape:current-layer="layer1"
     showgrid="false"
     fit-margin-top="0"
     fit-margin-left="0"
     fit-margin-right="0"
     fit-margin-bottom="0"
     inkscape:window-width="1613"
     inkscape:window-height="995"
     inkscape:window-x="131"
     inkscape:window-y="27"
     inkscape:window-maximized="1" />
  <metadata
     id="metadata904">
    <rdf:RDF>
      <cc:Work
         rdf:about="">
        <dc:format>image/svg+xml</dc:format>
        <dc:type
           rdf:resource="http://purl.org/dc/dcmitype/StillImage" />
        <dc:title></dc:title>
      </cc:Work>
    </rdf:RDF>
  </metadata>
  <g
     inkscape:label="Calque 1"
     inkscape:groupmode="layer"
     id="layer1"
     transform="translate(77.16437,-65.696552)">
    <path
       id="path5908"
       style="fill:#00004d;fill-opacity:1;stroke-width:0.04318304"
       d="m 137.63956,65.696552 c 0,0.0026 0,0.0026 -10e-4,0.0042 10e-4,0 10e-4,-0.0026 0.002,-0.0037 z m -0.755,1.14154 v 0.0026 c -0.0766,-0.0069 -0.16215,0.04321 -0.3483,0.14213 l -0.33744,0.17931 -0.19586,-0.06667 c -0.1078,-0.03683 -0.28517,-0.09777 -0.39377,-0.13486 l -0.19741,-0.06718 -0.5302,0.56481 c -0.49971,0.5321 -0.604,0.61661 -1.79162,1.4583 -2.28023,1.61602 -5.44881,3.52034 -6.83111,4.1052 l -0.7369,0.3116 -0.6165,0.52194 c -0.56698,0.47972 -0.66402,0.54367 -1.20561,0.79581 l -0.5886,0.2744 -0.48575,0.62167 c -0.26718,0.342049 -0.60142,0.80846 -0.74259,1.036639 -0.25267,0.40835 -0.5284,1.00242 -0.524,1.12963 0.002,0.05369 -0.0478,0.06303 -0.28939,0.05221 -0.16071,-0.0071 -0.61301,-0.01297 -1.00511,-0.01191 -0.97784,0.0026 -8.17168,-0.04667 -12.94443,-0.08681 -6.57594,-0.05527 -6.46521,-0.05236 -6.49521,-0.0048 -0.0153,0.02514 -3.68661,6.35027 -8.15867,14.055489 l -8.13129,14.00895 -0.5302,0.018 -0.53072,0.0156 -0.3793,0.2744 c -0.45597,0.33028 -1.52228,0.88019 -2.24999,1.15962 -0.4695,0.18026 -0.59554,0.25207 -1.1188,0.64182 l -0.58963,0.43977 -1.67431,0.11885 c -1.59155,0.11359 -1.76755,0.11845 -3.56154,0.093 l -1.88723,-0.0269 -1.43402,-0.23358 c -0.78868,-0.12869 -2.14714,-0.33605 -3.01892,-0.46043 -0.87174,-0.1244 -1.87216,-0.27072 -2.22313,-0.32453 l -0.63821,-0.0982 -1.94458,-2.00091 -1.94458,-2.00091 -0.13747,-0.48835 c -0.0756,-0.26877 -0.12814,-0.49894 -0.11678,-0.51107 0.0356,-0.0382 2.08518,-0.82479 2.158,-0.82838 0.0382,-0.003 0.28514,0.0387 0.5483,0.0894 0.26321,0.0507 0.73824,0.13081 1.05574,0.17777 l 0.57723,0.0858 0.40255,0.35295 c 0.44943,0.39442 0.44345,0.39106 1.9203,1.09864 l 1.06195,0.5085 0.54415,-0.0164 c 0.48757,-0.0169 0.57238,-0.0307 0.80926,-0.13901 0.50184,-0.22948 0.91943,-0.82079 1.28622,-1.81902 0.14545,-0.39582 0.15043,-0.40267 0.52142,-0.71005 l 0.37414,-0.30952 0.48317,-0.0388 0.48318,-0.0382 -0.0181,-0.51728 c -0.01,-0.284833 -0.0347,-0.583204 -0.0553,-0.662494 -0.0349,-0.13452 -0.0309,-0.14309 0.0605,-0.122481 0.0538,0.01217 0.23492,0.04104 0.40204,0.06305 l 0.30385,0.03926 0.31265,-0.20566 0.31264,-0.207219 0.10024,-0.473361 c 0.0549,-0.260249 0.13841,-0.62312 0.18605,-0.80667 l 0.0868,-0.334351 0.62218,-0.05167 c 0.60118,-0.05115 0.6327,-0.05938 0.95033,-0.226859 l 0.32813,-0.173109 0.0791,-0.40826 c 0.16989,-0.880692 0.1005,-1.884442 -0.23099,-3.353271 -0.13329,-0.590709 -0.13776,-0.63963 -0.10387,-1.09813 0.0195,-0.26397 0.0634,-0.65849 0.0977,-0.87643 l 0.0625,-0.39584 0.53382,-0.66146 0.5333,-0.66249 0.64337,-0.37724 c 0.35382,-0.20717 0.78449,-0.4354 0.95653,-0.50798 l 0.31265,-0.13229 0.59479,-0.87334 0.59428,-0.8728 0.27337,-0.92864 0.27337,-0.9281 0.0419,-1.31983 0.0413,-1.31929 -0.43924,-0.76274 c -0.41475,-0.7194 -0.45284,-0.80547 -0.67283,-1.5317 l -0.23306,-0.77049 -0.97153,-1.21801 c -0.53439,-0.67053 -1.02049,-1.28077 -1.08004,-1.35599 -0.12021,-0.15192 -1.41269,-1.279969 -2.44171,-2.13011 -0.7715,-0.637379 -1.26882,-1.08145 -1.27072,-1.135319 -10e-4,-0.02064 -0.11027,-0.266021 -0.24339,-0.54571 l -0.24236,-0.50953 -1.2268,-0.82682 -1.2268,-0.82786 -0.88263,-0.21807 c -0.86655,-0.21484 -0.89985,-0.22691 -1.87482,-0.70797 l -0.9927,-0.49041 -1.79886,0.09457 -1.79834,0.09509 -0.30076,-0.23255 c -0.16559,-0.12789 -0.31253,-0.23151 -0.32608,-0.23151 -0.0136,0 -0.22785,0.27914 -0.47645,0.61961 -0.2486,0.34044 -0.46356,0.61478 -0.47801,0.61028 -0.0145,-0.0045 -0.26349,-0.26233 -0.55294,-0.57308 -0.75016,-0.8051 -0.63228,-0.73819 -1.30999,-0.75086 -0.31786,-0.0061 -1.09468,-0.05842 -1.72651,-0.11782 -0.63182,-0.05943 -1.20965,-0.10597 -1.28416,-0.10335 -0.0745,0.0026 -0.30469,0.05977 -0.5116,0.12763 -0.84154,0.27604 -1.28266,0.56357 -1.46141,0.95137 -0.12195,0.26458 -0.47801,0.80605 -0.97875,1.48725 l -0.44028,0.59737 -0.0801,0.64752 -0.0796,0.64595 -0.4439,0.8201 c -0.36717,0.6784 -0.49042,0.95761 -0.71623,1.6273 -0.22805,0.676459 -0.36405,0.985519 -0.83303,1.887219 l -0.5612,1.07796 -0.28267,1.04749 c -0.1557,0.57581 -0.35551,1.38464 -0.4439,1.79782 l -0.16072,0.75086 0.17932,0.96686 c 0.16593,0.89355 0.17654,0.99163 0.13798,1.28313 -0.023,0.17343 -0.0488,0.39875 -0.0574,0.49971 -0.0359,0.42085 -0.47984,1.62693 -0.95395,2.59157 l -0.46612,0.94827 -1.18081,0.33642 c -0.64948,0.18499 -1.41143,0.41026 -1.69343,0.50125 -0.28201,0.09104 -1.09187,0.29334 -1.79938,0.44908 -1.20687,0.26556 -2.17714,0.53676 -3.08663,0.86299 -0.3543,0.12708 -0.41422,0.16502 -0.65526,0.42013 -0.14588,0.15438 -0.445,0.41492 -0.66507,0.57878 l -0.39998,0.29868 -1.24644,0.19379 -1.24643,0.195341 -0.7705,0.506939 c -0.42377,0.2794 -1.24265,0.765389 -1.82004,1.079529 l -1.05007,0.571021 -1.69137,0.433041 c -0.93041,0.238149 -1.72379,0.433599 -1.76268,0.43461 -0.0587,0.0026 -1.16221,-0.74758 -1.77353,-1.204071 -0.20272,-0.15131 -0.15601,-0.15766 -1.75493,0.23926 l -1.17926,0.29197 -1.1219,0.627359 c -0.61716,0.34512 -1.335232,0.722842 -1.595762,0.8382 -0.660699,0.292682 -0.848259,0.431271 -1.041799,0.768421 -0.110252,0.192009 -0.535721,0.502471 -1.13275,0.827861 l -0.547251,0.298688 -0.428919,-0.310068 c -0.235892,-0.170281 -0.648221,-0.464183 -0.91622,-0.652672 l -0.48731,-0.341579 -1.34979,-0.306441 c -0.742601,-0.16846 -1.378641,-0.30657 -1.413352,-0.304379 -0.03473,0.0026 -0.338169,0.105309 -0.673859,0.229449 l -0.61029,0.22479 -1.10847,-1.061429 c -0.60978,-0.584279 -1.40403,-1.37332 -1.764749,-1.752859 l -0.65577,-0.690412 -1.3022498,-0.40359 -1.301721,-0.404098 -1.397339,0.209288 c -1.13189,0.16904 -1.681771,0.27495 -2.896981,0.564301 -1.44182,0.34327 -1.533599,0.360521 -2.38279996,0.426849 -2.39934804,0.18741 -2.98663004,0.24479 -5.10304004,0.497131 -1.547998,0.1846 -2.65983,0.34144 -3.46129,0.48731 -1.15483,0.21015 -1.211718,0.22439 -2.5900202,0.690901 -1.381659,0.467648 -1.433869,0.490199 -2.672188,1.121389 l -1.263491,0.64389 -1.10226,1.091401 -1.10277,1.090379 -1.163759,0.514689 -1.163751,0.513656 -1.2299,0.0398 c -1.153808,0.0369 -1.274699,0.0488 -1.945619,0.18499 l -0.7152,0.14574 -1.441771,-0.0439 c -0.792929,-0.0241 -1.98651,-0.0589 -2.652548,-0.0765 l -1.210781,-0.0315 -0.499711,-0.346228 c -0.274589,-0.190259 -0.549208,-0.363138 -0.610298,-0.383969 -0.06104,-0.0209 -0.36708,-0.02852 -0.680061,-0.0164 l -0.56896,0.0164 -1.144119,-1.214911 -1.14463,-1.21698 -2.567281,-1.75183 c -1.412021,-0.963528 -2.78846,-1.9177 -3.058729,-2.121318 l -0.49144,-0.370501 -1.036122,-2.79778 c -0.569978,-1.53882 -1.305869,-3.44829 -1.635559,-4.24315 -0.577,-1.39121 -0.624429,-1.48664 -1.265039,-2.56006 -0.58203,-0.97522 -0.764622,-1.23872 -1.45624,-2.10579 l -0.790652,-0.99219 -0.878498,-0.40309 -0.87798,-0.40256 -1.04335,-0.17622 c -0.929741,-0.15525 -1.096711,-0.19507 -1.53634,-0.37724 l -0.492991,-0.2041 -0.01241,-0.34573 c -0.01177,-0.33705 -0.0069,-0.35507 0.217559,-0.81079 0.19852,-0.40309 0.237972,-0.52731 0.291452,-0.92141 0.167719,-1.236049 -0.07459,-2.118169 -0.825272,-3.001879 l -0.36018,-0.42426 -0.593249,-0.26924 c -0.56964,-0.25924 -0.62535,-0.27501 -1.41852,-0.40357 -0.97277,-0.15769 -0.85008,-0.16881 -2.47685,0.216 -0.97647,0.23101 -1.29553,0.32594 -1.86035,0.55449 -0.64834,0.26234 -0.71193,0.27898 -1.30535,0.3488 -0.98063,0.11547 -4.47738,0.75152 -5.517489,1.003039 -0.51845,0.125361 -1.07719,0.280911 -1.24127,0.346231 -0.16407,0.0653 -0.56672,0.222089 -0.895031,0.3483 -0.408619,0.15708 -0.858449,0.379989 -1.426269,0.705399 -0.81338,0.46609 -0.84101,0.48586 -1.41594,1.05212 l -0.58652,0.57827 -0.01292,0.43667 c -0.0071,0.24048 -0.02672,0.67863 -0.04392,0.97356 -0.03042,0.52184 -0.03546,0.54179 -0.185,0.74517 l -0.154,0.20932 -0.35915,0.04132 c -0.19757,0.02302 -0.52337,0.07493 -0.72399,0.11526 -0.20054,0.04032 -0.69905,0.09863 -1.10794,0.12917 l -0.743612,0.05529 -1.54875,0.26977 -1.54926,0.26922 -0.84025,1.21388 -0.840249,1.213878 0.85266,1.05783 1.64021,0.81958 1.24643,0.34829 1.24644,0.74158 0.58033,0.22063 c 0.31911,0.12131 0.78673,0.28996 1.03921,0.37468 0.48351,0.16229 1.92101,0.48054 2.38952,0.52917 0.35344,0.03669 0.55983,0.13208 1.47639,0.68262 0.412319,0.24768 0.82856,0.4758 0.925009,0.50591 0.09644,0.03011 0.582611,0.12769 1.08056,0.21757 l 0.90537,0.16383 0.218071,0.18965 c 0.11982,0.10448 0.26582,0.2095 0.324009,0.23358 0.110281,0.04569 1.70467,1.60387 1.70688,1.66809 0.001,0.02011 -0.25534,0.37092 -0.56948,0.78084 -0.861489,1.124211 -1.614009,2.182251 -1.728059,2.429319 -0.05601,0.121391 -0.258831,0.514591 -0.450621,0.87331 -0.191799,0.358701 -0.347779,0.664101 -0.347779,0.679032 0.001,0.01508 0.03623,0.109479 0.07906,0.210838 0.0718,0.169921 0.15295,0.233871 1.0325,0.79791 0.92025,0.5901 0.96764,0.626451 1.31517,1.035071 l 0.36018,0.42373 1.01338,0.56071 c 0.55735,0.307999 1.30045,0.70117 1.65106,0.873311 0.3506,0.172108 1.20276,0.637798 1.89394,1.035098 0.69118,0.3973 1.33583,0.75893 1.43247,0.80407 0.09663,0.0451 0.63818,0.38738 1.20354,0.76018 0.56535,0.37277 1.04713,0.68318 1.07074,0.69037 0.05157,0.0156 0.17679,0.4452 0.46509,1.59526 l 0.21549,0.85783 0.86454,1.36478 0.86507,1.36374 -0.0677,1.09347 -0.0677,1.09244 0.38603,0.73226 c 0.38025,0.72173 0.3909,0.73744 0.65525,0.9126 0.766551,0.50781 0.91354,0.65442 1.669159,1.67381 0.39456,0.53228 0.93691,1.22383 1.205089,1.53529 0.629952,0.73163 2.262572,2.38012 2.378152,2.40141 0.09816,0.0183 1.561129,0.16812 3.792019,0.38759 l 1.447451,0.14158 2.572448,-0.0884 c 1.852822,-0.0644 2.809201,-0.0799 3.416851,-0.0553 2.697411,0.1092 5.815269,0.2141 6.64042,0.22376 0.523049,0.006 1.895149,0.0504 3.049431,0.0982 l 2.09858,0.0863 3.021518,-0.0982 c 2.744239,-0.0898 3.187879,-0.0945 4.83794,-0.0476 1.685359,0.048 1.955641,0.0679 3.74654,0.26874 l 1.9306302,0.21548 0.79066,0.3633 0.79013,0.36277 1.117759,-0.15867 c 0.674272,-0.0958 1.202661,-0.19252 1.331182,-0.2434 0.1172,-0.0465 0.682498,-0.28373 1.256258,-0.5271 l 1.04335,-0.44233 1.53323104,-0.0161 c 1.232419,-0.0111 1.66376096,-0.0301 2.19625096,-0.0982 l 0.662498,-0.0847 0.12764,0.25683 0.12764,0.25683 0.92346,0.16021 0.922941,0.15967 1.043339,-0.16536 1.04335,-0.16537 0.562761,0.23823 0.56275,0.23874 1.145148,-0.005 c 1.8121318,-0.006 2.7017828,-0.0654 4.0090618,-0.26665 2.041769,-0.31438 1.69495,-0.31009 2.860289,-0.0377 l 1.013891,0.2372 2.79105,0.11835 c 5.652942,0.2404 7.555472,0.27575 9.317762,0.17621 1.11309,-0.0629 5.26666,-0.32382 8.42896,-0.5297 l 1.14256,-0.0744 2.70732,0.18759 2.70682,0.18706 3.55327,-0.3297 c 1.95432,-0.18137 3.59251,-0.33898 3.64009,-0.35036 0.0511,-0.0122 0.29403,-0.31665 0.59375,-0.74363 l 0.50748,-0.72295 1.15393,0.0651 c 1.27845,0.0719 1.16479,0.0788 3.61579,-0.22219 l 1.08417,-0.13335 0.45787,0.36949 c 0.83698,0.67572 1.47701,1.16892 1.72289,1.32707 0.13368,0.086 0.64262,0.46656 1.13118,0.84592 0.57797,0.44876 1.25101,0.91697 1.9265,1.33998 0.83814,0.52491 1.18367,0.77272 1.79472,1.28726 0.41623,0.35054 0.84233,0.68672 0.94672,0.74673 0.50661,0.29128 0.7584,0.45871 1.57923,1.05161 0.95787,0.69199 1.08312,0.7642 1.31568,0.75602 0.0841,-0.003 1.09384,0.0404 2.2438,0.0961 5.06658,0.24553 6.60876,0.28511 9.61439,0.24854 2.13346,-0.0259 3.39117,-0.018 5.23896,0.0336 2.40445,0.0672 2.46365,0.0671 5.31337,-0.0388 2.21109,-0.0825 3.20896,-0.10155 4.28708,-0.0827 0.77282,0.0135 2.31866,0.008 3.43493,-0.0124 3.02961,-0.0555 6.98841,-0.22977 8.585,-0.37722 1.22277,-0.11295 1.4481,-0.12195 2.67529,-0.108 l 1.33997,0.0161 0.61754,-0.25943 c 0.60163,-0.25296 0.65002,-0.26558 1.88412,-0.4904 l 1.26659,-0.23151 0.81132,-0.52245 0.8108,-0.52244 0.0568,-0.29766 c 0.0329,-0.17275 0.0499,-0.49789 0.0403,-0.77515 -0.0143,-0.41008 -0.0333,-0.51485 -0.13384,-0.73948 -0.0645,-0.14396 -0.11777,-0.28933 -0.11937,-0.32298 -0.001,-0.0337 0.068,-0.24191 0.15348,-0.46252 0.11711,-0.30199 0.1692,-0.52483 0.2098,-0.90175 l 0.0537,-0.50126 -0.36484,-0.4563 c -0.20073,-0.25119 -0.36614,-0.49294 -0.36793,-0.53744 -0.002,-0.0445 0.0359,-0.36471 0.0832,-0.71157 0.0558,-0.40929 0.0804,-0.79526 0.0698,-1.09969 l -0.0165,-0.46921 -0.3576,-0.39688 c -0.19659,-0.21791 -0.47473,-0.49054 -0.61805,-0.60669 l -0.26045,-0.21135 -0.19999,-0.63098 c -0.17366,-0.54837 -0.21013,-0.7313 -0.2806,-1.39525 -0.0446,-0.4201 -0.0929,-0.78002 -0.10697,-0.80047 -0.0471,-0.0683 -0.72414,-0.35568 -1.08831,-0.46199 -0.19809,-0.0577 -0.3607,-0.11144 -0.3607,-0.11885 -0.001,-0.018 18.36385,-32.644666 22.48287,-39.943295 0.81673,-1.44722 1.4375,-2.56882 1.53065,-2.7621 -0.0245,-0.06485 -0.0301,-0.14578 -0.008,-0.23772 -0.0207,-0.02329 -0.0402,-0.04609 -0.0677,-0.06977 -0.1502,-0.12915 -0.21796,-0.1931 -0.29455,-0.19998 z"
       inkscape:connector-curvature="0" />
  </g>
</svg>
