<?xml version='1.0' encoding='UTF-8' standalone='no'?>
<svg xmlns:cc="http://creativecommons.org/ns#" xmlns:rdf="http://www.w3.org/1999/02/22-rdf-syntax-ns#" width="420mm" height="297mm" version="1.2" baseProfile="tiny" xmlns:freecad="http://www.freecadweb.org/wiki/index.php?title=Svg_Namespace" xmlns="http://www.w3.org/2000/svg" xmlns:xlink="http://www.w3.org/1999/xlink" xmlns:svg="http://www.w3.org/2000/svg" viewBox="0 0 4200 2970" xmlns:dc="http://purl.org/dc/elements/1.1/">
 <title>FreeCAD SVG Export</title>
 <desc>Drawing page: Page002 exported from FreeCAD document: CrocSaintGerard_V5</desc>
 <defs/>
 <g id="Page002">
  <g fill-rule="evenodd" stroke-linejoin="bevel" stroke="black" stroke-linecap="square" stroke-width="1" fill="none" id="DrawingContent">
   <g font-weight="400" stroke="none" font-style="normal" fill-opacity="1" fill="#ffffff" font-family="Ubuntu" transform="matrix(1,0,0,1,2100,1485)" font-size="38.8056">
    <path fill-rule="evenodd" vector-effect="non-scaling-stroke" d="M1000,-1500 L-1000,-1500 C-1165.69,-1500 -1300,-1365.69 -1300,-1200 L-1300,1200 C-1300,1365.69 -1165.69,1500 -1000,1500 L1000,1500 C1165.69,1500 1300,1365.69 1300,1200 L1300,-1200 C1300,-1365.69 1165.69,-1500 1000,-1500 "/>
   </g>
   <g font-weight="400" stroke-opacity="1" stroke-linejoin="bevel" stroke="#000000" stroke-linecap="square" font-style="normal" stroke-width="1" fill="none" font-family="Ubuntu" transform="matrix(1,0,0,1,2100,1485)" font-size="38.8056">
    <rect width="0" y="0" height="0" x="0"/>
   </g>
   <g font-weight="400" stroke="none" font-style="normal" fill-opacity="1" fill="#ffffff" font-family="Ubuntu" transform="matrix(1,0,0,1,2100,1485)" font-size="38.8056">
    <path fill-rule="evenodd" vector-effect="non-scaling-stroke" d="M1105,1280 L1105,-1280 L-1105,-1280 L-1105,1280 L1105,1280"/>
   </g>
   <g font-weight="400" stroke-opacity="1" stroke-linejoin="bevel" stroke="#000000" stroke-linecap="square" font-style="normal" stroke-width="1" fill="none" font-family="Ubuntu" transform="matrix(1,0,0,1,2100,1485)" font-size="38.8056">
    <rect width="0" y="0" height="0" x="0"/>
   </g>
   <g font-weight="400" stroke="none" font-style="normal" fill-opacity="1" fill="#ffffff" font-family="Ubuntu" transform="matrix(1,0,0,1,2100,1485)" font-size="38.8056">
    <path fill-rule="evenodd" vector-effect="non-scaling-stroke" d="M1005,-1180 L1005,1180 L-1005,1180 L-1005,-1180 L1005,-1180"/>
   </g>
   <g font-weight="400" stroke-opacity="1" stroke-linejoin="bevel" stroke="#000000" stroke-linecap="square" font-style="normal" stroke-width="1" fill="none" font-family="Ubuntu" transform="matrix(1,0,0,1,2100,1485)" font-size="38.8056">
    <rect width="0" y="0" height="0" x="0"/>
   </g>
   <g font-weight="400" stroke-opacity="1" stroke-linejoin="bevel" stroke="#000000" stroke-linecap="round" font-style="normal" stroke-width="7" fill="none" font-family="Ubuntu" transform="matrix(1,0,0,1,2100,1485)" font-size="38.8056">
    <path fill-rule="evenodd" vector-effect="none" d="M1000,-1500 L-1000,-1500"/>
   </g>
   <g font-weight="400" stroke-opacity="1" stroke-linejoin="bevel" stroke="#000000" stroke-linecap="round" font-style="normal" stroke-width="7" fill="none" font-family="Ubuntu" transform="matrix(1,0,0,1,2100,1485)" font-size="38.8056">
    <path fill-rule="evenodd" vector-effect="none" d="M1000,-1500 C1165.69,-1500 1300,-1365.69 1300,-1200 "/>
   </g>
   <g font-weight="400" stroke-opacity="1" stroke-linejoin="bevel" stroke="#000000" stroke-linecap="round" font-style="normal" stroke-width="7" fill="none" font-family="Ubuntu" transform="matrix(1,0,0,1,2100,1485)" font-size="38.8056">
    <path fill-rule="evenodd" vector-effect="none" d="M-1000,-1500 C-1165.69,-1500 -1300,-1365.69 -1300,-1200 "/>
   </g>
   <g font-weight="400" stroke-opacity="1" stroke-linejoin="bevel" stroke="#000000" stroke-linecap="round" font-style="normal" stroke-width="7" fill="none" font-family="Ubuntu" transform="matrix(1,0,0,1,2100,1485)" font-size="38.8056">
    <path fill-rule="evenodd" vector-effect="none" d="M1300,1200 L1300,-1200"/>
   </g>
   <g font-weight="400" stroke-opacity="1" stroke-linejoin="bevel" stroke="#000000" stroke-linecap="round" font-style="normal" stroke-width="7" fill="none" font-family="Ubuntu" transform="matrix(1,0,0,1,2100,1485)" font-size="38.8056">
    <path fill-rule="evenodd" vector-effect="none" d="M-1300,-1200 L-1300,1200"/>
   </g>
   <g font-weight="400" stroke-opacity="1" stroke-linejoin="bevel" stroke="#000000" stroke-linecap="round" font-style="normal" stroke-width="7" fill="none" font-family="Ubuntu" transform="matrix(1,0,0,1,2100,1485)" font-size="38.8056">
    <path fill-rule="evenodd" vector-effect="none" d="M1000,1500 C1165.69,1500 1300,1365.69 1300,1200 "/>
   </g>
   <g font-weight="400" stroke-opacity="1" stroke-linejoin="bevel" stroke="#000000" stroke-linecap="round" font-style="normal" stroke-width="7" fill="none" font-family="Ubuntu" transform="matrix(1,0,0,1,2100,1485)" font-size="38.8056">
    <path fill-rule="evenodd" vector-effect="none" d="M-1300,1200 C-1300,1365.69 -1165.69,1500 -1000,1500 "/>
   </g>
   <g font-weight="400" stroke-opacity="1" stroke-linejoin="bevel" stroke="#000000" stroke-linecap="round" font-style="normal" stroke-width="7" fill="none" font-family="Ubuntu" transform="matrix(1,0,0,1,2100,1485)" font-size="38.8056">
    <path fill-rule="evenodd" vector-effect="none" d="M-1000,1500 L1000,1500"/>
   </g>
   <g font-weight="400" stroke-opacity="1" stroke-linejoin="bevel" stroke="#000000" stroke-linecap="round" font-style="normal" stroke-width="7" fill="none" font-family="Ubuntu" transform="matrix(1,0,0,1,2100,1485)" font-size="38.8056">
    <path fill-rule="evenodd" vector-effect="none" d="M-1105,1280 L1105,1280"/>
   </g>
   <g font-weight="400" stroke-opacity="1" stroke-linejoin="bevel" stroke="#000000" stroke-linecap="round" font-style="normal" stroke-width="7" fill="none" font-family="Ubuntu" transform="matrix(1,0,0,1,2100,1485)" font-size="38.8056">
    <path fill-rule="evenodd" vector-effect="none" d="M1105,1280 L1105,-1280"/>
   </g>
   <g font-weight="400" stroke-opacity="1" stroke-linejoin="bevel" stroke="#000000" stroke-linecap="round" font-style="normal" stroke-width="7" fill="none" font-family="Ubuntu" transform="matrix(1,0,0,1,2100,1485)" font-size="38.8056">
    <path fill-rule="evenodd" vector-effect="none" d="M1105,-1280 L-1105,-1280"/>
   </g>
   <g font-weight="400" stroke-opacity="1" stroke-linejoin="bevel" stroke="#000000" stroke-linecap="round" font-style="normal" stroke-width="7" fill="none" font-family="Ubuntu" transform="matrix(1,0,0,1,2100,1485)" font-size="38.8056">
    <path fill-rule="evenodd" vector-effect="none" d="M-1105,-1280 L-1105,1280"/>
   </g>
   <g font-weight="400" stroke-opacity="1" stroke-linejoin="bevel" stroke="#000000" stroke-linecap="round" font-style="normal" stroke-width="7" fill="none" font-family="Ubuntu" transform="matrix(1,0,0,1,2100,1485)" font-size="38.8056">
    <path fill-rule="evenodd" vector-effect="none" d="M-1005,1180 L-1005,-1180"/>
   </g>
   <g font-weight="400" stroke-opacity="1" stroke-linejoin="bevel" stroke="#000000" stroke-linecap="round" font-style="normal" stroke-width="7" fill="none" font-family="Ubuntu" transform="matrix(1,0,0,1,2100,1485)" font-size="38.8056">
    <path fill-rule="evenodd" vector-effect="none" d="M-1005,-1180 L1005,-1180"/>
   </g>
   <g font-weight="400" stroke-opacity="1" stroke-linejoin="bevel" stroke="#000000" stroke-linecap="round" font-style="normal" stroke-width="7" fill="none" font-family="Ubuntu" transform="matrix(1,0,0,1,2100,1485)" font-size="38.8056">
    <path fill-rule="evenodd" vector-effect="none" d="M1005,-1180 L1005,1180"/>
   </g>
   <g font-weight="400" stroke-opacity="1" stroke-linejoin="bevel" stroke="#000000" stroke-linecap="round" font-style="normal" stroke-width="7" fill="none" font-family="Ubuntu" transform="matrix(1,0,0,1,2100,1485)" font-size="38.8056">
    <path fill-rule="evenodd" vector-effect="none" d="M1005,1180 L-1005,1180"/>
   </g>
  </g>
 </g>
</svg>
