%TF.GenerationSoftware,KiCad,Pcbnew,5.1.7-a382d34a8~88~ubuntu18.04.1*%
%TF.CreationDate,2021-03-14T22:14:16-04:00*%
%TF.ProjectId,CroqueLivreSaintGerard2021_V1,43726f71-7565-44c6-9976-72655361696e,rev?*%
%TF.SameCoordinates,Original*%
%TF.FileFunction,Soldermask,Bot*%
%TF.FilePolarity,Negative*%
%FSLAX46Y46*%
G04 Gerber Fmt 4.6, Leading zero omitted, Abs format (unit mm)*
G04 Created by KiCad (PCBNEW 5.1.7-a382d34a8~88~ubuntu18.04.1) date 2021-03-14 22:14:16*
%MOMM*%
%LPD*%
G01*
G04 APERTURE LIST*
%ADD10O,2.000000X1.700000*%
%ADD11O,2.000000X1.600000*%
%ADD12R,2.000000X2.000000*%
%ADD13R,1.600000X1.600000*%
%ADD14C,1.600000*%
%ADD15R,2.400000X2.400000*%
%ADD16C,2.400000*%
%ADD17R,1.700000X1.700000*%
%ADD18O,1.700000X1.700000*%
%ADD19C,1.500000*%
%ADD20R,1.500000X1.500000*%
%ADD21O,3.500000X3.500000*%
%ADD22R,2.000000X1.905000*%
%ADD23O,2.000000X1.905000*%
%ADD24C,2.032000*%
%ADD25R,1.500000X2.500000*%
%ADD26O,1.500000X2.500000*%
%ADD27O,2.200000X3.500000*%
%ADD28O,1.600000X1.600000*%
%ADD29R,2.200000X2.200000*%
%ADD30O,2.200000X2.200000*%
G04 APERTURE END LIST*
D10*
%TO.C,+ -*%
X111275000Y-88625000D03*
G36*
G01*
X112025000Y-91975000D02*
X110525000Y-91975000D01*
G75*
G02*
X110275000Y-91725000I0J250000D01*
G01*
X110275000Y-90525000D01*
G75*
G02*
X110525000Y-90275000I250000J0D01*
G01*
X112025000Y-90275000D01*
G75*
G02*
X112275000Y-90525000I0J-250000D01*
G01*
X112275000Y-91725000D01*
G75*
G02*
X112025000Y-91975000I-250000J0D01*
G01*
G37*
%TD*%
%TO.C,+ -*%
X111275000Y-77625000D03*
G36*
G01*
X112025000Y-80975000D02*
X110525000Y-80975000D01*
G75*
G02*
X110275000Y-80725000I0J250000D01*
G01*
X110275000Y-79525000D01*
G75*
G02*
X110525000Y-79275000I250000J0D01*
G01*
X112025000Y-79275000D01*
G75*
G02*
X112275000Y-79525000I0J-250000D01*
G01*
X112275000Y-80725000D01*
G75*
G02*
X112025000Y-80975000I-250000J0D01*
G01*
G37*
%TD*%
D11*
%TO.C,U2*%
X177835000Y-106155000D03*
D12*
X177835000Y-108695000D03*
D11*
X177835000Y-103615000D03*
X177835000Y-101075000D03*
X177835000Y-98535000D03*
X177835000Y-95995000D03*
X177835000Y-93455000D03*
X177835000Y-90915000D03*
X154975000Y-90915000D03*
X154975000Y-93455000D03*
X154975000Y-95995000D03*
X154975000Y-98535000D03*
X154975000Y-101075000D03*
X154975000Y-103615000D03*
X154975000Y-106155000D03*
X154975000Y-108695000D03*
%TD*%
D13*
%TO.C,C1*%
X194335000Y-82695000D03*
D14*
X194335000Y-80195000D03*
%TD*%
D15*
%TO.C,C2*%
X174835000Y-72695000D03*
D16*
X174835000Y-77695000D03*
%TD*%
D17*
%TO.C,J2*%
X113335000Y-111195000D03*
D18*
X113335000Y-108655000D03*
%TD*%
%TO.C,J7*%
X185835000Y-88415000D03*
X185835000Y-90955000D03*
X185835000Y-93495000D03*
X185835000Y-96035000D03*
X185835000Y-98575000D03*
X185835000Y-101115000D03*
X185835000Y-103655000D03*
D17*
X185835000Y-106195000D03*
%TD*%
D19*
%TO.C,Q1*%
X184275000Y-80085000D03*
X184275000Y-77545000D03*
D20*
X184275000Y-82625000D03*
%TD*%
%TO.C,Q2*%
X121775000Y-96125000D03*
D19*
X116695000Y-96125000D03*
X119235000Y-96125000D03*
%TD*%
D21*
%TO.C,Q3*%
X142335000Y-103695000D03*
D22*
X125675000Y-101155000D03*
D23*
X125675000Y-103695000D03*
X125675000Y-106235000D03*
%TD*%
D24*
%TO.C,U1*%
X132525000Y-70800000D03*
X117285000Y-70800000D03*
X120460000Y-91120000D03*
X129985000Y-91120000D03*
X138875000Y-70800000D03*
X146495000Y-70800000D03*
%TD*%
D17*
%TO.C,J4*%
X131835000Y-116695000D03*
D18*
X131835000Y-114155000D03*
X131835000Y-111615000D03*
%TD*%
%TO.C,J5*%
X118835000Y-111615000D03*
X118835000Y-114155000D03*
D17*
X118835000Y-116695000D03*
%TD*%
%TO.C,J6*%
X145335000Y-116695000D03*
D18*
X145335000Y-114155000D03*
X145335000Y-111615000D03*
%TD*%
D25*
%TO.C,SW1*%
X110735000Y-100195000D03*
D26*
X108735000Y-100195000D03*
X106735000Y-100195000D03*
D27*
X112835000Y-100195000D03*
X104635000Y-100195000D03*
%TD*%
D14*
%TO.C,R1*%
X192495000Y-115885000D03*
D28*
X182335000Y-115885000D03*
%TD*%
%TO.C,R2*%
X182335000Y-111195000D03*
D14*
X192495000Y-111195000D03*
%TD*%
%TO.C,R3*%
X194495000Y-74695000D03*
D28*
X184335000Y-74695000D03*
%TD*%
%TO.C,R4*%
X166180000Y-103820000D03*
D14*
X166180000Y-93660000D03*
%TD*%
D28*
%TO.C,R5*%
X160465000Y-96200000D03*
D14*
X160465000Y-106360000D03*
%TD*%
%TO.C,R6*%
X132675000Y-95695000D03*
D28*
X142835000Y-95695000D03*
%TD*%
D14*
%TO.C,R7*%
X149670000Y-98195000D03*
D28*
X149670000Y-108355000D03*
%TD*%
D29*
%TO.C,D1*%
X172530000Y-106995000D03*
D30*
X172530000Y-96835000D03*
%TD*%
M02*
