M48
; DRILL file {KiCad 5.1.7-a382d34a8~88~ubuntu18.04.1} date Sun Mar 14 22:14:29 2021
; FORMAT={-:-/ absolute / inch / decimal}
; #@! TF.CreationDate,2021-03-14T22:14:29-04:00
; #@! TF.GenerationSoftware,Kicad,Pcbnew,5.1.7-a382d34a8~88~ubuntu18.04.1
; #@! TF.FileFunction,Plated,1,2,PTH
FMAT,2
INCH
T1C0.0315
T2C0.0394
T3C0.0400
T4C0.0433
T5C0.0472
T6C0.0591
%
G90
G05
T1
X6.3175Y-4.1874
X4.6943Y-3.7844
X5.6234Y-3.7675
X7.651Y-3.1573
X7.651Y-3.2557
X4.2022Y-3.9447
X4.2809Y-3.9447
X4.3596Y-3.9447
X6.5425Y-3.6874
X6.5425Y-4.0874
X7.2573Y-2.9407
X7.6573Y-2.9407
X6.3175Y-3.7874
X4.5943Y-3.7844
X4.7943Y-3.7844
X7.1785Y-4.3778
X7.5785Y-4.3778
X5.2234Y-3.7675
X7.2549Y-3.053
X7.2549Y-3.153
X7.2549Y-3.253
X7.1785Y-4.5624
X7.5785Y-4.5624
X5.8925Y-3.8659
X5.8925Y-4.2659
T2
X6.1014Y-3.5793
X6.1014Y-3.6793
X6.1014Y-3.7793
X6.1014Y-3.8793
X6.1014Y-3.9793
X6.1014Y-4.0793
X6.1014Y-4.1793
X6.1014Y-4.2793
X7.0014Y-3.5793
X7.0014Y-3.6793
X7.0014Y-3.7793
X7.0014Y-3.8793
X7.0014Y-3.9793
X7.0014Y-4.0793
X7.0014Y-4.1793
X7.0014Y-4.2793
X4.6785Y-4.3943
X4.6785Y-4.4943
X4.6785Y-4.5943
X5.1904Y-4.3943
X5.1904Y-4.4943
X5.1904Y-4.5943
X7.3163Y-3.4809
X7.3163Y-3.5809
X7.3163Y-3.6809
X7.3163Y-3.7809
X7.3163Y-3.8809
X7.3163Y-3.9809
X7.3163Y-4.0809
X7.3163Y-4.1809
X4.3809Y-3.4892
X4.3809Y-3.5876
X4.3809Y-3.0561
X4.3809Y-3.1545
X4.462Y-4.2778
X4.462Y-4.3778
X5.7219Y-4.3943
X5.7219Y-4.4943
X5.7219Y-4.5943
T3
X4.6175Y-2.7874
X4.7425Y-3.5874
X5.1175Y-3.5874
X5.2175Y-2.7874
X5.4675Y-2.7874
X5.7675Y-2.7874
T4
X6.7925Y-3.8124
X6.7925Y-4.2124
X4.9478Y-3.9825
X4.9478Y-4.0825
X4.9478Y-4.1825
T5
X6.8833Y-2.862
X6.8833Y-3.0589
T6
X4.1195Y-3.9447
X4.4423Y-3.9447
T0
M30
