<?xml version="1.0" encoding="UTF-8" standalone="no"?>
<!-- Created with Inkscape (http://www.inkscape.org/) -->

<svg
   xmlns:dc="http://purl.org/dc/elements/1.1/"
   xmlns:cc="http://creativecommons.org/ns#"
   xmlns:rdf="http://www.w3.org/1999/02/22-rdf-syntax-ns#"
   xmlns:svg="http://www.w3.org/2000/svg"
   xmlns="http://www.w3.org/2000/svg"
   xmlns:sodipodi="http://sodipodi.sourceforge.net/DTD/sodipodi-0.dtd"
   xmlns:inkscape="http://www.inkscape.org/namespaces/inkscape"
   width="558mm"
   height="68mm"
   viewBox="0 0 558.00004 68.000004"
   version="1.1"
   id="svg3987"
   sodipodi:docname="citation_Jules_Renard_export.svg"
   inkscape:version="0.92.3 (2405546, 2018-03-11)">
  <defs
     id="defs3981" />
  <sodipodi:namedview
     id="base"
     pagecolor="#ffffff"
     bordercolor="#666666"
     borderopacity="1.0"
     inkscape:pageopacity="0.0"
     inkscape:pageshadow="2"
     inkscape:zoom="0.24748737"
     inkscape:cx="1193.3615"
     inkscape:cy="1045.8207"
     inkscape:document-units="mm"
     inkscape:current-layer="layer1"
     showgrid="false"
     units="mm"
     inkscape:measure-start="405.714,1628.57"
     inkscape:measure-end="401.429,1538.57"
     inkscape:window-width="1613"
     inkscape:window-height="995"
     inkscape:window-x="131"
     inkscape:window-y="27"
     inkscape:window-maximized="1"
     height="10in" />
  <metadata
     id="metadata3984">
    <rdf:RDF>
      <cc:Work
         rdf:about="">
        <dc:format>image/svg+xml</dc:format>
        <dc:type
           rdf:resource="http://purl.org/dc/dcmitype/StillImage" />
        <dc:title></dc:title>
      </cc:Work>
    </rdf:RDF>
  </metadata>
  <g
     inkscape:label="Calque 1"
     inkscape:groupmode="layer"
     id="layer1"
     transform="translate(0,-228.99997)">
    <path
       id="path1619"
       style="fill:#ffffff;fill-rule:evenodd;stroke:none;stroke-width:0.37229532px;stroke-linecap:butt;stroke-linejoin:miter;stroke-opacity:1"
       d="m 394.47671,878.56432 -5.31802,-0.66503 -13.76249,-0.99711 -20.87479,-1.19673 -16.62033,-0.66495 -12.23239,0.26589 -15.35727,0.20001 -17.3517,0.59774 -14.2264,1.72862 -16.75403,3.85622 -19.34584,5.78394 -16.28802,5.65089 -15.95519,8.11032 -13.76178,7.77806 -10.5042,8.77555 -4.7203,5.65111 -2.79193,4.52124 -1.26309,3.78927 -1.46256,3.98907 v 3.85584 l -0.33285,3.52341 0.26604,2.25979 -14.09397,7.97778 -10.77037,6.24926 -2.45962,1.39635 -1.86127,1.86151 -1.1302,1.6617 -0.39941,1.19698 0.0667,2.59281 1.06354,2.26071 1.59537,1.7283 2.65908,0.79779 2.06112,0.33214 2.26047,-0.26574 3.98881,-1.86102 7.51184,-4.32237 15.15816,-7.84412 6.24891,4.38774 7.84424,4.12233 7.64581,3.12488 7.51224,1.12979 8.70873,0.0662 8.70933,0.0666 10.0387,-1.26325 14.2267,-3.05787 21.73991,-6.18309 28.05482,-10.37092 22.07157,-9.44069 21.07484,-12.03315 20.40941,-13.3624 12.23313,-11.16896 8.30966,-8.44301 5.85046,-6.11655 5.11909,-5.78361 1.26354,-2.59279 -0.99709,-1.26328 z"
       inkscape:connector-curvature="0" />
    <path
       id="path1621"
       style="fill:#0068ff;fill-opacity:1;fill-rule:evenodd;stroke:#000000;stroke-width:0.37229532px;stroke-linecap:butt;stroke-linejoin:miter;stroke-opacity:1"
       d="m 393.94953,883.96353 -7.91565,-1.34353 -14.29372,-1.26341 -15.15756,-1.19675 -14.42679,-0.46531 -14.82481,0.0664 -9.97223,0.13321 -15.29106,0.93051 -11.36829,0.99698 -7.04668,0.931 -12.96366,2.59261 -11.50182,2.99187 -12.69752,3.25746 -14.75904,5.45165 -7.44592,3.19108 -3.65653,1.92777 -9.2407,4.98567 -7.11346,4.45497 -4.7205,2.99136 -6.78084,5.18522 -4.7206,4.32159 -3.65592,3.92254 -1.79488,3.12484 -1.19621,3.72333 -0.53198,3.85576 2.4e-4,3.72287 0.53136,3.32377 2.32638,7.11336 1.92808,2.7251 3.58974,3.05875 4.6538,3.05822 4.58756,2.72554 4.78637,1.99448 5.45118,0.79771 7.57971,0.79778 6.18238,0.066 5.45127,-0.3984 10.6373,-1.59542 13.76155,-3.39033 12.69773,-3.65692 16.88681,-6.11622 9.63993,-3.65622 13.69482,-5.31888 9.44014,-3.98853 11.90049,-5.78417 4.32131,-2.19379 11.83306,-6.24884 10.83707,-6.5817 8.9079,-5.58462 7.04728,-5.98373 6.84745,-5.91633 5.65128,-5.25231 8.5093,-9.04147 z"
       inkscape:connector-curvature="0" />
    <path
       id="path1598"
       style="fill:#000056;fill-opacity:1;fill-rule:evenodd;stroke:#000096;stroke-width:0.37229532px;stroke-linecap:butt;stroke-linejoin:miter;stroke-opacity:1"
       d="m 392.53895,882.17774 -0.75202,-0.0939 -6.67511,2.91432 -10.15433,4.1369 -7.75626,2.67974 -6.62884,1.92734 1.03419,-2.0683 1.50383,-2.63314 1.41039,-3.85451 0.56416,-2.25616 0.0943,-1.22214 -0.7046,-0.79956 -0.8465,2e-5 -1.03426,0.28222 -0.94011,1.69253 -0.51728,1.92668 -1.36377,3.71416 -2.30296,4.18364 -2.53846,2.91447 -21.01353,6.15839 -10.95327,2.20945 6.15836,-9.9187 7.6155,-11.94061 -0.28269,-0.75181 -0.79924,-0.79958 -1.03447,-0.28132 -1.4104,0.28187 -1.26934,1.92732 -7.00431,11.23558 -7.23938,11.84643 -22.37659,5.1705 3.0557,-5.6875 4.23084,-6.86381 4.56011,-7.00383 6.48687,-7.89782 0.1411,-0.70519 -0.18792,-0.56412 -0.37588,-0.47052 -0.51702,-0.5172 -0.93998,-0.18809 -1.22288,0.56402 -4.08971,5.31213 -5.96987,8.60257 -5.21841,8.50854 -4.37158,7.66299 -21.10706,5.68792 0.89295,-4.65417 1.26946,-5.02981 2.02134,-6.064 2.44391,-6.86341 2.20965,-4.93641 1.69256,-3.47825 1.3e-4,-1.03413 -0.70478,-0.79948 -0.94066,-0.37608 -1.26896,0.51691 -0.94061,1.5046 -3.57296,8.36752 -3.43144,9.07224 -2.25648,8.93248 -1.31598,5.73511 -14.52585,4.27745 -0.42324,-10.85923 -0.0467,-8.13246 0.46966,-5.17093 0.56401,-4.51305 0.0944,-1.69225 -0.37612,-0.75224 -0.56413,-0.56401 -0.70519,-0.14111 -1.08101,0.61103 -0.75241,0.84614 -0.14168,1.45767 -0.79912,8.60277 -0.23517,7.94394 0.14055,8.97926 0.28242,4.41836 -11.89338,3.90203 -9.91877,3.33773 -8.83817,3.19659 -0.46948,-3.47865 -0.23507,-5.68809 0.28153,-5.8291 0.56453,-4.79449 1.31648,-4.60754 1.08121,-3.14954 0.0935,-0.9401 -0.65822,-0.84589 -1.31627,-0.47057 -1.26903,0.9872 -0.79934,1.9275 -1.55164,6.15786 -0.61088,5.31206 -0.2353,6.62807 0.18822,6.01764 0.28187,3.76034 -15.93618,6.34684 -0.51647,-4.65434 -0.14128,-4.37189 -3.2e-4,-3.57282 0.51712,-4.18358 1.17545,-3.99535 0.89278,-2.58591 -0.23446,-0.61126 -0.51702,-0.51706 -0.75286,-0.37613 -0.51653,0.23473 -1.08132,0.98728 -0.79887,1.73993 -1.034,4.04286 -0.75207,4.23064 -0.0942,3.8545 2.4e-4,4.60701 0.32943,3.99584 0.23458,2.39766 -12.6926,5.73485 -9.68396,5.07756 -12.03451,6.58081 -9.63614,5.78187 -0.37598,0.9406 0.65791,0.84628 0.51667,0.42306 0.9403,0.28213 2.44392,-1.50392 11.56483,-6.58176 11.09449,-6.01714 7.70923,-3.76073 15.56011,-6.34569 15.23098,11.56394 14.90183,11.42333 1.36359,0.32915 0.89293,-0.3294 0.47027,-0.46989 0.0464,-0.61131 -0.37616,-0.93987 -0.79931,-0.79965 -28.44082,-21.48333 6.72219,-2.86753 21.90641,-7.61537 12.83391,7.8507 11.5644,7.992 8.93122,5.73479 4.8894,2.6322 0.84615,-0.0941 0.70552,-0.51667 0.32919,-0.89277 -0.37619,-1.03451 -0.65746,-0.65812 -5.50014,-3.14966 -8.79115,-6.06429 -7.56876,-5.02973 -8.69616,-5.40621 -4.04298,-2.82117 14.62004,-4.74783 11.09435,6.39377 11.46999,5.54671 8.93205,4.23096 7.3804,3.24334 3.80745,1.64554 1.03477,0.47007 1.31611,-0.37552 0.46985,-0.56468 0.23437,-0.61118 -0.32911,-0.98704 -0.98721,-0.70487 -1.92747,-0.79926 -5.40582,-2.20947 -6.44031,-3.05527 -10.67163,-4.93608 -6.39269,-3.38449 -5.31232,-2.68019 -3.76064,-2.44442 13.02152,-3.99529 7.94458,-2.11564 5.54708,2.16299 6.2056,2.5383 6.6753,2.91457 7.4742,3.80782 5.87601,3.52542 4.9365,3.0561 2.53787,2.1623 0.75279,-5.1e-4 0.94026,-0.28199 0.56451,-0.65713 0.18858,-0.75218 -0.37578,-0.84591 -1.26922,-1.26981 -3.99604,-2.86704 -6.11064,-3.57312 -7.56929,-3.61954 -7.94421,-3.80793 -8.88483,-3.61999 8.5558,-2.35021 13.02154,-3.05585 7.09831,4.27837 10.57758,5.87595 9.40135,5.5473 3.0559,1.92722 1.1281,-2.8e-4 1.22225,-0.65756 0.28249,-1.12871 -0.56448,-0.84561 -0.79935,-0.79953 -8.03871,-4.46576 -8.88426,-5.03025 -9.49567,-5.64105 9.77734,-2.4441 16.59444,-3.99569 14.80824,8.32053 5.26477,2.91465 1.17528,0.0466 0.84649,-0.56392 0.23437,-0.61115 -0.18757,-1.12834 -0.75205,-0.94044 -3.99521,-2.39728 -9.87217,-5.26537 -2.53855,-1.78606 5.07695,-1.31597 9.35486,-2.77346 12.36339,-3.61948 9.58968,-3.57302 10.95306,-4.37183 5.45329,-2.53827 0.56416,-1.03427 -0.37607,-1.03457 z"
       inkscape:connector-curvature="0" />
    <g
       aria-label="Chacune de nos lectures laisse une graine qui germe. 
           (Jules Renard)"
       transform="matrix(0.26458333,0,0,0.26458333,-24.740755,-193.94925)"
       style="font-style:italic;font-variant:normal;font-weight:500;font-stretch:normal;font-size:192px;line-height:149.60000515%;font-family:'URW Chancery L';-inkscape-font-specification:'URW Chancery L, Medium Italic';font-variant-ligatures:normal;font-variant-caps:normal;font-variant-numeric:normal;font-feature-settings:normal;text-align:start;letter-spacing:0px;word-spacing:0px;writing-mode:lr-tb;text-anchor:start;fill:#000078;fill-opacity:1;stroke:none;stroke-width:1px;stroke-linecap:butt;stroke-linejoin:miter;stroke-opacity:1"
       id="flowRoot4542">
      <path
         d="m 406.74379,4691.948 c -28.21333,19.32 -49.06666,27.2934 -70.53333,27.2934 -24.22667,0 -39.56,-18.4 -39.56,-47.5334 0,-63.7866 45.08,-127.2666 90.46667,-127.2666 18.39999,0 27.59999,11.3466 29.43999,35.5733 l 22.69334,-19.32 c -2.76,-21.16 -13.8,-30.6667 -35.88,-30.6667 -26.68,0 -57.65333,15.64 -84.64,42.6267 -29.74666,29.7467 -47.22666,70.5333 -47.22666,110.4 0,31.5867 17.48,50.6 46.91999,50.6 26.37334,0 59.8,-12.5733 86.17333,-32.5067 z"
         style="font-style:italic;font-variant:normal;font-weight:500;font-stretch:normal;font-size:306.66665649px;line-height:106.34667206px;font-family:'URW Chancery L';-inkscape-font-specification:'URW Chancery L, Medium Italic';font-variant-ligatures:normal;font-variant-caps:normal;font-variant-numeric:normal;font-feature-settings:normal;text-align:start;writing-mode:lr-tb;text-anchor:start;fill:#000078;fill-opacity:1"
         id="path4657"
         inkscape:connector-curvature="0" />
      <path
         d="m 426.84004,4714.028 21.77333,-8.8933 18.09333,-71.4533 c 3.06667,-2.1467 6.74667,-4.2934 7.36,-4.6 21.16,-13.4934 34.04,-20.24 37.41333,-20.24 2.14667,0 3.68,2.1466 3.68,4.9066 0,3.68 -1.22666,9.5067 -5.52,26.0667 -9.50666,36.8 -13.18666,54.5867 -13.18666,62.8667 0,3.68 1.22666,7.36 4.6,13.1866 16.86666,-8.5866 38.94666,-22.6933 55.81333,-34.96 l 2.14666,-8.8933 c -26.06666,15.3333 -30.35999,17.48 -34.34666,17.48 -2.76,0 -4.6,-3.0667 -4.6,-7.9733 0,-6.1334 1.84,-15.0267 7.05333,-34.96 9.81334,-36.1867 14.72,-54.8934 14.72,-56.12 0,-3.0667 -2.45333,-5.2134 -6.44,-5.2134 -6.44,0 -27.6,11.6534 -65.93333,36.4934 l 10.42667,-41.0934 c 7.36,-30.0533 10.42666,-39.56 14.41333,-47.2266 4.29333,-8.5867 10.73333,-12.5734 19.01333,-12.5734 3.98667,0 6.44,0.3067 18.4,2.76 l 13.18667,-18.7066 c -5.52,-1.2267 -7.97333,-1.5334 -12.57333,-1.5334 -16.86667,0 -25.76,4.6 -48.14667,24.2267 -15.94667,14.1067 -18.4,19.32 -27.90667,59.8 z"
         style="font-style:italic;font-variant:normal;font-weight:500;font-stretch:normal;font-size:306.66665649px;line-height:106.34667206px;font-family:'URW Chancery L';-inkscape-font-specification:'URW Chancery L, Medium Italic';font-variant-ligatures:normal;font-variant-caps:normal;font-variant-numeric:normal;font-feature-settings:normal;text-align:start;writing-mode:lr-tb;text-anchor:start;fill:#000078;fill-opacity:1"
         id="path4659"
         inkscape:connector-curvature="0" />
      <path
         d="m 689.48566,4671.4014 c -23,15.3333 -27.6,18.0933 -30.66667,18.0933 -2.14667,0 -3.68,-2.4533 -3.68,-6.1333 0,-7.9734 7.36,-41.7067 18.4,-82.4934 3.37333,-4.6 3.98667,-5.52 8.89333,-11.04 -14.72,-3.3733 -25.45333,-4.6 -38.64,-4.6 -12.57333,0 -18.39999,1.2267 -26.37333,6.1334 -11.04,6.44 -23.92,15.9466 -27.90666,20.24 -11.34667,12.88 -24.22667,54.28 -24.22667,79.12 0,14.72 4.90667,24.5333 12.57333,24.5333 6.74667,0 16.86667,-6.1333 55.2,-33.7333 -3.06666,14.1066 -4.6,23.6133 -4.6,27.2933 0,3.9867 1.84,6.44 4.90667,6.44 3.68,0 3.68,0 28.21333,-15.64 8.89333,-5.8267 15.94667,-10.7333 27.6,-19.32 z m -59.8,1.84 c -18.09333,13.1866 -27.29333,18.4 -32.81333,18.4 -4.90667,0 -7.97334,-5.52 -7.97334,-15.3334 0,-15.3333 4.90667,-36.1866 12.57334,-53.6666 7.36,-16.8667 14.10666,-23.3067 24.53333,-23.3067 5.52,0 15.02666,1.5333 26.06666,3.9867 -6.13333,23.3066 -8.28,30.36 -8.58666,31.8933 -1.84,7.6667 -3.37334,15.3333 -5.21334,23.3067 -0.30666,1.5333 -1.22666,5.2133 -2.76,10.7333 z"
         style="font-style:italic;font-variant:normal;font-weight:500;font-stretch:normal;font-size:306.66665649px;line-height:106.34667206px;font-family:'URW Chancery L';-inkscape-font-specification:'URW Chancery L, Medium Italic';font-variant-ligatures:normal;font-variant-caps:normal;font-variant-numeric:normal;font-feature-settings:normal;text-align:start;writing-mode:lr-tb;text-anchor:start;fill:#000078;fill-opacity:1"
         id="path4661"
         inkscape:connector-curvature="0" />
      <path
         d="m 784.83502,4672.3214 c -23.61333,16.8666 -39.86666,25.4533 -49.68,25.4533 -11.04,0 -17.48,-8.5867 -17.48,-23.3067 0,-14.72 3.68,-34.3466 9.50667,-48.76 6.13333,-16.2533 14.10667,-24.5333 23,-24.5333 7.36,0 11.34667,5.8267 12.88,19.32 l 17.78667,-10.4267 c 0.30666,-1.5333 0.30666,-3.0666 0.30666,-3.3733 0,-13.1867 -6.74666,-21.4667 -17.48,-21.4667 -5.52,0 -8.89333,1.2267 -19.93333,8.5867 -23,14.4133 -27.90667,19.0133 -34.65333,31.5867 -8.58667,16.56 -15.02667,42.6266 -15.02667,61.64 0,17.7866 8.28,28.2133 22.38667,28.2133 14.72,0 39.86666,-12.2667 67.77333,-33.12 z"
         style="font-style:italic;font-variant:normal;font-weight:500;font-stretch:normal;font-size:306.66665649px;line-height:106.34667206px;font-family:'URW Chancery L';-inkscape-font-specification:'URW Chancery L, Medium Italic';font-variant-ligatures:normal;font-variant-caps:normal;font-variant-numeric:normal;font-feature-settings:normal;text-align:start;writing-mode:lr-tb;text-anchor:start;fill:#000078;fill-opacity:1"
         id="path4663"
         inkscape:connector-curvature="0" />
      <path
         d="m 796.74711,4619.268 c 12.88,-6.44 18.70666,-8.8933 22.38666,-8.8933 2.45334,0 4.29334,2.4533 4.29334,5.8267 0,3.9866 -3.06667,17.1733 -8.58667,38.0266 -7.66666,28.52 -9.50666,37.1067 -9.50666,46 0,8.5867 3.68,15.0267 8.58666,15.0267 4.6,0 10.12,-2.76 25.45333,-12.88 l 31.58667,-20.5467 c -2.45333,9.8134 -4.29333,20.8534 -4.29333,26.3734 0,3.9866 2.45333,7.0533 5.52,7.0533 6.13333,0 35.26666,-17.1733 56.11999,-32.8133 l 2.14667,-9.2 c -23.92,14.1066 -31.89333,18.4 -35.26666,18.4 -2.14667,0 -3.37334,-2.4534 -3.37334,-7.36 0,-15.64 11.34667,-61.3334 24.53333,-100.28 -3.98666,2.1466 -6.74666,3.68 -7.97333,4.2933 -3.68,1.84 -7.36,3.68 -11.34666,5.52 -0.92,0.3067 -2.76,1.2267 -6.13334,3.0667 -1.84,7.0533 -7.97333,31.5866 -18.09333,73.9066 -23.61333,16.2534 -34.34667,22.3867 -38.02667,22.3867 -3.37333,0 -5.82666,-4.2933 -5.82666,-10.12 0,-7.0533 2.45333,-19.32 7.66666,-38.9467 3.37334,-12.2666 5.52,-20.8533 6.44,-25.1466 2.76,-11.3467 4.90667,-19.32 5.52,-21.4667 0.92,-3.3733 1.53334,-6.1333 1.53334,-8.28 0,-2.4533 -1.53334,-3.9867 -3.68,-3.9867 -3.06667,0 -25.45334,11.96 -47.53333,25.76 z"
         style="font-style:italic;font-variant:normal;font-weight:500;font-stretch:normal;font-size:306.66665649px;line-height:106.34667206px;font-family:'URW Chancery L';-inkscape-font-specification:'URW Chancery L, Medium Italic';font-variant-ligatures:normal;font-variant-caps:normal;font-variant-numeric:normal;font-feature-settings:normal;text-align:start;writing-mode:lr-tb;text-anchor:start;fill:#000078;fill-opacity:1"
         id="path4665"
         inkscape:connector-curvature="0" />
      <path
         d="m 963.24796,4705.4414 18.09333,-72.0667 c 38.33331,-24.2267 39.25331,-24.5333 43.54671,-24.5333 2.1466,0 3.3733,1.5333 3.3733,3.9866 0,4.6 -2.4533,16.2534 -11.3467,51.2134 -6.7466,27.2933 -7.9733,32.5066 -7.9733,38.3333 0,4.2933 1.2267,8.28 4.6,13.8 14.1067,-6.44 35.2667,-19.6267 56.7333,-35.5733 l 2.1467,-8.5867 c -30.6667,17.48 -31.8933,18.0933 -34.96,18.0933 -3.0667,0 -4.9067,-3.3733 -4.9067,-8.28 0,-6.44 2.1467,-16.56 7.9734,-37.72 14.4133,-51.52 14.4133,-51.52 14.4133,-53.6666 0,-3.3734 -2.1467,-5.2134 -6.1333,-5.2134 -4.6,0 -11.3467,2.76 -22.3867,9.8134 l -42.01334,26.0666 c 2.76,-10.12 7.36,-29.44 7.36,-31.8933 0,-2.1467 -1.84,-3.9867 -3.98667,-3.9867 -3.37333,0 -25.45333,11.3467 -48.14666,24.84 l -1.84,7.9734 c 19.62667,-8.8934 20.85333,-9.2 23.61333,-9.2 2.14667,0 3.68,1.84 3.68,4.2933 0,6.44 -5.82666,31.8933 -13.49333,59.8 l -7.05333,24.84 c -0.61334,2.1467 -2.14667,7.9733 -4.29334,16.56 z"
         style="font-style:italic;font-variant:normal;font-weight:500;font-stretch:normal;font-size:306.66665649px;line-height:106.34667206px;font-family:'URW Chancery L';-inkscape-font-specification:'URW Chancery L, Medium Italic';font-variant-ligatures:normal;font-variant-caps:normal;font-variant-numeric:normal;font-feature-settings:normal;text-align:start;writing-mode:lr-tb;text-anchor:start;fill:#000078;fill-opacity:1"
         id="path4667"
         inkscape:connector-curvature="0" />
      <path
         d="m 1170.8421,4669.2547 c -23,19.9333 -37.72,28.52 -49.3733,28.52 -7.6667,0 -14.1067,-5.2133 -16.2534,-13.1867 -1.2266,-4.9066 -1.5333,-8.28 -1.5333,-17.1733 13.8,-8.5867 23,-15.0267 41.0933,-28.52 16.56,-12.5733 23,-22.6933 23,-36.4933 0,-10.7334 -6.7466,-17.1734 -17.48,-17.1734 -6.7466,0 -11.6533,1.5334 -18.7066,5.52 -11.6534,6.7467 -22.08,15.0267 -28.52,22.3867 -11.6534,14.1067 -22.08,47.84 -22.08,72.68 0,18.0933 9.5066,29.44 25.1466,29.44 18.0934,0 40.48,-12.88 64.7067,-37.1067 z m -66.24,-12.88 c 5.2133,-32.8133 19.32,-58.2667 32.5067,-58.2667 5.2133,0 8.5866,5.2134 8.5866,12.5734 0,15.3333 -8.28,24.5333 -41.0933,45.6933 z"
         style="font-style:italic;font-variant:normal;font-weight:500;font-stretch:normal;font-size:306.66665649px;line-height:106.34667206px;font-family:'URW Chancery L';-inkscape-font-specification:'URW Chancery L, Medium Italic';font-variant-ligatures:normal;font-variant-caps:normal;font-variant-numeric:normal;font-feature-settings:normal;text-align:start;writing-mode:lr-tb;text-anchor:start;fill:#000078;fill-opacity:1"
         id="path4669"
         inkscape:connector-curvature="0" />
      <path
         d="m 1378.6232,4671.0947 c -3.9867,2.4533 -7.0534,4.6 -8.5867,5.52 -16.8667,11.6533 -25.4533,16.56 -28.2133,16.56 -2.4534,0 -4.2934,-3.3733 -4.2934,-7.9733 0,-10.12 25.76,-121.1334 32.2,-140.1467 6.7467,-18.4 13.4934,-25.4533 24.5334,-25.4533 3.9866,0 7.0533,0.6133 14.1066,2.4533 l 10.7334,-17.1733 c -4.6,-0.92 -7.0534,-1.2267 -9.8134,-1.2267 -7.36,0 -11.3466,1.2267 -18.4,5.2133 -7.6666,4.2934 -18.0933,12.2667 -26.68,20.24 -15.0266,14.4134 -15.9466,16.56 -23.92,48.1467 -0.3066,1.2267 -1.2266,5.2133 -2.4533,9.8133 -5.52,-1.2266 -10.12,-1.84 -12.5733,-1.84 -9.5067,0 -35.88,16.56 -48.1467,30.0534 -10.4267,11.96 -24.2267,55.2 -24.2267,76.36 0,11.6533 6.1334,23.6133 11.6534,23.6133 5.8266,0 19.32,-8.28 51.52,-31.5867 -1.5334,7.6667 -2.4534,16.56 -2.4534,22.08 0,6.1334 2.4534,9.5067 6.7467,9.5067 4.9067,0 31.5867,-16.2533 57.04,-34.6533 z m -60.1067,1.2267 c -26.0667,18.4 -32.8133,22.3866 -37.1067,22.3866 -4.2933,0 -6.44,-4.6 -6.44,-13.4933 0,-10.12 1.84,-21.7733 5.52,-35.2667 8.8934,-30.9733 20.8534,-46.3066 36.4934,-46.3066 5.52,0 9.5066,2.1466 15.9466,8.28 z"
         style="font-style:italic;font-variant:normal;font-weight:500;font-stretch:normal;font-size:306.66665649px;line-height:106.34667206px;font-family:'URW Chancery L';-inkscape-font-specification:'URW Chancery L, Medium Italic';font-variant-ligatures:normal;font-variant-caps:normal;font-variant-numeric:normal;font-feature-settings:normal;text-align:start;writing-mode:lr-tb;text-anchor:start;fill:#000078;fill-opacity:1"
         id="path4671"
         inkscape:connector-curvature="0" />
      <path
         d="m 1477.5087,4669.2547 c -23,19.9333 -37.72,28.52 -49.3733,28.52 -7.6667,0 -14.1067,-5.2133 -16.2533,-13.1867 -1.2267,-4.9066 -1.5334,-8.28 -1.5334,-17.1733 13.8,-8.5867 23,-15.0267 41.0934,-28.52 16.56,-12.5733 23,-22.6933 23,-36.4933 0,-10.7334 -6.7467,-17.1734 -17.48,-17.1734 -6.7467,0 -11.6534,1.5334 -18.7067,5.52 -11.6533,6.7467 -22.08,15.0267 -28.52,22.3867 -11.6533,14.1067 -22.08,47.84 -22.08,72.68 0,18.0933 9.5067,29.44 25.1467,29.44 18.0933,0 40.48,-12.88 64.7066,-37.1067 z m -66.24,-12.88 c 5.2134,-32.8133 19.32,-58.2667 32.5067,-58.2667 5.2133,0 8.5867,5.2134 8.5867,12.5734 0,15.3333 -8.28,24.5333 -41.0934,45.6933 z"
         style="font-style:italic;font-variant:normal;font-weight:500;font-stretch:normal;font-size:306.66665649px;line-height:106.34667206px;font-family:'URW Chancery L';-inkscape-font-specification:'URW Chancery L, Medium Italic';font-variant-ligatures:normal;font-variant-caps:normal;font-variant-numeric:normal;font-feature-settings:normal;text-align:start;writing-mode:lr-tb;text-anchor:start;fill:#000078;fill-opacity:1"
         id="path4673"
         inkscape:connector-curvature="0" />
      <path
         d="m 1583.1699,4705.4414 18.0933,-72.0667 c 38.3333,-24.2267 39.2533,-24.5333 43.5467,-24.5333 2.1466,0 3.3733,1.5333 3.3733,3.9866 0,4.6 -2.4533,16.2534 -11.3467,51.2134 -6.7466,27.2933 -7.9733,32.5066 -7.9733,38.3333 0,4.2933 1.2267,8.28 4.6,13.8 14.1067,-6.44 35.2667,-19.6267 56.7333,-35.5733 l 2.1467,-8.5867 c -30.6667,17.48 -31.8933,18.0933 -34.96,18.0933 -3.0667,0 -4.9067,-3.3733 -4.9067,-8.28 0,-6.44 2.1467,-16.56 7.9734,-37.72 14.4133,-51.52 14.4133,-51.52 14.4133,-53.6666 0,-3.3734 -2.1467,-5.2134 -6.1333,-5.2134 -4.6,0 -11.3467,2.76 -22.3867,9.8134 l -42.0133,26.0666 c 2.76,-10.12 7.36,-29.44 7.36,-31.8933 0,-2.1467 -1.84,-3.9867 -3.9867,-3.9867 -3.3733,0 -25.4533,11.3467 -48.1467,24.84 l -1.84,7.9734 c 19.6267,-8.8934 20.8534,-9.2 23.6134,-9.2 2.1466,0 3.68,1.84 3.68,4.2933 0,6.44 -5.8267,31.8933 -13.4934,59.8 l -7.0533,24.84 c -0.6133,2.1467 -2.1467,7.9733 -4.2933,16.56 z"
         style="font-style:italic;font-variant:normal;font-weight:500;font-stretch:normal;font-size:306.66665649px;line-height:106.34667206px;font-family:'URW Chancery L';-inkscape-font-specification:'URW Chancery L, Medium Italic';font-variant-ligatures:normal;font-variant-caps:normal;font-variant-numeric:normal;font-feature-settings:normal;text-align:start;writing-mode:lr-tb;text-anchor:start;fill:#000078;fill-opacity:1"
         id="path4675"
         inkscape:connector-curvature="0" />
      <path
         d="m 1784.324,4585.228 c -12.2667,0 -31.8934,8.8934 -49.9867,22.3867 -19.6267,14.72 -33.4266,46.6133 -33.4266,76.9733 0,18.7067 10.4266,30.6667 26.6799,30.6667 8.5867,0 17.1734,-3.0667 31.28,-10.4267 15.3334,-8.5866 25.4534,-16.2533 30.9734,-23.6133 12.2666,-16.56 22.08,-46.6133 22.08,-67.7733 0,-16.56 -11.3467,-28.2134 -27.6,-28.2134 z m -15.9467,14.4134 c 12.2667,0 19.9333,11.96 19.9333,30.36 0,12.88 -4.2933,28.8266 -11.96,43.8533 -8.5866,17.48 -19.6266,26.9867 -31.28,26.9867 -12.5733,0 -20.5466,-11.3467 -20.5466,-28.8267 0,-35.5733 22.3866,-72.3733 43.8533,-72.3733 z"
         style="font-style:italic;font-variant:normal;font-weight:500;font-stretch:normal;font-size:306.66665649px;line-height:106.34667206px;font-family:'URW Chancery L';-inkscape-font-specification:'URW Chancery L, Medium Italic';font-variant-ligatures:normal;font-variant-caps:normal;font-variant-numeric:normal;font-feature-settings:normal;text-align:start;writing-mode:lr-tb;text-anchor:start;fill:#000078;fill-opacity:1"
         id="path4677"
         inkscape:connector-curvature="0" />
      <path
         d="m 1810.2038,4685.8147 c -0.3067,2.76 -0.6133,5.2133 -0.6133,7.0533 0,13.1867 9.2,22.3867 22.6933,22.3867 9.5067,0 22.6933,-3.9867 32.5067,-9.5067 18.0933,-10.4266 29.1333,-26.0666 29.1333,-41.4 0,-11.3466 -2.1467,-13.8 -19.32,-24.5333 -10.4267,-6.7467 -14.72,-12.5733 -14.72,-20.5467 0,-10.4266 8.8933,-19.6266 19.32,-19.6266 7.0533,0 12.2667,3.3733 19.0133,11.96 10.4267,-10.12 10.4267,-10.12 14.4134,-15.9467 -6.1334,-7.36 -11.96,-10.4267 -20.5467,-10.4267 -22.3867,0 -51.2133,26.68 -51.2133,46.92 0,9.5067 4.9066,16.8667 16.56,25.1467 15.3333,10.7333 17.48,13.4933 17.48,21.16 0,11.04 -14.1067,23.92 -26.0667,23.92 -6.7467,0 -11.96,-3.68 -15.0267,-10.4267 -2.1466,-4.6 -2.76,-9.2 -3.0666,-19.6266 -3.3734,2.4533 -5.8267,3.9866 -7.0534,4.9066 -2.4533,1.5334 -5.2133,3.0667 -7.9733,4.9067 z"
         style="font-style:italic;font-variant:normal;font-weight:500;font-stretch:normal;font-size:306.66665649px;line-height:106.34667206px;font-family:'URW Chancery L';-inkscape-font-specification:'URW Chancery L, Medium Italic';font-variant-ligatures:normal;font-variant-caps:normal;font-variant-numeric:normal;font-feature-settings:normal;text-align:start;writing-mode:lr-tb;text-anchor:start;fill:#000078;fill-opacity:1"
         id="path4679"
         inkscape:connector-curvature="0" />
      <path
         d="m 338.66379,4958.94 c -4.29333,2.4533 -7.05333,4.2933 -8.28,4.9067 -22.08,13.8 -24.53333,15.0266 -28.82666,15.0266 -2.76,0 -5.52,-3.68 -5.52,-7.9733 v -2.76 -2.76 c 0,-5.52 13.8,-65.0133 25.14666,-108.2533 11.96,-45.08 14.72,-50.6 28.21334,-50.6 3.98666,0 7.05333,0.3067 15.02666,2.1467 l 13.18667,-16.2534 c -6.44,-1.5333 -9.81333,-1.84 -13.8,-1.84 -12.26667,0 -22.08,4.9067 -36.8,18.0934 -13.49333,12.2666 -16.86667,16.8666 -20.85333,27.9066 -2.45334,7.36 -9.2,32.2 -12.26667,45.6933 l -22.08,95.9867 c -0.30666,1.84 -0.61333,3.68 -0.61333,5.52 0,9.2 5.21333,18.7067 10.12,18.7067 h 1.84 0.92 c 3.06667,0 15.94666,-8.8934 54.58666,-36.8 z"
         style="font-style:italic;font-variant:normal;font-weight:500;font-stretch:normal;font-size:306.66665649px;line-height:106.34667206px;font-family:'URW Chancery L';-inkscape-font-specification:'URW Chancery L, Medium Italic';font-variant-ligatures:normal;font-variant-caps:normal;font-variant-numeric:normal;font-feature-settings:normal;text-align:start;writing-mode:lr-tb;text-anchor:start;fill:#000078;fill-opacity:1"
         id="path4681"
         inkscape:connector-curvature="0" />
      <path
         d="m 434.72233,4956.4867 c -22.99999,19.9333 -37.71999,28.52 -49.37333,28.52 -7.66666,0 -14.10666,-5.2134 -16.25333,-13.1867 -1.22667,-4.9067 -1.53333,-8.28 -1.53333,-17.1733 13.8,-8.5867 23,-15.0267 41.09333,-28.52 16.56,-12.5734 23,-22.6934 23,-36.4934 0,-10.7333 -6.74667,-17.1733 -17.48,-17.1733 -6.74667,0 -11.65333,1.5334 -18.70667,5.52 -11.65333,6.7467 -22.08,15.0267 -28.52,22.3867 -11.65333,14.1066 -22.08,47.84 -22.08,72.68 0,18.0933 9.50667,29.44 25.14667,29.44 18.09333,0 40.48,-12.88 64.70666,-37.1067 z m -66.23999,-12.88 c 5.21333,-32.8134 19.32,-58.2667 32.50666,-58.2667 5.21334,0 8.58667,5.2133 8.58667,12.5733 0,15.3334 -8.28,24.5334 -41.09333,45.6934 z"
         style="font-style:italic;font-variant:normal;font-weight:500;font-stretch:normal;font-size:306.66665649px;line-height:106.34667206px;font-family:'URW Chancery L';-inkscape-font-specification:'URW Chancery L, Medium Italic';font-variant-ligatures:normal;font-variant-caps:normal;font-variant-numeric:normal;font-feature-settings:normal;text-align:start;writing-mode:lr-tb;text-anchor:start;fill:#000078;fill-opacity:1"
         id="path4683"
         inkscape:connector-curvature="0" />
      <path
         d="m 539.86108,4959.5533 c -23.61333,16.8667 -39.86666,25.4534 -49.67999,25.4534 -11.04,0 -17.48,-8.5867 -17.48,-23.3067 0,-14.72 3.68,-34.3467 9.50666,-48.76 6.13334,-16.2533 14.10667,-24.5333 23,-24.5333 7.36,0 11.34667,5.8266 12.88,19.32 L 535.87442,4897.3 c 0.30666,-1.5333 0.30666,-3.0667 0.30666,-3.3733 0,-13.1867 -6.74666,-21.4667 -17.47999,-21.4667 -5.52,0 -8.89334,1.2267 -19.93334,8.5867 -23,14.4133 -27.90666,19.0133 -34.65333,31.5866 -8.58667,16.56 -15.02667,42.6267 -15.02667,61.64 0,17.7867 8.28,28.2134 22.38667,28.2134 14.72,0 39.86667,-12.2667 67.77333,-33.12 z"
         style="font-style:italic;font-variant:normal;font-weight:500;font-stretch:normal;font-size:306.66665649px;line-height:106.34667206px;font-family:'URW Chancery L';-inkscape-font-specification:'URW Chancery L, Medium Italic';font-variant-ligatures:normal;font-variant-caps:normal;font-variant-numeric:normal;font-feature-settings:normal;text-align:start;writing-mode:lr-tb;text-anchor:start;fill:#000078;fill-opacity:1"
         id="path4685"
         inkscape:connector-curvature="0" />
      <path
         d="m 637.9465,4959.86 c -23.30666,13.8 -33.12,19.0133 -37.41333,19.0133 -3.98667,0 -8.89333,-7.9733 -8.89333,-14.4133 0,-4.2933 5.21333,-27.9067 13.18666,-60.1067 4.29334,-0.3066 7.36,-0.3066 8.89334,-0.3066 l 12.26666,-0.3067 c 1.22667,0 4.29333,-0.3067 9.2,-0.92 l 11.65333,-8.8933 H 607.5865 l 12.26667,-49.68 c -5.82667,3.0667 -8.28,3.9867 -12.88,6.1333 -2.14667,1.2267 -4.6,2.1467 -7.05333,3.3734 -1.22667,0.6133 -2.76,1.2266 -4.29334,1.84 l -8.58666,38.3333 c -2.76,0.3066 -4.6,0.3066 -5.52,0.3066 h -7.36 c -0.61334,0 -2.14667,0 -4.6,0.3067 -3.37334,2.1467 -3.68,2.1467 -8.89334,6.44 -0.92,0.6133 -2.45333,1.84 -4.6,3.3733 h 7.36 14.10667 6.74667 c -16.25334,68.08 -16.25334,68.08 -16.25334,77.5867 0,9.8133 6.44,20.5467 12.26667,20.5467 6.74667,0 27.6,-12.88 57.04,-34.96 z"
         style="font-style:italic;font-variant:normal;font-weight:500;font-stretch:normal;font-size:306.66665649px;line-height:106.34667206px;font-family:'URW Chancery L';-inkscape-font-specification:'URW Chancery L, Medium Italic';font-variant-ligatures:normal;font-variant-caps:normal;font-variant-numeric:normal;font-feature-settings:normal;text-align:start;writing-mode:lr-tb;text-anchor:start;fill:#000078;fill-opacity:1"
         id="path4687"
         inkscape:connector-curvature="0" />
      <path
         d="m 650.00233,4906.5 c 12.88,-6.44 18.70666,-8.8933 22.38666,-8.8933 2.45334,0 4.29334,2.4533 4.29334,5.8266 0,3.9867 -3.06667,17.1734 -8.58667,38.0267 -7.66667,28.52 -9.50667,37.1067 -9.50667,46 0,8.5867 3.68,15.0267 8.58667,15.0267 4.6,0 10.12,-2.76 25.45333,-12.88 l 31.58667,-20.5467 c -2.45334,9.8133 -4.29333,20.8533 -4.29333,26.3733 0,3.9867 2.45333,7.0534 5.51999,7.0534 6.13334,0 35.26667,-17.1734 56.12,-32.8134 l 2.14667,-9.2 c -23.92,14.1067 -31.89333,18.4 -35.26667,18.4 -2.14666,0 -3.37333,-2.4533 -3.37333,-7.36 0,-15.64 11.34667,-61.3333 24.53333,-100.2799 -3.98666,2.1466 -6.74666,3.68 -7.97333,4.2933 -3.68,1.84 -7.36,3.68 -11.34667,5.52 -0.92,0.3066 -2.76,1.2266 -6.13333,3.0666 -1.84,7.0534 -7.97333,31.5867 -18.09333,73.9067 -23.61333,16.2533 -34.34667,22.3867 -38.02667,22.3867 -3.37333,0 -5.82666,-4.2934 -5.82666,-10.12 0,-7.0534 2.45333,-19.32 7.66666,-38.9467 3.37334,-12.2667 5.52,-20.8533 6.44,-25.1467 2.76,-11.3466 4.90667,-19.32 5.52,-21.4666 0.92,-3.3734 1.53334,-6.1333 1.53334,-8.28 0,-2.4533 -1.53334,-3.9867 -3.68,-3.9867 -3.06667,0 -25.45334,11.96 -47.53334,25.76 z"
         style="font-style:italic;font-variant:normal;font-weight:500;font-stretch:normal;font-size:306.66665649px;line-height:106.34667206px;font-family:'URW Chancery L';-inkscape-font-specification:'URW Chancery L, Medium Italic';font-variant-ligatures:normal;font-variant-caps:normal;font-variant-numeric:normal;font-feature-settings:normal;text-align:start;writing-mode:lr-tb;text-anchor:start;fill:#000078;fill-opacity:1"
         id="path4689"
         inkscape:connector-curvature="0" />
      <path
         d="m 793.80982,5001.5667 23.61333,-8.8934 23,-87.4 c 10.42667,-7.6666 17.48,-10.7333 25.76,-10.7333 6.74666,0 10.73333,2.4533 16.25333,9.5067 l 9.2,-29.1333 c -5.82667,-1.84 -8.28,-2.4534 -11.34667,-2.4534 -5.52,0 -11.96,2.76 -20.24,8.5867 l -18.09333,13.1866 c 0.30667,-2.4533 0.92,-3.9866 0.92,-4.9066 2.45334,-10.12 2.76,-11.96 2.76,-13.4933 0,-1.84 -1.84,-3.3734 -3.98666,-3.3734 -3.98667,0 -30.97334,13.1867 -49.68,24.5333 l -0.92,8.28 c 16.56,-8.5866 18.4,-9.2 22.08,-9.2 3.98666,0 5.82666,2.1467 5.82666,6.44 0,4.2934 -3.06666,18.7067 -6.74666,31.8934 z"
         style="font-style:italic;font-variant:normal;font-weight:500;font-stretch:normal;font-size:306.66665649px;line-height:106.34667206px;font-family:'URW Chancery L';-inkscape-font-specification:'URW Chancery L, Medium Italic';font-variant-ligatures:normal;font-variant-caps:normal;font-variant-numeric:normal;font-feature-settings:normal;text-align:start;writing-mode:lr-tb;text-anchor:start;fill:#000078;fill-opacity:1"
         id="path4691"
         inkscape:connector-curvature="0" />
      <path
         d="m 974.98271,4956.4867 c -23,19.9333 -37.72,28.52 -49.37333,28.52 -7.66667,0 -14.10667,-5.2134 -16.25333,-13.1867 -1.22667,-4.9067 -1.53334,-8.28 -1.53334,-17.1733 13.8,-8.5867 23,-15.0267 41.09333,-28.52 16.56,-12.5734 23,-22.6934 23,-36.4934 0,-10.7333 -6.74666,-17.1733 -17.48,-17.1733 -6.74666,0 -11.65333,1.5334 -18.70666,5.52 -11.65333,6.7467 -22.08,15.0267 -28.52,22.3867 -11.65333,14.1066 -22.08,47.84 -22.08,72.68 0,18.0933 9.50667,29.44 25.14667,29.44 18.09333,0 40.47999,-12.88 64.70666,-37.1067 z m -66.24,-12.88 c 5.21334,-32.8134 19.32,-58.2667 32.50667,-58.2667 5.21333,0 8.58666,5.2133 8.58666,12.5733 0,15.3334 -8.28,24.5334 -41.09333,45.6934 z"
         style="font-style:italic;font-variant:normal;font-weight:500;font-stretch:normal;font-size:306.66665649px;line-height:106.34667206px;font-family:'URW Chancery L';-inkscape-font-specification:'URW Chancery L, Medium Italic';font-variant-ligatures:normal;font-variant-caps:normal;font-variant-numeric:normal;font-feature-settings:normal;text-align:start;writing-mode:lr-tb;text-anchor:start;fill:#000078;fill-opacity:1"
         id="path4693"
         inkscape:connector-curvature="0" />
      <path
         d="m 975.8548,4973.0467 c -0.30667,2.76 -0.61334,5.2133 -0.61334,7.0533 0,13.1867 9.2,22.3867 22.69334,22.3867 9.5067,0 22.6933,-3.9867 32.5067,-9.5067 18.0933,-10.4267 29.1333,-26.0667 29.1333,-41.4 0,-11.3467 -2.1467,-13.8 -19.32,-24.5333 -10.4267,-6.7467 -14.72,-12.5734 -14.72,-20.5467 0,-10.4267 8.8933,-19.6267 19.32,-19.6267 7.0533,0 12.2667,3.3734 19.0133,11.96 10.4267,-10.12 10.4267,-10.12 14.4134,-15.9466 -6.1334,-7.36 -11.96,-10.4267 -20.5467,-10.4267 -22.3867,0 -51.2133,26.68 -51.2133,46.92 0,9.5067 4.9066,16.8667 16.56,25.1467 15.3333,10.7333 17.48,13.4933 17.48,21.16 0,11.04 -14.1067,23.92 -26.0667,23.92 -6.7467,0 -11.96,-3.68 -15.02667,-10.4267 -2.14667,-4.6 -2.76,-9.2 -3.06667,-19.6267 -3.37333,2.4534 -5.82666,3.9867 -7.05333,4.9067 -2.45333,1.5333 -5.21333,3.0667 -7.97333,4.9067 z"
         style="font-style:italic;font-variant:normal;font-weight:500;font-stretch:normal;font-size:306.66665649px;line-height:106.34667206px;font-family:'URW Chancery L';-inkscape-font-specification:'URW Chancery L, Medium Italic';font-variant-ligatures:normal;font-variant-caps:normal;font-variant-numeric:normal;font-feature-settings:normal;text-align:start;writing-mode:lr-tb;text-anchor:start;fill:#000078;fill-opacity:1"
         id="path4695"
         inkscape:connector-curvature="0" />
      <path
         d="m 1222.7263,4958.94 c -4.2933,2.4533 -7.0533,4.2933 -8.28,4.9067 -22.08,13.8 -24.5333,15.0266 -28.8267,15.0266 -2.76,0 -5.52,-3.68 -5.52,-7.9733 v -2.76 -2.76 c 0,-5.52 13.8,-65.0133 25.1467,-108.2533 11.96,-45.08 14.72,-50.6 28.2133,-50.6 3.9867,0 7.0534,0.3067 15.0267,2.1467 l 13.1867,-16.2534 c -6.44,-1.5333 -9.8134,-1.84 -13.8,-1.84 -12.2667,0 -22.08,4.9067 -36.8,18.0934 -13.4934,12.2666 -16.8667,16.8666 -20.8534,27.9066 -2.4533,7.36 -9.2,32.2 -12.2666,45.6933 l -22.08,95.9867 c -0.3067,1.84 -0.6134,3.68 -0.6134,5.52 0,9.2 5.2134,18.7067 10.12,18.7067 h 1.84 0.92 c 3.0667,0 15.9467,-8.8934 54.5867,-36.8 z"
         style="font-style:italic;font-variant:normal;font-weight:500;font-stretch:normal;font-size:306.66665649px;line-height:106.34667206px;font-family:'URW Chancery L';-inkscape-font-specification:'URW Chancery L, Medium Italic';font-variant-ligatures:normal;font-variant-caps:normal;font-variant-numeric:normal;font-feature-settings:normal;text-align:start;writing-mode:lr-tb;text-anchor:start;fill:#000078;fill-opacity:1"
         id="path4697"
         inkscape:connector-curvature="0" />
      <path
         d="m 1353.1315,4958.6333 c -23,15.3334 -27.6,18.0934 -30.6666,18.0934 -2.1467,0 -3.68,-2.4534 -3.68,-6.1334 0,-7.9733 7.36,-41.7066 18.4,-82.4933 3.3733,-4.6 3.9866,-5.52 8.8933,-11.04 -14.72,-3.3733 -25.4533,-4.6 -38.64,-4.6 -12.5733,0 -18.4,1.2267 -26.3733,6.1334 -11.04,6.4399 -23.92,15.9466 -27.9067,20.2399 -11.3467,12.88 -24.2267,54.28 -24.2267,79.12 0,14.72 4.9067,24.5334 12.5734,24.5334 6.7466,0 16.8666,-6.1334 55.2,-33.7334 -3.0667,14.1067 -4.6,23.6134 -4.6,27.2934 0,3.9866 1.84,6.44 4.9066,6.44 3.68,0 3.68,0 28.2134,-15.64 8.8933,-5.8267 15.9466,-10.7334 27.6,-19.32 z m -59.8,1.84 c -18.0933,13.1867 -27.2933,18.4 -32.8133,18.4 -4.9067,0 -7.9733,-5.52 -7.9733,-15.3333 0,-15.3333 4.9066,-36.1867 12.5733,-53.6667 7.36,-16.8666 14.1067,-23.3066 24.5333,-23.3066 5.52,0 15.0267,1.5333 26.0667,3.9866 -6.1333,23.3067 -8.28,30.36 -8.5867,31.8934 -1.84,7.6666 -3.3733,15.3333 -5.2133,23.3066 -0.3067,1.5334 -1.2267,5.2134 -2.76,10.7334 z"
         style="font-style:italic;font-variant:normal;font-weight:500;font-stretch:normal;font-size:306.66665649px;line-height:106.34667206px;font-family:'URW Chancery L';-inkscape-font-specification:'URW Chancery L, Medium Italic';font-variant-ligatures:normal;font-variant-caps:normal;font-variant-numeric:normal;font-feature-settings:normal;text-align:start;writing-mode:lr-tb;text-anchor:start;fill:#000078;fill-opacity:1"
         id="path4699"
         inkscape:connector-curvature="0" />
      <path
         d="m 1405.2409,4847.0067 c 8.8933,-7.9733 9.5066,-8.5867 19.9333,-16.56 -1.84,-3.68 -3.3733,-6.1333 -3.9867,-7.0533 -1.84,-3.68 -2.1466,-3.9867 -4.6,-9.8134 -0.6133,-1.2266 -1.2266,-2.4533 -1.84,-3.9866 -1.5333,1.2266 -3.3733,2.4533 -4.2933,3.3733 -1.2267,1.2267 -3.68,3.0667 -6.7467,5.52 -1.5333,1.2267 -3.68,2.76 -6.44,4.6 -1.2266,0.92 -2.4533,1.84 -3.68,2.4533 2.1467,6.7467 4.9067,11.6534 11.6534,21.4667 z m 21.16,115.92 c -29.1334,15.64 -29.7467,15.9466 -33.7334,15.9466 -3.3733,0 -5.52,-3.3733 -5.52,-8.5866 0,-3.0667 0.92,-8.8934 2.76,-15.64 15.64,-64.4 18.7067,-76.6667 18.7067,-79.12 0,-1.84 -1.5333,-3.0667 -3.68,-3.0667 -5.2133,0 -23.3067,10.12 -48.4533,26.9867 l -0.6134,8.5866 c 18.0934,-9.8133 19.6267,-10.4266 22.3867,-10.4266 2.4533,0 3.68,1.84 3.68,5.52 0,3.9866 -0.92,8.28 -5.52,25.76 -14.4133,53.6666 -14.4133,53.6666 -14.4133,61.3333 0,7.36 3.0666,12.2667 7.36,12.2667 5.2133,0 13.4933,-3.9867 29.7466,-14.4134 5.8267,-3.68 11.6534,-7.36 17.48,-11.3466 2.76,-1.5334 5.52,-3.3734 8.5867,-5.2134 z"
         style="font-style:italic;font-variant:normal;font-weight:500;font-stretch:normal;font-size:306.66665649px;line-height:106.34667206px;font-family:'URW Chancery L';-inkscape-font-specification:'URW Chancery L, Medium Italic';font-variant-ligatures:normal;font-variant-caps:normal;font-variant-numeric:normal;font-feature-settings:normal;text-align:start;writing-mode:lr-tb;text-anchor:start;fill:#000078;fill-opacity:1"
         id="path4701"
         inkscape:connector-curvature="0" />
      <path
         d="m 1417.8861,4973.0467 c -0.3067,2.76 -0.6134,5.2133 -0.6134,7.0533 0,13.1867 9.2,22.3867 22.6934,22.3867 9.5066,0 22.6933,-3.9867 32.5066,-9.5067 18.0934,-10.4267 29.1334,-26.0667 29.1334,-41.4 0,-11.3467 -2.1467,-13.8 -19.32,-24.5333 -10.4267,-6.7467 -14.72,-12.5734 -14.72,-20.5467 0,-10.4267 8.8933,-19.6267 19.32,-19.6267 7.0533,0 12.2666,3.3734 19.0133,11.96 10.4267,-10.12 10.4267,-10.12 14.4133,-15.9466 -6.1333,-7.36 -11.96,-10.4267 -20.5466,-10.4267 -22.3867,0 -51.2134,26.68 -51.2134,46.92 0,9.5067 4.9067,16.8667 16.56,25.1467 15.3334,10.7333 17.48,13.4933 17.48,21.16 0,11.04 -14.1066,23.92 -26.0666,23.92 -6.7467,0 -11.96,-3.68 -15.0267,-10.4267 -2.1467,-4.6 -2.76,-9.2 -3.0667,-19.6267 -3.3733,2.4534 -5.8266,3.9867 -7.0533,4.9067 -2.4533,1.5333 -5.2133,3.0667 -7.9733,4.9067 z"
         style="font-style:italic;font-variant:normal;font-weight:500;font-stretch:normal;font-size:306.66665649px;line-height:106.34667206px;font-family:'URW Chancery L';-inkscape-font-specification:'URW Chancery L, Medium Italic';font-variant-ligatures:normal;font-variant-caps:normal;font-variant-numeric:normal;font-feature-settings:normal;text-align:start;writing-mode:lr-tb;text-anchor:start;fill:#000078;fill-opacity:1"
         id="path4703"
         inkscape:connector-curvature="0" />
      <path
         d="m 1516.1152,4973.0467 c -0.3067,2.76 -0.6133,5.2133 -0.6133,7.0533 0,13.1867 9.2,22.3867 22.6933,22.3867 9.5067,0 22.6933,-3.9867 32.5067,-9.5067 18.0933,-10.4267 29.1333,-26.0667 29.1333,-41.4 0,-11.3467 -2.1467,-13.8 -19.32,-24.5333 -10.4267,-6.7467 -14.72,-12.5734 -14.72,-20.5467 0,-10.4267 8.8933,-19.6267 19.32,-19.6267 7.0533,0 12.2667,3.3734 19.0133,11.96 10.4267,-10.12 10.4267,-10.12 14.4134,-15.9466 -6.1334,-7.36 -11.96,-10.4267 -20.5467,-10.4267 -22.3867,0 -51.2133,26.68 -51.2133,46.92 0,9.5067 4.9066,16.8667 16.56,25.1467 15.3333,10.7333 17.48,13.4933 17.48,21.16 0,11.04 -14.1067,23.92 -26.0667,23.92 -6.7467,0 -11.96,-3.68 -15.0267,-10.4267 -2.1466,-4.6 -2.76,-9.2 -3.0666,-19.6267 -3.3734,2.4534 -5.8267,3.9867 -7.0534,4.9067 -2.4533,1.5333 -5.2133,3.0667 -7.9733,4.9067 z"
         style="font-style:italic;font-variant:normal;font-weight:500;font-stretch:normal;font-size:306.66665649px;line-height:106.34667206px;font-family:'URW Chancery L';-inkscape-font-specification:'URW Chancery L, Medium Italic';font-variant-ligatures:normal;font-variant-caps:normal;font-variant-numeric:normal;font-feature-settings:normal;text-align:start;writing-mode:lr-tb;text-anchor:start;fill:#000078;fill-opacity:1"
         id="path4705"
         inkscape:connector-curvature="0" />
      <path
         d="m 1717.6911,4956.4867 c -23,19.9333 -37.72,28.52 -49.3733,28.52 -7.6667,0 -14.1067,-5.2134 -16.2534,-13.1867 -1.2266,-4.9067 -1.5333,-8.28 -1.5333,-17.1733 13.8,-8.5867 23,-15.0267 41.0933,-28.52 16.56,-12.5734 23,-22.6934 23,-36.4934 0,-10.7333 -6.7466,-17.1733 -17.48,-17.1733 -6.7466,0 -11.6533,1.5334 -18.7066,5.52 -11.6534,6.7467 -22.08,15.0267 -28.52,22.3867 -11.6534,14.1066 -22.08,47.84 -22.08,72.68 0,18.0933 9.5066,29.44 25.1466,29.44 18.0934,0 40.48,-12.88 64.7067,-37.1067 z m -66.24,-12.88 c 5.2133,-32.8134 19.32,-58.2667 32.5067,-58.2667 5.2133,0 8.5866,5.2133 8.5866,12.5733 0,15.3334 -8.28,24.5334 -41.0933,45.6934 z"
         style="font-style:italic;font-variant:normal;font-weight:500;font-stretch:normal;font-size:306.66665649px;line-height:106.34667206px;font-family:'URW Chancery L';-inkscape-font-specification:'URW Chancery L, Medium Italic';font-variant-ligatures:normal;font-variant-caps:normal;font-variant-numeric:normal;font-feature-settings:normal;text-align:start;writing-mode:lr-tb;text-anchor:start;fill:#000078;fill-opacity:1"
         id="path4707"
         inkscape:connector-curvature="0" />
      <path
         d="m 269.6638,5193.732 c 12.88,-6.44 18.70666,-8.8934 22.38666,-8.8934 2.45334,0 4.29333,2.4534 4.29333,5.8267 0,3.9867 -3.06666,17.1733 -8.58666,38.0267 -7.66667,28.52 -9.50667,37.1066 -9.50667,46 0,8.5866 3.68,15.0266 8.58667,15.0266 4.6,0 10.12,-2.76 25.45333,-12.88 l 31.58667,-20.5466 c -2.45334,9.8133 -4.29334,20.8533 -4.29334,26.3733 0,3.9867 2.45334,7.0533 5.52,7.0533 6.13334,0 35.26667,-17.1733 56.12,-32.8133 l 2.14667,-9.2 c -23.92,14.1067 -31.89333,18.4 -35.26667,18.4 -2.14666,0 -3.37333,-2.4533 -3.37333,-7.36 0,-15.64 11.34667,-61.3333 24.53333,-100.28 -3.98666,2.1467 -6.74666,3.68 -7.97333,4.2934 -3.68,1.84 -7.36,3.68 -11.34667,5.52 -0.92,0.3066 -2.76,1.2266 -6.13333,3.0666 -1.84,7.0533 -7.97333,31.5867 -18.09333,73.9067 -23.61334,16.2533 -34.34667,22.3866 -38.02667,22.3866 -3.37333,0 -5.82667,-4.2933 -5.82667,-10.12 0,-7.0533 2.45334,-19.32 7.66667,-38.9466 3.37333,-12.2667 5.52,-20.8534 6.44,-25.1467 2.76,-11.3467 4.90667,-19.32 5.52,-21.4666 0.92,-3.3734 1.53333,-6.1334 1.53333,-8.28 0,-2.4534 -1.53333,-3.9867 -3.68,-3.9867 -3.06666,0 -25.45333,11.96 -47.53333,25.76 z"
         style="font-style:italic;font-variant:normal;font-weight:500;font-stretch:normal;font-size:306.66665649px;line-height:106.34667206px;font-family:'URW Chancery L';-inkscape-font-specification:'URW Chancery L, Medium Italic';font-variant-ligatures:normal;font-variant-caps:normal;font-variant-numeric:normal;font-feature-settings:normal;text-align:start;writing-mode:lr-tb;text-anchor:start;fill:#000078;fill-opacity:1"
         id="path4709"
         inkscape:connector-curvature="0" />
      <path
         d="m 436.16462,5279.9053 18.09333,-72.0667 c 38.33333,-24.2266 39.25333,-24.5333 43.54667,-24.5333 2.14666,0 3.37333,1.5333 3.37333,3.9867 0,4.6 -2.45333,16.2533 -11.34667,51.2133 -6.74666,27.2933 -7.97333,32.5067 -7.97333,38.3333 0,4.2934 1.22667,8.28 4.6,13.8 14.10667,-6.44 35.26667,-19.6266 56.73333,-35.5733 l 2.14667,-8.5867 c -30.66667,17.48 -31.89333,18.0934 -34.96,18.0934 -3.06667,0 -4.90667,-3.3734 -4.90667,-8.28 0,-6.44 2.14667,-16.56 7.97334,-37.72 14.41333,-51.52 14.41333,-51.52 14.41333,-53.6667 0,-3.3733 -2.14667,-5.2133 -6.13333,-5.2133 -4.6,0 -11.34667,2.76 -22.38667,9.8133 l -42.01333,26.0667 c 2.76,-10.12 7.36,-29.44 7.36,-31.8933 0,-2.1467 -1.84,-3.9867 -3.98667,-3.9867 -3.37333,0 -25.45333,11.3467 -48.14666,24.84 l -1.84,7.9733 c 19.62666,-8.8933 20.85333,-9.2 23.61333,-9.2 2.14666,0 3.68,1.84 3.68,4.2933 0,6.44 -5.82667,31.8934 -13.49333,59.8 l -7.05334,24.84 c -0.61333,2.1467 -2.14666,7.9734 -4.29333,16.56 z"
         style="font-style:italic;font-variant:normal;font-weight:500;font-stretch:normal;font-size:306.66665649px;line-height:106.34667206px;font-family:'URW Chancery L';-inkscape-font-specification:'URW Chancery L, Medium Italic';font-variant-ligatures:normal;font-variant-caps:normal;font-variant-numeric:normal;font-feature-settings:normal;text-align:start;writing-mode:lr-tb;text-anchor:start;fill:#000078;fill-opacity:1"
         id="path4711"
         inkscape:connector-curvature="0" />
      <path
         d="m 643.75877,5243.7186 c -23,19.9334 -37.72,28.52 -49.37333,28.52 -7.66667,0 -14.10667,-5.2133 -16.25333,-13.1866 -1.22667,-4.9067 -1.53334,-8.28 -1.53334,-17.1734 13.8,-8.5866 23,-15.0266 41.09334,-28.52 16.56,-12.5733 23,-22.6933 23,-36.4933 0,-10.7333 -6.74667,-17.1733 -17.48,-17.1733 -6.74667,0 -11.65334,1.5333 -18.70667,5.52 -11.65333,6.7467 -22.08,15.0266 -28.52,22.3866 -11.65333,14.1067 -22.08,47.84 -22.08,72.68 0,18.0934 9.50667,29.44 25.14667,29.44 18.09333,0 40.48,-12.88 64.70666,-37.1066 z m -66.24,-12.88 c 5.21334,-32.8133 19.32,-58.2666 32.50667,-58.2666 5.21333,0 8.58667,5.2133 8.58667,12.5733 0,15.3333 -8.28,24.5333 -41.09334,45.6933 z"
         style="font-style:italic;font-variant:normal;font-weight:500;font-stretch:normal;font-size:306.66665649px;line-height:106.34667206px;font-family:'URW Chancery L';-inkscape-font-specification:'URW Chancery L, Medium Italic';font-variant-ligatures:normal;font-variant-caps:normal;font-variant-numeric:normal;font-feature-settings:normal;text-align:start;writing-mode:lr-tb;text-anchor:start;fill:#000078;fill-opacity:1"
         id="path4713"
         inkscape:connector-curvature="0" />
      <path
         d="m 820.87314,5218.572 c 1.22666,-6.7467 2.76,-12.5734 3.98666,-17.48 l 4.6,-17.1734 c 0.61334,-2.76 1.22667,-4.9066 1.53334,-6.7466 5.52,-1.5333 5.82666,-1.5333 15.64,-17.1733 -25.14667,0.6133 -32.2,0.6133 -35.57334,0.6133 -18.70666,0.3067 -23.92,1.2267 -33.11999,6.7467 -14.72,9.2 -25.14667,17.7866 -31.58667,26.0666 -9.2,11.96 -20.24,49.0667 -20.24,67.7733 0,7.6667 1.84,13.1867 6.74667,19.9334 l -35.26667,30.36 c -15.33333,13.4933 -22.38666,23.6133 -22.38666,32.2 0,11.3466 13.49333,17.7866 36.79999,17.7866 28.21334,0 50.29334,-7.9733 70.84,-25.76 13.18667,-11.3466 16.25333,-17.7866 22.69333,-48.1466 z m -40.17333,84.0266 c -3.98667,18.4 -6.74667,25.4534 -12.26667,31.28 -6.74667,7.6667 -19.32,11.6534 -37.41333,11.6534 -19.93334,0 -30.66667,-5.52 -30.66667,-15.3334 0,-12.5733 8.28,-20.24 93.53333,-85.56 z m 35.87999,-125.7333 h 9.81334 c -1.53334,1.2267 -3.37334,2.76 -4.90667,3.68 -9.81333,7.0533 -11.96,9.8133 -14.72,17.1733 -2.76,8.8934 -6.13333,20.8534 -10.12,35.88 -6.13333,3.9867 -13.49333,9.5067 -39.25333,28.8267 -5.52,-5.52 -7.66667,-10.4267 -7.66667,-17.7867 0,-10.4266 7.36,-37.1066 13.8,-51.8266 6.13334,-12.5734 12.57334,-15.64 34.96,-15.64 2.14667,0 5.82667,0 9.81333,-0.3067 z"
         style="font-style:italic;font-variant:normal;font-weight:500;font-stretch:normal;font-size:306.66665649px;line-height:106.34667206px;font-family:'URW Chancery L';-inkscape-font-specification:'URW Chancery L, Medium Italic';font-variant-ligatures:normal;font-variant-caps:normal;font-variant-numeric:normal;font-feature-settings:normal;text-align:start;writing-mode:lr-tb;text-anchor:start;fill:#000078;fill-opacity:1"
         id="path4715"
         inkscape:connector-curvature="0" />
      <path
         d="m 849.51294,5288.7986 23.61333,-8.8933 23,-87.4 c 10.42667,-7.6667 17.48,-10.7333 25.76,-10.7333 6.74667,0 10.73334,2.4533 16.25334,9.5066 l 9.2,-29.1333 c -5.82667,-1.84 -8.28,-2.4533 -11.34667,-2.4533 -5.52,0 -11.96,2.76 -20.24,8.5867 l -18.09333,13.1866 c 0.30666,-2.4533 0.92,-3.9866 0.92,-4.9066 2.45333,-10.12 2.76,-11.96 2.76,-13.4934 0,-1.84 -1.84,-3.3733 -3.98667,-3.3733 -3.98667,0 -30.97333,13.1867 -49.68,24.5333 l -0.92,8.28 c 16.56,-8.5867 18.4,-9.2 22.08,-9.2 3.98667,0 5.82667,2.1467 5.82667,6.44 0,4.2933 -3.06667,18.7067 -6.74667,31.8933 z"
         style="font-style:italic;font-variant:normal;font-weight:500;font-stretch:normal;font-size:306.66665649px;line-height:106.34667206px;font-family:'URW Chancery L';-inkscape-font-specification:'URW Chancery L, Medium Italic';font-variant-ligatures:normal;font-variant-caps:normal;font-variant-numeric:normal;font-feature-settings:normal;text-align:start;writing-mode:lr-tb;text-anchor:start;fill:#000078;fill-opacity:1"
         id="path4717"
         inkscape:connector-curvature="0" />
      <path
         d="m 1065.0325,5245.8653 c -23,15.3333 -27.6,18.0933 -30.6667,18.0933 -2.1466,0 -3.68,-2.4533 -3.68,-6.1333 0,-7.9733 7.36,-41.7067 18.4001,-82.4933 3.3733,-4.6 3.9866,-5.52 8.8933,-11.04 -14.72,-3.3733 -25.4534,-4.6 -38.64,-4.6 -12.5734,0 -18.4,1.2267 -26.37336,6.1333 -11.04,6.44 -23.92,15.9467 -27.90667,20.24 -11.34667,12.88 -24.22666,54.28 -24.22666,79.12 0,14.72 4.90666,24.5333 12.57333,24.5333 6.74666,0 16.86666,-6.1333 55.19996,-33.7333 -3.0666,14.1067 -4.6,23.6133 -4.6,27.2933 0,3.9867 1.84,6.44 4.9067,6.44 3.68,0 3.68,0 28.2133,-15.64 8.8934,-5.8266 15.9467,-10.7333 27.6001,-19.32 z m -59.8,1.84 c -18.09333,13.1867 -27.29333,18.4 -32.81333,18.4 -4.90667,0 -7.97333,-5.52 -7.97333,-15.3333 0,-15.3334 4.90666,-36.1867 12.57333,-53.6667 7.36,-16.8667 14.10667,-23.3066 24.53333,-23.3066 5.52,0 15.0267,1.5333 26.0667,3.9866 -6.1334,23.3067 -8.28,30.36 -8.5867,31.8933 -1.84,7.6667 -3.3733,15.3334 -5.2133,23.3067 -0.3067,1.5333 -1.2267,5.2133 -2.76,10.7333 z"
         style="font-style:italic;font-variant:normal;font-weight:500;font-stretch:normal;font-size:306.66665649px;line-height:106.34667206px;font-family:'URW Chancery L';-inkscape-font-specification:'URW Chancery L, Medium Italic';font-variant-ligatures:normal;font-variant-caps:normal;font-variant-numeric:normal;font-feature-settings:normal;text-align:start;writing-mode:lr-tb;text-anchor:start;fill:#000078;fill-opacity:1"
         id="path4719"
         inkscape:connector-curvature="0" />
      <path
         d="m 1117.1419,5134.2387 c 8.8934,-7.9734 9.5067,-8.5867 19.9334,-16.56 -1.84,-3.68 -3.3734,-6.1334 -3.9867,-7.0534 -1.84,-3.68 -2.1467,-3.9866 -4.6,-9.8133 -0.6133,-1.2267 -1.2267,-2.4533 -1.84,-3.9867 -1.5333,1.2267 -3.3733,2.4534 -4.2933,3.3734 -1.2267,1.2266 -3.68,3.0666 -6.7467,5.52 -1.5333,1.2266 -3.68,2.76 -6.44,4.6 -1.2267,0.92 -2.4533,1.84 -3.68,2.4533 2.1467,6.7467 4.9067,11.6533 11.6533,21.4667 z m 21.16,115.9199 c -29.1333,15.64 -29.7466,15.9467 -33.7333,15.9467 -3.3733,0 -5.52,-3.3733 -5.52,-8.5867 0,-3.0666 0.92,-8.8933 2.76,-15.64 15.64,-64.3999 18.7067,-76.6666 18.7067,-79.1199 0,-1.84 -1.5334,-3.0667 -3.68,-3.0667 -5.2134,0 -23.3067,10.12 -48.4534,26.9866 l -0.6133,8.5867 c 18.0933,-9.8133 19.6267,-10.4267 22.3867,-10.4267 2.4533,0 3.68,1.84 3.68,5.52 0,3.9867 -0.92,8.28 -5.52,25.76 -14.4134,53.6667 -14.4134,53.6667 -14.4134,61.3334 0,7.36 3.0667,12.2666 7.36,12.2666 5.2134,0 13.4934,-3.9866 29.7467,-14.4133 5.8267,-3.68 11.6533,-7.36 17.48,-11.3467 2.76,-1.5333 5.52,-3.3733 8.5867,-5.2133 z"
         style="font-style:italic;font-variant:normal;font-weight:500;font-stretch:normal;font-size:306.66665649px;line-height:106.34667206px;font-family:'URW Chancery L';-inkscape-font-specification:'URW Chancery L, Medium Italic';font-variant-ligatures:normal;font-variant-caps:normal;font-variant-numeric:normal;font-feature-settings:normal;text-align:start;writing-mode:lr-tb;text-anchor:start;fill:#000078;fill-opacity:1"
         id="path4721"
         inkscape:connector-curvature="0" />
      <path
         d="m 1166.8938,5279.9053 18.0933,-72.0667 c 38.3334,-24.2266 39.2534,-24.5333 43.5467,-24.5333 2.1467,0 3.3733,1.5333 3.3733,3.9867 0,4.6 -2.4533,16.2533 -11.3466,51.2133 -6.7467,27.2933 -7.9734,32.5067 -7.9734,38.3333 0,4.2934 1.2267,8.28 4.6,13.8 14.1067,-6.44 35.2667,-19.6266 56.7334,-35.5733 l 2.1466,-8.5867 c -30.6666,17.48 -31.8933,18.0934 -34.96,18.0934 -3.0666,0 -4.9066,-3.3734 -4.9066,-8.28 0,-6.44 2.1466,-16.56 7.9733,-37.72 14.4133,-51.52 14.4133,-51.52 14.4133,-53.6667 0,-3.3733 -2.1466,-5.2133 -6.1333,-5.2133 -4.6,0 -11.3467,2.76 -22.3867,9.8133 l -42.0133,26.0667 c 2.76,-10.12 7.36,-29.44 7.36,-31.8933 0,-2.1467 -1.84,-3.9867 -3.9867,-3.9867 -3.3733,0 -25.4533,11.3467 -48.1466,24.84 l -1.84,7.9733 c 19.6266,-8.8933 20.8533,-9.2 23.6133,-9.2 2.1467,0 3.68,1.84 3.68,4.2933 0,6.44 -5.8267,31.8934 -13.4933,59.8 l -7.0534,24.84 c -0.6133,2.1467 -2.1466,7.9734 -4.2933,16.56 z"
         style="font-style:italic;font-variant:normal;font-weight:500;font-stretch:normal;font-size:306.66665649px;line-height:106.34667206px;font-family:'URW Chancery L';-inkscape-font-specification:'URW Chancery L, Medium Italic';font-variant-ligatures:normal;font-variant-caps:normal;font-variant-numeric:normal;font-feature-settings:normal;text-align:start;writing-mode:lr-tb;text-anchor:start;fill:#000078;fill-opacity:1"
         id="path4723"
         inkscape:connector-curvature="0" />
      <path
         d="m 1374.4879,5243.7186 c -23,19.9334 -37.72,28.52 -49.3733,28.52 -7.6667,0 -14.1067,-5.2133 -16.2533,-13.1866 -1.2267,-4.9067 -1.5334,-8.28 -1.5334,-17.1734 13.8,-8.5866 23,-15.0266 41.0934,-28.52 16.56,-12.5733 23,-22.6933 23,-36.4933 0,-10.7333 -6.7467,-17.1733 -17.48,-17.1733 -6.7467,0 -11.6534,1.5333 -18.7067,5.52 -11.6533,6.7467 -22.08,15.0266 -28.52,22.3866 -11.6533,14.1067 -22.08,47.84 -22.08,72.68 0,18.0934 9.5067,29.44 25.1467,29.44 18.0933,0 40.48,-12.88 64.7066,-37.1066 z m -66.24,-12.88 c 5.2134,-32.8133 19.32,-58.2666 32.5067,-58.2666 5.2133,0 8.5867,5.2133 8.5867,12.5733 0,15.3333 -8.28,24.5333 -41.0934,45.6933 z"
         style="font-style:italic;font-variant:normal;font-weight:500;font-stretch:normal;font-size:306.66665649px;line-height:106.34667206px;font-family:'URW Chancery L';-inkscape-font-specification:'URW Chancery L, Medium Italic';font-variant-ligatures:normal;font-variant-caps:normal;font-variant-numeric:normal;font-feature-settings:normal;text-align:start;writing-mode:lr-tb;text-anchor:start;fill:#000078;fill-opacity:1"
         id="path4725"
         inkscape:connector-curvature="0" />
      <path
         d="m 1479.8423,5350.4386 -10.12,10.12 c 15.0267,0.92 36.4933,1.5334 52.1333,1.5334 4.2934,0 11.96,-0.3067 21.4667,-0.6134 l 9.5067,-7.36 -30.0534,-1.84 c 0.92,-5.2133 2.1467,-10.12 3.0667,-15.0266 l 7.6667,-32.8134 24.2266,-104.5733 6.44,-23.6133 14.4134,-13.4933 c -1.5334,-0.3067 -3.0667,-0.92 -3.3734,-0.92 l -3.9866,-1.2267 c -0.3067,0 -1.5334,-0.3067 -3.0667,-0.6133 l 6.1333,-20.24 -3.0666,-0.92 c -8.8934,9.5066 -14.1067,14.72 -21.7734,21.16 -3.0666,-0.3067 -6.1333,-0.3067 -7.36,-0.3067 -10.12,0 -21.4666,1.5333 -26.68,3.3733 -7.6666,3.0667 -25.1466,15.3333 -34.3466,24.2267 -11.3467,11.04 -24.5333,52.7466 -24.5333,77.5866 0,11.6534 7.3599,24.84 13.7999,24.84 4.6,0 18.7067,-8.28 43.5467,-26.3733 5.52,-3.9867 8.8933,-6.44 10.12,-7.0533 -1.5333,5.52 -2.4533,9.5066 -2.76,10.12 -6.44,28.8266 -10.7333,46.6133 -12.5733,53.9733 l -7.6667,30.0533 h -7.36 -7.6667 z m 47.2267,-106.72 c -29.44,19.0134 -34.96,22.3867 -38.9467,22.3867 -5.52,0 -9.5067,-7.0533 -9.5067,-16.2533 0,-11.96 3.3734,-27.6 9.5067,-46.92 7.36,-21.4667 13.4933,-26.0667 37.1067,-26.0667 6.44,0 10.12,0.3067 18.0933,1.2267 z"
         style="font-style:italic;font-variant:normal;font-weight:500;font-stretch:normal;font-size:306.66665649px;line-height:106.34667206px;font-family:'URW Chancery L';-inkscape-font-specification:'URW Chancery L, Medium Italic';font-variant-ligatures:normal;font-variant-caps:normal;font-variant-numeric:normal;font-feature-settings:normal;text-align:start;writing-mode:lr-tb;text-anchor:start;fill:#000078;fill-opacity:1"
         id="path4727"
         inkscape:connector-curvature="0" />
      <path
         d="m 1577.7888,5193.732 c 12.88,-6.44 18.7067,-8.8934 22.3867,-8.8934 2.4533,0 4.2933,2.4534 4.2933,5.8267 0,3.9867 -3.0667,17.1733 -8.5867,38.0267 -7.6666,28.52 -9.5066,37.1066 -9.5066,46 0,8.5866 3.68,15.0266 8.5866,15.0266 4.6,0 10.12,-2.76 25.4534,-12.88 l 31.5866,-20.5466 c -2.4533,9.8133 -4.2933,20.8533 -4.2933,26.3733 0,3.9867 2.4533,7.0533 5.52,7.0533 6.1333,0 35.2667,-17.1733 56.12,-32.8133 l 2.1467,-9.2 c -23.92,14.1067 -31.8934,18.4 -35.2667,18.4 -2.1467,0 -3.3733,-2.4533 -3.3733,-7.36 0,-15.64 11.3466,-61.3333 24.5333,-100.28 -3.9867,2.1467 -6.7467,3.68 -7.9733,4.2934 -3.68,1.84 -7.36,3.68 -11.3467,5.52 -0.92,0.3066 -2.76,1.2266 -6.1333,3.0666 -1.84,7.0533 -7.9734,31.5867 -18.0934,73.9067 -23.6133,16.2533 -34.3466,22.3866 -38.0266,22.3866 -3.3734,0 -5.8267,-4.2933 -5.8267,-10.12 0,-7.0533 2.4533,-19.32 7.6667,-38.9466 3.3733,-12.2667 5.52,-20.8534 6.44,-25.1467 2.76,-11.3467 4.9066,-19.32 5.52,-21.4666 0.92,-3.3734 1.5333,-6.1334 1.5333,-8.28 0,-2.4534 -1.5333,-3.9867 -3.68,-3.9867 -3.0667,0 -25.4533,11.96 -47.5333,25.76 z"
         style="font-style:italic;font-variant:normal;font-weight:500;font-stretch:normal;font-size:306.66665649px;line-height:106.34667206px;font-family:'URW Chancery L';-inkscape-font-specification:'URW Chancery L, Medium Italic';font-variant-ligatures:normal;font-variant-caps:normal;font-variant-numeric:normal;font-feature-settings:normal;text-align:start;writing-mode:lr-tb;text-anchor:start;fill:#000078;fill-opacity:1"
         id="path4729"
         inkscape:connector-curvature="0" />
      <path
         d="m 1768.2096,5134.2387 c 8.8933,-7.9734 9.5067,-8.5867 19.9333,-16.56 -1.84,-3.68 -3.3733,-6.1334 -3.9866,-7.0534 -1.84,-3.68 -2.1467,-3.9866 -4.6,-9.8133 -0.6134,-1.2267 -1.2267,-2.4533 -1.84,-3.9867 -1.5334,1.2267 -3.3734,2.4534 -4.2934,3.3734 -1.2266,1.2266 -3.68,3.0666 -6.7466,5.52 -1.5334,1.2266 -3.68,2.76 -6.44,4.6 -1.2267,0.92 -2.4534,1.84 -3.68,2.4533 2.1466,6.7467 4.9066,11.6533 11.6533,21.4667 z m 21.16,115.9199 c -29.1333,15.64 -29.7467,15.9467 -33.7333,15.9467 -3.3734,0 -5.52,-3.3733 -5.52,-8.5867 0,-3.0666 0.92,-8.8933 2.76,-15.64 15.64,-64.3999 18.7066,-76.6666 18.7066,-79.1199 0,-1.84 -1.5333,-3.0667 -3.68,-3.0667 -5.2133,0 -23.3066,10.12 -48.4533,26.9866 l -0.6133,8.5867 c 18.0933,-9.8133 19.6266,-10.4267 22.3866,-10.4267 2.4534,0 3.68,1.84 3.68,5.52 0,3.9867 -0.92,8.28 -5.52,25.76 -14.4133,53.6667 -14.4133,53.6667 -14.4133,61.3334 0,7.36 3.0667,12.2666 7.36,12.2666 5.2133,0 13.4933,-3.9866 29.7467,-14.4133 5.8266,-3.68 11.6533,-7.36 17.48,-11.3467 2.76,-1.5333 5.52,-3.3733 8.5866,-5.2133 z"
         style="font-style:italic;font-variant:normal;font-weight:500;font-stretch:normal;font-size:306.66665649px;line-height:106.34667206px;font-family:'URW Chancery L';-inkscape-font-specification:'URW Chancery L, Medium Italic';font-variant-ligatures:normal;font-variant-caps:normal;font-variant-numeric:normal;font-feature-settings:normal;text-align:start;writing-mode:lr-tb;text-anchor:start;fill:#000078;fill-opacity:1"
         id="path4731"
         inkscape:connector-curvature="0" />
      <path
         d="m 366.26379,5505.804 c 1.22667,-6.7466 2.76,-12.5733 3.98667,-17.48 l 4.6,-17.1733 c 0.61333,-2.76 1.22667,-4.9067 1.53333,-6.7467 5.52,-1.5333 5.82667,-1.5333 15.64,-17.1733 -25.14666,0.6133 -32.2,0.6133 -35.57333,0.6133 -18.70667,0.3067 -23.92,1.2267 -33.12,6.7467 -14.72,9.2 -25.14667,17.7867 -31.58666,26.0667 -9.2,11.96 -20.24,49.0666 -20.24,67.7733 0,7.6667 1.84,13.1867 6.74666,19.9333 l -35.26666,30.36 c -15.33334,13.4934 -22.38667,23.6133 -22.38667,32.2 0,11.3467 13.49333,17.7867 36.8,17.7867 28.21333,0 50.29333,-7.9734 70.84,-25.76 13.18666,-11.3467 16.25333,-17.7867 22.69333,-48.1467 z m -40.17333,84.0267 c -3.98667,18.4 -6.74667,25.4533 -12.26667,31.28 -6.74666,7.6666 -19.31999,11.6533 -37.41333,11.6533 -19.93333,0 -30.66666,-5.52 -30.66666,-15.3333 0,-12.5733 8.28,-20.24 93.53333,-85.56 z m 35.88,-125.7333 h 9.81333 c -1.53333,1.2266 -3.37333,2.76 -4.90666,3.68 -9.81334,7.0533 -11.96,9.8133 -14.72,17.1733 -2.76,8.8933 -6.13334,20.8533 -10.12,35.88 -6.13334,3.9867 -13.49334,9.5067 -39.25334,28.8267 -5.52,-5.52 -7.66666,-10.4267 -7.66666,-17.7867 0,-10.4267 7.36,-37.1067 13.8,-51.8267 6.13333,-12.5733 12.57333,-15.64 34.96,-15.64 2.14666,0 5.82666,0 9.81333,-0.3066 z"
         style="font-style:italic;font-variant:normal;font-weight:500;font-stretch:normal;font-size:306.66665649px;line-height:106.34667206px;font-family:'URW Chancery L';-inkscape-font-specification:'URW Chancery L, Medium Italic';font-variant-ligatures:normal;font-variant-caps:normal;font-variant-numeric:normal;font-feature-settings:normal;text-align:start;writing-mode:lr-tb;text-anchor:start;fill:#000078;fill-opacity:1"
         id="path4733"
         inkscape:connector-curvature="0" />
      <path
         d="m 483.83691,5530.9507 c -23,19.9333 -37.72,28.52 -49.37333,28.52 -7.66667,0 -14.10667,-5.2133 -16.25333,-13.1867 -1.22667,-4.9066 -1.53334,-8.28 -1.53334,-17.1733 13.8,-8.5867 23,-15.0267 41.09334,-28.52 16.56,-12.5733 23,-22.6933 23,-36.4933 0,-10.7334 -6.74667,-17.1734 -17.48,-17.1734 -6.74667,0 -11.65334,1.5334 -18.70667,5.52 -11.65333,6.7467 -22.08,15.0267 -28.52,22.3867 -11.65333,14.1067 -22.08,47.84 -22.08,72.68 0,18.0933 9.50667,29.44 25.14667,29.44 18.09333,0 40.48,-12.88 64.70666,-37.1067 z m -66.24,-12.88 c 5.21334,-32.8133 19.32,-58.2667 32.50667,-58.2667 5.21333,0 8.58667,5.2134 8.58667,12.5734 0,15.3333 -8.28,24.5333 -41.09334,45.6933 z"
         style="font-style:italic;font-variant:normal;font-weight:500;font-stretch:normal;font-size:306.66665649px;line-height:106.34667206px;font-family:'URW Chancery L';-inkscape-font-specification:'URW Chancery L, Medium Italic';font-variant-ligatures:normal;font-variant-caps:normal;font-variant-numeric:normal;font-feature-settings:normal;text-align:start;writing-mode:lr-tb;text-anchor:start;fill:#000078;fill-opacity:1"
         id="path4735"
         inkscape:connector-curvature="0" />
      <path
         d="m 499.12233,5576.0307 23.61333,-8.8933 23,-87.4 c 10.42667,-7.6667 17.48,-10.7334 25.76,-10.7334 6.74667,0 10.73334,2.4534 16.25334,9.5067 l 9.2,-29.1333 c -5.82667,-1.84 -8.28,-2.4534 -11.34667,-2.4534 -5.52,0 -11.96,2.76 -20.24,8.5867 l -18.09333,13.1867 c 0.30666,-2.4534 0.92,-3.9867 0.92,-4.9067 2.45333,-10.12 2.76,-11.96 2.76,-13.4933 0,-1.84 -1.84,-3.3734 -3.98667,-3.3734 -3.98667,0 -30.97333,13.1867 -49.68,24.5334 l -0.92,8.28 c 16.56,-8.5867 18.4,-9.2 22.08,-9.2 3.98667,0 5.82667,2.1466 5.82667,6.44 0,4.2933 -3.06667,18.7066 -6.74667,31.8933 z"
         style="font-style:italic;font-variant:normal;font-weight:500;font-stretch:normal;font-size:306.66665649px;line-height:106.34667206px;font-family:'URW Chancery L';-inkscape-font-specification:'URW Chancery L, Medium Italic';font-variant-ligatures:normal;font-variant-caps:normal;font-variant-numeric:normal;font-feature-settings:normal;text-align:start;writing-mode:lr-tb;text-anchor:start;fill:#000078;fill-opacity:1"
         id="path4737"
         inkscape:connector-curvature="0" />
      <path
         d="m 613.74858,5567.7507 19.62666,-74.52 c 20.54667,-13.8 33.12,-21.16 37.10667,-21.16 2.45333,0 3.98666,2.76 3.98666,6.7467 0,9.2 -11.65333,55.8133 -24.53333,97.2133 l 23.30667,-8.28 19.01333,-76.6667 c 17.78667,-11.3466 34.34667,-20.5466 38.02667,-20.5466 2.45333,0 3.98666,2.1466 3.98666,5.8266 0,6.7467 -2.76,19.32 -11.04,52.1334 -4.90666,19.0133 -6.44,26.68 -6.44,33.7333 0,6.44 1.84,9.8133 7.36,13.8 18.09334,-8.8933 33.42667,-18.7067 52.13333,-33.4267 v -7.0533 c -3.06666,1.5333 -6.44,3.68 -10.42666,6.44 -11.04,7.0533 -16.25333,9.5067 -19.93333,9.5067 -3.37334,0 -5.52,-3.0667 -5.52,-8.28 0,-6.7467 3.98666,-24.2267 10.12,-45.6934 9.19999,-31.5866 11.65333,-41.4 11.65333,-46 0,-3.0666 -1.84,-4.6 -4.90667,-4.6 -5.52,0 -24.53333,9.8134 -61.94666,31.8934 0.92,-3.3734 1.22666,-5.8267 1.53333,-7.0534 3.68,-15.3333 4.6,-19.6266 4.6,-21.4666 0,-2.1467 -1.53333,-3.3734 -3.98667,-3.3734 -4.6,0 -20.54666,8.5867 -51.21333,28.2134 l -9.81333,6.1333 c 5.52,-22.3867 6.74667,-27.9067 6.74667,-30.0533 0,-2.4534 -1.84,-4.2934 -4.6,-4.2934 -3.68,0 -27.90667,13.1867 -47.84,25.76 l -2.14667,8.5867 c 16.86667,-8.28 19.32,-9.2 22.69333,-9.2 2.76,0 4.6,2.4533 4.6,5.8267 0,4.9066 -11.04,50.2933 -23.92,98.1333 z"
         style="font-style:italic;font-variant:normal;font-weight:500;font-stretch:normal;font-size:306.66665649px;line-height:106.34667206px;font-family:'URW Chancery L';-inkscape-font-specification:'URW Chancery L, Medium Italic';font-variant-ligatures:normal;font-variant-caps:normal;font-variant-numeric:normal;font-feature-settings:normal;text-align:start;writing-mode:lr-tb;text-anchor:start;fill:#000078;fill-opacity:1"
         id="path4739"
         inkscape:connector-curvature="0" />
      <path
         d="m 870.16502,5530.9507 c -23,19.9333 -37.72,28.52 -49.37333,28.52 -7.66667,0 -14.10667,-5.2133 -16.25333,-13.1867 -1.22667,-4.9066 -1.53334,-8.28 -1.53334,-17.1733 13.8,-8.5867 23,-15.0267 41.09334,-28.52 16.56,-12.5733 23,-22.6933 23,-36.4933 0,-10.7334 -6.74667,-17.1734 -17.48,-17.1734 -6.74667,0 -11.65334,1.5334 -18.70667,5.52 -11.65333,6.7467 -22.08,15.0267 -28.52,22.3867 -11.65333,14.1067 -22.08,47.84 -22.08,72.68 0,18.0933 9.50667,29.44 25.14667,29.44 18.09333,0 40.48,-12.88 64.70666,-37.1067 z m -66.24,-12.88 c 5.21334,-32.8133 19.32,-58.2667 32.50667,-58.2667 5.21333,0 8.58667,5.2134 8.58667,12.5734 0,15.3333 -8.28,24.5333 -41.09334,45.6933 z"
         style="font-style:italic;font-variant:normal;font-weight:500;font-stretch:normal;font-size:306.66665649px;line-height:106.34667206px;font-family:'URW Chancery L';-inkscape-font-specification:'URW Chancery L, Medium Italic';font-variant-ligatures:normal;font-variant-caps:normal;font-variant-numeric:normal;font-feature-settings:normal;text-align:start;writing-mode:lr-tb;text-anchor:start;fill:#000078;fill-opacity:1"
         id="path4741"
         inkscape:connector-curvature="0" />
      <path
         d="m 898.94377,5545.6707 -8.27999,6.44 c 2.45333,6.7467 8.58666,16.56 14.41333,23.6133 11.65333,-8.5866 14.41333,-10.7333 22.69333,-19.32 -3.68,-5.2133 -6.74667,-10.12 -7.05333,-10.4266 -2.14667,-3.3734 -3.68,-5.8267 -7.36,-12.2667 -0.92,0.92 -2.45334,2.1467 -4.29334,3.68 -2.45333,1.84 -4.90666,3.9867 -7.36,6.1333 z"
         style="font-style:italic;font-variant:normal;font-weight:500;font-stretch:normal;font-size:306.66665649px;line-height:106.34667206px;font-family:'URW Chancery L';-inkscape-font-specification:'URW Chancery L, Medium Italic';font-variant-ligatures:normal;font-variant-caps:normal;font-variant-numeric:normal;font-feature-settings:normal;text-align:start;writing-mode:lr-tb;text-anchor:start;fill:#000078;fill-opacity:1"
         id="path4743"
         inkscape:connector-curvature="0" />
      <path
         d="m 848.62049,5718.7559 c -0.64,-0.4266 -0.85334,-0.64 -1.92,-1.0666 h -2.13334 c -15.14666,14.08 -24.53333,26.88 -34.56,46.9333 -14.29333,28.5867 -22.82667,64 -22.82667,95.1467 0,13.2267 2.13334,22.6133 7.89334,35.6267 8.10667,-1.7067 9.38667,-1.92 13.44,-3.6267 -5.54667,-16.64 -7.25333,-27.9467 -7.25333,-45.6533 0,-24.5334 4.90666,-50.7734 14.08,-73.6001 9.17333,-23.2533 18.34666,-37.12 34.98666,-52.9066 z"
         style="font-style:italic;font-variant:normal;font-weight:500;font-stretch:normal;font-size:213.33334351px;line-height:106.34667206px;font-family:'URW Chancery L';-inkscape-font-specification:'URW Chancery L, Medium Italic';font-variant-ligatures:normal;font-variant-caps:normal;font-variant-numeric:normal;font-feature-settings:normal;text-align:start;writing-mode:lr-tb;text-anchor:start;fill:#000078;fill-opacity:1"
         id="path4745"
         inkscape:connector-curvature="0" />
      <path
         d="m 872.89051,5787.2359 c -1.28,-7.2533 -1.70667,-10.6666 -1.70667,-15.36 0,-16.64 8.74667,-25.6 25.17333,-25.6 h 3.2 l -11.73333,46.9334 c -4.05333,3.4133 -4.69333,4.0533 -8.53333,7.8933 3.2,2.1333 4.05333,3.2 5.12,6.1867 l -2.56,8.5333 c -6.61334,24.32 -6.61334,24.32 -7.25334,26.0267 -2.56,8.1067 -5.76,15.1467 -8.96,19.2 -5.97333,7.8933 -14.29333,11.9467 -24.74666,11.9467 -4.26667,0 -7.46667,-0.4267 -14.29334,-2.1334 l -8.53333,14.2934 c 4.05333,0.8533 5.97333,1.0666 9.38666,1.0666 13.22667,0 22.40001,-4.48 42.45334,-20.2666 17.92,-14.2934 19.62667,-17.0667 26.02667,-42.8801 l 19.62667,-78.72 7.04,-6.1866 c -20.05334,0 -29.86667,1.28 -39.04001,4.6933 -18.56,7.2533 -28.8,21.3333 -28.8,39.68 0,4.2667 0.42667,6.6133 1.92,12.16 z"
         style="font-style:italic;font-variant:normal;font-weight:500;font-stretch:normal;font-size:213.33334351px;line-height:106.34667206px;font-family:'URW Chancery L';-inkscape-font-specification:'URW Chancery L, Medium Italic';font-variant-ligatures:normal;font-variant-caps:normal;font-variant-numeric:normal;font-feature-settings:normal;text-align:start;writing-mode:lr-tb;text-anchor:start;fill:#000078;fill-opacity:1"
         id="path4747"
         inkscape:connector-curvature="0" />
      <path
         d="m 920.76053,5796.1959 c 8.96,-4.48 13.01333,-6.1866 15.57333,-6.1866 1.70667,0 2.98667,1.7066 2.98667,4.0533 0,2.7733 -2.13334,11.9467 -5.97334,26.4533 -5.33333,19.8401 -6.61333,25.8134 -6.61333,32.0001 0,5.9733 2.56,10.4533 5.97333,10.4533 3.2,0 7.04,-1.92 17.70667,-8.96 l 21.97333,-14.2933 c -1.70666,6.8266 -2.98666,14.5066 -2.98666,18.3466 0,2.7734 1.70666,4.9067 3.84,4.9067 4.26666,0 24.53333,-11.9467 39.03997,-22.8267 l 1.4934,-6.4 c -16.64004,9.8134 -22.1867,12.8 -24.53337,12.8 -1.49333,0 -2.34667,-1.7066 -2.34667,-5.12 0,-10.88 7.89334,-42.6667 17.06664,-69.76 -2.7733,1.4933 -4.6933,2.56 -5.54664,2.9867 -2.56,1.28 -5.12,2.56 -7.89333,3.84 -0.64,0.2133 -1.92,0.8533 -4.26667,2.1333 -1.28,4.9067 -5.54667,21.9733 -12.58667,51.4134 -16.42666,11.3066 -23.89333,15.5733 -26.45333,15.5733 -2.34667,0 -4.05333,-2.9867 -4.05333,-7.04 0,-4.9067 1.70666,-13.44 5.33333,-27.0934 2.34667,-8.5333 3.84,-14.5066 4.48,-17.4933 1.92,-7.8933 3.41333,-13.44 3.84,-14.9333 0.64,-2.3467 1.06667,-4.2667 1.06667,-5.76 0,-1.7067 -1.06667,-2.7734 -2.56,-2.7734 -2.13334,0 -17.70667,8.32 -33.06667,17.92 z"
         style="font-style:italic;font-variant:normal;font-weight:500;font-stretch:normal;font-size:213.33334351px;line-height:106.34667206px;font-family:'URW Chancery L';-inkscape-font-specification:'URW Chancery L, Medium Italic';font-variant-ligatures:normal;font-variant-caps:normal;font-variant-numeric:normal;font-feature-settings:normal;text-align:start;writing-mode:lr-tb;text-anchor:start;fill:#000078;fill-opacity:1"
         id="path4749"
         inkscape:connector-curvature="0" />
      <path
         d="m 1067.0939,5832.676 c -2.9867,1.7066 -4.9067,2.9866 -5.76,3.4133 -15.36,9.6 -17.0667,10.4533 -20.0534,10.4533 -1.92,0 -3.84,-2.56 -3.84,-5.5466 v -1.92 -1.92 c 0,-3.84 9.6,-45.2267 17.4934,-75.3067 8.32,-31.36 10.24,-35.2 19.6266,-35.2 2.7734,0 4.9067,0.2133 10.4534,1.4933 l 9.1733,-11.3067 c -4.48,-1.0666 -6.8267,-1.28 -9.6,-1.28 -8.5333,0 -15.36,3.4134 -25.6,12.5867 -9.3867,8.5333 -11.7333,11.7333 -14.5067,19.4133 -1.7066,5.12 -6.4,22.4 -8.5333,31.7867 l -15.36,66.7734 c -0.2134,1.28 -0.4267,2.56 -0.4267,3.84 0,6.4 3.6267,13.0133 7.04,13.0133 h 1.28 0.64 c 2.1333,0 11.0933,-6.1867 37.9734,-25.6 z"
         style="font-style:italic;font-variant:normal;font-weight:500;font-stretch:normal;font-size:213.33334351px;line-height:106.34667206px;font-family:'URW Chancery L';-inkscape-font-specification:'URW Chancery L, Medium Italic';font-variant-ligatures:normal;font-variant-caps:normal;font-variant-numeric:normal;font-feature-settings:normal;text-align:start;writing-mode:lr-tb;text-anchor:start;fill:#000078;fill-opacity:1"
         id="path4751"
         inkscape:connector-curvature="0" />
      <path
         d="m 1133.9172,5830.9693 c -16,13.8667 -26.24,19.84 -34.3467,19.84 -5.3333,0 -9.8133,-3.6267 -11.3066,-9.1733 -0.8534,-3.4134 -1.0667,-5.76 -1.0667,-11.9467 9.6,-5.9734 16,-10.4534 28.5867,-19.84 11.52,-8.7467 16,-15.7867 16,-25.3867 0,-7.4667 -4.6934,-11.9467 -12.16,-11.9467 -4.6934,0 -8.1067,1.0667 -13.0134,3.84 -8.1066,4.6934 -15.36,10.4534 -19.84,15.5734 -8.1066,9.8133 -15.36,33.28 -15.36,50.56 0,12.5867 6.6134,20.48 17.4934,20.48 12.5866,0 28.16,-8.96 45.0133,-25.8133 z m -46.08,-8.96 c 3.6267,-22.8267 13.44,-40.5334 22.6133,-40.5334 3.6267,0 5.9734,3.6267 5.9734,8.7467 0,10.6667 -5.76,17.0667 -28.5867,31.7867 z"
         style="font-style:italic;font-variant:normal;font-weight:500;font-stretch:normal;font-size:213.33334351px;line-height:106.34667206px;font-family:'URW Chancery L';-inkscape-font-specification:'URW Chancery L, Medium Italic';font-variant-ligatures:normal;font-variant-caps:normal;font-variant-numeric:normal;font-feature-settings:normal;text-align:start;writing-mode:lr-tb;text-anchor:start;fill:#000078;fill-opacity:1"
         id="path4753"
         inkscape:connector-curvature="0" />
      <path
         d="m 1134.5239,5842.4893 c -0.2134,1.92 -0.4267,3.6267 -0.4267,4.9067 0,9.1733 6.4,15.5733 15.7867,15.5733 6.6133,0 15.7866,-2.7733 22.6133,-6.6133 12.5867,-7.2534 20.2667,-18.1334 20.2667,-28.8 0,-7.8934 -1.4934,-9.6001 -13.44,-17.0667 -7.2534,-4.6934 -10.24,-8.7467 -10.24,-14.2934 0,-7.2533 6.1866,-13.6533 13.44,-13.6533 4.9066,0 8.5333,2.3467 13.2266,8.32 7.2534,-7.04 7.2534,-7.04 10.0267,-11.0933 -4.2667,-5.12 -8.32,-7.2534 -14.2933,-7.2534 -15.5734,0 -35.6267,18.56 -35.6267,32.64 0,6.6134 3.4133,11.7334 11.52,17.4934 10.6667,7.4667 12.16,9.3867 12.16,14.72 0,7.68 -9.8133,16.64 -18.1333,16.64 -4.6934,0 -8.32,-2.56 -10.4534,-7.2533 -1.4933,-3.2 -1.92,-6.4 -2.1333,-13.6534 -2.3467,1.7067 -4.0533,2.7734 -4.9067,3.4134 -1.7066,1.0666 -3.6266,2.1333 -5.5466,3.4133 z"
         style="font-style:italic;font-variant:normal;font-weight:500;font-stretch:normal;font-size:213.33334351px;line-height:106.34667206px;font-family:'URW Chancery L';-inkscape-font-specification:'URW Chancery L, Medium Italic';font-variant-ligatures:normal;font-variant-caps:normal;font-variant-numeric:normal;font-feature-settings:normal;text-align:start;writing-mode:lr-tb;text-anchor:start;fill:#000078;fill-opacity:1"
         id="path4755"
         inkscape:connector-curvature="0" />
      <path
         d="m 1248.8739,5859.9826 c 11.3066,0.2134 11.3066,0.2134 12.5866,0.2134 11.0934,0 30.2934,-0.4267 36.6934,-0.8534 l 15.7866,-8.1066 c -7.8933,-0.2134 -9.8133,-0.2134 -28.16,-0.64 24.1067,-24.1067 25.3867,-26.0267 32.2134,-53.1201 0.2133,-0.2133 0.4266,-0.2133 0.4266,-0.2133 2.3467,-0.2133 3.6267,1.7067 4.9067,7.04 8.1067,35.6267 15.1467,55.8934 23.8933,68.9067 9.1734,13.6533 21.7601,20.2667 38.6134,20.2667 11.9467,0 19.2,-2.56 31.1467,-11.3067 l -10.4534,-13.0133 c -6.8266,12.5866 -12.8,17.4933 -21.12,17.4933 -10.0266,0 -19.6266,-10.6667 -28.3733,-31.7867 -5.5467,-13.2266 -12.16,-33.0667 -20.9067,-60.8 12.16,-3.84 17.0667,-6.1867 23.68,-10.4533 10.0267,-6.8267 15.7867,-16.64 15.7867,-26.88 0,-13.2267 -10.6667,-20.48 -30.08,-20.48 -2.56,0 -7.8934,0.2133 -12.3734,0.4266 l 1.7067,-6.8266 -19.4133,9.1733 c -34.9867,5.9733 -53.5467,22.1867 -53.5467,47.1467 0,5.5466 0.64,9.1733 2.9867,17.0666 l 17.92,-9.1733 c -1.7067,-7.2533 -2.3467,-10.88 -2.3467,-15.7867 0,-10.24 3.2,-18.3466 9.8133,-24.5333 5.9734,-5.3333 11.9467,-7.68 25.6,-9.3867 l -1.92,7.68 c -0.8533,3.4134 -2.1333,8.32 -3.6266,14.9334 l -10.6667,42.24 c -8.96,36.0533 -14.72,41.6 -42.4533,41.3867 z m 82.7733,-117.3333 h 6.6133 c 13.2267,0 18.7734,4.9066 18.7734,16.64 0,10.6666 -5.76,20.9066 -14.72,26.4533 -6.4,3.84 -11.52,5.3333 -23.04,6.8267 z"
         style="font-style:italic;font-variant:normal;font-weight:500;font-stretch:normal;font-size:213.33334351px;line-height:106.34667206px;font-family:'URW Chancery L';-inkscape-font-specification:'URW Chancery L, Medium Italic';font-variant-ligatures:normal;font-variant-caps:normal;font-variant-numeric:normal;font-feature-settings:normal;text-align:start;writing-mode:lr-tb;text-anchor:start;fill:#000078;fill-opacity:1"
         id="path4757"
         inkscape:connector-curvature="0" />
      <path
         d="m 1449.7506,5830.9693 c -16,13.8667 -26.24,19.84 -34.3467,19.84 -5.3333,0 -9.8133,-3.6267 -11.3067,-9.1733 -0.8533,-3.4134 -1.0666,-5.76 -1.0666,-11.9467 9.6,-5.9734 16,-10.4534 28.5866,-19.84 11.52,-8.7467 16,-15.7867 16,-25.3867 0,-7.4667 -4.6933,-11.9467 -12.16,-11.9467 -4.6933,0 -8.1066,1.0667 -13.0133,3.84 -8.1067,4.6934 -15.36,10.4534 -19.84,15.5734 -8.1067,9.8133 -15.36,33.28 -15.36,50.56 0,12.5867 6.6133,20.48 17.4933,20.48 12.5867,0 28.16,-8.96 45.0134,-25.8133 z m -46.08,-8.96 c 3.6266,-22.8267 13.44,-40.5334 22.6133,-40.5334 3.6267,0 5.9733,3.6267 5.9733,8.7467 0,10.6667 -5.76,17.0667 -28.5866,31.7867 z"
         style="font-style:italic;font-variant:normal;font-weight:500;font-stretch:normal;font-size:213.33334351px;line-height:106.34667206px;font-family:'URW Chancery L';-inkscape-font-specification:'URW Chancery L, Medium Italic';font-variant-ligatures:normal;font-variant-caps:normal;font-variant-numeric:normal;font-feature-settings:normal;text-align:start;writing-mode:lr-tb;text-anchor:start;fill:#000078;fill-opacity:1"
         id="path4759"
         inkscape:connector-curvature="0" />
      <path
         d="m 1476.1706,5856.1426 12.5866,-50.1333 c 26.6667,-16.8534 27.3067,-17.0667 30.2934,-17.0667 1.4933,0 2.3466,1.0667 2.3466,2.7733 0,3.2 -1.7066,11.3067 -7.8933,35.6267 -4.6933,18.9867 -5.5467,22.6134 -5.5467,26.6667 0,2.9867 0.8534,5.76 3.2,9.6 9.8134,-4.48 24.5334,-13.6533 39.4667,-24.7467 l 1.4933,-5.9733 c -21.3333,12.16 -22.1866,12.5867 -24.32,12.5867 -2.1333,0 -3.4133,-2.3467 -3.4133,-5.76 0,-4.48 1.4933,-11.52 5.5467,-26.2401 10.0266,-35.84 10.0266,-35.84 10.0266,-37.3333 0,-2.3467 -1.4933,-3.6267 -4.2666,-3.6267 -3.2,0 -7.8934,1.92 -15.5734,6.8267 l -29.2266,18.1333 c 1.92,-7.04 5.12,-20.48 5.12,-22.1866 0,-1.4934 -1.28,-2.7734 -2.7734,-2.7734 -2.3466,0 -17.7066,7.8934 -33.4933,17.28 l -1.28,5.5467 c 13.6533,-6.1867 14.5067,-6.4 16.4267,-6.4 1.4933,0 2.56,1.28 2.56,2.9867 0,4.48 -4.0534,22.1866 -9.3867,41.6 l -4.9067,17.28 c -0.4266,1.4933 -1.4933,5.5467 -2.9866,11.52 z"
         style="font-style:italic;font-variant:normal;font-weight:500;font-stretch:normal;font-size:213.33334351px;line-height:106.34667206px;font-family:'URW Chancery L';-inkscape-font-specification:'URW Chancery L, Medium Italic';font-variant-ligatures:normal;font-variant-caps:normal;font-variant-numeric:normal;font-feature-settings:normal;text-align:start;writing-mode:lr-tb;text-anchor:start;fill:#000078;fill-opacity:1"
         id="path4761"
         inkscape:connector-curvature="0" />
      <path
         d="m 1644.4772,5832.4626 c -16,10.6667 -19.2,12.5867 -21.3334,12.5867 -1.4933,0 -2.56,-1.7067 -2.56,-4.2667 0,-5.5466 5.12,-29.0133 12.8,-57.3867 2.3467,-3.2 2.7734,-3.84 6.1867,-7.68 -10.24,-2.3466 -17.7067,-3.2 -26.88,-3.2 -8.7467,0 -12.8,0.8534 -18.3467,4.2667 -7.68,4.48 -16.64,11.0933 -19.4133,14.08 -7.8933,8.96 -16.8533,37.76 -16.8533,55.04 0,10.24 3.4133,17.0667 8.7466,17.0667 4.6934,0 11.7334,-4.2667 38.4,-23.4667 -2.1333,9.8134 -3.2,16.4267 -3.2,18.9867 0,2.7733 1.28,4.48 3.4134,4.48 2.56,0 2.56,0 19.6266,-10.88 6.1867,-4.0533 11.0934,-7.4667 19.2,-13.44 z m -41.6,1.28 c -12.5867,9.1734 -18.9867,12.8 -22.8267,12.8 -3.4133,0 -5.5467,-3.84 -5.5467,-10.6666 0,-10.6667 3.4134,-25.1734 8.7467,-37.3334 5.12,-11.7333 9.8133,-16.2133 17.0667,-16.2133 3.84,0 10.4533,1.0666 18.1333,2.7733 -4.2667,16.2133 -5.76,21.12 -5.9733,22.1867 -1.28,5.3333 -2.3467,10.6666 -3.6267,16.2133 -0.2133,1.0667 -0.8533,3.6267 -1.92,7.4667 z"
         style="font-style:italic;font-variant:normal;font-weight:500;font-stretch:normal;font-size:213.33334351px;line-height:106.34667206px;font-family:'URW Chancery L';-inkscape-font-specification:'URW Chancery L, Medium Italic';font-variant-ligatures:normal;font-variant-caps:normal;font-variant-numeric:normal;font-feature-settings:normal;text-align:start;writing-mode:lr-tb;text-anchor:start;fill:#000078;fill-opacity:1"
         id="path4763"
         inkscape:connector-curvature="0" />
      <path
         d="m 1648.3005,5862.3293 16.4267,-6.1867 16,-60.8 c 7.2533,-5.3333 12.16,-7.4667 17.92,-7.4667 4.6933,0 7.4667,1.7067 11.3067,6.6134 l 6.4,-20.2667 c -4.0534,-1.28 -5.76,-1.7067 -7.8934,-1.7067 -3.84,0 -8.32,1.92 -14.08,5.9734 l -12.5866,9.1733 c 0.2133,-1.7067 0.64,-2.7733 0.64,-3.4133 1.7066,-7.04 1.92,-8.32 1.92,-9.3867 0,-1.28 -1.28,-2.3467 -2.7734,-2.3467 -2.7733,0 -21.5466,9.1734 -34.56,17.0667 l -0.64,5.76 c 11.52,-5.9733 12.8,-6.4 15.36,-6.4 2.7734,0 4.0534,1.4933 4.0534,4.48 0,2.9867 -2.1334,13.0133 -4.6934,22.1867 z"
         style="font-style:italic;font-variant:normal;font-weight:500;font-stretch:normal;font-size:213.33334351px;line-height:106.34667206px;font-family:'URW Chancery L';-inkscape-font-specification:'URW Chancery L, Medium Italic';font-variant-ligatures:normal;font-variant-caps:normal;font-variant-numeric:normal;font-feature-settings:normal;text-align:start;writing-mode:lr-tb;text-anchor:start;fill:#000078;fill-opacity:1"
         id="path4765"
         inkscape:connector-curvature="0" />
      <path
         d="m 1799.2938,5832.2493 c -2.7733,1.7067 -4.9066,3.2 -5.9733,3.84 -11.7333,8.1067 -17.7067,11.52 -19.6267,11.52 -1.7066,0 -2.9866,-2.3467 -2.9866,-5.5467 0,-7.04 17.92,-84.2667 22.4,-97.4933 4.6933,-12.8 9.3866,-17.7067 17.0666,-17.7067 2.7734,0 4.9067,0.4267 9.8134,1.7067 l 7.4666,-11.9467 c -3.2,-0.64 -4.9066,-0.8533 -6.8266,-0.8533 -5.12,0 -7.8934,0.8533 -12.8,3.6266 -5.3334,2.9867 -12.5867,8.5334 -18.56,14.08 -10.4534,10.0267 -11.0934,11.52 -16.64,33.4934 -0.2134,0.8533 -0.8534,3.6266 -1.7067,6.8266 -3.84,-0.8533 -7.04,-1.28 -8.7467,-1.28 -6.6133,0 -24.96,11.52 -33.4933,20.9067 -7.2533,8.32 -16.8533,38.4 -16.8533,53.12 0,8.1067 4.2666,16.4267 8.1066,16.4267 4.0534,0 13.44,-5.76 35.84,-21.9733 -1.0666,5.3333 -1.7066,11.52 -1.7066,15.36 0,4.2666 1.7066,6.6133 4.6933,6.6133 3.4133,0 21.9733,-11.3067 39.68,-24.1067 z m -41.8133,0.8533 c -18.1333,12.8 -22.8267,15.5734 -25.8133,15.5734 -2.9867,0 -4.48,-3.2 -4.48,-9.3867 0,-7.04 1.28,-15.1467 3.84,-24.5334 6.1866,-21.5466 14.5066,-32.2133 25.3866,-32.2133 3.84,0 6.6134,1.4933 11.0934,5.76 z"
         style="font-style:italic;font-variant:normal;font-weight:500;font-stretch:normal;font-size:213.33334351px;line-height:106.34667206px;font-family:'URW Chancery L';-inkscape-font-specification:'URW Chancery L, Medium Italic';font-variant-ligatures:normal;font-variant-caps:normal;font-variant-numeric:normal;font-feature-settings:normal;text-align:start;writing-mode:lr-tb;text-anchor:start;fill:#000078;fill-opacity:1"
         id="path4767"
         inkscape:connector-curvature="0" />
      <path
         d="m 1792.9906,5894.9693 c 0.2133,0.2133 0.64,0.4267 1.28,0.64 h 2.1333 c 14.9334,-13.8667 24.32,-26.6667 34.56,-46.9333 14.2934,-28.3734 22.8267,-64.2134 22.8267,-94.9334 0,-12.8 -2.1333,-22.4 -7.68,-35.84 -8.1067,1.7067 -9.3867,2.1333 -13.6533,3.6267 5.5466,16.8533 7.2533,27.7333 7.2533,45.2266 0,24.96 -4.9067,51.2 -14.08,74.0267 -9.3867,23.4667 -18.56,37.3334 -34.9867,52.9067 0.64,0.2133 1.0667,0.64 1.28,0.64 z"
         style="font-style:italic;font-variant:normal;font-weight:500;font-stretch:normal;font-size:213.33334351px;line-height:106.34667206px;font-family:'URW Chancery L';-inkscape-font-specification:'URW Chancery L, Medium Italic';font-variant-ligatures:normal;font-variant-caps:normal;font-variant-numeric:normal;font-feature-settings:normal;text-align:start;writing-mode:lr-tb;text-anchor:start;fill:#000078;fill-opacity:1"
         id="path4769"
         inkscape:connector-curvature="0" />
      <flowRoot
         xml:space="preserve"
         id="flowRoot4801"
         style="font-style:normal;font-variant:normal;font-weight:normal;font-stretch:normal;font-size:10.66666698px;line-height:100%;font-family:sans-serif;-inkscape-font-specification:'sans-serif, Normal';font-variant-ligatures:normal;font-variant-caps:normal;font-variant-numeric:normal;font-feature-settings:normal;text-align:start;letter-spacing:0px;word-spacing:0px;writing-mode:lr-tb;text-anchor:start;fill:#000000;fill-opacity:1;stroke:none;stroke-width:1px;stroke-linecap:butt;stroke-linejoin:miter;stroke-opacity:1"
         transform="translate(1899.2227,2679.5561)"><flowRegion
           id="flowRegion4803"><rect
             id="rect4805"
             width="979.09033"
             height="298.24753"
             x="-1189.9597"
             y="-962.03223" /></flowRegion><flowPara
           id="flowPara4807"
           style="font-style:italic;font-variant:normal;font-weight:500;font-stretch:normal;font-size:213.33334351px;font-family:'URW Chancery L';-inkscape-font-specification:'URW Chancery L, Medium Italic';font-variant-ligatures:normal;font-variant-caps:normal;font-variant-numeric:normal;font-feature-settings:normal;text-align:start;writing-mode:lr-tb;text-anchor:start">Geai rare lit</flowPara></flowRoot>    </g>
  </g>
</svg>
