<?xml version="1.0" encoding="UTF-8" standalone="no"?>
<!-- Created with Inkscape (http://www.inkscape.org/) -->

<svg
   xmlns:dc="http://purl.org/dc/elements/1.1/"
   xmlns:cc="http://creativecommons.org/ns#"
   xmlns:rdf="http://www.w3.org/1999/02/22-rdf-syntax-ns#"
   xmlns:svg="http://www.w3.org/2000/svg"
   xmlns="http://www.w3.org/2000/svg"
   xmlns:sodipodi="http://sodipodi.sourceforge.net/DTD/sodipodi-0.dtd"
   xmlns:inkscape="http://www.inkscape.org/namespaces/inkscape"
   width="50.799999cm"
   height="58.419998cm"
   viewBox="0 0 508.00001 584.20002"
   version="1.1"
   id="svg3987"
   inkscape:version="0.92.3 (2405546, 2018-03-11)"
   sodipodi:docname="citation_Jules_Renard.svg">
  <defs
     id="defs3981" />
  <sodipodi:namedview
     id="base"
     pagecolor="#ffffff"
     bordercolor="#666666"
     borderopacity="1.0"
     inkscape:pageopacity="0.0"
     inkscape:pageshadow="2"
     inkscape:zoom="0.175"
     inkscape:cx="1344.6913"
     inkscape:cy="840.67956"
     inkscape:document-units="mm"
     inkscape:current-layer="layer1"
     showgrid="false"
     units="cm"
     inkscape:measure-start="405.714,1628.57"
     inkscape:measure-end="401.429,1538.57"
     inkscape:window-width="1613"
     inkscape:window-height="995"
     inkscape:window-x="131"
     inkscape:window-y="27"
     inkscape:window-maximized="1" />
  <metadata
     id="metadata3984">
    <rdf:RDF>
      <cc:Work
         rdf:about="">
        <dc:format>image/svg+xml</dc:format>
        <dc:type
           rdf:resource="http://purl.org/dc/dcmitype/StillImage" />
        <dc:title></dc:title>
      </cc:Work>
    </rdf:RDF>
  </metadata>
  <g
     inkscape:label="Calque 1"
     inkscape:groupmode="layer"
     id="layer1"
     transform="translate(0,287.20002)">
    <path
       id="path1619"
       style="fill:#ffffff;fill-rule:evenodd;stroke:none;stroke-width:0.37229532px;stroke-linecap:butt;stroke-linejoin:miter;stroke-opacity:1"
       d="m 392.85737,-253.54397 -5.31802,-0.66503 -13.76249,-0.99711 -20.87479,-1.19673 -16.62033,-0.66495 -12.23239,0.26589 -15.35727,0.20001 -17.3517,0.59774 -14.2264,1.72862 -16.75403,3.85622 -19.34584,5.78394 -16.28802,5.65089 -15.9552,8.11032 -13.76178,7.77806 -10.5042,8.77555 -4.7203,5.65111 -2.79193,4.52124 -1.26309,3.78927 -1.46256,3.98907 v 3.85584 l -0.33285,3.52341 0.26604,2.2598 -14.09397,7.97778 -10.77037,6.24926 -2.45962,1.39635 -1.86127,1.86151 -1.1302,1.6617 -0.39941,1.19698 0.0667,2.59281 1.06354,2.26071 1.59537,1.7283 2.65908,0.79779 2.06112,0.33214 2.26047,-0.26574 3.98881,-1.86102 7.51184,-4.32237 15.15816,-7.84412 6.24891,4.38774 7.84424,4.12233 7.64581,3.12488 7.51224,1.12979 8.70874,0.0662 8.70933,0.0666 10.0387,-1.26325 14.2267,-3.05787 21.73991,-6.18309 28.05482,-10.37092 22.07157,-9.4407 21.07484,-12.03315 20.40941,-13.3624 12.23313,-11.16896 8.30966,-8.44301 5.85046,-6.11655 5.11909,-5.78361 1.26354,-2.59279 -0.99709,-1.26328 z"
       inkscape:connector-curvature="0" />
    <path
       id="path1621"
       style="fill:#0068ff;fill-opacity:1;fill-rule:evenodd;stroke:#000000;stroke-width:0.37229532px;stroke-linecap:butt;stroke-linejoin:miter;stroke-opacity:1"
       d="m 392.33019,-248.14476 -7.91565,-1.34353 -14.29372,-1.26341 -15.15756,-1.19675 -14.42679,-0.46531 -14.82481,0.0664 -9.97223,0.13321 -15.29106,0.93051 -11.36829,0.99698 -7.04668,0.931 -12.96366,2.59261 -11.50182,2.99187 -12.69752,3.25746 -14.75904,5.45165 -7.44592,3.19108 -3.65653,1.92777 -9.24071,4.98567 -7.11346,4.45497 -4.7205,2.99136 -6.78084,5.18522 -4.7206,4.32159 -3.65592,3.92254 -1.79488,3.12484 -1.19621,3.72333 -0.53198,3.85576 2.4e-4,3.72287 0.53136,3.32378 2.32638,7.11336 1.92808,2.7251 3.58974,3.05875 4.6538,3.05822 4.58756,2.72554 4.78637,1.99448 5.45118,0.79771 7.57972,0.79778 6.18238,0.066 5.45127,-0.3984 10.6373,-1.59542 13.76155,-3.39033 12.69773,-3.65692 16.88681,-6.11622 9.63993,-3.65622 13.69482,-5.31889 9.44014,-3.98853 11.90049,-5.78417 4.32131,-2.19379 11.83306,-6.24884 10.83707,-6.5817 8.9079,-5.58462 7.04728,-5.98373 6.84745,-5.91633 5.65128,-5.25231 8.5093,-9.04147 z"
       inkscape:connector-curvature="0" />
    <path
       id="path1598"
       style="fill:#000056;fill-opacity:1;fill-rule:evenodd;stroke:#000096;stroke-width:0.37229532px;stroke-linecap:butt;stroke-linejoin:miter;stroke-opacity:1"
       d="m 390.91961,-249.93055 -0.75202,-0.0939 -6.67511,2.91432 -10.15433,4.1369 -7.75626,2.67974 -6.62884,1.92734 1.03419,-2.0683 1.50383,-2.63314 1.41039,-3.85451 0.56416,-2.25616 0.0943,-1.22214 -0.7046,-0.79956 -0.8465,2e-5 -1.03426,0.28222 -0.94011,1.69253 -0.51728,1.92668 -1.36377,3.71416 -2.30296,4.18364 -2.53846,2.91447 -21.01353,6.15839 -10.95327,2.20945 6.15836,-9.9187 7.6155,-11.94061 -0.28269,-0.75181 -0.79924,-0.79958 -1.03447,-0.28132 -1.4104,0.28187 -1.26934,1.92732 -7.00431,11.23558 -7.23938,11.84643 -22.37659,5.1705 3.0557,-5.6875 4.23084,-6.86381 4.56011,-7.00383 6.48687,-7.89782 0.1411,-0.70519 -0.18792,-0.56412 -0.37588,-0.47052 -0.51702,-0.5172 -0.93998,-0.18809 -1.22288,0.56402 -4.08971,5.31213 -5.96987,8.60257 -5.21841,8.50854 -4.37158,7.66299 -21.10706,5.68792 0.89295,-4.65417 1.26946,-5.02981 2.02134,-6.064 2.44391,-6.86341 2.20965,-4.93641 1.69256,-3.47825 1.3e-4,-1.03413 -0.70478,-0.79948 -0.94066,-0.37608 -1.26896,0.51691 -0.94061,1.5046 -3.57296,8.36752 -3.43144,9.07224 -2.25648,8.93248 -1.31598,5.73511 -14.52585,4.27745 -0.42324,-10.85923 -0.0467,-8.13246 0.46966,-5.17093 0.56401,-4.51305 0.0944,-1.69225 -0.37612,-0.75224 -0.56413,-0.56401 -0.70519,-0.14111 -1.08101,0.61103 -0.75241,0.84614 -0.14168,1.45767 -0.79912,8.60277 -0.23517,7.94394 0.14055,8.97926 0.28242,4.41836 -11.89338,3.90203 -9.91877,3.33773 -8.83817,3.19659 -0.46948,-3.47865 -0.23507,-5.68809 0.28153,-5.8291 0.56453,-4.79449 1.31648,-4.60754 1.08121,-3.14954 0.0935,-0.9401 -0.65822,-0.84589 -1.31627,-0.47057 -1.26903,0.9872 -0.79935,1.9275 -1.55164,6.15786 -0.61088,5.31206 -0.2353,6.62807 0.18822,6.01764 0.28187,3.76034 -15.93618,6.34684 -0.51647,-4.65434 -0.14128,-4.37189 -3.2e-4,-3.57282 0.51712,-4.18358 1.17545,-3.99535 0.89278,-2.58591 -0.23446,-0.61126 -0.51702,-0.51706 -0.75286,-0.37613 -0.51653,0.23473 -1.08132,0.98728 -0.79887,1.73993 -1.034,4.04286 -0.75207,4.23064 -0.0942,3.8545 2.4e-4,4.60701 0.32943,3.99584 0.23458,2.39766 -12.6926,5.73486 -9.68396,5.07756 -12.03451,6.58081 -9.63614,5.78187 -0.37598,0.9406 0.65791,0.84628 0.51667,0.42306 0.9403,0.28213 2.44392,-1.50392 11.56483,-6.58176 11.09449,-6.01714 7.70923,-3.76073 15.56011,-6.3457 15.23098,11.56395 14.90184,11.42333 1.36359,0.32915 0.89293,-0.3294 0.47027,-0.46989 0.0464,-0.61131 -0.37616,-0.93987 -0.79931,-0.79965 -28.44083,-21.48334 6.72219,-2.86753 21.90642,-7.61537 12.83391,7.8507 11.5644,7.99201 8.93122,5.73479 4.8894,2.6322 0.84615,-0.0941 0.70552,-0.51667 0.32919,-0.89277 -0.37619,-1.03451 -0.65746,-0.65812 -5.50014,-3.14966 -8.79115,-6.0643 -7.56876,-5.02973 -8.69616,-5.40621 -4.04298,-2.82117 14.62004,-4.74783 11.09435,6.39377 11.46999,5.54671 8.93205,4.23096 7.3804,3.24335 3.80745,1.64554 1.03477,0.47007 1.31611,-0.37552 0.46985,-0.56468 0.23437,-0.61118 -0.32911,-0.98704 -0.98721,-0.70488 -1.92747,-0.79926 -5.40582,-2.20947 -6.44031,-3.05527 -10.67163,-4.93608 -6.39269,-3.38449 -5.31232,-2.68019 -3.76064,-2.44442 13.02152,-3.99529 7.94458,-2.11564 5.54708,2.16299 6.2056,2.5383 6.6753,2.91457 7.4742,3.80782 5.87601,3.52542 4.9365,3.0561 2.53787,2.1623 0.75279,-5.1e-4 0.94026,-0.28199 0.56451,-0.65713 0.18858,-0.75218 -0.37578,-0.84591 -1.26922,-1.26981 -3.99604,-2.86704 -6.11064,-3.57312 -7.56929,-3.61954 -7.94421,-3.80793 -8.88483,-3.61999 8.5558,-2.35021 13.02154,-3.05585 7.09831,4.27837 10.57758,5.87595 9.40135,5.5473 3.0559,1.92722 1.1281,-2.8e-4 1.22225,-0.65756 0.28249,-1.12871 -0.56448,-0.84561 -0.79935,-0.79953 -8.03871,-4.46576 -8.88426,-5.03025 -9.49567,-5.64105 9.77734,-2.4441 16.59444,-3.99569 14.80824,8.32053 5.26477,2.91465 1.17528,0.0466 0.84649,-0.56392 0.23437,-0.61115 -0.18757,-1.12834 -0.75205,-0.94044 -3.99521,-2.39728 -9.87217,-5.26537 -2.53855,-1.78606 5.07695,-1.31597 9.35486,-2.77346 12.36339,-3.61948 9.58968,-3.57302 10.95306,-4.37183 5.45329,-2.53827 0.56416,-1.03427 -0.37607,-1.03457 z"
       inkscape:connector-curvature="0" />
    <flowRoot
       xml:space="preserve"
       id="flowRoot4542"
       style="font-style:italic;font-variant:normal;font-weight:500;font-stretch:normal;font-size:192px;line-height:149.60000515%;font-family:'URW Chancery L';-inkscape-font-specification:'URW Chancery L, Medium Italic';font-variant-ligatures:normal;font-variant-caps:normal;font-variant-numeric:normal;font-feature-settings:normal;text-align:start;letter-spacing:0px;word-spacing:0px;writing-mode:lr-tb;text-anchor:start;fill:#000078;fill-opacity:1;stroke:none;stroke-width:1px;stroke-linecap:butt;stroke-linejoin:miter;stroke-opacity:1"
       transform="matrix(0.26458333,0,0,0.26458333,-15.119047,-234.28335)"><flowRegion
         id="flowRegion4544"
         style="font-style:italic;font-variant:normal;font-weight:500;font-stretch:normal;font-size:160px;font-family:'URW Chancery L';-inkscape-font-specification:'URW Chancery L, Medium Italic';font-variant-ligatures:normal;font-variant-caps:normal;font-variant-numeric:normal;font-feature-settings:normal;text-align:start;writing-mode:lr-tb;text-anchor:start;fill:#000078;fill-opacity:1"><rect
           id="rect4546"
           width="1819.2346"
           height="1917.5259"
           x="202.0305"
           y="337.19748"
           style="font-style:italic;font-variant:normal;font-weight:500;font-stretch:normal;font-size:160px;font-family:'URW Chancery L';-inkscape-font-specification:'URW Chancery L, Medium Italic';font-variant-ligatures:normal;font-variant-caps:normal;font-variant-numeric:normal;font-feature-settings:normal;text-align:start;writing-mode:lr-tb;text-anchor:start;fill:#000078;fill-opacity:1" /></flowRegion><flowPara
         style="font-style:italic;font-variant:normal;font-weight:500;font-stretch:normal;font-size:306.66665649px;line-height:106.34667206px;font-family:'URW Chancery L';-inkscape-font-specification:'URW Chancery L, Medium Italic';font-variant-ligatures:normal;font-variant-caps:normal;font-variant-numeric:normal;font-feature-settings:normal;text-align:start;writing-mode:lr-tb;text-anchor:start;fill:#000078;fill-opacity:1"
         id="flowPara4570">Chacune de nos lectures laisse une graine qui germe. </flowPara><flowPara
         style="font-style:italic;font-variant:normal;font-weight:500;font-stretch:normal;font-size:213.33334351px;line-height:106.34667206px;font-family:'URW Chancery L';-inkscape-font-specification:'URW Chancery L, Medium Italic';font-variant-ligatures:normal;font-variant-caps:normal;font-variant-numeric:normal;font-feature-settings:normal;text-align:start;writing-mode:lr-tb;text-anchor:start;fill:#000078;fill-opacity:1"
         id="flowPara4560">           (Jules Renard)</flowPara></flowRoot>  </g>
</svg>
