<?xml version="1.0" encoding="UTF-8" standalone="no"?>
<!-- Created with Inkscape (http://www.inkscape.org/) -->

<svg
   xmlns:dc="http://purl.org/dc/elements/1.1/"
   xmlns:cc="http://creativecommons.org/ns#"
   xmlns:rdf="http://www.w3.org/1999/02/22-rdf-syntax-ns#"
   xmlns:svg="http://www.w3.org/2000/svg"
   xmlns="http://www.w3.org/2000/svg"
   xmlns:sodipodi="http://sodipodi.sourceforge.net/DTD/sodipodi-0.dtd"
   xmlns:inkscape="http://www.inkscape.org/namespaces/inkscape"
   width="50.799999cm"
   height="58.419998cm"
   viewBox="0 0 508.00001 584.20002"
   version="1.1"
   id="svg3987"
   sodipodi:docname="citation_Jules_Renard_export.svg"
   inkscape:version="0.92.3 (2405546, 2018-03-11)">
  <defs
     id="defs3981" />
  <sodipodi:namedview
     id="base"
     pagecolor="#ffffff"
     bordercolor="#666666"
     borderopacity="1.0"
     inkscape:pageopacity="0.0"
     inkscape:pageshadow="2"
     inkscape:zoom="0.24748737"
     inkscape:cx="1193.3615"
     inkscape:cy="1045.8207"
     inkscape:document-units="mm"
     inkscape:current-layer="layer1"
     showgrid="false"
     units="cm"
     inkscape:measure-start="405.714,1628.57"
     inkscape:measure-end="401.429,1538.57"
     inkscape:window-width="1613"
     inkscape:window-height="995"
     inkscape:window-x="131"
     inkscape:window-y="27"
     inkscape:window-maximized="1" />
  <metadata
     id="metadata3984">
    <rdf:RDF>
      <cc:Work
         rdf:about="">
        <dc:format>image/svg+xml</dc:format>
        <dc:type
           rdf:resource="http://purl.org/dc/dcmitype/StillImage" />
        <dc:title></dc:title>
      </cc:Work>
    </rdf:RDF>
  </metadata>
  <g
     inkscape:label="Calque 1"
     inkscape:groupmode="layer"
     id="layer1"
     transform="translate(0,287.20002)">
    <path
       id="path1619"
       style="fill:#ffffff;fill-rule:evenodd;stroke:none;stroke-width:0.37229532px;stroke-linecap:butt;stroke-linejoin:miter;stroke-opacity:1"
       d="m 392.85737,-253.54397 -5.31802,-0.66503 -13.76249,-0.99711 -20.87479,-1.19673 -16.62033,-0.66495 -12.23239,0.26589 -15.35727,0.20001 -17.3517,0.59774 -14.2264,1.72862 -16.75403,3.85622 -19.34584,5.78394 -16.28802,5.65089 -15.9552,8.11032 -13.76178,7.77806 -10.5042,8.77555 -4.7203,5.65111 -2.79193,4.52124 -1.26309,3.78927 -1.46256,3.98907 v 3.85584 l -0.33285,3.52341 0.26604,2.2598 -14.09397,7.97778 -10.77037,6.24926 -2.45962,1.39635 -1.86127,1.86151 -1.1302,1.6617 -0.39941,1.19698 0.0667,2.59281 1.06354,2.26071 1.59537,1.7283 2.65908,0.79779 2.06112,0.33214 2.26047,-0.26574 3.98881,-1.86102 7.51184,-4.32237 15.15816,-7.84412 6.24891,4.38774 7.84424,4.12233 7.64581,3.12488 7.51224,1.12979 8.70874,0.0662 8.70933,0.0666 10.0387,-1.26325 14.2267,-3.05787 21.73991,-6.18309 28.05482,-10.37092 22.07157,-9.4407 21.07484,-12.03315 20.40941,-13.3624 12.23313,-11.16896 8.30966,-8.44301 5.85046,-6.11655 5.11909,-5.78361 1.26354,-2.59279 -0.99709,-1.26328 z"
       inkscape:connector-curvature="0" />
    <path
       id="path1621"
       style="fill:#0068ff;fill-opacity:1;fill-rule:evenodd;stroke:#000000;stroke-width:0.37229532px;stroke-linecap:butt;stroke-linejoin:miter;stroke-opacity:1"
       d="m 392.33019,-248.14476 -7.91565,-1.34353 -14.29372,-1.26341 -15.15756,-1.19675 -14.42679,-0.46531 -14.82481,0.0664 -9.97223,0.13321 -15.29106,0.93051 -11.36829,0.99698 -7.04668,0.931 -12.96366,2.59261 -11.50182,2.99187 -12.69752,3.25746 -14.75904,5.45165 -7.44592,3.19108 -3.65653,1.92777 -9.24071,4.98567 -7.11346,4.45497 -4.7205,2.99136 -6.78084,5.18522 -4.7206,4.32159 -3.65592,3.92254 -1.79488,3.12484 -1.19621,3.72333 -0.53198,3.85576 2.4e-4,3.72287 0.53136,3.32378 2.32638,7.11336 1.92808,2.7251 3.58974,3.05875 4.6538,3.05822 4.58756,2.72554 4.78637,1.99448 5.45118,0.79771 7.57972,0.79778 6.18238,0.066 5.45127,-0.3984 10.6373,-1.59542 13.76155,-3.39033 12.69773,-3.65692 16.88681,-6.11622 9.63993,-3.65622 13.69482,-5.31889 9.44014,-3.98853 11.90049,-5.78417 4.32131,-2.19379 11.83306,-6.24884 10.83707,-6.5817 8.9079,-5.58462 7.04728,-5.98373 6.84745,-5.91633 5.65128,-5.25231 8.5093,-9.04147 z"
       inkscape:connector-curvature="0" />
    <path
       id="path1598"
       style="fill:#000056;fill-opacity:1;fill-rule:evenodd;stroke:#000096;stroke-width:0.37229532px;stroke-linecap:butt;stroke-linejoin:miter;stroke-opacity:1"
       d="m 390.91961,-249.93055 -0.75202,-0.0939 -6.67511,2.91432 -10.15433,4.1369 -7.75626,2.67974 -6.62884,1.92734 1.03419,-2.0683 1.50383,-2.63314 1.41039,-3.85451 0.56416,-2.25616 0.0943,-1.22214 -0.7046,-0.79956 -0.8465,2e-5 -1.03426,0.28222 -0.94011,1.69253 -0.51728,1.92668 -1.36377,3.71416 -2.30296,4.18364 -2.53846,2.91447 -21.01353,6.15839 -10.95327,2.20945 6.15836,-9.9187 7.6155,-11.94061 -0.28269,-0.75181 -0.79924,-0.79958 -1.03447,-0.28132 -1.4104,0.28187 -1.26934,1.92732 -7.00431,11.23558 -7.23938,11.84643 -22.37659,5.1705 3.0557,-5.6875 4.23084,-6.86381 4.56011,-7.00383 6.48687,-7.89782 0.1411,-0.70519 -0.18792,-0.56412 -0.37588,-0.47052 -0.51702,-0.5172 -0.93998,-0.18809 -1.22288,0.56402 -4.08971,5.31213 -5.96987,8.60257 -5.21841,8.50854 -4.37158,7.66299 -21.10706,5.68792 0.89295,-4.65417 1.26946,-5.02981 2.02134,-6.064 2.44391,-6.86341 2.20965,-4.93641 1.69256,-3.47825 1.3e-4,-1.03413 -0.70478,-0.79948 -0.94066,-0.37608 -1.26896,0.51691 -0.94061,1.5046 -3.57296,8.36752 -3.43144,9.07224 -2.25648,8.93248 -1.31598,5.73511 -14.52585,4.27745 -0.42324,-10.85923 -0.0467,-8.13246 0.46966,-5.17093 0.56401,-4.51305 0.0944,-1.69225 -0.37612,-0.75224 -0.56413,-0.56401 -0.70519,-0.14111 -1.08101,0.61103 -0.75241,0.84614 -0.14168,1.45767 -0.79912,8.60277 -0.23517,7.94394 0.14055,8.97926 0.28242,4.41836 -11.89338,3.90203 -9.91877,3.33773 -8.83817,3.19659 -0.46948,-3.47865 -0.23507,-5.68809 0.28153,-5.8291 0.56453,-4.79449 1.31648,-4.60754 1.08121,-3.14954 0.0935,-0.9401 -0.65822,-0.84589 -1.31627,-0.47057 -1.26903,0.9872 -0.79935,1.9275 -1.55164,6.15786 -0.61088,5.31206 -0.2353,6.62807 0.18822,6.01764 0.28187,3.76034 -15.93618,6.34684 -0.51647,-4.65434 -0.14128,-4.37189 -3.2e-4,-3.57282 0.51712,-4.18358 1.17545,-3.99535 0.89278,-2.58591 -0.23446,-0.61126 -0.51702,-0.51706 -0.75286,-0.37613 -0.51653,0.23473 -1.08132,0.98728 -0.79887,1.73993 -1.034,4.04286 -0.75207,4.23064 -0.0942,3.8545 2.4e-4,4.60701 0.32943,3.99584 0.23458,2.39766 -12.6926,5.73486 -9.68396,5.07756 -12.03451,6.58081 -9.63614,5.78187 -0.37598,0.9406 0.65791,0.84628 0.51667,0.42306 0.9403,0.28213 2.44392,-1.50392 11.56483,-6.58176 11.09449,-6.01714 7.70923,-3.76073 15.56011,-6.3457 15.23098,11.56395 14.90184,11.42333 1.36359,0.32915 0.89293,-0.3294 0.47027,-0.46989 0.0464,-0.61131 -0.37616,-0.93987 -0.79931,-0.79965 -28.44083,-21.48334 6.72219,-2.86753 21.90642,-7.61537 12.83391,7.8507 11.5644,7.99201 8.93122,5.73479 4.8894,2.6322 0.84615,-0.0941 0.70552,-0.51667 0.32919,-0.89277 -0.37619,-1.03451 -0.65746,-0.65812 -5.50014,-3.14966 -8.79115,-6.0643 -7.56876,-5.02973 -8.69616,-5.40621 -4.04298,-2.82117 14.62004,-4.74783 11.09435,6.39377 11.46999,5.54671 8.93205,4.23096 7.3804,3.24335 3.80745,1.64554 1.03477,0.47007 1.31611,-0.37552 0.46985,-0.56468 0.23437,-0.61118 -0.32911,-0.98704 -0.98721,-0.70488 -1.92747,-0.79926 -5.40582,-2.20947 -6.44031,-3.05527 -10.67163,-4.93608 -6.39269,-3.38449 -5.31232,-2.68019 -3.76064,-2.44442 13.02152,-3.99529 7.94458,-2.11564 5.54708,2.16299 6.2056,2.5383 6.6753,2.91457 7.4742,3.80782 5.87601,3.52542 4.9365,3.0561 2.53787,2.1623 0.75279,-5.1e-4 0.94026,-0.28199 0.56451,-0.65713 0.18858,-0.75218 -0.37578,-0.84591 -1.26922,-1.26981 -3.99604,-2.86704 -6.11064,-3.57312 -7.56929,-3.61954 -7.94421,-3.80793 -8.88483,-3.61999 8.5558,-2.35021 13.02154,-3.05585 7.09831,4.27837 10.57758,5.87595 9.40135,5.5473 3.0559,1.92722 1.1281,-2.8e-4 1.22225,-0.65756 0.28249,-1.12871 -0.56448,-0.84561 -0.79935,-0.79953 -8.03871,-4.46576 -8.88426,-5.03025 -9.49567,-5.64105 9.77734,-2.4441 16.59444,-3.99569 14.80824,8.32053 5.26477,2.91465 1.17528,0.0466 0.84649,-0.56392 0.23437,-0.61115 -0.18757,-1.12834 -0.75205,-0.94044 -3.99521,-2.39728 -9.87217,-5.26537 -2.53855,-1.78606 5.07695,-1.31597 9.35486,-2.77346 12.36339,-3.61948 9.58968,-3.57302 10.95306,-4.37183 5.45329,-2.53827 0.56416,-1.03427 -0.37607,-1.03457 z"
       inkscape:connector-curvature="0" />
    <g
       aria-label="Chacune de nos lectures laisse une graine qui germe. 
           (Jules Renard)"
       transform="matrix(0.26458333,0,0,0.26458333,-15.119047,-220.67621)"
       style="font-style:italic;font-variant:normal;font-weight:500;font-stretch:normal;font-size:192px;line-height:149.60000515%;font-family:'URW Chancery L';-inkscape-font-specification:'URW Chancery L, Medium Italic';font-variant-ligatures:normal;font-variant-caps:normal;font-variant-numeric:normal;font-feature-settings:normal;text-align:start;letter-spacing:0px;word-spacing:0px;writing-mode:lr-tb;text-anchor:start;fill:#000078;fill-opacity:1;stroke:none;stroke-width:1px;stroke-linecap:butt;stroke-linejoin:miter;stroke-opacity:1"
       id="flowRoot4542">
      <path
         d="m 364.25791,514.12877 c -28.21333,19.32 -49.06666,27.29334 -70.53333,27.29334 -24.22667,0 -39.56,-18.4 -39.56,-47.53334 0,-63.78666 45.08,-127.26666 90.46667,-127.26666 18.39999,0 27.59999,11.34667 29.43999,35.57333 l 22.69334,-19.32 c -2.76,-21.15999 -13.8,-30.66666 -35.88,-30.66666 -26.68,0 -57.65333,15.64 -84.64,42.62666 -29.74666,29.74667 -47.22666,70.53334 -47.22666,110.4 0,31.58667 17.48,50.6 46.91999,50.6 26.37334,0 59.8,-12.57333 86.17333,-32.50667 z"
         style="font-style:italic;font-variant:normal;font-weight:500;font-stretch:normal;font-size:306.66665649px;line-height:106.34667206px;font-family:'URW Chancery L';-inkscape-font-specification:'URW Chancery L, Medium Italic';font-variant-ligatures:normal;font-variant-caps:normal;font-variant-numeric:normal;font-feature-settings:normal;text-align:start;writing-mode:lr-tb;text-anchor:start;fill:#000078;fill-opacity:1"
         id="path4657" />
      <path
         d="m 384.35416,536.20877 21.77333,-8.89333 18.09333,-71.45333 c 3.06667,-2.14667 6.74667,-4.29333 7.36,-4.6 21.16,-13.49333 34.04,-20.24 37.41333,-20.24 2.14667,0 3.68,2.14667 3.68,4.90667 0,3.68 -1.22666,9.50666 -5.52,26.06666 -9.50666,36.8 -13.18666,54.58667 -13.18666,62.86667 0,3.68 1.22666,7.36 4.6,13.18666 16.86666,-8.58666 38.94666,-22.69333 55.81333,-34.96 l 2.14666,-8.89333 c -26.06666,15.33333 -30.35999,17.48 -34.34666,17.48 -2.76,0 -4.6,-3.06667 -4.6,-7.97333 0,-6.13334 1.84,-15.02667 7.05333,-34.96 9.81334,-36.18667 14.72,-54.89333 14.72,-56.12 0,-3.06667 -2.45333,-5.21333 -6.44,-5.21333 -6.44,0 -27.6,11.65333 -65.93333,36.49333 l 10.42667,-41.09333 c 7.36,-30.05333 10.42666,-39.56 14.41333,-47.22667 4.29333,-8.58666 10.73333,-12.57333 19.01333,-12.57333 3.98667,0 6.44,0.30667 18.4,2.76 l 13.18667,-18.70667 c -5.52,-1.22666 -7.97333,-1.53333 -12.57333,-1.53333 -16.86667,0 -25.76,4.6 -48.14667,24.22667 -15.94667,14.10666 -18.4,19.32 -27.90667,59.79999 z"
         style="font-style:italic;font-variant:normal;font-weight:500;font-stretch:normal;font-size:306.66665649px;line-height:106.34667206px;font-family:'URW Chancery L';-inkscape-font-specification:'URW Chancery L, Medium Italic';font-variant-ligatures:normal;font-variant-caps:normal;font-variant-numeric:normal;font-feature-settings:normal;text-align:start;writing-mode:lr-tb;text-anchor:start;fill:#000078;fill-opacity:1"
         id="path4659" />
      <path
         d="m 646.99978,493.58211 c -23,15.33333 -27.6,18.09333 -30.66667,18.09333 -2.14667,0 -3.68,-2.45333 -3.68,-6.13333 0,-7.97334 7.36,-41.70667 18.4,-82.49333 3.37333,-4.6 3.98667,-5.52 8.89333,-11.04 -14.72,-3.37334 -25.45333,-4.6 -38.64,-4.6 -12.57333,0 -18.39999,1.22666 -26.37333,6.13333 -11.04,6.44 -23.92,15.94667 -27.90666,20.24 -11.34667,12.88 -24.22667,54.28 -24.22667,79.12 0,14.72 4.90667,24.53333 12.57333,24.53333 6.74667,0 16.86667,-6.13333 55.2,-33.73333 -3.06666,14.10666 -4.6,23.61333 -4.6,27.29333 0,3.98667 1.84,6.44 4.90667,6.44 3.68,0 3.68,0 28.21333,-15.64 8.89333,-5.82667 15.94667,-10.73333 27.6,-19.32 z m -59.8,1.84 c -18.09333,13.18666 -27.29333,18.4 -32.81333,18.4 -4.90667,0 -7.97334,-5.52 -7.97334,-15.33334 0,-15.33333 4.90667,-36.18666 12.57334,-53.66666 7.36,-16.86667 14.10666,-23.30667 24.53333,-23.30667 5.52,0 15.02666,1.53334 26.06666,3.98667 -6.13333,23.30667 -8.28,30.36 -8.58666,31.89333 -1.84,7.66667 -3.37334,15.33334 -5.21334,23.30667 -0.30666,1.53333 -1.22666,5.21333 -2.76,10.73333 z"
         style="font-style:italic;font-variant:normal;font-weight:500;font-stretch:normal;font-size:306.66665649px;line-height:106.34667206px;font-family:'URW Chancery L';-inkscape-font-specification:'URW Chancery L, Medium Italic';font-variant-ligatures:normal;font-variant-caps:normal;font-variant-numeric:normal;font-feature-settings:normal;text-align:start;writing-mode:lr-tb;text-anchor:start;fill:#000078;fill-opacity:1"
         id="path4661" />
      <path
         d="m 742.34914,494.50211 c -23.61333,16.86666 -39.86666,25.45333 -49.68,25.45333 -11.04,0 -17.48,-8.58667 -17.48,-23.30667 0,-14.72 3.68,-34.34666 9.50667,-48.75999 6.13333,-16.25334 14.10667,-24.53334 23,-24.53334 7.36,0 11.34667,5.82667 12.88,19.32 l 17.78667,-10.42666 c 0.30666,-1.53334 0.30666,-3.06667 0.30666,-3.37334 0,-13.18666 -6.74666,-21.46666 -17.48,-21.46666 -5.52,0 -8.89333,1.22666 -19.93333,8.58666 -23,14.41334 -27.90667,19.01334 -34.65333,31.58667 -8.58667,16.56 -15.02667,42.62666 -15.02667,61.64 0,17.78666 8.28,28.21333 22.38667,28.21333 14.72,0 39.86666,-12.26667 67.77333,-33.12 z"
         style="font-style:italic;font-variant:normal;font-weight:500;font-stretch:normal;font-size:306.66665649px;line-height:106.34667206px;font-family:'URW Chancery L';-inkscape-font-specification:'URW Chancery L, Medium Italic';font-variant-ligatures:normal;font-variant-caps:normal;font-variant-numeric:normal;font-feature-settings:normal;text-align:start;writing-mode:lr-tb;text-anchor:start;fill:#000078;fill-opacity:1"
         id="path4663" />
      <path
         d="m 754.26123,441.44878 c 12.88,-6.44 18.70666,-8.89334 22.38666,-8.89334 2.45334,0 4.29334,2.45334 4.29334,5.82667 0,3.98667 -3.06667,17.17333 -8.58667,38.02667 -7.66666,28.51999 -9.50666,37.10666 -9.50666,45.99999 0,8.58667 3.68,15.02667 8.58666,15.02667 4.6,0 10.12,-2.76 25.45333,-12.88 l 31.58667,-20.54667 c -2.45333,9.81334 -4.29333,20.85334 -4.29333,26.37334 0,3.98666 2.45333,7.05333 5.52,7.05333 6.13333,0 35.26666,-17.17333 56.11999,-32.81333 l 2.14667,-9.2 c -23.92,14.10666 -31.89333,18.4 -35.26666,18.4 -2.14667,0 -3.37334,-2.45334 -3.37334,-7.36 0,-15.64 11.34667,-61.33333 24.53333,-100.28 -3.98666,2.14667 -6.74666,3.68 -7.97333,4.29333 -3.68,1.84 -7.36,3.68 -11.34666,5.52 -0.92,0.30667 -2.76,1.22667 -6.13334,3.06667 -1.84,7.05333 -7.97333,31.58667 -18.09333,73.90666 -23.61333,16.25334 -34.34667,22.38667 -38.02667,22.38667 -3.37333,0 -5.82666,-4.29333 -5.82666,-10.12 0,-7.05333 2.45333,-19.32 7.66666,-38.94666 3.37334,-12.26667 5.52,-20.85334 6.44,-25.14667 2.76,-11.34667 4.90667,-19.32 5.52,-21.46667 0.92,-3.37333 1.53334,-6.13333 1.53334,-8.28 0,-2.45333 -1.53334,-3.98666 -3.68,-3.98666 -3.06667,0 -25.45334,11.96 -47.53333,25.76 z"
         style="font-style:italic;font-variant:normal;font-weight:500;font-stretch:normal;font-size:306.66665649px;line-height:106.34667206px;font-family:'URW Chancery L';-inkscape-font-specification:'URW Chancery L, Medium Italic';font-variant-ligatures:normal;font-variant-caps:normal;font-variant-numeric:normal;font-feature-settings:normal;text-align:start;writing-mode:lr-tb;text-anchor:start;fill:#000078;fill-opacity:1"
         id="path4665" />
      <path
         d="m 920.76208,527.62211 18.09333,-72.06667 c 38.33334,-24.22666 39.25334,-24.53333 43.54667,-24.53333 2.14667,0 3.37333,1.53333 3.37333,3.98667 0,4.6 -2.45333,16.25333 -11.34666,51.21333 -6.74667,27.29333 -7.97334,32.50666 -7.97334,38.33333 0,4.29333 1.22667,8.28 4.6,13.8 14.10667,-6.44 35.26669,-19.62667 56.73329,-35.57333 l 2.1467,-8.58667 c -30.66665,17.48 -31.89332,18.09333 -34.95999,18.09333 -3.06666,0 -4.90666,-3.37333 -4.90666,-8.28 0,-6.44 2.14666,-16.56 7.97333,-37.71999 14.41332,-51.52 14.41332,-51.52 14.41332,-53.66667 0,-3.37333 -2.1467,-5.21333 -6.1333,-5.21333 -4.6,0 -11.34669,2.76 -22.38669,9.81333 l -42.01333,26.06667 c 2.76,-10.12 7.36,-29.44 7.36,-31.89334 0,-2.14666 -1.84,-3.98666 -3.98667,-3.98666 -3.37333,0 -25.45333,11.34666 -48.14666,24.84 l -1.84,7.97333 c 19.62667,-8.89333 20.85333,-9.2 23.61333,-9.2 2.14667,0 3.68,1.84 3.68,4.29333 0,6.44 -5.82666,31.89334 -13.49333,59.8 l -7.05333,24.84 c -0.61334,2.14667 -2.14667,7.97333 -4.29334,16.56 z"
         style="font-style:italic;font-variant:normal;font-weight:500;font-stretch:normal;font-size:306.66665649px;line-height:106.34667206px;font-family:'URW Chancery L';-inkscape-font-specification:'URW Chancery L, Medium Italic';font-variant-ligatures:normal;font-variant-caps:normal;font-variant-numeric:normal;font-feature-settings:normal;text-align:start;writing-mode:lr-tb;text-anchor:start;fill:#000078;fill-opacity:1"
         id="path4667" />
      <path
         d="m 1128.3562,491.43544 c -23,19.93333 -37.72,28.52 -49.3733,28.52 -7.6667,0 -14.1067,-5.21333 -16.2534,-13.18667 -1.2266,-4.90666 -1.5333,-8.28 -1.5333,-17.17333 13.8,-8.58667 23,-15.02666 41.0933,-28.52 16.56,-12.57333 23,-22.69333 23,-36.49333 0,-10.73333 -6.7466,-17.17333 -17.48,-17.17333 -6.7466,0 -11.6533,1.53333 -18.7066,5.52 -11.6534,6.74666 -22.08,15.02666 -28.52,22.38666 -11.6534,14.10667 -22.08,47.84 -22.08,72.68 0,18.09333 9.5066,29.44 25.1466,29.44 18.0934,0 40.48,-12.88 64.7067,-37.10667 z m -66.24,-12.88 c 5.2133,-32.81333 19.32,-58.26666 32.5067,-58.26666 5.2133,0 8.5866,5.21333 8.5866,12.57333 0,15.33333 -8.28,24.53333 -41.0933,45.69333 z"
         style="font-style:italic;font-variant:normal;font-weight:500;font-stretch:normal;font-size:306.66665649px;line-height:106.34667206px;font-family:'URW Chancery L';-inkscape-font-specification:'URW Chancery L, Medium Italic';font-variant-ligatures:normal;font-variant-caps:normal;font-variant-numeric:normal;font-feature-settings:normal;text-align:start;writing-mode:lr-tb;text-anchor:start;fill:#000078;fill-opacity:1"
         id="path4669" />
      <path
         d="m 1336.1373,493.27544 c -3.9867,2.45333 -7.0534,4.6 -8.5867,5.52 -16.8667,11.65333 -25.4533,16.56 -28.2133,16.56 -2.4534,0 -4.2934,-3.37333 -4.2934,-7.97333 0,-10.12 25.76,-121.13333 32.2,-140.14666 6.7467,-18.4 13.4934,-25.45334 24.5334,-25.45334 3.9866,0 7.0533,0.61334 14.1066,2.45334 l 10.7334,-17.17334 c -4.6,-0.92 -7.0534,-1.22666 -9.8134,-1.22666 -7.36,0 -11.3466,1.22666 -18.4,5.21333 -7.6666,4.29333 -18.0933,12.26667 -26.68,20.24 -15.0266,14.41333 -15.9466,16.56 -23.92,48.14666 -0.3066,1.22667 -1.2266,5.21334 -2.4533,9.81334 -5.52,-1.22667 -10.12,-1.84 -12.5733,-1.84 -9.5067,0 -35.88,16.56 -48.1467,30.05333 -10.4267,11.96 -24.2267,55.2 -24.2267,76.36 0,11.65333 6.1334,23.61333 11.6534,23.61333 5.8266,0 19.32,-8.28 51.52,-31.58667 -1.5334,7.66667 -2.4534,16.56 -2.4534,22.08 0,6.13334 2.4534,9.50667 6.7467,9.50667 4.9067,0 31.5867,-16.25333 57.04,-34.65333 z m -60.1067,1.22667 c -26.0667,18.4 -32.8133,22.38666 -37.1067,22.38666 -4.2933,0 -6.44,-4.6 -6.44,-13.49333 0,-10.12 1.84,-21.77333 5.52,-35.26666 8.8934,-30.97334 20.8534,-46.30667 36.4934,-46.30667 5.52,0 9.5066,2.14667 15.9466,8.28 z"
         style="font-style:italic;font-variant:normal;font-weight:500;font-stretch:normal;font-size:306.66665649px;line-height:106.34667206px;font-family:'URW Chancery L';-inkscape-font-specification:'URW Chancery L, Medium Italic';font-variant-ligatures:normal;font-variant-caps:normal;font-variant-numeric:normal;font-feature-settings:normal;text-align:start;writing-mode:lr-tb;text-anchor:start;fill:#000078;fill-opacity:1"
         id="path4671" />
      <path
         d="m 1435.0228,491.43544 c -23,19.93333 -37.72,28.52 -49.3733,28.52 -7.6667,0 -14.1067,-5.21333 -16.2533,-13.18667 -1.2267,-4.90666 -1.5334,-8.28 -1.5334,-17.17333 13.8,-8.58667 23,-15.02666 41.0934,-28.52 16.56,-12.57333 23,-22.69333 23,-36.49333 0,-10.73333 -6.7467,-17.17333 -17.48,-17.17333 -6.7467,0 -11.6534,1.53333 -18.7067,5.52 -11.6533,6.74666 -22.08,15.02666 -28.52,22.38666 -11.6533,14.10667 -22.08,47.84 -22.08,72.68 0,18.09333 9.5067,29.44 25.1467,29.44 18.0933,0 40.48,-12.88 64.7066,-37.10667 z m -66.24,-12.88 c 5.2134,-32.81333 19.32,-58.26666 32.5067,-58.26666 5.2133,0 8.5867,5.21333 8.5867,12.57333 0,15.33333 -8.28,24.53333 -41.0934,45.69333 z"
         style="font-style:italic;font-variant:normal;font-weight:500;font-stretch:normal;font-size:306.66665649px;line-height:106.34667206px;font-family:'URW Chancery L';-inkscape-font-specification:'URW Chancery L, Medium Italic';font-variant-ligatures:normal;font-variant-caps:normal;font-variant-numeric:normal;font-feature-settings:normal;text-align:start;writing-mode:lr-tb;text-anchor:start;fill:#000078;fill-opacity:1"
         id="path4673" />
      <path
         d="m 1540.684,527.62211 18.0933,-72.06667 c 38.3333,-24.22666 39.2533,-24.53333 43.5467,-24.53333 2.1466,0 3.3733,1.53333 3.3733,3.98667 0,4.6 -2.4533,16.25333 -11.3467,51.21333 -6.7466,27.29333 -7.9733,32.50666 -7.9733,38.33333 0,4.29333 1.2267,8.28 4.6,13.8 14.1067,-6.44 35.2667,-19.62667 56.7333,-35.57333 l 2.1467,-8.58667 c -30.6667,17.48 -31.8933,18.09333 -34.96,18.09333 -3.0667,0 -4.9067,-3.37333 -4.9067,-8.28 0,-6.44 2.1467,-16.56 7.9734,-37.71999 14.4133,-51.52 14.4133,-51.52 14.4133,-53.66667 0,-3.37333 -2.1467,-5.21333 -6.1333,-5.21333 -4.6,0 -11.3467,2.76 -22.3867,9.81333 l -42.0133,26.06667 c 2.76,-10.12 7.36,-29.44 7.36,-31.89334 0,-2.14666 -1.84,-3.98666 -3.9867,-3.98666 -3.3733,0 -25.4533,11.34666 -48.1467,24.84 l -1.84,7.97333 c 19.6267,-8.89333 20.8534,-9.2 23.6134,-9.2 2.1466,0 3.68,1.84 3.68,4.29333 0,6.44 -5.8267,31.89334 -13.4934,59.8 l -7.0533,24.84 c -0.6133,2.14667 -2.1467,7.97333 -4.2933,16.56 z"
         style="font-style:italic;font-variant:normal;font-weight:500;font-stretch:normal;font-size:306.66665649px;line-height:106.34667206px;font-family:'URW Chancery L';-inkscape-font-specification:'URW Chancery L, Medium Italic';font-variant-ligatures:normal;font-variant-caps:normal;font-variant-numeric:normal;font-feature-settings:normal;text-align:start;writing-mode:lr-tb;text-anchor:start;fill:#000078;fill-opacity:1"
         id="path4675" />
      <path
         d="m 1741.8381,407.40878 c -12.2667,0 -31.8934,8.89333 -49.9867,22.38666 -19.6267,14.72 -33.4266,46.61334 -33.4266,76.97333 0,18.70667 10.4266,30.66667 26.6799,30.66667 8.5867,0 17.1734,-3.06667 31.28,-10.42667 15.3334,-8.58666 25.4534,-16.25333 30.9734,-23.61333 12.2666,-16.56 22.08,-46.61333 22.08,-67.77333 0,-16.56 -11.3467,-28.21333 -27.6,-28.21333 z m -15.9467,14.41333 c 12.2667,0 19.9333,11.96 19.9333,30.36 0,12.88 -4.2933,28.82666 -11.96,43.85333 -8.5866,17.48 -19.6266,26.98667 -31.28,26.98667 -12.5733,0 -20.5466,-11.34667 -20.5466,-28.82667 0,-35.57333 22.3866,-72.37333 43.8533,-72.37333 z"
         style="font-style:italic;font-variant:normal;font-weight:500;font-stretch:normal;font-size:306.66665649px;line-height:106.34667206px;font-family:'URW Chancery L';-inkscape-font-specification:'URW Chancery L, Medium Italic';font-variant-ligatures:normal;font-variant-caps:normal;font-variant-numeric:normal;font-feature-settings:normal;text-align:start;writing-mode:lr-tb;text-anchor:start;fill:#000078;fill-opacity:1"
         id="path4677" />
      <path
         d="m 1767.7179,507.99544 c -0.3067,2.76 -0.6133,5.21333 -0.6133,7.05333 0,13.18667 9.2,22.38667 22.6933,22.38667 9.5067,0 22.6933,-3.98667 32.5067,-9.50667 18.0933,-10.42666 29.1333,-26.06666 29.1333,-41.4 0,-11.34666 -2.1467,-13.79999 -19.32,-24.53333 -10.4267,-6.74666 -14.72,-12.57333 -14.72,-20.54666 0,-10.42667 8.8933,-19.62667 19.32,-19.62667 7.0533,0 12.2667,3.37333 19.0133,11.96 10.4267,-10.12 10.4267,-10.12 14.4134,-15.94667 -6.1334,-7.36 -11.96,-10.42666 -20.5467,-10.42666 -22.3867,0 -51.2133,26.68 -51.2133,46.92 0,9.50666 4.9066,16.86666 16.56,25.14666 15.3333,10.73333 17.48,13.49333 17.48,21.16 0,11.04 -14.1067,23.92 -26.0667,23.92 -6.7467,0 -11.96,-3.68 -15.0267,-10.42667 -2.1466,-4.6 -2.76,-9.2 -3.0666,-19.62666 -3.3734,2.45333 -5.8267,3.98666 -7.0534,4.90666 -2.4533,1.53334 -5.2133,3.06667 -7.9733,4.90667 z"
         style="font-style:italic;font-variant:normal;font-weight:500;font-stretch:normal;font-size:306.66665649px;line-height:106.34667206px;font-family:'URW Chancery L';-inkscape-font-specification:'URW Chancery L, Medium Italic';font-variant-ligatures:normal;font-variant-caps:normal;font-variant-numeric:normal;font-feature-settings:normal;text-align:start;writing-mode:lr-tb;text-anchor:start;fill:#000078;fill-opacity:1"
         id="path4679" />
      <path
         d="m 296.17791,781.12077 c -4.29333,2.45333 -7.05333,4.29333 -8.28,4.90667 -22.08,13.8 -24.53333,15.02666 -28.82666,15.02666 -2.76,0 -5.52,-3.68 -5.52,-7.97333 v -2.76 -2.76 c 0,-5.52 13.8,-65.01333 25.14666,-108.25333 11.96,-45.08 14.72,-50.6 28.21334,-50.6 3.98666,0 7.05333,0.30667 15.02666,2.14667 l 13.18667,-16.25334 c -6.44,-1.53333 -9.81333,-1.84 -13.8,-1.84 -12.26667,0 -22.08,4.90667 -36.8,18.09334 -13.49333,12.26666 -16.86667,16.86666 -20.85333,27.90666 -2.45334,7.36 -9.2,32.2 -12.26667,45.69333 l -22.08,95.98667 c -0.30666,1.84 -0.61333,3.68 -0.61333,5.52 0,9.2 5.21333,18.70666 10.12,18.70666 h 1.84 0.92 c 3.06667,0 15.94666,-8.89333 54.58666,-36.79999 z"
         style="font-style:italic;font-variant:normal;font-weight:500;font-stretch:normal;font-size:306.66665649px;line-height:106.34667206px;font-family:'URW Chancery L';-inkscape-font-specification:'URW Chancery L, Medium Italic';font-variant-ligatures:normal;font-variant-caps:normal;font-variant-numeric:normal;font-feature-settings:normal;text-align:start;writing-mode:lr-tb;text-anchor:start;fill:#000078;fill-opacity:1"
         id="path4681" />
      <path
         d="m 392.23645,778.66744 c -22.99999,19.93333 -37.71999,28.51999 -49.37333,28.51999 -7.66666,0 -14.10666,-5.21333 -16.25333,-13.18666 -1.22667,-4.90667 -1.53333,-8.28 -1.53333,-17.17333 13.8,-8.58667 23,-15.02667 41.09333,-28.52 16.56,-12.57334 23,-22.69334 23,-36.49334 0,-10.73333 -6.74667,-17.17333 -17.48,-17.17333 -6.74667,0 -11.65333,1.53334 -18.70667,5.52 -11.65333,6.74667 -22.08,15.02667 -28.52,22.38667 -11.65333,14.10666 -22.08,47.84 -22.08,72.68 0,18.09333 9.50667,29.43999 25.14667,29.43999 18.09333,0 40.48,-12.88 64.70666,-37.10666 z m -66.23999,-12.88 c 5.21333,-32.81334 19.32,-58.26667 32.50666,-58.26667 5.21334,0 8.58667,5.21333 8.58667,12.57333 0,15.33334 -8.28,24.53334 -41.09333,45.69334 z"
         style="font-style:italic;font-variant:normal;font-weight:500;font-stretch:normal;font-size:306.66665649px;line-height:106.34667206px;font-family:'URW Chancery L';-inkscape-font-specification:'URW Chancery L, Medium Italic';font-variant-ligatures:normal;font-variant-caps:normal;font-variant-numeric:normal;font-feature-settings:normal;text-align:start;writing-mode:lr-tb;text-anchor:start;fill:#000078;fill-opacity:1"
         id="path4683" />
      <path
         d="m 497.3752,781.7341 c -23.61333,16.86667 -39.86666,25.45333 -49.67999,25.45333 -11.04,0 -17.48,-8.58666 -17.48,-23.30666 0,-14.72 3.68,-34.34667 9.50666,-48.76 6.13334,-16.25333 14.10667,-24.53333 23,-24.53333 7.36,0 11.34667,5.82666 12.88,19.32 l 17.78667,-10.42667 c 0.30666,-1.53333 0.30666,-3.06667 0.30666,-3.37333 0,-13.18667 -6.74666,-21.46667 -17.47999,-21.46667 -5.52,0 -8.89334,1.22667 -19.93334,8.58667 -23,14.41333 -27.90666,19.01333 -34.65333,31.58666 -8.58667,16.56 -15.02667,42.62667 -15.02667,61.64 0,17.78667 8.28,28.21333 22.38667,28.21333 14.72,0 39.86667,-12.26666 67.77333,-33.11999 z"
         style="font-style:italic;font-variant:normal;font-weight:500;font-stretch:normal;font-size:306.66665649px;line-height:106.34667206px;font-family:'URW Chancery L';-inkscape-font-specification:'URW Chancery L, Medium Italic';font-variant-ligatures:normal;font-variant-caps:normal;font-variant-numeric:normal;font-feature-settings:normal;text-align:start;writing-mode:lr-tb;text-anchor:start;fill:#000078;fill-opacity:1"
         id="path4685" />
      <path
         d="m 595.46062,782.04077 c -23.30666,13.8 -33.12,19.01333 -37.41333,19.01333 -3.98667,0 -8.89333,-7.97333 -8.89333,-14.41333 0,-4.29333 5.21333,-27.90667 13.18666,-60.10667 4.29334,-0.30666 7.36,-0.30666 8.89334,-0.30666 l 12.26666,-0.30667 c 1.22667,0 4.29333,-0.30667 9.2,-0.92 l 11.65333,-8.89333 h -39.25333 l 12.26667,-49.68 c -5.82667,3.06667 -8.28,3.98667 -12.88,6.13333 -2.14667,1.22667 -4.6,2.14667 -7.05333,3.37334 -1.22667,0.61333 -2.76,1.22666 -4.29334,1.84 l -8.58666,38.33333 c -2.76,0.30666 -4.6,0.30666 -5.52,0.30666 h -7.36 c -0.61334,0 -2.14667,0 -4.6,0.30667 -3.37334,2.14667 -3.68,2.14667 -8.89334,6.44 -0.92,0.61333 -2.45333,1.84 -4.6,3.37333 h 7.36 14.10667 6.74667 c -16.25334,68.08 -16.25334,68.08 -16.25334,77.58667 0,9.81333 6.44,20.54666 12.26667,20.54666 6.74667,0 27.6,-12.88 57.04,-34.95999 z"
         style="font-style:italic;font-variant:normal;font-weight:500;font-stretch:normal;font-size:306.66665649px;line-height:106.34667206px;font-family:'URW Chancery L';-inkscape-font-specification:'URW Chancery L, Medium Italic';font-variant-ligatures:normal;font-variant-caps:normal;font-variant-numeric:normal;font-feature-settings:normal;text-align:start;writing-mode:lr-tb;text-anchor:start;fill:#000078;fill-opacity:1"
         id="path4687" />
      <path
         d="m 607.51645,728.68077 c 12.88,-6.44 18.70666,-8.89333 22.38666,-8.89333 2.45334,0 4.29334,2.45333 4.29334,5.82666 0,3.98667 -3.06667,17.17334 -8.58667,38.02667 -7.66667,28.52 -9.50667,37.10667 -9.50667,46 0,8.58666 3.68,15.02666 8.58667,15.02666 4.6,0 10.12,-2.76 25.45333,-12.88 l 31.58667,-20.54666 c -2.45334,9.81333 -4.29333,20.85333 -4.29333,26.37333 0,3.98667 2.45333,7.05333 5.51999,7.05333 6.13334,0 35.26667,-17.17333 56.12,-32.81333 l 2.14667,-9.2 c -23.92,14.10667 -31.89333,18.4 -35.26667,18.4 -2.14666,0 -3.37333,-2.45333 -3.37333,-7.36 0,-15.64 11.34667,-61.33333 24.53333,-100.27999 -3.98666,2.14666 -6.74666,3.68 -7.97333,4.29333 -3.68,1.84 -7.36,3.68 -11.34667,5.52 -0.92,0.30666 -2.76,1.22666 -6.13333,3.06666 -1.84,7.05334 -7.97333,31.58667 -18.09333,73.90667 -23.61333,16.25333 -34.34667,22.38667 -38.02667,22.38667 -3.37333,0 -5.82666,-4.29334 -5.82666,-10.12 0,-7.05334 2.45333,-19.32 7.66666,-38.94667 3.37334,-12.26667 5.52,-20.85333 6.44,-25.14667 2.76,-11.34666 4.90667,-19.32 5.52,-21.46666 0.92,-3.37334 1.53334,-6.13333 1.53334,-8.28 0,-2.45333 -1.53334,-3.98667 -3.68,-3.98667 -3.06667,0 -25.45334,11.96 -47.53334,25.76 z"
         style="font-style:italic;font-variant:normal;font-weight:500;font-stretch:normal;font-size:306.66665649px;line-height:106.34667206px;font-family:'URW Chancery L';-inkscape-font-specification:'URW Chancery L, Medium Italic';font-variant-ligatures:normal;font-variant-caps:normal;font-variant-numeric:normal;font-feature-settings:normal;text-align:start;writing-mode:lr-tb;text-anchor:start;fill:#000078;fill-opacity:1"
         id="path4689" />
      <path
         d="m 751.32394,823.74743 23.61333,-8.89333 23,-87.4 c 10.42667,-7.66666 17.48,-10.73333 25.76,-10.73333 6.74666,0 10.73333,2.45333 16.25333,9.50667 l 9.2,-29.13333 c -5.82667,-1.84 -8.28,-2.45334 -11.34667,-2.45334 -5.52,0 -11.96,2.76 -20.24,8.58667 L 799.4706,716.4141 c 0.30667,-2.45333 0.92,-3.98666 0.92,-4.90666 2.45334,-10.12 2.76,-11.96 2.76,-13.49333 0,-1.84 -1.84,-3.37334 -3.98666,-3.37334 -3.98667,0 -30.97334,13.18667 -49.68,24.53333 l -0.92,8.28 c 16.56,-8.58666 18.4,-9.2 22.08,-9.2 3.98666,0 5.82666,2.14667 5.82666,6.44 0,4.29334 -3.06666,18.70667 -6.74666,31.89334 z"
         style="font-style:italic;font-variant:normal;font-weight:500;font-stretch:normal;font-size:306.66665649px;line-height:106.34667206px;font-family:'URW Chancery L';-inkscape-font-specification:'URW Chancery L, Medium Italic';font-variant-ligatures:normal;font-variant-caps:normal;font-variant-numeric:normal;font-feature-settings:normal;text-align:start;writing-mode:lr-tb;text-anchor:start;fill:#000078;fill-opacity:1"
         id="path4691" />
      <path
         d="m 932.49683,778.66744 c -23,19.93333 -37.72,28.51999 -49.37333,28.51999 -7.66667,0 -14.10667,-5.21333 -16.25333,-13.18666 -1.22667,-4.90667 -1.53334,-8.28 -1.53334,-17.17333 13.8,-8.58667 23,-15.02667 41.09333,-28.52 16.56,-12.57334 23,-22.69334 23,-36.49334 0,-10.73333 -6.74666,-17.17333 -17.48,-17.17333 -6.74666,0 -11.65333,1.53334 -18.70666,5.52 -11.65333,6.74667 -22.08,15.02667 -28.52,22.38667 -11.65333,14.10666 -22.08,47.84 -22.08,72.68 0,18.09333 9.50667,29.43999 25.14667,29.43999 18.09333,0 40.47999,-12.88 64.70666,-37.10666 z m -66.24,-12.88 c 5.21334,-32.81334 19.32,-58.26667 32.50667,-58.26667 5.21333,0 8.58666,5.21333 8.58666,12.57333 0,15.33334 -8.28,24.53334 -41.09333,45.69334 z"
         style="font-style:italic;font-variant:normal;font-weight:500;font-stretch:normal;font-size:306.66665649px;line-height:106.34667206px;font-family:'URW Chancery L';-inkscape-font-specification:'URW Chancery L, Medium Italic';font-variant-ligatures:normal;font-variant-caps:normal;font-variant-numeric:normal;font-feature-settings:normal;text-align:start;writing-mode:lr-tb;text-anchor:start;fill:#000078;fill-opacity:1"
         id="path4693" />
      <path
         d="m 933.36892,795.22744 c -0.30667,2.76 -0.61334,5.21333 -0.61334,7.05333 0,13.18666 9.2,22.38666 22.69334,22.38666 9.50666,0 22.69333,-3.98666 32.50666,-9.50666 18.09332,-10.42667 29.13332,-26.06667 29.13332,-41.4 0,-11.34667 -2.1467,-13.8 -19.31998,-24.53333 -10.42667,-6.74667 -14.72,-12.57334 -14.72,-20.54667 0,-10.42667 8.89333,-19.62667 19.31998,-19.62667 7.0533,0 12.2667,3.37334 19.0133,11.96 10.4267,-10.12 10.4267,-10.12 14.4134,-15.94666 -6.1334,-7.36 -11.96,-10.42667 -20.5467,-10.42667 -22.38665,0 -51.21332,26.68 -51.21332,46.92 0,9.50667 4.90667,16.86667 16.56,25.14667 15.33334,10.73333 17.48,13.49333 17.48,21.16 0,11.04 -14.10666,23.91999 -26.06666,23.91999 -6.74667,0 -11.96,-3.68 -15.02667,-10.42666 -2.14667,-4.6 -2.76,-9.2 -3.06667,-19.62667 -3.37333,2.45334 -5.82666,3.98667 -7.05333,4.90667 -2.45333,1.53333 -5.21333,3.06667 -7.97333,4.90667 z"
         style="font-style:italic;font-variant:normal;font-weight:500;font-stretch:normal;font-size:306.66665649px;line-height:106.34667206px;font-family:'URW Chancery L';-inkscape-font-specification:'URW Chancery L, Medium Italic';font-variant-ligatures:normal;font-variant-caps:normal;font-variant-numeric:normal;font-feature-settings:normal;text-align:start;writing-mode:lr-tb;text-anchor:start;fill:#000078;fill-opacity:1"
         id="path4695" />
      <path
         d="m 1180.2404,781.12077 c -4.2933,2.45333 -7.0533,4.29333 -8.28,4.90667 -22.08,13.8 -24.5333,15.02666 -28.8267,15.02666 -2.76,0 -5.52,-3.68 -5.52,-7.97333 v -2.76 -2.76 c 0,-5.52 13.8,-65.01333 25.1467,-108.25333 11.96,-45.08 14.72,-50.6 28.2133,-50.6 3.9867,0 7.0534,0.30667 15.0267,2.14667 l 13.1867,-16.25334 c -6.44,-1.53333 -9.8134,-1.84 -13.8,-1.84 -12.2667,0 -22.08,4.90667 -36.8,18.09334 -13.4934,12.26666 -16.8667,16.86666 -20.8534,27.90666 -2.4533,7.36 -9.2,32.2 -12.2666,45.69333 l -22.08,95.98667 c -0.3067,1.84 -0.6134,3.68 -0.6134,5.52 0,9.2 5.2134,18.70666 10.12,18.70666 h 1.84 0.92 c 3.0667,0 15.9467,-8.89333 54.5867,-36.79999 z"
         style="font-style:italic;font-variant:normal;font-weight:500;font-stretch:normal;font-size:306.66665649px;line-height:106.34667206px;font-family:'URW Chancery L';-inkscape-font-specification:'URW Chancery L, Medium Italic';font-variant-ligatures:normal;font-variant-caps:normal;font-variant-numeric:normal;font-feature-settings:normal;text-align:start;writing-mode:lr-tb;text-anchor:start;fill:#000078;fill-opacity:1"
         id="path4697" />
      <path
         d="m 1310.6456,780.8141 c -23,15.33334 -27.6,18.09334 -30.6666,18.09334 -2.1467,0 -3.68,-2.45334 -3.68,-6.13334 0,-7.97333 7.36,-41.70666 18.4,-82.49333 3.3733,-4.6 3.9866,-5.52 8.8933,-11.04 -14.72,-3.37333 -25.4533,-4.6 -38.64,-4.6 -12.5733,0 -18.4,1.22667 -26.3733,6.13334 -11.04,6.43999 -23.92,15.94666 -27.9067,20.23999 -11.3467,12.88 -24.2267,54.28 -24.2267,79.12 0,14.72 4.9067,24.53333 12.5734,24.53333 6.7466,0 16.8666,-6.13333 55.2,-33.73333 -3.0667,14.10667 -4.6,23.61333 -4.6,27.29333 0,3.98667 1.84,6.44 4.9066,6.44 3.68,0 3.68,0 28.2134,-15.64 8.8933,-5.82666 15.9466,-10.73333 27.6,-19.31999 z m -59.8,1.84 c -18.0933,13.18667 -27.2933,18.4 -32.8133,18.4 -4.9067,0 -7.9733,-5.52 -7.9733,-15.33333 0,-15.33333 4.9066,-36.18667 12.5733,-53.66667 7.36,-16.86666 14.1067,-23.30666 24.5333,-23.30666 5.52,0 15.0267,1.53333 26.0667,3.98666 -6.1333,23.30667 -8.28,30.36 -8.5867,31.89334 -1.84,7.66666 -3.3733,15.33333 -5.2133,23.30666 -0.3067,1.53334 -1.2267,5.21334 -2.76,10.73334 z"
         style="font-style:italic;font-variant:normal;font-weight:500;font-stretch:normal;font-size:306.66665649px;line-height:106.34667206px;font-family:'URW Chancery L';-inkscape-font-specification:'URW Chancery L, Medium Italic';font-variant-ligatures:normal;font-variant-caps:normal;font-variant-numeric:normal;font-feature-settings:normal;text-align:start;writing-mode:lr-tb;text-anchor:start;fill:#000078;fill-opacity:1"
         id="path4699" />
      <path
         d="m 1362.755,669.18744 c 8.8933,-7.97333 9.5066,-8.58667 19.9333,-16.56 -1.84,-3.68 -3.3733,-6.13333 -3.9867,-7.05333 -1.84,-3.68 -2.1466,-3.98667 -4.6,-9.81334 -0.6133,-1.22666 -1.2266,-2.45333 -1.84,-3.98666 -1.5333,1.22666 -3.3733,2.45333 -4.2933,3.37333 -1.2267,1.22667 -3.68,3.06667 -6.7467,5.52 -1.5333,1.22667 -3.68,2.76 -6.44,4.6 -1.2266,0.92 -2.4533,1.84 -3.68,2.45333 2.1467,6.74667 4.9067,11.65334 11.6534,21.46667 z m 21.16,115.92 c -29.1334,15.64 -29.7467,15.94666 -33.7334,15.94666 -3.3733,0 -5.52,-3.37333 -5.52,-8.58666 0,-3.06667 0.92,-8.89334 2.76,-15.64 15.64,-64.4 18.7067,-76.66667 18.7067,-79.12 0,-1.84 -1.5333,-3.06667 -3.68,-3.06667 -5.2133,0 -23.3067,10.12 -48.4533,26.98667 l -0.6134,8.58666 c 18.0934,-9.81333 19.6267,-10.42666 22.3867,-10.42666 2.4533,0 3.68,1.84 3.68,5.52 0,3.98666 -0.92,8.28 -5.52,25.76 -14.4133,53.66666 -14.4133,53.66666 -14.4133,61.33333 0,7.36 3.0666,12.26666 7.36,12.26666 5.2133,0 13.4933,-3.98666 29.7466,-14.41333 5.8267,-3.68 11.6534,-7.36 17.48,-11.34666 2.76,-1.53334 5.52,-3.37334 8.5867,-5.21334 z"
         style="font-style:italic;font-variant:normal;font-weight:500;font-stretch:normal;font-size:306.66665649px;line-height:106.34667206px;font-family:'URW Chancery L';-inkscape-font-specification:'URW Chancery L, Medium Italic';font-variant-ligatures:normal;font-variant-caps:normal;font-variant-numeric:normal;font-feature-settings:normal;text-align:start;writing-mode:lr-tb;text-anchor:start;fill:#000078;fill-opacity:1"
         id="path4701" />
      <path
         d="m 1375.4002,795.22744 c -0.3067,2.76 -0.6134,5.21333 -0.6134,7.05333 0,13.18666 9.2,22.38666 22.6934,22.38666 9.5066,0 22.6933,-3.98666 32.5066,-9.50666 18.0934,-10.42667 29.1334,-26.06667 29.1334,-41.4 0,-11.34667 -2.1467,-13.8 -19.32,-24.53333 -10.4267,-6.74667 -14.72,-12.57334 -14.72,-20.54667 0,-10.42667 8.8933,-19.62667 19.32,-19.62667 7.0533,0 12.2666,3.37334 19.0133,11.96 10.4267,-10.12 10.4267,-10.12 14.4133,-15.94666 -6.1333,-7.36 -11.96,-10.42667 -20.5466,-10.42667 -22.3867,0 -51.2134,26.68 -51.2134,46.92 0,9.50667 4.9067,16.86667 16.56,25.14667 15.3334,10.73333 17.48,13.49333 17.48,21.16 0,11.04 -14.1066,23.91999 -26.0666,23.91999 -6.7467,0 -11.96,-3.68 -15.0267,-10.42666 -2.1467,-4.6 -2.76,-9.2 -3.0667,-19.62667 -3.3733,2.45334 -5.8266,3.98667 -7.0533,4.90667 -2.4533,1.53333 -5.2133,3.06667 -7.9733,4.90667 z"
         style="font-style:italic;font-variant:normal;font-weight:500;font-stretch:normal;font-size:306.66665649px;line-height:106.34667206px;font-family:'URW Chancery L';-inkscape-font-specification:'URW Chancery L, Medium Italic';font-variant-ligatures:normal;font-variant-caps:normal;font-variant-numeric:normal;font-feature-settings:normal;text-align:start;writing-mode:lr-tb;text-anchor:start;fill:#000078;fill-opacity:1"
         id="path4703" />
      <path
         d="m 1473.6293,795.22744 c -0.3067,2.76 -0.6133,5.21333 -0.6133,7.05333 0,13.18666 9.2,22.38666 22.6933,22.38666 9.5067,0 22.6933,-3.98666 32.5067,-9.50666 18.0933,-10.42667 29.1333,-26.06667 29.1333,-41.4 0,-11.34667 -2.1467,-13.8 -19.32,-24.53333 -10.4267,-6.74667 -14.72,-12.57334 -14.72,-20.54667 0,-10.42667 8.8933,-19.62667 19.32,-19.62667 7.0533,0 12.2667,3.37334 19.0133,11.96 10.4267,-10.12 10.4267,-10.12 14.4134,-15.94666 -6.1334,-7.36 -11.96,-10.42667 -20.5467,-10.42667 -22.3867,0 -51.2133,26.68 -51.2133,46.92 0,9.50667 4.9066,16.86667 16.56,25.14667 15.3333,10.73333 17.48,13.49333 17.48,21.16 0,11.04 -14.1067,23.91999 -26.0667,23.91999 -6.7467,0 -11.96,-3.68 -15.0267,-10.42666 -2.1466,-4.6 -2.76,-9.2 -3.0666,-19.62667 -3.3734,2.45334 -5.8267,3.98667 -7.0534,4.90667 -2.4533,1.53333 -5.2133,3.06667 -7.9733,4.90667 z"
         style="font-style:italic;font-variant:normal;font-weight:500;font-stretch:normal;font-size:306.66665649px;line-height:106.34667206px;font-family:'URW Chancery L';-inkscape-font-specification:'URW Chancery L, Medium Italic';font-variant-ligatures:normal;font-variant-caps:normal;font-variant-numeric:normal;font-feature-settings:normal;text-align:start;writing-mode:lr-tb;text-anchor:start;fill:#000078;fill-opacity:1"
         id="path4705" />
      <path
         d="m 1675.2052,778.66744 c -23,19.93333 -37.72,28.51999 -49.3733,28.51999 -7.6667,0 -14.1067,-5.21333 -16.2534,-13.18666 -1.2266,-4.90667 -1.5333,-8.28 -1.5333,-17.17333 13.8,-8.58667 23,-15.02667 41.0933,-28.52 16.56,-12.57334 23,-22.69334 23,-36.49334 0,-10.73333 -6.7466,-17.17333 -17.48,-17.17333 -6.7466,0 -11.6533,1.53334 -18.7066,5.52 -11.6534,6.74667 -22.08,15.02667 -28.52,22.38667 -11.6534,14.10666 -22.08,47.84 -22.08,72.68 0,18.09333 9.5066,29.43999 25.1466,29.43999 18.0934,0 40.48,-12.88 64.7067,-37.10666 z m -66.24,-12.88 c 5.2133,-32.81334 19.32,-58.26667 32.5067,-58.26667 5.2133,0 8.5866,5.21333 8.5866,12.57333 0,15.33334 -8.28,24.53334 -41.0933,45.69334 z"
         style="font-style:italic;font-variant:normal;font-weight:500;font-stretch:normal;font-size:306.66665649px;line-height:106.34667206px;font-family:'URW Chancery L';-inkscape-font-specification:'URW Chancery L, Medium Italic';font-variant-ligatures:normal;font-variant-caps:normal;font-variant-numeric:normal;font-feature-settings:normal;text-align:start;writing-mode:lr-tb;text-anchor:start;fill:#000078;fill-opacity:1"
         id="path4707" />
      <path
         d="m 227.17792,1015.9128 c 12.88,-6.44 18.70666,-8.8934 22.38666,-8.8934 2.45334,0 4.29333,2.4534 4.29333,5.8267 0,3.9867 -3.06666,17.1733 -8.58666,38.0267 -7.66667,28.52 -9.50667,37.1066 -9.50667,46 0,8.5866 3.68,15.0266 8.58667,15.0266 4.6,0 10.12,-2.76 25.45333,-12.88 l 31.58667,-20.5466 c -2.45334,9.8133 -4.29334,20.8533 -4.29334,26.3733 0,3.9867 2.45334,7.0533 5.52,7.0533 6.13334,0 35.26667,-17.1733 56.12,-32.8133 l 2.14667,-9.2 c -23.92,14.1067 -31.89333,18.4 -35.26667,18.4 -2.14666,0 -3.37333,-2.4533 -3.37333,-7.36 0,-15.64 11.34667,-61.3333 24.53333,-100.28 -3.98666,2.14667 -6.74666,3.68 -7.97333,4.29333 -3.68,1.84 -7.36,3.68 -11.34667,5.52 -0.92,0.30667 -2.76,1.22667 -6.13333,3.06667 -1.84,7.0533 -7.97333,31.5867 -18.09333,73.9067 -23.61334,16.2533 -34.34667,22.3866 -38.02667,22.3866 -3.37333,0 -5.82667,-4.2933 -5.82667,-10.12 0,-7.0533 2.45334,-19.32 7.66667,-38.9466 3.37333,-12.2667 5.52,-20.8534 6.44,-25.1467 2.76,-11.3467 4.90667,-19.32 5.52,-21.46667 0.92,-3.37333 1.53333,-6.13333 1.53333,-8.28 0,-2.45333 -1.53333,-3.98666 -3.68,-3.98666 -3.06666,0 -25.45333,11.96 -47.53333,25.76003 z"
         style="font-style:italic;font-variant:normal;font-weight:500;font-stretch:normal;font-size:306.66665649px;line-height:106.34667206px;font-family:'URW Chancery L';-inkscape-font-specification:'URW Chancery L, Medium Italic';font-variant-ligatures:normal;font-variant-caps:normal;font-variant-numeric:normal;font-feature-settings:normal;text-align:start;writing-mode:lr-tb;text-anchor:start;fill:#000078;fill-opacity:1"
         id="path4709" />
      <path
         d="m 393.67874,1102.0861 18.09333,-72.0667 c 38.33333,-24.2266 39.25333,-24.5333 43.54667,-24.5333 2.14666,0 3.37333,1.5333 3.37333,3.9867 0,4.6 -2.45333,16.2533 -11.34667,51.2133 -6.74666,27.2933 -7.97333,32.5067 -7.97333,38.3333 0,4.2934 1.22667,8.28 4.6,13.8 14.10667,-6.44 35.26667,-19.6266 56.73333,-35.5733 l 2.14667,-8.5867 c -30.66667,17.48 -31.89333,18.0934 -34.96,18.0934 -3.06667,0 -4.90667,-3.3734 -4.90667,-8.28 0,-6.44 2.14667,-16.56 7.97334,-37.72 14.41333,-51.52003 14.41333,-51.52003 14.41333,-53.6667 0,-3.37333 -2.14667,-5.21333 -6.13333,-5.21333 -4.6,0 -11.34667,2.76 -22.38667,9.81333 l -42.01333,26.0667 c 2.76,-10.12 7.36,-29.44003 7.36,-31.89337 0,-2.14666 -1.84,-3.98666 -3.98667,-3.98666 -3.37333,0 -25.45333,11.34666 -48.14666,24.84003 l -1.84,7.9733 c 19.62666,-8.8933 20.85333,-9.2 23.61333,-9.2 2.14666,0 3.68,1.84 3.68,4.2933 0,6.44 -5.82667,31.8934 -13.49333,59.8 l -7.05334,24.84 c -0.61333,2.1467 -2.14666,7.9734 -4.29333,16.56 z"
         style="font-style:italic;font-variant:normal;font-weight:500;font-stretch:normal;font-size:306.66665649px;line-height:106.34667206px;font-family:'URW Chancery L';-inkscape-font-specification:'URW Chancery L, Medium Italic';font-variant-ligatures:normal;font-variant-caps:normal;font-variant-numeric:normal;font-feature-settings:normal;text-align:start;writing-mode:lr-tb;text-anchor:start;fill:#000078;fill-opacity:1"
         id="path4711" />
      <path
         d="m 601.27289,1065.8994 c -23,19.9334 -37.72,28.52 -49.37333,28.52 -7.66667,0 -14.10667,-5.2133 -16.25333,-13.1866 -1.22667,-4.9067 -1.53334,-8.28 -1.53334,-17.1734 13.8,-8.5866 23,-15.0266 41.09334,-28.52 16.56,-12.5733 23,-22.6933 23,-36.4933 0,-10.73333 -6.74667,-17.17333 -17.48,-17.17333 -6.74667,0 -11.65334,1.53333 -18.70667,5.52 -11.65333,6.74666 -22.08,15.02663 -28.52,22.38663 -11.65333,14.1067 -22.08,47.84 -22.08,72.68 0,18.0934 9.50667,29.44 25.14667,29.44 18.09333,0 40.48,-12.88 64.70666,-37.1066 z m -66.24,-12.88 c 5.21334,-32.8133 19.32,-58.26663 32.50667,-58.26663 5.21333,0 8.58667,5.21333 8.58667,12.57333 0,15.3333 -8.28,24.5333 -41.09334,45.6933 z"
         style="font-style:italic;font-variant:normal;font-weight:500;font-stretch:normal;font-size:306.66665649px;line-height:106.34667206px;font-family:'URW Chancery L';-inkscape-font-specification:'URW Chancery L, Medium Italic';font-variant-ligatures:normal;font-variant-caps:normal;font-variant-numeric:normal;font-feature-settings:normal;text-align:start;writing-mode:lr-tb;text-anchor:start;fill:#000078;fill-opacity:1"
         id="path4713" />
      <path
         d="m 778.38726,1040.7528 c 1.22666,-6.7467 2.76,-12.5734 3.98666,-17.48 l 4.6,-17.1734 c 0.61334,-2.76 1.22667,-4.9066 1.53334,-6.74663 5.52,-1.53334 5.82666,-1.53334 15.64,-17.17334 -25.14667,0.61334 -32.2,0.61334 -35.57334,0.61334 -18.70666,0.30666 -23.92,1.22666 -33.11999,6.74666 -14.72,9.2 -25.14667,17.78667 -31.58667,26.06667 -9.2,11.96 -20.24,49.0667 -20.24,67.7733 0,7.6667 1.84,13.1867 6.74667,19.9334 l -35.26667,30.36 c -15.33333,13.4933 -22.38666,23.6133 -22.38666,32.2 0,11.3466 13.49333,17.7866 36.79999,17.7866 28.21334,0 50.29334,-7.9733 70.84,-25.76 13.18667,-11.3466 16.25333,-17.7866 22.69333,-48.1466 z m -40.17333,84.0266 c -3.98667,18.4 -6.74667,25.4534 -12.26667,31.28 -6.74667,7.6667 -19.32,11.6534 -37.41333,11.6534 -19.93334,0 -30.66667,-5.52 -30.66667,-15.3334 0,-12.5733 8.28,-20.24 93.53333,-85.56 z m 35.87999,-125.7333 h 9.81334 c -1.53334,1.2267 -3.37334,2.76 -4.90667,3.68 -9.81333,7.0533 -11.96,9.8133 -14.72,17.1733 -2.76,8.8934 -6.13333,20.8534 -10.12,35.88 -6.13333,3.9867 -13.49333,9.5067 -39.25333,28.8267 -5.52,-5.52 -7.66667,-10.4267 -7.66667,-17.7867 0,-10.4266 7.36,-37.1066 13.8,-51.8266 6.13334,-12.5734 12.57334,-15.64003 34.96,-15.64003 2.14667,0 5.82667,0 9.81333,-0.30667 z"
         style="font-style:italic;font-variant:normal;font-weight:500;font-stretch:normal;font-size:306.66665649px;line-height:106.34667206px;font-family:'URW Chancery L';-inkscape-font-specification:'URW Chancery L, Medium Italic';font-variant-ligatures:normal;font-variant-caps:normal;font-variant-numeric:normal;font-feature-settings:normal;text-align:start;writing-mode:lr-tb;text-anchor:start;fill:#000078;fill-opacity:1"
         id="path4715" />
      <path
         d="m 807.02706,1110.9794 23.61333,-8.8933 23,-87.4 c 10.42667,-7.6667 17.48,-10.7333 25.76,-10.7333 6.74667,0 10.73334,2.4533 16.25334,9.5066 l 9.2,-29.1333 c -5.82667,-1.84 -8.28,-2.45333 -11.34667,-2.45333 -5.52,0 -11.96,2.76 -20.24,8.58666 l -18.09333,13.18667 c 0.30666,-2.4533 0.92,-3.98667 0.92,-4.90667 2.45333,-10.12 2.76,-11.96 2.76,-13.49333 0,-1.84 -1.84,-3.37333 -3.98667,-3.37333 -3.98667,0 -30.97333,13.18666 -49.68,24.53333 l -0.92,8.28 c 16.56,-8.5867 18.4,-9.2 22.08,-9.2 3.98667,0 5.82667,2.1467 5.82667,6.44 0,4.2933 -3.06667,18.7067 -6.74667,31.8933 z"
         style="font-style:italic;font-variant:normal;font-weight:500;font-stretch:normal;font-size:306.66665649px;line-height:106.34667206px;font-family:'URW Chancery L';-inkscape-font-specification:'URW Chancery L, Medium Italic';font-variant-ligatures:normal;font-variant-caps:normal;font-variant-numeric:normal;font-feature-settings:normal;text-align:start;writing-mode:lr-tb;text-anchor:start;fill:#000078;fill-opacity:1"
         id="path4717" />
      <path
         d="m 1022.5466,1068.0461 c -22.99998,15.3333 -27.59998,18.0933 -30.66664,18.0933 -2.14667,0 -3.68,-2.4533 -3.68,-6.1333 0,-7.9733 7.36,-41.7067 18.40004,-82.49333 3.3733,-4.6 3.9866,-5.52 8.8933,-11.04 -14.72,-3.37334 -25.45334,-4.6 -38.64001,-4.6 -12.57333,0 -18.4,1.22666 -26.37333,6.13333 -11.04,6.44 -23.92,15.9467 -27.90667,20.24 -11.34667,12.88 -24.22666,54.28 -24.22666,79.12 0,14.72 4.90666,24.5333 12.57333,24.5333 6.74666,0 16.86666,-6.1333 55.2,-33.7333 -3.06667,14.1067 -4.6,23.6133 -4.6,27.2933 0,3.9867 1.84,6.44 4.90666,6.44 3.68,0 3.68,0 28.21334,-15.64 8.89334,-5.8266 15.94664,-10.7333 27.60004,-19.32 z m -59.79998,1.84 c -18.09333,13.1867 -27.29333,18.4 -32.81333,18.4 -4.90667,0 -7.97333,-5.52 -7.97333,-15.3333 0,-15.3334 4.90666,-36.1867 12.57333,-53.6667 7.36,-16.8667 14.10667,-23.30667 24.53333,-23.30667 5.52,0 15.02667,1.53334 26.06667,3.98667 -6.13333,23.3067 -8.28,30.36 -8.58667,31.8933 -1.84,7.6667 -3.37333,15.3334 -5.21333,23.3067 -0.30667,1.5333 -1.22667,5.2133 -2.76,10.7333 z"
         style="font-style:italic;font-variant:normal;font-weight:500;font-stretch:normal;font-size:306.66665649px;line-height:106.34667206px;font-family:'URW Chancery L';-inkscape-font-specification:'URW Chancery L, Medium Italic';font-variant-ligatures:normal;font-variant-caps:normal;font-variant-numeric:normal;font-feature-settings:normal;text-align:start;writing-mode:lr-tb;text-anchor:start;fill:#000078;fill-opacity:1"
         id="path4719" />
      <path
         d="m 1074.656,956.41943 c 8.8934,-7.97333 9.5067,-8.58666 19.9334,-16.56 -1.84,-3.68 -3.3734,-6.13333 -3.9867,-7.05333 -1.84,-3.68 -2.1467,-3.98666 -4.6,-9.81333 -0.6133,-1.22667 -1.2267,-2.45333 -1.84,-3.98667 -1.5333,1.22667 -3.3733,2.45334 -4.2933,3.37334 -1.2267,1.22666 -3.68,3.06666 -6.7467,5.52 -1.5333,1.22666 -3.68,2.75999 -6.44,4.59999 -1.2267,0.92 -2.4533,1.84 -3.68,2.45334 2.1467,6.74666 4.9067,11.65333 11.6533,21.46666 z m 21.16,115.91997 c -29.1333,15.64 -29.7466,15.9467 -33.7333,15.9467 -3.3733,0 -5.52,-3.3733 -5.52,-8.5867 0,-3.0666 0.92,-8.8933 2.76,-15.64 15.64,-64.39997 18.7067,-76.66663 18.7067,-79.11997 0,-1.84 -1.5334,-3.06666 -3.68,-3.06666 -5.2134,0 -23.3067,10.12 -48.4534,26.98663 l -0.6133,8.5867 c 18.0933,-9.8133 19.6267,-10.4267 22.3867,-10.4267 2.4533,0 3.68,1.84 3.68,5.52 0,3.9867 -0.92,8.28 -5.52,25.76 -14.4134,53.6667 -14.4134,53.6667 -14.4134,61.3334 0,7.36 3.0667,12.2666 7.36,12.2666 5.2134,0 13.4934,-3.9866 29.7467,-14.4133 5.8267,-3.68 11.6533,-7.36 17.48,-11.3467 2.76,-1.5333 5.52,-3.3733 8.5867,-5.2133 z"
         style="font-style:italic;font-variant:normal;font-weight:500;font-stretch:normal;font-size:306.66665649px;line-height:106.34667206px;font-family:'URW Chancery L';-inkscape-font-specification:'URW Chancery L, Medium Italic';font-variant-ligatures:normal;font-variant-caps:normal;font-variant-numeric:normal;font-feature-settings:normal;text-align:start;writing-mode:lr-tb;text-anchor:start;fill:#000078;fill-opacity:1"
         id="path4721" />
      <path
         d="m 1124.4079,1102.0861 18.0933,-72.0667 c 38.3334,-24.2266 39.2534,-24.5333 43.5467,-24.5333 2.1467,0 3.3733,1.5333 3.3733,3.9867 0,4.6 -2.4533,16.2533 -11.3466,51.2133 -6.7467,27.2933 -7.9734,32.5067 -7.9734,38.3333 0,4.2934 1.2267,8.28 4.6,13.8 14.1067,-6.44 35.2667,-19.6266 56.7334,-35.5733 l 2.1466,-8.5867 c -30.6666,17.48 -31.8933,18.0934 -34.96,18.0934 -3.0666,0 -4.9066,-3.3734 -4.9066,-8.28 0,-6.44 2.1466,-16.56 7.9733,-37.72 14.4133,-51.52003 14.4133,-51.52003 14.4133,-53.6667 0,-3.37333 -2.1466,-5.21333 -6.1333,-5.21333 -4.6,0 -11.3467,2.76 -22.3867,9.81333 l -42.0133,26.0667 c 2.76,-10.12 7.36,-29.44003 7.36,-31.89337 0,-2.14666 -1.84,-3.98666 -3.9867,-3.98666 -3.3733,0 -25.4533,11.34666 -48.1466,24.84003 l -1.84,7.9733 c 19.6266,-8.8933 20.8533,-9.2 23.6133,-9.2 2.1467,0 3.68,1.84 3.68,4.2933 0,6.44 -5.8267,31.8934 -13.4933,59.8 l -7.0534,24.84 c -0.6133,2.1467 -2.1466,7.9734 -4.2933,16.56 z"
         style="font-style:italic;font-variant:normal;font-weight:500;font-stretch:normal;font-size:306.66665649px;line-height:106.34667206px;font-family:'URW Chancery L';-inkscape-font-specification:'URW Chancery L, Medium Italic';font-variant-ligatures:normal;font-variant-caps:normal;font-variant-numeric:normal;font-feature-settings:normal;text-align:start;writing-mode:lr-tb;text-anchor:start;fill:#000078;fill-opacity:1"
         id="path4723" />
      <path
         d="m 1332.002,1065.8994 c -23,19.9334 -37.72,28.52 -49.3733,28.52 -7.6667,0 -14.1067,-5.2133 -16.2533,-13.1866 -1.2267,-4.9067 -1.5334,-8.28 -1.5334,-17.1734 13.8,-8.5866 23,-15.0266 41.0934,-28.52 16.56,-12.5733 23,-22.6933 23,-36.4933 0,-10.73333 -6.7467,-17.17333 -17.48,-17.17333 -6.7467,0 -11.6534,1.53333 -18.7067,5.52 -11.6533,6.74666 -22.08,15.02663 -28.52,22.38663 -11.6533,14.1067 -22.08,47.84 -22.08,72.68 0,18.0934 9.5067,29.44 25.1467,29.44 18.0933,0 40.48,-12.88 64.7066,-37.1066 z m -66.24,-12.88 c 5.2134,-32.8133 19.32,-58.26663 32.5067,-58.26663 5.2133,0 8.5867,5.21333 8.5867,12.57333 0,15.3333 -8.28,24.5333 -41.0934,45.6933 z"
         style="font-style:italic;font-variant:normal;font-weight:500;font-stretch:normal;font-size:306.66665649px;line-height:106.34667206px;font-family:'URW Chancery L';-inkscape-font-specification:'URW Chancery L, Medium Italic';font-variant-ligatures:normal;font-variant-caps:normal;font-variant-numeric:normal;font-feature-settings:normal;text-align:start;writing-mode:lr-tb;text-anchor:start;fill:#000078;fill-opacity:1"
         id="path4725" />
      <path
         d="m 1437.3564,1172.6194 -10.12,10.12 c 15.0267,0.92 36.4933,1.5334 52.1333,1.5334 4.2934,0 11.96,-0.3067 21.4667,-0.6134 l 9.5067,-7.36 -30.0534,-1.84 c 0.92,-5.2133 2.1467,-10.12 3.0667,-15.0266 l 7.6667,-32.8134 24.2266,-104.5733 6.44,-23.61333 14.4134,-13.49334 c -1.5334,-0.30666 -3.0667,-0.92 -3.3734,-0.92 l -3.9866,-1.22666 c -0.3067,0 -1.5334,-0.30667 -3.0667,-0.61334 l 6.1333,-20.24 -3.0666,-0.92 c -8.8934,9.50667 -14.1067,14.72 -21.7734,21.16 -3.0666,-0.30666 -6.1333,-0.30666 -7.36,-0.30666 -10.12,0 -21.4666,1.53333 -26.68,3.37333 -7.6666,3.06667 -25.1466,15.3333 -34.3466,24.2267 -11.3467,11.04 -24.5333,52.7466 -24.5333,77.5866 0,11.6534 7.3599,24.84 13.7999,24.84 4.6,0 18.7067,-8.28 43.5467,-26.3733 5.52,-3.9867 8.8933,-6.44 10.12,-7.0533 -1.5333,5.52 -2.4533,9.5066 -2.76,10.12 -6.44,28.8266 -10.7333,46.6133 -12.5733,53.9733 l -7.6667,30.0533 h -7.36 -7.6667 z m 47.2267,-106.72 c -29.44,19.0134 -34.96,22.3867 -38.9467,22.3867 -5.52,0 -9.5067,-7.0533 -9.5067,-16.2533 0,-11.96 3.3734,-27.6 9.5067,-46.92 7.36,-21.4667 13.4933,-26.0667 37.1067,-26.0667 6.44,0 10.12,0.30667 18.0933,1.2267 z"
         style="font-style:italic;font-variant:normal;font-weight:500;font-stretch:normal;font-size:306.66665649px;line-height:106.34667206px;font-family:'URW Chancery L';-inkscape-font-specification:'URW Chancery L, Medium Italic';font-variant-ligatures:normal;font-variant-caps:normal;font-variant-numeric:normal;font-feature-settings:normal;text-align:start;writing-mode:lr-tb;text-anchor:start;fill:#000078;fill-opacity:1"
         id="path4727" />
      <path
         d="m 1535.3029,1015.9128 c 12.88,-6.44 18.7067,-8.8934 22.3867,-8.8934 2.4533,0 4.2933,2.4534 4.2933,5.8267 0,3.9867 -3.0667,17.1733 -8.5867,38.0267 -7.6666,28.52 -9.5066,37.1066 -9.5066,46 0,8.5866 3.68,15.0266 8.5866,15.0266 4.6,0 10.12,-2.76 25.4534,-12.88 l 31.5866,-20.5466 c -2.4533,9.8133 -4.2933,20.8533 -4.2933,26.3733 0,3.9867 2.4533,7.0533 5.52,7.0533 6.1333,0 35.2667,-17.1733 56.12,-32.8133 l 2.1467,-9.2 c -23.92,14.1067 -31.8934,18.4 -35.2667,18.4 -2.1467,0 -3.3733,-2.4533 -3.3733,-7.36 0,-15.64 11.3466,-61.3333 24.5333,-100.28 -3.9867,2.14667 -6.7467,3.68 -7.9733,4.29333 -3.68,1.84 -7.36,3.68 -11.3467,5.52 -0.92,0.30667 -2.76,1.22667 -6.1333,3.06667 -1.84,7.0533 -7.9734,31.5867 -18.0934,73.9067 -23.6133,16.2533 -34.3466,22.3866 -38.0266,22.3866 -3.3734,0 -5.8267,-4.2933 -5.8267,-10.12 0,-7.0533 2.4533,-19.32 7.6667,-38.9466 3.3733,-12.2667 5.52,-20.8534 6.44,-25.1467 2.76,-11.3467 4.9066,-19.32 5.52,-21.46667 0.92,-3.37333 1.5333,-6.13333 1.5333,-8.28 0,-2.45333 -1.5333,-3.98666 -3.68,-3.98666 -3.0667,0 -25.4533,11.96 -47.5333,25.76003 z"
         style="font-style:italic;font-variant:normal;font-weight:500;font-stretch:normal;font-size:306.66665649px;line-height:106.34667206px;font-family:'URW Chancery L';-inkscape-font-specification:'URW Chancery L, Medium Italic';font-variant-ligatures:normal;font-variant-caps:normal;font-variant-numeric:normal;font-feature-settings:normal;text-align:start;writing-mode:lr-tb;text-anchor:start;fill:#000078;fill-opacity:1"
         id="path4729" />
      <path
         d="m 1725.7237,956.41943 c 8.8933,-7.97333 9.5067,-8.58666 19.9333,-16.56 -1.84,-3.68 -3.3733,-6.13333 -3.9866,-7.05333 -1.84,-3.68 -2.1467,-3.98666 -4.6,-9.81333 -0.6134,-1.22667 -1.2267,-2.45333 -1.84,-3.98667 -1.5334,1.22667 -3.3734,2.45334 -4.2934,3.37334 -1.2266,1.22666 -3.68,3.06666 -6.7466,5.52 -1.5334,1.22666 -3.68,2.75999 -6.44,4.59999 -1.2267,0.92 -2.4534,1.84 -3.68,2.45334 2.1466,6.74666 4.9066,11.65333 11.6533,21.46666 z m 21.16,115.91997 c -29.1333,15.64 -29.7467,15.9467 -33.7333,15.9467 -3.3734,0 -5.52,-3.3733 -5.52,-8.5867 0,-3.0666 0.92,-8.8933 2.76,-15.64 15.64,-64.39997 18.7066,-76.66663 18.7066,-79.11997 0,-1.84 -1.5333,-3.06666 -3.68,-3.06666 -5.2133,0 -23.3066,10.12 -48.4533,26.98663 l -0.6133,8.5867 c 18.0933,-9.8133 19.6266,-10.4267 22.3866,-10.4267 2.4534,0 3.68,1.84 3.68,5.52 0,3.9867 -0.92,8.28 -5.52,25.76 -14.4133,53.6667 -14.4133,53.6667 -14.4133,61.3334 0,7.36 3.0667,12.2666 7.36,12.2666 5.2133,0 13.4933,-3.9866 29.7467,-14.4133 5.8266,-3.68 11.6533,-7.36 17.48,-11.3467 2.76,-1.5333 5.52,-3.3733 8.5866,-5.2133 z"
         style="font-style:italic;font-variant:normal;font-weight:500;font-stretch:normal;font-size:306.66665649px;line-height:106.34667206px;font-family:'URW Chancery L';-inkscape-font-specification:'URW Chancery L, Medium Italic';font-variant-ligatures:normal;font-variant-caps:normal;font-variant-numeric:normal;font-feature-settings:normal;text-align:start;writing-mode:lr-tb;text-anchor:start;fill:#000078;fill-opacity:1"
         id="path4731" />
      <path
         d="m 323.77791,1327.9848 c 1.22667,-6.7466 2.76,-12.5733 3.98667,-17.48 l 4.6,-17.1733 c 0.61333,-2.76 1.22667,-4.9067 1.53333,-6.7467 5.52,-1.5333 5.82667,-1.5333 15.64,-17.1733 -25.14666,0.6133 -32.2,0.6133 -35.57333,0.6133 -18.70667,0.3067 -23.92,1.2267 -33.12,6.7467 -14.72,9.2 -25.14667,17.7867 -31.58666,26.0667 -9.2,11.96 -20.24,49.0666 -20.24,67.7733 0,7.6667 1.84,13.1867 6.74666,19.9333 l -35.26666,30.36 c -15.33334,13.4934 -22.38667,23.6133 -22.38667,32.2 0,11.3467 13.49333,17.7867 36.8,17.7867 28.21333,0 50.29333,-7.9734 70.84,-25.76 13.18666,-11.3467 16.25333,-17.7867 22.69333,-48.1467 z m -40.17333,84.0267 c -3.98667,18.4 -6.74667,25.4533 -12.26667,31.28 -6.74666,7.6666 -19.31999,11.6533 -37.41333,11.6533 -19.93333,0 -30.66666,-5.52 -30.66666,-15.3333 0,-12.5733 8.28,-20.24 93.53333,-85.56 z m 35.88,-125.7333 h 9.81333 c -1.53333,1.2266 -3.37333,2.76 -4.90666,3.68 -9.81334,7.0533 -11.96,9.8133 -14.72,17.1733 -2.76,8.8933 -6.13334,20.8533 -10.12,35.88 -6.13334,3.9867 -13.49334,9.5067 -39.25334,28.8267 -5.52,-5.52 -7.66666,-10.4267 -7.66666,-17.7867 0,-10.4267 7.36,-37.1067 13.8,-51.8267 6.13333,-12.5733 12.57333,-15.64 34.96,-15.64 2.14666,0 5.82666,0 9.81333,-0.3066 z"
         style="font-style:italic;font-variant:normal;font-weight:500;font-stretch:normal;font-size:306.66665649px;line-height:106.34667206px;font-family:'URW Chancery L';-inkscape-font-specification:'URW Chancery L, Medium Italic';font-variant-ligatures:normal;font-variant-caps:normal;font-variant-numeric:normal;font-feature-settings:normal;text-align:start;writing-mode:lr-tb;text-anchor:start;fill:#000078;fill-opacity:1"
         id="path4733" />
      <path
         d="m 441.35103,1353.1315 c -23,19.9333 -37.72,28.52 -49.37333,28.52 -7.66667,0 -14.10667,-5.2133 -16.25333,-13.1867 -1.22667,-4.9066 -1.53334,-8.28 -1.53334,-17.1733 13.8,-8.5867 23,-15.0267 41.09334,-28.52 16.56,-12.5733 23,-22.6933 23,-36.4933 0,-10.7334 -6.74667,-17.1734 -17.48,-17.1734 -6.74667,0 -11.65334,1.5334 -18.70667,5.52 -11.65333,6.7467 -22.08,15.0267 -28.52,22.3867 -11.65333,14.1067 -22.08,47.84 -22.08,72.68 0,18.0933 9.50667,29.44 25.14667,29.44 18.09333,0 40.48,-12.88 64.70666,-37.1067 z m -66.24,-12.88 c 5.21334,-32.8133 19.32,-58.2667 32.50667,-58.2667 5.21333,0 8.58667,5.2134 8.58667,12.5734 0,15.3333 -8.28,24.5333 -41.09334,45.6933 z"
         style="font-style:italic;font-variant:normal;font-weight:500;font-stretch:normal;font-size:306.66665649px;line-height:106.34667206px;font-family:'URW Chancery L';-inkscape-font-specification:'URW Chancery L, Medium Italic';font-variant-ligatures:normal;font-variant-caps:normal;font-variant-numeric:normal;font-feature-settings:normal;text-align:start;writing-mode:lr-tb;text-anchor:start;fill:#000078;fill-opacity:1"
         id="path4735" />
      <path
         d="m 456.63645,1398.2115 23.61333,-8.8933 23,-87.4 c 10.42667,-7.6667 17.48,-10.7334 25.76,-10.7334 6.74667,0 10.73334,2.4534 16.25334,9.5067 l 9.2,-29.1333 c -5.82667,-1.84 -8.28,-2.4534 -11.34667,-2.4534 -5.52,0 -11.96,2.76 -20.24,8.5867 l -18.09333,13.1867 c 0.30666,-2.4534 0.92,-3.9867 0.92,-4.9067 2.45333,-10.12 2.76,-11.96 2.76,-13.4933 0,-1.84 -1.84,-3.3734 -3.98667,-3.3734 -3.98667,0 -30.97333,13.1867 -49.68,24.5334 l -0.92,8.28 c 16.56,-8.5867 18.4,-9.2 22.08,-9.2 3.98667,0 5.82667,2.1466 5.82667,6.44 0,4.2933 -3.06667,18.7066 -6.74667,31.8933 z"
         style="font-style:italic;font-variant:normal;font-weight:500;font-stretch:normal;font-size:306.66665649px;line-height:106.34667206px;font-family:'URW Chancery L';-inkscape-font-specification:'URW Chancery L, Medium Italic';font-variant-ligatures:normal;font-variant-caps:normal;font-variant-numeric:normal;font-feature-settings:normal;text-align:start;writing-mode:lr-tb;text-anchor:start;fill:#000078;fill-opacity:1"
         id="path4737" />
      <path
         d="m 571.2627,1389.9315 19.62666,-74.52 c 20.54667,-13.8 33.12,-21.16 37.10667,-21.16 2.45333,0 3.98666,2.76 3.98666,6.7467 0,9.2 -11.65333,55.8133 -24.53333,97.2133 l 23.30667,-8.28 19.01333,-76.6667 c 17.78667,-11.3466 34.34667,-20.5466 38.02667,-20.5466 2.45333,0 3.98666,2.1466 3.98666,5.8266 0,6.7467 -2.76,19.32 -11.04,52.1334 -4.90666,19.0133 -6.44,26.68 -6.44,33.7333 0,6.44 1.84,9.8133 7.36,13.8 18.09334,-8.8933 33.42667,-18.7067 52.13333,-33.4267 v -7.0533 c -3.06666,1.5333 -6.44,3.68 -10.42666,6.44 -11.04,7.0533 -16.25333,9.5067 -19.93333,9.5067 -3.37334,0 -5.52,-3.0667 -5.52,-8.28 0,-6.7467 3.98666,-24.2267 10.12,-45.6934 9.19999,-31.5866 11.65333,-41.4 11.65333,-46 0,-3.0666 -1.84,-4.6 -4.90667,-4.6 -5.52,0 -24.53333,9.8134 -61.94666,31.8934 0.92,-3.3734 1.22666,-5.8267 1.53333,-7.0534 3.68,-15.3333 4.6,-19.6266 4.6,-21.4666 0,-2.1467 -1.53333,-3.3734 -3.98667,-3.3734 -4.6,0 -20.54666,8.5867 -51.21333,28.2134 l -9.81333,6.1333 c 5.52,-22.3867 6.74667,-27.9067 6.74667,-30.0533 0,-2.4534 -1.84,-4.2934 -4.6,-4.2934 -3.68,0 -27.90667,13.1867 -47.84,25.76 l -2.14667,8.5867 c 16.86667,-8.28 19.32,-9.2 22.69333,-9.2 2.76,0 4.6,2.4533 4.6,5.8267 0,4.9066 -11.04,50.2933 -23.92,98.1333 z"
         style="font-style:italic;font-variant:normal;font-weight:500;font-stretch:normal;font-size:306.66665649px;line-height:106.34667206px;font-family:'URW Chancery L';-inkscape-font-specification:'URW Chancery L, Medium Italic';font-variant-ligatures:normal;font-variant-caps:normal;font-variant-numeric:normal;font-feature-settings:normal;text-align:start;writing-mode:lr-tb;text-anchor:start;fill:#000078;fill-opacity:1"
         id="path4739" />
      <path
         d="m 827.67914,1353.1315 c -23,19.9333 -37.72,28.52 -49.37333,28.52 -7.66667,0 -14.10667,-5.2133 -16.25333,-13.1867 -1.22667,-4.9066 -1.53334,-8.28 -1.53334,-17.1733 13.8,-8.5867 23,-15.0267 41.09334,-28.52 16.56,-12.5733 23,-22.6933 23,-36.4933 0,-10.7334 -6.74667,-17.1734 -17.48,-17.1734 -6.74667,0 -11.65334,1.5334 -18.70667,5.52 -11.65333,6.7467 -22.08,15.0267 -28.52,22.3867 -11.65333,14.1067 -22.08,47.84 -22.08,72.68 0,18.0933 9.50667,29.44 25.14667,29.44 18.09333,0 40.48,-12.88 64.70666,-37.1067 z m -66.24,-12.88 c 5.21334,-32.8133 19.32,-58.2667 32.50667,-58.2667 5.21333,0 8.58667,5.2134 8.58667,12.5734 0,15.3333 -8.28,24.5333 -41.09334,45.6933 z"
         style="font-style:italic;font-variant:normal;font-weight:500;font-stretch:normal;font-size:306.66665649px;line-height:106.34667206px;font-family:'URW Chancery L';-inkscape-font-specification:'URW Chancery L, Medium Italic';font-variant-ligatures:normal;font-variant-caps:normal;font-variant-numeric:normal;font-feature-settings:normal;text-align:start;writing-mode:lr-tb;text-anchor:start;fill:#000078;fill-opacity:1"
         id="path4741" />
      <path
         d="m 856.45789,1367.8515 -8.27999,6.44 c 2.45333,6.7467 8.58666,16.56 14.41333,23.6133 11.65333,-8.5866 14.41333,-10.7333 22.69333,-19.32 -3.68,-5.2133 -6.74667,-10.12 -7.05333,-10.4266 -2.14667,-3.3734 -3.68,-5.8267 -7.36,-12.2667 -0.92,0.92 -2.45334,2.1467 -4.29334,3.68 -2.45333,1.84 -4.90666,3.9867 -7.36,6.1333 z"
         style="font-style:italic;font-variant:normal;font-weight:500;font-stretch:normal;font-size:306.66665649px;line-height:106.34667206px;font-family:'URW Chancery L';-inkscape-font-specification:'URW Chancery L, Medium Italic';font-variant-ligatures:normal;font-variant-caps:normal;font-variant-numeric:normal;font-feature-settings:normal;text-align:start;writing-mode:lr-tb;text-anchor:start;fill:#000078;fill-opacity:1"
         id="path4743" />
      <path
         d="m 806.13461,1540.9367 c -0.64,-0.4266 -0.85334,-0.64 -1.92,-1.0666 h -2.13334 c -15.14666,14.08 -24.53333,26.88 -34.56,46.9333 -14.29333,28.5867 -22.82667,64 -22.82667,95.1467 0,13.2267 2.13334,22.6133 7.89334,35.6267 8.10667,-1.7067 9.38667,-1.92 13.44,-3.6267 -5.54667,-16.64 -7.25333,-27.9467 -7.25333,-45.6533 0,-24.5334 4.90666,-50.7734 14.08,-73.6001 9.17333,-23.2533 18.34666,-37.12 34.98666,-52.9066 z"
         style="font-style:italic;font-variant:normal;font-weight:500;font-stretch:normal;font-size:213.33334351px;line-height:106.34667206px;font-family:'URW Chancery L';-inkscape-font-specification:'URW Chancery L, Medium Italic';font-variant-ligatures:normal;font-variant-caps:normal;font-variant-numeric:normal;font-feature-settings:normal;text-align:start;writing-mode:lr-tb;text-anchor:start;fill:#000078;fill-opacity:1"
         id="path4745" />
      <path
         d="m 830.40463,1609.4167 c -1.28,-7.2533 -1.70667,-10.6666 -1.70667,-15.36 0,-16.64 8.74667,-25.6 25.17333,-25.6 h 3.2 l -11.73333,46.9334 c -4.05333,3.4133 -4.69333,4.0533 -8.53333,7.8933 3.2,2.1333 4.05333,3.2 5.12,6.1867 l -2.56,8.5333 c -6.61334,24.32 -6.61334,24.32 -7.25334,26.0267 -2.56,8.1067 -5.76,15.1467 -8.96,19.2 -5.97333,7.8933 -14.29333,11.9467 -24.74666,11.9467 -4.26667,0 -7.46667,-0.4267 -14.29334,-2.1334 l -8.53333,14.2934 c 4.05333,0.8533 5.97333,1.0666 9.38666,1.0666 13.22667,0 22.40001,-4.48 42.45334,-20.2666 17.92,-14.2934 19.62667,-17.0667 26.02667,-42.8801 l 19.62667,-78.72 7.04,-6.1866 c -20.05334,0 -29.86667,1.28 -39.04001,4.6933 -18.56,7.2533 -28.8,21.3333 -28.8,39.68 0,4.2667 0.42667,6.6133 1.92,12.16 z"
         style="font-style:italic;font-variant:normal;font-weight:500;font-stretch:normal;font-size:213.33334351px;line-height:106.34667206px;font-family:'URW Chancery L';-inkscape-font-specification:'URW Chancery L, Medium Italic';font-variant-ligatures:normal;font-variant-caps:normal;font-variant-numeric:normal;font-feature-settings:normal;text-align:start;writing-mode:lr-tb;text-anchor:start;fill:#000078;fill-opacity:1"
         id="path4747" />
      <path
         d="m 878.27465,1618.3767 c 8.96,-4.48 13.01333,-6.1866 15.57333,-6.1866 1.70667,0 2.98667,1.7066 2.98667,4.0533 0,2.7733 -2.13334,11.9467 -5.97334,26.4533 -5.33333,19.8401 -6.61333,25.8134 -6.61333,32.0001 0,5.9733 2.56,10.4533 5.97333,10.4533 3.2,0 7.04,-1.92 17.70667,-8.96 l 21.97333,-14.2933 c -1.70666,6.8266 -2.98666,14.5066 -2.98666,18.3466 0,2.7734 1.70666,4.9067 3.84,4.9067 4.26666,0 24.53333,-11.9467 39.04,-22.8267 l 1.49333,-6.4 c -16.64,9.8134 -22.18666,12.8 -24.53333,12.8 -1.49333,0 -2.34667,-1.7066 -2.34667,-5.12 0,-10.88 7.89334,-42.6667 17.06667,-69.76 -2.77333,1.4933 -4.69333,2.56 -5.54667,2.9867 -2.56,1.28 -5.12,2.56 -7.89333,3.84 -0.64,0.2133 -1.92,0.8533 -4.26667,2.1333 -1.28,4.9067 -5.54667,21.9733 -12.58667,51.4134 -16.42666,11.3066 -23.89333,15.5733 -26.45333,15.5733 -2.34667,0 -4.05333,-2.9867 -4.05333,-7.04 0,-4.9067 1.70666,-13.44 5.33333,-27.0934 2.34667,-8.5333 3.84,-14.5066 4.48,-17.4933 1.92,-7.8933 3.41333,-13.44 3.84,-14.9333 0.64,-2.3467 1.06667,-4.2667 1.06667,-5.76 0,-1.7067 -1.06667,-2.7734 -2.56,-2.7734 -2.13334,0 -17.70667,8.32 -33.06667,17.92 z"
         style="font-style:italic;font-variant:normal;font-weight:500;font-stretch:normal;font-size:213.33334351px;line-height:106.34667206px;font-family:'URW Chancery L';-inkscape-font-specification:'URW Chancery L, Medium Italic';font-variant-ligatures:normal;font-variant-caps:normal;font-variant-numeric:normal;font-feature-settings:normal;text-align:start;writing-mode:lr-tb;text-anchor:start;fill:#000078;fill-opacity:1"
         id="path4749" />
      <path
         d="m 1024.608,1654.8568 c -2.9867,1.7066 -4.9067,2.9866 -5.76,3.4133 -15.36,9.6 -17.0667,10.4533 -20.05337,10.4533 -1.92,0 -3.84,-2.56 -3.84,-5.5466 v -1.92 -1.92 c 0,-3.84 9.59997,-45.2267 17.49337,-75.3067 8.32,-31.36 10.24,-35.2 19.6266,-35.2 2.7734,0 4.9067,0.2133 10.4534,1.4933 l 9.1733,-11.3067 c -4.48,-1.0666 -6.8267,-1.28 -9.6,-1.28 -8.5333,0 -15.36,3.4134 -25.6,12.5867 -9.3867,8.5333 -11.7333,11.7333 -14.5067,19.4133 -1.7066,5.12 -6.39997,22.4 -8.53331,31.7867 l -15.36,66.7734 c -0.21333,1.28 -0.42667,2.56 -0.42667,3.84 0,6.4 3.62667,13.0133 7.04001,13.0133 h 1.28 0.64 c 2.13333,0 11.09333,-6.1867 37.97337,-25.6 z"
         style="font-style:italic;font-variant:normal;font-weight:500;font-stretch:normal;font-size:213.33334351px;line-height:106.34667206px;font-family:'URW Chancery L';-inkscape-font-specification:'URW Chancery L, Medium Italic';font-variant-ligatures:normal;font-variant-caps:normal;font-variant-numeric:normal;font-feature-settings:normal;text-align:start;writing-mode:lr-tb;text-anchor:start;fill:#000078;fill-opacity:1"
         id="path4751" />
      <path
         d="m 1091.4313,1653.1501 c -16,13.8667 -26.24,19.84 -34.3467,19.84 -5.3333,0 -9.8133,-3.6267 -11.3066,-9.1733 -0.8534,-3.4134 -1.0667,-5.76 -1.0667,-11.9467 9.6,-5.9734 16,-10.4534 28.5867,-19.84 11.52,-8.7467 16,-15.7867 16,-25.3867 0,-7.4667 -4.6934,-11.9467 -12.16,-11.9467 -4.6934,0 -8.1067,1.0667 -13.0134,3.84 -8.1066,4.6934 -15.36,10.4534 -19.84,15.5734 -8.1066,9.8133 -15.36,33.28 -15.36,50.56 0,12.5867 6.6134,20.48 17.4934,20.48 12.5866,0 28.16,-8.96 45.0133,-25.8133 z m -46.08,-8.96 c 3.6267,-22.8267 13.44,-40.5334 22.6133,-40.5334 3.6267,0 5.9734,3.6267 5.9734,8.7467 0,10.6667 -5.76,17.0667 -28.5867,31.7867 z"
         style="font-style:italic;font-variant:normal;font-weight:500;font-stretch:normal;font-size:213.33334351px;line-height:106.34667206px;font-family:'URW Chancery L';-inkscape-font-specification:'URW Chancery L, Medium Italic';font-variant-ligatures:normal;font-variant-caps:normal;font-variant-numeric:normal;font-feature-settings:normal;text-align:start;writing-mode:lr-tb;text-anchor:start;fill:#000078;fill-opacity:1"
         id="path4753" />
      <path
         d="m 1092.038,1664.6701 c -0.2134,1.92 -0.4267,3.6267 -0.4267,4.9067 0,9.1733 6.4,15.5733 15.7867,15.5733 6.6133,0 15.7866,-2.7733 22.6133,-6.6133 12.5867,-7.2534 20.2667,-18.1334 20.2667,-28.8 0,-7.8934 -1.4934,-9.6001 -13.44,-17.0667 -7.2534,-4.6934 -10.24,-8.7467 -10.24,-14.2934 0,-7.2533 6.1866,-13.6533 13.44,-13.6533 4.9066,0 8.5333,2.3467 13.2266,8.32 7.2534,-7.04 7.2534,-7.04 10.0267,-11.0933 -4.2667,-5.12 -8.32,-7.2534 -14.2933,-7.2534 -15.5734,0 -35.6267,18.56 -35.6267,32.64 0,6.6134 3.4133,11.7334 11.52,17.4934 10.6667,7.4667 12.16,9.3867 12.16,14.72 0,7.68 -9.8133,16.64 -18.1333,16.64 -4.6934,0 -8.32,-2.56 -10.4534,-7.2533 -1.4933,-3.2 -1.92,-6.4 -2.1333,-13.6534 -2.3467,1.7067 -4.0533,2.7734 -4.9067,3.4134 -1.7066,1.0666 -3.6266,2.1333 -5.5466,3.4133 z"
         style="font-style:italic;font-variant:normal;font-weight:500;font-stretch:normal;font-size:213.33334351px;line-height:106.34667206px;font-family:'URW Chancery L';-inkscape-font-specification:'URW Chancery L, Medium Italic';font-variant-ligatures:normal;font-variant-caps:normal;font-variant-numeric:normal;font-feature-settings:normal;text-align:start;writing-mode:lr-tb;text-anchor:start;fill:#000078;fill-opacity:1"
         id="path4755" />
      <path
         d="m 1206.388,1682.1634 c 11.3066,0.2134 11.3066,0.2134 12.5866,0.2134 11.0934,0 30.2934,-0.4267 36.6934,-0.8534 l 15.7866,-8.1066 c -7.8933,-0.2134 -9.8133,-0.2134 -28.16,-0.64 24.1067,-24.1067 25.3867,-26.0267 32.2134,-53.1201 0.2133,-0.2133 0.4266,-0.2133 0.4266,-0.2133 2.3467,-0.2133 3.6267,1.7067 4.9067,7.04 8.1067,35.6267 15.1467,55.8934 23.8933,68.9067 9.1734,13.6533 21.7601,20.2667 38.6134,20.2667 11.9467,0 19.2,-2.56 31.1467,-11.3067 l -10.4534,-13.0133 c -6.8266,12.5866 -12.8,17.4933 -21.12,17.4933 -10.0266,0 -19.6266,-10.6667 -28.3733,-31.7867 -5.5467,-13.2266 -12.16,-33.0667 -20.9067,-60.8 12.16,-3.84 17.0667,-6.1867 23.68,-10.4533 10.0267,-6.8267 15.7867,-16.64 15.7867,-26.88 0,-13.2267 -10.6667,-20.48 -30.08,-20.48 -2.56,0 -7.8934,0.2133 -12.3734,0.4266 l 1.7067,-6.8266 -19.4133,9.1733 c -34.9867,5.9733 -53.5467,22.1867 -53.5467,47.1467 0,5.5466 0.64,9.1733 2.9867,17.0666 l 17.92,-9.1733 c -1.7067,-7.2533 -2.3467,-10.88 -2.3467,-15.7867 0,-10.24 3.2,-18.3466 9.8133,-24.5333 5.9734,-5.3333 11.9467,-7.68 25.6,-9.3867 l -1.92,7.68 c -0.8533,3.4134 -2.1333,8.32 -3.6266,14.9334 l -10.6667,42.24 c -8.96,36.0533 -14.72,41.6 -42.4533,41.3867 z m 82.7733,-117.3333 h 6.6133 c 13.2267,0 18.7734,4.9066 18.7734,16.64 0,10.6666 -5.76,20.9066 -14.72,26.4533 -6.4,3.84 -11.52,5.3333 -23.04,6.8267 z"
         style="font-style:italic;font-variant:normal;font-weight:500;font-stretch:normal;font-size:213.33334351px;line-height:106.34667206px;font-family:'URW Chancery L';-inkscape-font-specification:'URW Chancery L, Medium Italic';font-variant-ligatures:normal;font-variant-caps:normal;font-variant-numeric:normal;font-feature-settings:normal;text-align:start;writing-mode:lr-tb;text-anchor:start;fill:#000078;fill-opacity:1"
         id="path4757" />
      <path
         d="m 1407.2647,1653.1501 c -16,13.8667 -26.24,19.84 -34.3467,19.84 -5.3333,0 -9.8133,-3.6267 -11.3067,-9.1733 -0.8533,-3.4134 -1.0666,-5.76 -1.0666,-11.9467 9.6,-5.9734 16,-10.4534 28.5866,-19.84 11.52,-8.7467 16,-15.7867 16,-25.3867 0,-7.4667 -4.6933,-11.9467 -12.16,-11.9467 -4.6933,0 -8.1066,1.0667 -13.0133,3.84 -8.1067,4.6934 -15.36,10.4534 -19.84,15.5734 -8.1067,9.8133 -15.36,33.28 -15.36,50.56 0,12.5867 6.6133,20.48 17.4933,20.48 12.5867,0 28.16,-8.96 45.0134,-25.8133 z m -46.08,-8.96 c 3.6266,-22.8267 13.44,-40.5334 22.6133,-40.5334 3.6267,0 5.9733,3.6267 5.9733,8.7467 0,10.6667 -5.76,17.0667 -28.5866,31.7867 z"
         style="font-style:italic;font-variant:normal;font-weight:500;font-stretch:normal;font-size:213.33334351px;line-height:106.34667206px;font-family:'URW Chancery L';-inkscape-font-specification:'URW Chancery L, Medium Italic';font-variant-ligatures:normal;font-variant-caps:normal;font-variant-numeric:normal;font-feature-settings:normal;text-align:start;writing-mode:lr-tb;text-anchor:start;fill:#000078;fill-opacity:1"
         id="path4759" />
      <path
         d="m 1433.6847,1678.3234 12.5866,-50.1333 c 26.6667,-16.8534 27.3067,-17.0667 30.2934,-17.0667 1.4933,0 2.3466,1.0667 2.3466,2.7733 0,3.2 -1.7066,11.3067 -7.8933,35.6267 -4.6933,18.9867 -5.5467,22.6134 -5.5467,26.6667 0,2.9867 0.8534,5.76 3.2,9.6 9.8134,-4.48 24.5334,-13.6533 39.4667,-24.7467 l 1.4933,-5.9733 c -21.3333,12.16 -22.1866,12.5867 -24.32,12.5867 -2.1333,0 -3.4133,-2.3467 -3.4133,-5.76 0,-4.48 1.4933,-11.52 5.5467,-26.2401 10.0266,-35.84 10.0266,-35.84 10.0266,-37.3333 0,-2.3467 -1.4933,-3.6267 -4.2666,-3.6267 -3.2,0 -7.8934,1.92 -15.5734,6.8267 l -29.2266,18.1333 c 1.92,-7.04 5.12,-20.48 5.12,-22.1866 0,-1.4934 -1.28,-2.7734 -2.7734,-2.7734 -2.3466,0 -17.7066,7.8934 -33.4933,17.28 l -1.28,5.5467 c 13.6533,-6.1867 14.5067,-6.4 16.4267,-6.4 1.4933,0 2.56,1.28 2.56,2.9867 0,4.48 -4.0534,22.1866 -9.3867,41.6 l -4.9067,17.28 c -0.4266,1.4933 -1.4933,5.5467 -2.9866,11.52 z"
         style="font-style:italic;font-variant:normal;font-weight:500;font-stretch:normal;font-size:213.33334351px;line-height:106.34667206px;font-family:'URW Chancery L';-inkscape-font-specification:'URW Chancery L, Medium Italic';font-variant-ligatures:normal;font-variant-caps:normal;font-variant-numeric:normal;font-feature-settings:normal;text-align:start;writing-mode:lr-tb;text-anchor:start;fill:#000078;fill-opacity:1"
         id="path4761" />
      <path
         d="m 1601.9913,1654.6434 c -16,10.6667 -19.2,12.5867 -21.3334,12.5867 -1.4933,0 -2.56,-1.7067 -2.56,-4.2667 0,-5.5466 5.12,-29.0133 12.8,-57.3867 2.3467,-3.2 2.7734,-3.84 6.1867,-7.68 -10.24,-2.3466 -17.7067,-3.2 -26.88,-3.2 -8.7467,0 -12.8,0.8534 -18.3467,4.2667 -7.68,4.48 -16.64,11.0933 -19.4133,14.08 -7.8933,8.96 -16.8533,37.76 -16.8533,55.04 0,10.24 3.4133,17.0667 8.7466,17.0667 4.6934,0 11.7334,-4.2667 38.4,-23.4667 -2.1333,9.8134 -3.2,16.4267 -3.2,18.9867 0,2.7733 1.28,4.48 3.4134,4.48 2.56,0 2.56,0 19.6266,-10.88 6.1867,-4.0533 11.0934,-7.4667 19.2,-13.44 z m -41.6,1.28 c -12.5867,9.1734 -18.9867,12.8 -22.8267,12.8 -3.4133,0 -5.5467,-3.84 -5.5467,-10.6666 0,-10.6667 3.4134,-25.1734 8.7467,-37.3334 5.12,-11.7333 9.8133,-16.2133 17.0667,-16.2133 3.84,0 10.4533,1.0666 18.1333,2.7733 -4.2667,16.2133 -5.76,21.12 -5.9733,22.1867 -1.28,5.3333 -2.3467,10.6666 -3.6267,16.2133 -0.2133,1.0667 -0.8533,3.6267 -1.92,7.4667 z"
         style="font-style:italic;font-variant:normal;font-weight:500;font-stretch:normal;font-size:213.33334351px;line-height:106.34667206px;font-family:'URW Chancery L';-inkscape-font-specification:'URW Chancery L, Medium Italic';font-variant-ligatures:normal;font-variant-caps:normal;font-variant-numeric:normal;font-feature-settings:normal;text-align:start;writing-mode:lr-tb;text-anchor:start;fill:#000078;fill-opacity:1"
         id="path4763" />
      <path
         d="m 1605.8146,1684.5101 16.4267,-6.1867 16,-60.8 c 7.2533,-5.3333 12.16,-7.4667 17.92,-7.4667 4.6933,0 7.4667,1.7067 11.3067,6.6134 l 6.4,-20.2667 c -4.0534,-1.28 -5.76,-1.7067 -7.8934,-1.7067 -3.84,0 -8.32,1.92 -14.08,5.9734 l -12.5866,9.1733 c 0.2133,-1.7067 0.64,-2.7733 0.64,-3.4133 1.7066,-7.04 1.92,-8.32 1.92,-9.3867 0,-1.28 -1.28,-2.3467 -2.7734,-2.3467 -2.7733,0 -21.5466,9.1734 -34.56,17.0667 l -0.64,5.76 c 11.52,-5.9733 12.8,-6.4 15.36,-6.4 2.7734,0 4.0534,1.4933 4.0534,4.48 0,2.9867 -2.1334,13.0133 -4.6934,22.1867 z"
         style="font-style:italic;font-variant:normal;font-weight:500;font-stretch:normal;font-size:213.33334351px;line-height:106.34667206px;font-family:'URW Chancery L';-inkscape-font-specification:'URW Chancery L, Medium Italic';font-variant-ligatures:normal;font-variant-caps:normal;font-variant-numeric:normal;font-feature-settings:normal;text-align:start;writing-mode:lr-tb;text-anchor:start;fill:#000078;fill-opacity:1"
         id="path4765" />
      <path
         d="m 1756.8079,1654.4301 c -2.7733,1.7067 -4.9066,3.2 -5.9733,3.84 -11.7333,8.1067 -17.7067,11.52 -19.6267,11.52 -1.7066,0 -2.9866,-2.3467 -2.9866,-5.5467 0,-7.04 17.92,-84.2667 22.4,-97.4933 4.6933,-12.8 9.3866,-17.7067 17.0666,-17.7067 2.7734,0 4.9067,0.4267 9.8134,1.7067 l 7.4666,-11.9467 c -3.2,-0.64 -4.9066,-0.8533 -6.8266,-0.8533 -5.12,0 -7.8934,0.8533 -12.8,3.6266 -5.3334,2.9867 -12.5867,8.5334 -18.56,14.08 -10.4534,10.0267 -11.0934,11.52 -16.64,33.4934 -0.2134,0.8533 -0.8534,3.6266 -1.7067,6.8266 -3.84,-0.8533 -7.04,-1.28 -8.7467,-1.28 -6.6133,0 -24.96,11.52 -33.4933,20.9067 -7.2533,8.32 -16.8533,38.4 -16.8533,53.12 0,8.1067 4.2666,16.4267 8.1066,16.4267 4.0534,0 13.44,-5.76 35.84,-21.9733 -1.0666,5.3333 -1.7066,11.52 -1.7066,15.36 0,4.2666 1.7066,6.6133 4.6933,6.6133 3.4133,0 21.9733,-11.3067 39.68,-24.1067 z m -41.8133,0.8533 c -18.1333,12.8 -22.8267,15.5734 -25.8133,15.5734 -2.9867,0 -4.48,-3.2 -4.48,-9.3867 0,-7.04 1.28,-15.1467 3.84,-24.5334 6.1866,-21.5466 14.5066,-32.2133 25.3866,-32.2133 3.84,0 6.6134,1.4933 11.0934,5.76 z"
         style="font-style:italic;font-variant:normal;font-weight:500;font-stretch:normal;font-size:213.33334351px;line-height:106.34667206px;font-family:'URW Chancery L';-inkscape-font-specification:'URW Chancery L, Medium Italic';font-variant-ligatures:normal;font-variant-caps:normal;font-variant-numeric:normal;font-feature-settings:normal;text-align:start;writing-mode:lr-tb;text-anchor:start;fill:#000078;fill-opacity:1"
         id="path4767" />
      <path
         d="m 1750.5047,1717.1501 c 0.2133,0.2133 0.64,0.4267 1.28,0.64 h 2.1333 c 14.9334,-13.8667 24.32,-26.6667 34.56,-46.9333 14.2934,-28.3734 22.8267,-64.2134 22.8267,-94.9334 0,-12.8 -2.1333,-22.4 -7.68,-35.84 -8.1067,1.7067 -9.3867,2.1333 -13.6533,3.6267 5.5466,16.8533 7.2533,27.7333 7.2533,45.2266 0,24.96 -4.9067,51.2 -14.08,74.0267 -9.3867,23.4667 -18.56,37.3334 -34.9867,52.9067 0.64,0.2133 1.0667,0.64 1.28,0.64 z"
         style="font-style:italic;font-variant:normal;font-weight:500;font-stretch:normal;font-size:213.33334351px;line-height:106.34667206px;font-family:'URW Chancery L';-inkscape-font-specification:'URW Chancery L, Medium Italic';font-variant-ligatures:normal;font-variant-caps:normal;font-variant-numeric:normal;font-feature-settings:normal;text-align:start;writing-mode:lr-tb;text-anchor:start;fill:#000078;fill-opacity:1"
         id="path4769" />
    </g>
  </g>
</svg>
