<?xml version="1.0" encoding="UTF-8" standalone="no"?>
<!-- Created with Inkscape (http://www.inkscape.org/) -->

<svg
   xmlns:dc="http://purl.org/dc/elements/1.1/"
   xmlns:cc="http://creativecommons.org/ns#"
   xmlns:rdf="http://www.w3.org/1999/02/22-rdf-syntax-ns#"
   xmlns:svg="http://www.w3.org/2000/svg"
   xmlns="http://www.w3.org/2000/svg"
   xmlns:sodipodi="http://sodipodi.sourceforge.net/DTD/sodipodi-0.dtd"
   xmlns:inkscape="http://www.inkscape.org/namespaces/inkscape"
   width="210mm"
   height="297mm"
   viewBox="0 0 210 297"
   version="1.1"
   id="svg8"
   inkscape:version="0.92.3 (2405546, 2018-03-11)"
   sodipodi:docname="plume.svg">
  <defs
     id="defs2" />
  <sodipodi:namedview
     id="base"
     pagecolor="#ffffff"
     bordercolor="#666666"
     borderopacity="1.0"
     inkscape:pageopacity="0.0"
     inkscape:pageshadow="2"
     inkscape:zoom="0.7"
     inkscape:cx="376.13386"
     inkscape:cy="599.02292"
     inkscape:document-units="mm"
     inkscape:current-layer="layer1"
     showgrid="false"
     inkscape:window-width="1613"
     inkscape:window-height="995"
     inkscape:window-x="131"
     inkscape:window-y="27"
     inkscape:window-maximized="1" />
  <metadata
     id="metadata5">
    <rdf:RDF>
      <cc:Work
         rdf:about="">
        <dc:format>image/svg+xml</dc:format>
        <dc:type
           rdf:resource="http://purl.org/dc/dcmitype/StillImage" />
        <dc:title></dc:title>
      </cc:Work>
    </rdf:RDF>
  </metadata>
  <g
     inkscape:label="Calque 1"
     inkscape:groupmode="layer"
     id="layer1">
    <rect
       style="opacity:1;fill:#ffff00;fill-opacity:1;fill-rule:evenodd;stroke:none;stroke-width:0.40000001;stroke-linejoin:miter;stroke-miterlimit:4;stroke-dasharray:none;stroke-opacity:1"
       id="rect1992"
       width="207.13094"
       height="119.44047"
       x="7.9375"
       y="80.041664" />
    <path
       id="path1619"
       style="fill:#ffffff;fill-rule:evenodd;stroke:#000000;stroke-width:0.26458332px;stroke-linecap:butt;stroke-linejoin:miter;stroke-opacity:1"
       d="m 17.425504,146.3776 3.389879,1.73677 8.948506,4.01108 13.649767,5.87319 10.937768,4.48392 8.233727,2.79573 10.304522,3.59927 11.733181,3.81849 9.92084,2.30354 12.126026,1.49709 14.32546,0.8397 12.25104,0.18527 12.62663,-1.53802 11.081,-1.84932 9.14796,-3.30735 4.52592,-2.62655 2.96346,-2.34077 1.7646,-2.22352 1.94624,-2.30856 0.93727,-2.57502 1.07869,-2.27211 0.37161,-1.5738 11.35139,-1.90195 8.71166,-1.55549 1.98201,-0.33466 1.69548,-0.79072 1.15869,-0.835 0.55767,-0.70229 0.58568,-1.74776 -0.16073,-1.76824 -0.64531,-1.54201 -1.58185,-1.17916 -1.29573,-0.72282 -1.57419,-0.37198 -3.11617,0.2733 -6.06719,1.06068 -12.02959,1.55406 -3.10671,-4.44908 -4.23656,-4.65969 -4.34651,-3.94531 -4.74223,-2.58049 -5.7998,-2.16098 -5.80008,-2.16141 -7.01112,-1.59645 -10.24418,-1.41593 -16.0213,-1.15508 -21.256476,0.10672 -17.034601,0.93982 -16.999104,2.91343 -16.877814,3.96285 -10.884381,4.48536 -7.601604,3.61861 -5.393772,2.66272 -4.824472,2.61813 -1.474029,1.42438 0.358795,1.08601 z"
       inkscape:connector-curvature="0" />
    <g
       aria-label="GeaiRareLit"
       transform="matrix(0.3909101,0,0,0.3909101,-8.4262327,-22.827041)"
       style="font-style:normal;font-variant:normal;font-weight:normal;font-stretch:normal;font-size:10.66666698px;line-height:100%;font-family:sans-serif;-inkscape-font-specification:'sans-serif, Normal';font-variant-ligatures:normal;font-variant-caps:normal;font-variant-numeric:normal;font-feature-settings:normal;text-align:start;letter-spacing:0px;word-spacing:0px;writing-mode:lr-tb;text-anchor:start;fill:#000000;fill-opacity:1;stroke:none;stroke-width:1px;stroke-linecap:butt;stroke-linejoin:miter;stroke-opacity:1"
       id="flowRoot815">
      <path
         d="m 107.57682,321.85361 q -1.45833,0 -2.5,-1.04167 -1,-1.04167 -1,-2.5 0,-1.45833 1,-2.45833 1.04167,-1.04167 2.5,-1.04167 h 19.66667 q 1.45833,0 2.5,1.04167 1.04167,1 1.04167,2.45833 v 17.66667 q 0,1.45833 -1.04167,2.5 -4.20833,4.66666 -9.95833,7.20833 -5.83334,2.625 -12.20834,2.625 -12.416663,0 -21.166663,-8.79167 -8.791667,-8.79166 -8.791667,-21.20833 0,-12.375 8.791667,-21.16667 8.75,-8.79167 21.166663,-8.79167 5.45834,0 10.58334,1.95834 5.125,1.91667 9.25,5.54167 1.08333,0.95833 1.16666,2.41666 0.0833,1.45834 -0.875,2.54167 -0.95833,1.08333 -2.41666,1.20833 -1.45834,0.0833 -2.54167,-0.875 -3.125,-2.79166 -7.04167,-4.25 -3.875,-1.5 -8.125,-1.5 -9.499996,0 -16.20833,6.70834 -6.708333,6.75 -6.708333,16.20833 0,9.5 6.708333,16.20833 6.708334,6.70834 16.20833,6.70834 4.91667,0 9.33334,-1.95834 3.83333,-1.70833 6.83333,-4.66666 v -12.75 z"
         style="font-style:normal;font-variant:normal;font-weight:normal;font-stretch:normal;font-size:85.33333588px;font-family:'Pesta Stencil Demo';-inkscape-font-specification:'Pesta Stencil Demo, Normal';font-variant-ligatures:normal;font-variant-caps:normal;font-variant-numeric:normal;font-feature-settings:normal;text-align:start;writing-mode:lr-tb;text-anchor:start"
         id="path1954"
         inkscape:connector-curvature="0" />
      <path
         d="m 152.45182,333.35361 q -1.41666,0.33333 -2.66666,-0.41667 -1.20834,-0.79167 -1.54167,-2.20833 -0.33333,-1.41667 0.41667,-2.66667 0.79166,-1.20833 2.20833,-1.54167 l 20.25,-4.79166 q -1.25,-3.125 -3.83333,-5.33334 -3.91667,-3.375 -9.08334,-3.375 -5.875,0 -10,4.16667 -4.125,4.125 -4.125,9.95833 0,5.83334 4.125,9.95834 4.125,4.125 10,4.125 3.29167,0 6.20834,-1.41667 2.95833,-1.45833 4.95833,-4.08333 0.91667,-1.16667 2.33334,-1.33334 1.45833,-0.20833 2.625,0.66667 1.125,0.875 1.33333,2.33333 0.20833,1.45834 -0.70833,2.625 -3,3.91667 -7.41667,6.08334 -4.41667,2.20833 -9.33334,2.20833 -8.79166,0 -14.95833,-6.20833 -6.20833,-6.20834 -6.20833,-14.95834 0,-8.75 6.20833,-14.95833 6.16667,-6.20833 14.95833,-6.20833 7.75001,0 13.66667,5.08333 5.875,5.04167 7.08334,12.75 0.20833,1.375 -0.58334,2.5 -0.75,1.16667 -2.125,1.45833 z"
         style="font-style:normal;font-variant:normal;font-weight:normal;font-stretch:normal;font-size:85.33333588px;font-family:'Pesta Stencil Demo';-inkscape-font-specification:'Pesta Stencil Demo, Normal';font-variant-ligatures:normal;font-variant-caps:normal;font-variant-numeric:normal;font-feature-settings:normal;text-align:start;writing-mode:lr-tb;text-anchor:start"
         id="path1956"
         inkscape:connector-curvature="0" />
      <path
         d="m 225.24349,344.77027 q 0,1.45834 -1,2.5 -1.04167,1.04167 -2.5,1.04167 -1.45833,0 -2.5,-1.04167 -1.04167,-1.04166 -1.04167,-2.5 v -1.875 q -6,5.41667 -14.08333,5.41667 -8.79167,0 -14.95833,-6.20833 -6.20834,-6.20834 -6.20834,-14.95834 0,-8.75 6.20834,-14.95833 6.16666,-6.20833 14.95833,-6.20833 2.58333,0 5.125,0.66666 2.5,0.625 4.83333,1.83334 1.29167,0.70833 1.70834,2.08333 0.41666,1.41667 -0.25,2.70833 -0.70834,1.25 -2.08334,1.66667 -1.41666,0.45833 -2.66666,-0.25 -1.54167,-0.79167 -3.25,-1.25 -1.66667,-0.41667 -3.41667,-0.41667 -5.875,0 -10,4.16667 -4.125,4.125 -4.125,9.95833 0,5.83334 4.125,9.95834 4.125,4.125 10,4.125 5.83333,0 9.95833,-4.125 4.08334,-4.08334 4.125,-9.83334 v -17.75 q 0,-1.45833 1.04167,-2.5 1.04167,-1.04166 2.5,-1.04166 1.45833,0 2.5,1.04166 1,1.04167 1,2.5 z"
         style="font-style:normal;font-variant:normal;font-weight:normal;font-stretch:normal;font-size:85.33333588px;font-family:'Pesta Stencil Demo';-inkscape-font-specification:'Pesta Stencil Demo, Normal';font-variant-ligatures:normal;font-variant-caps:normal;font-variant-numeric:normal;font-feature-settings:normal;text-align:start;writing-mode:lr-tb;text-anchor:start"
         id="path1958"
         inkscape:connector-curvature="0" />
      <path
         d="m 241.41016,344.77027 q 0,1.45834 -1.04167,2.5 -1.04166,1.04167 -2.5,1.04167 -1.45833,0 -2.5,-1.04167 -1.04166,-1.04166 -1.04166,-2.5 v -35.25 q 0,-1.45833 1.04166,-2.5 1.04167,-1.04166 2.5,-1.04166 1.45834,0 2.5,1.04166 1.04167,1.04167 1.04167,2.5 z m -3.45833,-56.41667 q 1.75,0 3,1.29167 1.29167,1.25 1.29167,3.04167 0,1.79167 -1.29167,3.04167 -1.25,1.25 -3,1.25 -1.79167,0 -3.08334,-1.25 -1.25,-1.25 -1.25,-3.04167 0,-1.79167 1.25,-3.04167 1.29167,-1.29167 3.08334,-1.29167 z"
         style="font-style:normal;font-variant:normal;font-weight:normal;font-stretch:normal;font-size:85.33333588px;font-family:'Pesta Stencil Demo';-inkscape-font-specification:'Pesta Stencil Demo, Normal';font-variant-ligatures:normal;font-variant-caps:normal;font-variant-numeric:normal;font-feature-settings:normal;text-align:start;writing-mode:lr-tb;text-anchor:start"
         id="path1960"
         inkscape:connector-curvature="0" />
      <path
         d="m 295.28516,344.77027 q 0,1.45834 -1.04166,2.5 -1.04167,1.04167 -2.5,1.04167 -1.45834,0 -2.5,-1.04167 -1.04167,-1.04166 -1.04167,-2.5 v -5.66666 q 0,-4.04167 -2.83333,-6.875 -2.83334,-2.83334 -6.875,-2.83334 h -19.58334 v 15.375 q 0,1.45834 -1,2.5 -1.04167,1.04167 -2.5,1.04167 -1.45833,0 -2.5,-1.04167 -1.04167,-1.04166 -1.04167,-2.5 v -52.875 q 0,-1.45833 1.04167,-2.5 1.04167,-1.04167 2.5,-1.04167 1.45833,0 2.5,1.04167 1,1.04167 1,2.5 v 30.45834 h 15.625 q 5.33334,0 9.125,-2.33334 3.41667,-2.08333 5.04167,-5.625 1.16667,-2.58333 1.16667,-5.54166 0,-2.91667 -1.16667,-5.5 -1.625,-3.54167 -5.04167,-5.625 -3.79166,-2.33334 -9.125,-2.33334 -2.41666,0 -4.66666,0.625 -2.25,0.58334 -4.16667,1.75 -1.25,0.75 -2.66667,0.375 -1.41666,-0.33333 -2.16666,-1.58333 -0.75,-1.25 -0.41667,-2.66667 0.375,-1.41666 1.625,-2.16666 2.79167,-1.66667 5.95833,-2.50001 3.16667,-0.875 6.5,-0.875 7.58334,0 13.125,3.50001 5,3.20833 7.45834,8.625 1.79166,4 1.79166,8.375 0,4.41666 -1.79166,8.41666 -2.29167,5.08334 -6.83334,8.20834 1.125,0.79166 2.08334,1.75 4.91666,4.91666 4.91666,11.875 z"
         style="font-style:normal;font-variant:normal;font-weight:normal;font-stretch:normal;font-size:85.33333588px;font-family:'Pesta Stencil Demo';-inkscape-font-specification:'Pesta Stencil Demo, Normal';font-variant-ligatures:normal;font-variant-caps:normal;font-variant-numeric:normal;font-feature-settings:normal;text-align:start;writing-mode:lr-tb;text-anchor:start"
         id="path1962"
         inkscape:connector-curvature="0" />
      <path
         d="m 345.07683,344.77027 q 0,1.45834 -1,2.5 -1.04166,1.04167 -2.5,1.04167 -1.45833,0 -2.5,-1.04167 -1.04166,-1.04166 -1.04166,-2.5 v -1.875 q -6,5.41667 -14.08334,5.41667 -8.79166,0 -14.95833,-6.20833 -6.20833,-6.20834 -6.20833,-14.95834 0,-8.75 6.20833,-14.95833 6.16667,-6.20833 14.95833,-6.20833 2.58334,0 5.125,0.66666 2.5,0.625 4.83334,1.83334 1.29166,0.70833 1.70833,2.08333 0.41667,1.41667 -0.25,2.70833 -0.70833,1.25 -2.08333,1.66667 -1.41667,0.45833 -2.66667,-0.25 -1.54167,-0.79167 -3.25,-1.25 -1.66667,-0.41667 -3.41667,-0.41667 -5.875,0 -10,4.16667 -4.125,4.125 -4.125,9.95833 0,5.83334 4.125,9.95834 4.125,4.125 10,4.125 5.83334,0 9.95834,-4.125 4.08333,-4.08334 4.125,-9.83334 v -17.75 q 0,-1.45833 1.04166,-2.5 1.04167,-1.04166 2.5,-1.04166 1.45834,0 2.5,1.04166 1,1.04167 1,2.5 z"
         style="font-style:normal;font-variant:normal;font-weight:normal;font-stretch:normal;font-size:85.33333588px;font-family:'Pesta Stencil Demo';-inkscape-font-specification:'Pesta Stencil Demo, Normal';font-variant-ligatures:normal;font-variant-caps:normal;font-variant-numeric:normal;font-feature-settings:normal;text-align:start;writing-mode:lr-tb;text-anchor:start"
         id="path1964"
         inkscape:connector-curvature="0" />
      <path
         d="m 360.49349,344.77027 q 0,1.45834 -1.04167,2.5 -1,1.04167 -2.45833,1.04167 -1.45833,0 -2.5,-1.04167 -1.04167,-1.04166 -1.04167,-2.5 v -35.25 q 0,-1.45833 1.04167,-2.5 1.04167,-1.04166 2.5,-1.04166 1.45833,0 2.45833,1.04166 1.04167,1.04167 1.04167,2.5 z m 6.625,-30.25 q -1.29167,0.70834 -2.66667,0.33334 -1.41666,-0.375 -2.16666,-1.625 -0.70834,-1.29167 -0.33334,-2.70834 0.41667,-1.375 1.66667,-2.125 2.04167,-1.16666 4.375,-1.79166 2.33333,-0.625 4.70833,-0.625 7.54167,0 12.875,5.375 5.375,5.33333 5.375,12.875 0,1.45833 -1.04166,2.5 -1.04167,1.04166 -2.5,1.04166 -1.45834,0 -2.5,-1.04166 -1.04167,-1.04167 -1.04167,-2.5 0,-4.625 -3.25,-7.91667 -3.29167,-3.29167 -7.91667,-3.29167 -1.54166,0 -2.91666,0.375 -1.375,0.375 -2.66667,1.125 z"
         style="font-style:normal;font-variant:normal;font-weight:normal;font-stretch:normal;font-size:85.33333588px;font-family:'Pesta Stencil Demo';-inkscape-font-specification:'Pesta Stencil Demo, Normal';font-variant-ligatures:normal;font-variant-caps:normal;font-variant-numeric:normal;font-feature-settings:normal;text-align:start;writing-mode:lr-tb;text-anchor:start"
         id="path1966"
         inkscape:connector-curvature="0" />
      <path
         d="m 408.95184,333.35361 q -1.41666,0.33333 -2.66666,-0.41667 -1.20834,-0.79167 -1.54167,-2.20833 -0.33333,-1.41667 0.41667,-2.66667 0.79166,-1.20833 2.20833,-1.54167 l 20.25,-4.79166 q -1.25,-3.125 -3.83333,-5.33334 -3.91667,-3.375 -9.08334,-3.375 -5.875,0 -10,4.16667 -4.125,4.125 -4.125,9.95833 0,5.83334 4.125,9.95834 4.125,4.125 10,4.125 3.29167,0 6.20834,-1.41667 2.95833,-1.45833 4.95833,-4.08333 0.91667,-1.16667 2.33333,-1.33334 1.45834,-0.20833 2.625,0.66667 1.125,0.875 1.33334,2.33333 0.20833,1.45834 -0.70834,2.625 -3,3.91667 -7.41666,6.08334 -4.41667,2.20833 -9.33334,2.20833 -8.79166,0 -14.95833,-6.20833 -6.20833,-6.20834 -6.20833,-14.95834 0,-8.75 6.20833,-14.95833 6.16667,-6.20833 14.95833,-6.20833 7.75,0 13.66667,5.08333 5.875,5.04167 7.08333,12.75 0.20834,1.375 -0.58333,2.5 -0.75,1.16667 -2.125,1.45833 z"
         style="font-style:normal;font-variant:normal;font-weight:normal;font-stretch:normal;font-size:85.33333588px;font-family:'Pesta Stencil Demo';-inkscape-font-specification:'Pesta Stencil Demo, Normal';font-variant-ligatures:normal;font-variant-caps:normal;font-variant-numeric:normal;font-feature-settings:normal;text-align:start;writing-mode:lr-tb;text-anchor:start"
         id="path1968"
         inkscape:connector-curvature="0" />
      <path
         d="m 480.82682,341.22861 q 1.45834,0 2.5,1.04166 1,1.04167 1,2.5 0,1.45834 -1,2.5 -1.04166,1.04167 -2.5,1.04167 h -24.95833 q -1.45833,0 -2.5,-1.04167 -1,-1.04166 -1,-2.5 0,-1.45833 1,-2.5 1.04167,-1.04166 2.5,-1.04166 z m -30.58333,3.54166 q 0,1.45834 -1.04167,2.5 -1,1.04167 -2.45833,1.04167 -1.45833,0 -2.5,-1.04167 -1.04167,-1.04166 -1.04167,-2.5 v -52.875 q 0,-1.45833 1.04167,-2.5 1.04167,-1.04167 2.5,-1.04167 1.45833,0 2.45833,1.04167 1.04167,1.04167 1.04167,2.5 z"
         style="font-style:normal;font-variant:normal;font-weight:normal;font-stretch:normal;font-size:85.33333588px;font-family:'Pesta Stencil Demo';-inkscape-font-specification:'Pesta Stencil Demo, Normal';font-variant-ligatures:normal;font-variant-caps:normal;font-variant-numeric:normal;font-feature-settings:normal;text-align:start;writing-mode:lr-tb;text-anchor:start"
         id="path1970"
         inkscape:connector-curvature="0" />
      <path
         d="m 496.74349,344.77027 q 0,1.45834 -1.04167,2.5 -1.04166,1.04167 -2.5,1.04167 -1.45833,0 -2.5,-1.04167 -1.04166,-1.04166 -1.04166,-2.5 v -35.25 q 0,-1.45833 1.04166,-2.5 1.04167,-1.04166 2.5,-1.04166 1.45834,0 2.5,1.04166 1.04167,1.04167 1.04167,2.5 z m -3.45833,-56.41667 q 1.75,0 3,1.29167 1.29166,1.25 1.29166,3.04167 0,1.79167 -1.29166,3.04167 -1.25,1.25 -3,1.25 -1.79167,0 -3.08334,-1.25 -1.25,-1.25 -1.25,-3.04167 0,-1.79167 1.25,-3.04167 1.29167,-1.29167 3.08334,-1.29167 z"
         style="font-style:normal;font-variant:normal;font-weight:normal;font-stretch:normal;font-size:85.33333588px;font-family:'Pesta Stencil Demo';-inkscape-font-specification:'Pesta Stencil Demo, Normal';font-variant-ligatures:normal;font-variant-caps:normal;font-variant-numeric:normal;font-feature-settings:normal;text-align:start;writing-mode:lr-tb;text-anchor:start"
         id="path1972"
         inkscape:connector-curvature="0" />
      <path
         d="m 518.32682,313.02027 q -1.45833,0 -2.5,-1 -1.04166,-1.04166 -1.04166,-2.5 0,-1.45833 1.04166,-2.5 1.04167,-1.04166 2.5,-1.04166 h 10.625 q 1.45834,0 2.5,1.04166 1.04167,1.04167 1.04167,2.5 0,1.45834 -1.04167,2.5 -1.04166,1 -2.5,1 z m 11.04167,26.95834 q 1.29167,-0.66667 2.66667,-0.20834 1.41666,0.45834 2.08333,1.75 0.66667,1.29167 0.20833,2.66667 -0.45833,1.375 -1.75,2.04167 -1.91666,1 -4.04166,1.54166 -2.16667,0.54167 -4.33334,0.54167 -7.54166,0 -12.91666,-5.375 -5.33334,-5.33333 -5.33334,-12.875 v -38.16667 q 0,-1.45833 1.04167,-2.5 1.04167,-1.04167 2.5,-1.04167 1.45833,0 2.45833,1.04167 1.04167,1.04167 1.04167,2.5 v 38.16667 q 0,4.625 3.29167,7.91667 3.29166,3.25 7.91666,3.25 1.41667,0 2.66667,-0.29167 1.29167,-0.29167 2.5,-0.95833 z"
         style="font-style:normal;font-variant:normal;font-weight:normal;font-stretch:normal;font-size:85.33333588px;font-family:'Pesta Stencil Demo';-inkscape-font-specification:'Pesta Stencil Demo, Normal';font-variant-ligatures:normal;font-variant-caps:normal;font-variant-numeric:normal;font-feature-settings:normal;text-align:start;writing-mode:lr-tb;text-anchor:start"
         id="path1974"
         inkscape:connector-curvature="0" />
    </g>
    <path
       id="path1621"
       style="fill:#008000;fill-rule:evenodd;stroke:#000000;stroke-width:0.26458332px;stroke-linecap:butt;stroke-linejoin:miter;stroke-opacity:1"
       d="m 19.089963,142.90002 4.959665,2.82129 9.23857,4.31806 9.831674,4.48356 9.52141,3.81739 9.916452,3.55909 6.69207,2.33496 10.437857,3.09537 7.834336,2.09744 4.932248,1.0911 9.287595,1.41961 8.40839,0.79771 9.27148,0.91094 11.18149,-0.0533 5.74823,-0.3212 2.91049,-0.39865 7.38301,-1.08343 5.83337,-1.24606 3.87954,-0.85029 5.78878,-1.81462 4.20295,-1.73862 3.39496,-1.73092 1.958,-1.65079 1.70388,-2.19576 1.29247,-2.44565 0.90476,-2.48626 0.45306,-2.34885 0.1754,-5.31594 -0.62522,-2.28854 -1.65379,-2.91526 -2.36456,-3.17355 -2.40114,-2.93528 -2.71167,-2.49537 -3.44653,-1.85774 -4.86798,-2.37515 -4.11268,-1.54679 -3.73734,-1.05898 -7.49157,-1.5201 -10.01438,-1.08087 -9.36869,-0.64423 -12.76404,-0.0201 -7.32644,0.0986 -10.438599,0.22325 -7.273803,0.36906 -9.353331,0.97018 -3.419133,0.41469 -9.421272,1.29688 -8.837015,1.76125 -7.306326,1.56432 -6.160781,2.2831 -6.010939,2.28668 -5.050693,2.13399 -7.88038,3.96976 z"
       inkscape:connector-curvature="0" />
    <path
       id="path1598"
       style="fill:#000000;fill-rule:evenodd;stroke:#000000;stroke-width:0.26458332px;stroke-linecap:butt;stroke-linejoin:miter;stroke-opacity:1"
       d="m 19.597892,144.43546 0.479392,0.24553 5.166139,-0.32376 7.786848,-0.29451 5.831159,0.0957 4.895373,0.32414 -1.193415,1.12985 -1.644329,1.39294 -1.878801,2.23129 -0.925169,1.36958 -0.359963,0.79327 0.276215,0.70522 0.565305,0.20575 0.75933,0.0629 1.039238,-0.90178 0.813795,-1.16089 1.813569,-2.14891 2.554879,-2.23414 2.403671,-1.32931 15.530176,0.99499 7.851878,1.18684 -6.52359,5.12705 -7.988152,6.12313 0.0059,0.57077 0.339435,0.72824 0.62232,0.43954 1.010388,0.15459 1.316173,-0.97861 7.408636,-5.80085 7.714103,-6.15163 16.200345,1.98601 -3.42312,3.05552 -4.493793,3.55542 -4.747744,3.56891 -6.251766,3.69758 -0.265632,0.43666 -0.01163,0.42242 0.136718,0.40558 0.219597,0.47105 0.582038,0.35406 0.953767,-0.0794 4.022401,-2.55346 6.077801,-4.29394 5.553088,-4.41377 4.782088,-4.05493 15.478297,1.33191 -1.72761,2.89112 -2.07038,3.05044 -2.82386,3.55833 -3.30036,3.98951 -2.675549,2.75955 -1.975761,1.91143 -0.251427,0.69062 0.276284,0.70524 0.536761,0.47978 0.973092,-0.0368 0.993899,-0.77615 4.419971,-4.71957 4.49673,-5.22458 3.67814,-5.41683 2.27285,-3.51017 10.74042,0.67422 -2.35689,7.35491 -1.94542,5.44241 -1.57051,3.3391 -1.47365,2.87684 -0.47427,1.1072 0.0683,0.5938 0.23965,0.51376 0.43664,0.26567 0.87044,-0.14532 0.70814,-0.38219 0.44887,-0.93905 2.62473,-5.55088 2.08795,-5.24799 2.08866,-6.03072 0.88534,-3.01932 8.89114,0.28502 7.43527,0.18193 6.67929,0.0135 -0.53201,2.43725 -1.22558,3.85577 -1.60489,3.82436 -1.54239,3.06467 -1.99909,2.75701 -1.48762,1.84055 -0.2909,0.6051 0.23389,0.72495 0.76486,0.63392 1.08745,-0.35081 1.00231,-1.09296 2.53302,-3.73518 1.69916,-3.39903 1.7682,-4.36916 1.33702,-4.06445 0.72574,-2.57977 12.18525,-0.36502 -0.78639,3.23385 -0.96832,2.95396 -0.86822,2.38609 -1.36224,2.6682 -1.75613,2.38248 -1.22478,1.50989 0.008,0.46519 0.21959,0.471 0.4114,0.43413 0.40198,-0.0311 0.96214,-0.39648 0.95644,-0.96778 1.67325,-2.44857 1.53033,-2.64262 0.99976,-2.55127 1.11963,-3.07673 0.75127,-2.74857 0.42611,-1.65823 9.87037,-0.74471 7.70137,-1.03705 9.63648,-1.46963 7.84058,-1.51902 0.47976,-0.53674 -0.23362,-0.72506 -0.24245,-0.40795 -0.55942,-0.41693 -1.99769,0.41034 -9.32304,1.58439 -8.87174,1.32167 -6.06247,0.63765 -11.93382,0.45564 -7.36079,-11.42483 -7.17512,-11.2509 -0.83062,-0.55131 -0.67635,0.003 -0.42825,0.19953 -0.17965,0.39691 0.0228,0.71912 0.33946,0.72831 13.77151,21.26007 -5.18625,0.28104 -16.4806,-0.239 -6.66253,-8.36234 -5.7804,-8.14822 -4.5705,-6.00071 -2.62546,-2.94629 -0.58794,-0.14281 -0.59673,0.17356 -0.43692,0.51612 -2.2e-4,0.78232 0.27902,0.59934 2.90753,3.44032 4.39692,6.18671 3.83202,5.19867 4.49341,5.72414 2.01453,2.86659 -10.91764,-0.38297 -5.85483,-6.96662 -6.3117,-6.49221 -4.93663,-4.99661 -4.14043,-3.95991 -2.14274,-2.02438 -0.57679,-0.56545 -0.970186,-0.0691 -0.451118,0.26274 -0.30508,0.35118 -0.02021,0.73919 0.487911,0.71071 1.092943,1.00228 3.07309,2.7895 3.55833,3.60584 5.92696,5.89034 3.44651,3.81411 2.89622,3.08113 1.91728,2.54653 -9.66719,-0.49697 -5.81983,-0.5182 -3.17869,-2.79279 -3.527291,-3.20355 -3.749437,-3.56892 -4.065903,-4.35969 -3.067234,-3.78265 -2.553846,-3.24083 -1.169296,-2.0609 -0.502828,-0.18266 -0.696456,-0.0402 -0.536623,0.30176 -0.308676,0.45654 0.04541,0.65627 0.538962,1.15652 1.971726,2.88599 3.212297,3.87151 4.175135,4.25702 4.379739,4.47407 5.053601,4.57711 -6.285013,-0.51011 -9.438859,-1.12436 -3.700485,-4.58256 -5.635683,-6.49516 -4.930056,-5.98975 -1.572364,-2.02986 -0.753474,-0.274 -0.976049,0.14201 -0.463007,0.68512 0.171393,0.70193 0.339557,0.72823 4.282926,4.93627 4.710414,5.51878 4.970249,6.07532 -7.123591,-0.74431 -12.05336,-1.36518 -7.866841,-9.15602 -2.807462,-3.22616 -0.773575,-0.31679 -0.702365,0.17087 -0.305084,0.35116 -0.148996,0.79913 0.273698,0.81085 2.085366,2.57207 5.313031,5.91594 1.261124,1.80978 -3.710325,-0.3552 -6.92155,-0.42167 -9.136297,-0.58795 -7.272703,0.0552 -8.377324,0.25725 -4.258815,0.36959 -0.628134,0.55361 -2.87e-4,0.78232 z"
       inkscape:connector-curvature="0" />
  </g>
</svg>
